M48
; DRILL file {KiCad 5.1.9+dfsg1-1+deb11u1} date Fri Sep 11 21:56:43 2026
; FORMAT={-:-/ absolute / metric / decimal}
; #@! TF.CreationDate,2026-09-11T21:56:43-03:00
; #@! TF.GenerationSoftware,Kicad,Pcbnew,5.1.9+dfsg1-1+deb11u1
; #@! TF.FileFunction,Plated,1,4,PTH
FMAT,2
METRIC
T1C30.000
T2C40.000
T3C60.000
T4C100.000
T5C190.000
T6C450.000
%
G90
G05
T1
X1400.0Y-1400.0
X1400.0Y-2200.0
X1400.0Y-3000.0
X1400.0Y-3800.0
X1400.0Y-4600.0
X1400.0Y-5400.0
X1400.0Y-6200.0
X1400.0Y-7000.0
X1400.0Y-7800.0
X1400.0Y-8600.0
X1400.0Y-9400.0
X1400.0Y-10200.0
X1400.0Y-11000.0
X1400.0Y-11800.0
X1400.0Y-12600.0
X1400.0Y-13400.0
X1400.0Y-14200.0
X1400.0Y-15000.0
X1400.0Y-15800.0
X2000.0Y-8600.0
X2200.0Y-1400.0
X2200.0Y-2200.0
X2200.0Y-3000.0
X2200.0Y-3800.0
X2200.0Y-4600.0
X2200.0Y-5400.0
X2200.0Y-6200.0
X2200.0Y-7000.0
X2200.0Y-7800.0
X2200.0Y-8600.0
X2200.0Y-9400.0
X2200.0Y-10200.0
X2200.0Y-11000.0
X2200.0Y-11800.0
X2200.0Y-12600.0
X2200.0Y-13400.0
X2200.0Y-14200.0
X2200.0Y-15000.0
X2200.0Y-15800.0
X2400.0Y-13000.0
X2800.0Y-11200.0
X3000.0Y-1400.0
X3000.0Y-2200.0
X3000.0Y-3000.0
X3000.0Y-3800.0
X3000.0Y-4600.0
X3000.0Y-5400.0
X3000.0Y-6200.0
X3000.0Y-7000.0
X3000.0Y-7800.0
X3000.0Y-8600.0
X3000.0Y-9400.0
X3000.0Y-10200.0
X3000.0Y-11000.0
X3000.0Y-11800.0
X3000.0Y-12600.0
X3000.0Y-13400.0
X3000.0Y-14200.0
X3000.0Y-15000.0
X3000.0Y-15800.0
X3400.0Y-8600.0
X3800.0Y-1400.0
X3800.0Y-2200.0
X3800.0Y-3000.0
X3800.0Y-3800.0
X3800.0Y-4600.0
X3800.0Y-5400.0
X3800.0Y-6200.0
X3800.0Y-7000.0
X3800.0Y-7800.0
X3800.0Y-8600.0
X3800.0Y-9400.0
X3800.0Y-10200.0
X3800.0Y-11000.0
X3800.0Y-11800.0
X3800.0Y-12600.0
X3800.0Y-13400.0
X3800.0Y-14200.0
X3800.0Y-15000.0
X3800.0Y-15800.0
X4600.0Y-1400.0
X4600.0Y-2200.0
X4600.0Y-3000.0
X4600.0Y-3800.0
X4600.0Y-4600.0
X4600.0Y-5400.0
X4600.0Y-6200.0
X4600.0Y-7000.0
X4600.0Y-7800.0
X4600.0Y-8600.0
X4600.0Y-9400.0
X4600.0Y-10200.0
X4600.0Y-11000.0
X4600.0Y-11200.0
X4600.0Y-11800.0
X4600.0Y-12600.0
X4600.0Y-13400.0
X4600.0Y-14200.0
X4600.0Y-15000.0
X4600.0Y-15800.0
X4800.0Y-8600.0
X5400.0Y-1400.0
X5400.0Y-2200.0
X5400.0Y-3000.0
X5400.0Y-3800.0
X5400.0Y-4600.0
X5400.0Y-5400.0
X5400.0Y-6200.0
X5400.0Y-7000.0
X5400.0Y-7800.0
X5400.0Y-8600.0
X5400.0Y-9400.0
X5400.0Y-10200.0
X5400.0Y-11000.0
X5400.0Y-11800.0
X5400.0Y-12600.0
X5400.0Y-13400.0
X5400.0Y-14200.0
X5400.0Y-15000.0
X5400.0Y-15800.0
X6200.0Y-1400.0
X6200.0Y-2200.0
X6200.0Y-3000.0
X6200.0Y-3800.0
X6200.0Y-4600.0
X6200.0Y-5400.0
X6200.0Y-6200.0
X6200.0Y-7000.0
X6200.0Y-7800.0
X6200.0Y-8600.0
X6200.0Y-9400.0
X6200.0Y-10200.0
X6200.0Y-11000.0
X6200.0Y-11800.0
X6200.0Y-12600.0
X6200.0Y-13400.0
X6200.0Y-14200.0
X6200.0Y-15000.0
X6200.0Y-15800.0
X7000.0Y-1400.0
X7000.0Y-2200.0
X7000.0Y-3000.0
X7000.0Y-3800.0
X7000.0Y-4600.0
X7000.0Y-5400.0
X7000.0Y-6200.0
X7000.0Y-7000.0
X7000.0Y-7800.0
X7000.0Y-8600.0
X7000.0Y-9400.0
X7000.0Y-10200.0
X7000.0Y-11000.0
X7000.0Y-11800.0
X7000.0Y-12600.0
X7000.0Y-13400.0
X7000.0Y-14200.0
X7000.0Y-15000.0
X7000.0Y-15800.0
X7800.0Y-1400.0
X7800.0Y-2200.0
X7800.0Y-3000.0
X7800.0Y-3800.0
X7800.0Y-4600.0
X7800.0Y-5400.0
X7800.0Y-6200.0
X7800.0Y-7000.0
X7800.0Y-7800.0
X7800.0Y-8600.0
X7800.0Y-9400.0
X7800.0Y-10200.0
X7800.0Y-11000.0
X7800.0Y-11800.0
X7800.0Y-12600.0
X7800.0Y-13400.0
X7800.0Y-14200.0
X7800.0Y-15000.0
X7800.0Y-15800.0
X8600.0Y-1400.0
X8600.0Y-2200.0
X8600.0Y-3000.0
X8600.0Y-3800.0
X8600.0Y-4600.0
X8600.0Y-5400.0
X8600.0Y-6200.0
X8600.0Y-7000.0
X8600.0Y-7800.0
X8600.0Y-8600.0
X8600.0Y-9400.0
X8600.0Y-10200.0
X8600.0Y-11000.0
X8600.0Y-11800.0
X8600.0Y-12600.0
X8600.0Y-13400.0
X8600.0Y-14200.0
X8600.0Y-15000.0
X8600.0Y-15800.0
X9200.0Y-2600.0
X9200.0Y-6300.0
X9200.0Y-7000.0
X9200.0Y-10700.0
X9200.0Y-11400.0
X9200.0Y-15100.0
X9400.0Y-1400.0
X9400.0Y-2200.0
X9400.0Y-3000.0
X9400.0Y-3800.0
X9400.0Y-4600.0
X9400.0Y-5400.0
X9400.0Y-6200.0
X9400.0Y-7000.0
X9400.0Y-7800.0
X9400.0Y-8600.0
X9400.0Y-9400.0
X9400.0Y-10200.0
X9400.0Y-11000.0
X9400.0Y-11800.0
X9400.0Y-12600.0
X9400.0Y-13400.0
X9400.0Y-14200.0
X9400.0Y-15000.0
X9400.0Y-15800.0
X10200.0Y-1400.0
X10200.0Y-2200.0
X10200.0Y-3000.0
X10200.0Y-3800.0
X10200.0Y-4600.0
X10200.0Y-5400.0
X10200.0Y-6200.0
X10200.0Y-7000.0
X10200.0Y-7800.0
X10200.0Y-8600.0
X10200.0Y-9400.0
X10200.0Y-10200.0
X10200.0Y-11000.0
X10200.0Y-11800.0
X10200.0Y-12600.0
X10200.0Y-13400.0
X10200.0Y-14200.0
X10200.0Y-15000.0
X10200.0Y-15800.0
X11000.0Y-1400.0
X11000.0Y-2200.0
X11000.0Y-3000.0
X11000.0Y-3800.0
X11000.0Y-4600.0
X11000.0Y-5400.0
X11000.0Y-6200.0
X11000.0Y-7000.0
X11000.0Y-7800.0
X11000.0Y-8600.0
X11000.0Y-9400.0
X11000.0Y-10200.0
X11000.0Y-11000.0
X11000.0Y-11800.0
X11000.0Y-12600.0
X11000.0Y-13400.0
X11000.0Y-14200.0
X11000.0Y-15000.0
X11000.0Y-15800.0
X11800.0Y-1400.0
X11800.0Y-2200.0
X11800.0Y-3000.0
X11800.0Y-3800.0
X11800.0Y-4600.0
X11800.0Y-5400.0
X11800.0Y-6200.0
X11800.0Y-7000.0
X11800.0Y-7800.0
X11800.0Y-8600.0
X11800.0Y-9400.0
X11800.0Y-10200.0
X11800.0Y-11000.0
X11800.0Y-11800.0
X11800.0Y-12600.0
X11800.0Y-13400.0
X11800.0Y-14200.0
X11800.0Y-15000.0
X11800.0Y-15800.0
X12600.0Y-1400.0
X12600.0Y-2200.0
X12600.0Y-3000.0
X12600.0Y-3800.0
X12600.0Y-4600.0
X12600.0Y-5400.0
X12600.0Y-6200.0
X12600.0Y-7000.0
X12600.0Y-7800.0
X12600.0Y-8600.0
X12600.0Y-9400.0
X12600.0Y-10200.0
X12600.0Y-11000.0
X12600.0Y-11800.0
X12600.0Y-12600.0
X12600.0Y-13400.0
X12600.0Y-14200.0
X12600.0Y-15000.0
X12600.0Y-15800.0
X13000.0Y-2600.0
X13000.0Y-6300.0
X13000.0Y-7000.0
X13000.0Y-10700.0
X13000.0Y-11400.0
X13000.0Y-15100.0
X13400.0Y-1400.0
X13400.0Y-2200.0
X13400.0Y-3000.0
X13400.0Y-3800.0
X13400.0Y-4600.0
X13400.0Y-5400.0
X13400.0Y-6200.0
X13400.0Y-7000.0
X13400.0Y-7800.0
X13400.0Y-8600.0
X13400.0Y-9400.0
X13400.0Y-10200.0
X13400.0Y-11000.0
X13400.0Y-11800.0
X13400.0Y-12600.0
X13400.0Y-13400.0
X13400.0Y-14200.0
X13400.0Y-15000.0
X13400.0Y-15800.0
X14200.0Y-1400.0
X14200.0Y-2200.0
X14200.0Y-3000.0
X14200.0Y-3800.0
X14200.0Y-4600.0
X14200.0Y-5400.0
X14200.0Y-6200.0
X14200.0Y-7000.0
X14200.0Y-7800.0
X14200.0Y-8600.0
X14200.0Y-9400.0
X14200.0Y-10200.0
X14200.0Y-11000.0
X14200.0Y-11800.0
X14200.0Y-12600.0
X14200.0Y-13400.0
X14200.0Y-14200.0
X14200.0Y-15000.0
X14200.0Y-15800.0
X15000.0Y-1400.0
X15000.0Y-2200.0
X15000.0Y-3000.0
X15000.0Y-3800.0
X15000.0Y-4600.0
X15000.0Y-5400.0
X15000.0Y-6200.0
X15000.0Y-7000.0
X15000.0Y-7800.0
X15000.0Y-8600.0
X15000.0Y-9400.0
X15000.0Y-10200.0
X15000.0Y-11000.0
X15000.0Y-11800.0
X15000.0Y-12600.0
X15000.0Y-13400.0
X15000.0Y-14200.0
X15000.0Y-15000.0
X15000.0Y-15800.0
X15800.0Y-1400.0
X15800.0Y-2200.0
X15800.0Y-3000.0
X15800.0Y-3800.0
X15800.0Y-4600.0
X15800.0Y-5400.0
X15800.0Y-6200.0
X15800.0Y-7000.0
X15800.0Y-7800.0
X15800.0Y-8600.0
X15800.0Y-9400.0
X15800.0Y-10200.0
X15800.0Y-11000.0
X15800.0Y-11800.0
X15800.0Y-12600.0
X15800.0Y-13400.0
X15800.0Y-14200.0
X15800.0Y-15000.0
X15800.0Y-15800.0
X16600.0Y-1400.0
X16600.0Y-2200.0
X16600.0Y-3000.0
X16600.0Y-3800.0
X16600.0Y-4600.0
X16600.0Y-5400.0
X16600.0Y-6200.0
X16600.0Y-7000.0
X16600.0Y-7800.0
X16600.0Y-8600.0
X16600.0Y-9400.0
X16600.0Y-10200.0
X16600.0Y-11000.0
X16600.0Y-11800.0
X16600.0Y-12600.0
X16600.0Y-13400.0
X16600.0Y-14200.0
X16600.0Y-15000.0
X16600.0Y-15800.0
X16800.0Y-2600.0
X16800.0Y-6300.0
X16800.0Y-7000.0
X16800.0Y-10700.0
X16800.0Y-11400.0
X16800.0Y-15100.0
X17400.0Y-1400.0
X17400.0Y-2200.0
X17400.0Y-3000.0
X17400.0Y-3800.0
X17400.0Y-4600.0
X17400.0Y-5400.0
X17400.0Y-6200.0
X17400.0Y-7000.0
X17400.0Y-7800.0
X17400.0Y-8600.0
X17400.0Y-9400.0
X17400.0Y-10200.0
X17400.0Y-11000.0
X17400.0Y-11800.0
X17400.0Y-12600.0
X17400.0Y-13400.0
X17400.0Y-14200.0
X17400.0Y-15000.0
X17400.0Y-15800.0
X18200.0Y-1400.0
X18200.0Y-2200.0
X18200.0Y-3000.0
X18200.0Y-3800.0
X18200.0Y-4600.0
X18200.0Y-5400.0
X18200.0Y-6200.0
X18200.0Y-7000.0
X18200.0Y-7800.0
X18200.0Y-8600.0
X18200.0Y-9400.0
X18200.0Y-10200.0
X18200.0Y-11000.0
X18200.0Y-11800.0
X18200.0Y-12600.0
X18200.0Y-13400.0
X18200.0Y-14200.0
X18200.0Y-15000.0
X18200.0Y-15800.0
X19000.0Y-1400.0
X19000.0Y-2200.0
X19000.0Y-3000.0
X19000.0Y-3800.0
X19000.0Y-4600.0
X19000.0Y-5400.0
X19000.0Y-6200.0
X19000.0Y-7000.0
X19000.0Y-7800.0
X19000.0Y-8600.0
X19000.0Y-9400.0
X19000.0Y-10200.0
X19000.0Y-11000.0
X19000.0Y-11800.0
X19000.0Y-12600.0
X19000.0Y-13400.0
X19000.0Y-14200.0
X19000.0Y-15000.0
X19000.0Y-15800.0
X19800.0Y-1400.0
X19800.0Y-2200.0
X19800.0Y-3000.0
X19800.0Y-3800.0
X19800.0Y-4600.0
X19800.0Y-5400.0
X19800.0Y-6200.0
X19800.0Y-7000.0
X19800.0Y-7800.0
X19800.0Y-8600.0
X19800.0Y-9400.0
X19800.0Y-10200.0
X19800.0Y-11000.0
X19800.0Y-11800.0
X19800.0Y-12600.0
X19800.0Y-13400.0
X19800.0Y-14200.0
X19800.0Y-15000.0
X19800.0Y-15800.0
X20600.0Y-1400.0
X20600.0Y-2200.0
X20600.0Y-2600.0
X20600.0Y-3000.0
X20600.0Y-3800.0
X20600.0Y-4600.0
X20600.0Y-5400.0
X20600.0Y-6200.0
X20600.0Y-6300.0
X20600.0Y-7000.0
X20600.0Y-7000.0
X20600.0Y-7800.0
X20600.0Y-8600.0
X20600.0Y-9400.0
X20600.0Y-10200.0
X20600.0Y-10700.0
X20600.0Y-11000.0
X20600.0Y-11400.0
X20600.0Y-11800.0
X20600.0Y-12600.0
X20600.0Y-13400.0
X20600.0Y-14200.0
X20600.0Y-15000.0
X20600.0Y-15100.0
X20600.0Y-15800.0
X21400.0Y-1400.0
X21400.0Y-2200.0
X21400.0Y-3000.0
X21400.0Y-3800.0
X21400.0Y-4600.0
X21400.0Y-5400.0
X21400.0Y-6200.0
X21400.0Y-7000.0
X21400.0Y-7800.0
X21400.0Y-8600.0
X21400.0Y-9400.0
X21400.0Y-10200.0
X21400.0Y-11000.0
X21400.0Y-11800.0
X21400.0Y-12600.0
X21400.0Y-13400.0
X21400.0Y-14200.0
X21400.0Y-15000.0
X21400.0Y-15800.0
X22200.0Y-1400.0
X22200.0Y-2200.0
X22200.0Y-3000.0
X22200.0Y-3800.0
X22200.0Y-4600.0
X22200.0Y-5400.0
X22200.0Y-6200.0
X22200.0Y-7000.0
X22200.0Y-7800.0
X22200.0Y-8600.0
X22200.0Y-9400.0
X22200.0Y-10200.0
X22200.0Y-11000.0
X22200.0Y-11800.0
X22200.0Y-12600.0
X22200.0Y-13400.0
X22200.0Y-14200.0
X22200.0Y-15000.0
X22200.0Y-15800.0
T2
X3005.0Y-2265.0
X3005.0Y-2400.0
X3090.0Y-2265.0
X3090.0Y-2400.0
X3175.0Y-2265.0
X3175.0Y-2400.0
X3260.0Y-2265.0
X3260.0Y-2400.0
X3345.0Y-2265.0
X3345.0Y-2400.0
X3430.0Y-2265.0
X3430.0Y-2400.0
X3515.0Y-2265.0
X3515.0Y-2400.0
X3600.0Y-2265.0
X3600.0Y-2400.0
T4
X7000.0Y-900.0
X8300.0Y-900.0
X10800.0Y-900.0
X12100.0Y-900.0
X14600.0Y-900.0
X15900.0Y-900.0
X18400.0Y-900.0
X19700.0Y-900.0
T5
X7300.0Y-1400.0
X7650.0Y-1400.0
X8000.0Y-1400.0
X11100.0Y-1400.0
X11450.0Y-1400.0
X11800.0Y-1400.0
X14900.0Y-1400.0
X15250.0Y-1400.0
X15600.0Y-1400.0
X18700.0Y-1400.0
X19050.0Y-1400.0
X19400.0Y-1400.0
T6
X3000.0Y-13600.0
X3720.0Y-13600.0
T3
G00X2870.0Y-2004.0
M15
G01X2870.0Y-1924.0
M16
G05
G00X2870.0Y-2377.0
M15
G01X2870.0Y-2227.0
M16
G05
G00X3735.0Y-2004.0
M15
G01X3735.0Y-1924.0
M16
G05
G00X3735.0Y-2377.0
M15
G01X3735.0Y-2227.0
M16
G05
T0
M30
