G04 #@! TF.GenerationSoftware,KiCad,Pcbnew,5.1.9+dfsg1-1+deb11u1*
G04 #@! TF.CreationDate,2026-09-11T22:33:21-03:00*
G04 #@! TF.ProjectId,,58585858-5858-4585-9858-585858585858,rev?*
G04 #@! TF.SameCoordinates,Original*
G04 #@! TF.FileFunction,Copper,L4,Bot*
G04 #@! TF.FilePolarity,Positive*
%FSLAX46Y46*%
G04 Gerber Fmt 4.6, Leading zero omitted, Abs format (unit mm)*
G04 Created by KiCad (PCBNEW 5.1.9+dfsg1-1+deb11u1) date 2026-09-11 22:33:21*
%MOMM*%
%LPD*%
G01*
G04 APERTURE LIST*
G04 #@! TA.AperFunction,Profile*
%ADD10C,0.100000*%
G04 #@! TD*
G04 #@! TA.AperFunction,ComponentPad*
%ADD11O,0.900000X1.700000*%
G04 #@! TD*
G04 #@! TA.AperFunction,ComponentPad*
%ADD12O,0.900000X2.400000*%
G04 #@! TD*
G04 #@! TA.AperFunction,ComponentPad*
%ADD13C,0.700000*%
G04 #@! TD*
G04 #@! TA.AperFunction,ComponentPad*
%ADD14O,3.800000X5.300000*%
G04 #@! TD*
G04 #@! TA.AperFunction,ComponentPad*
%ADD15O,3.800000X5.500000*%
G04 #@! TD*
G04 #@! TA.AperFunction,ComponentPad*
%ADD16C,6.000000*%
G04 #@! TD*
G04 #@! TA.AperFunction,ComponentPad*
%ADD17C,3.000000*%
G04 #@! TD*
G04 #@! TA.AperFunction,ComponentPad*
%ADD18R,3.000000X3.000000*%
G04 #@! TD*
G04 #@! TA.AperFunction,ComponentPad*
%ADD19C,1.400000*%
G04 #@! TD*
G04 #@! TA.AperFunction,ViaPad*
%ADD20C,1.000000*%
G04 #@! TD*
G04 #@! TA.AperFunction,ViaPad*
%ADD21C,1.200000*%
G04 #@! TD*
G04 #@! TA.AperFunction,ViaPad*
%ADD22C,0.600000*%
G04 #@! TD*
G04 #@! TA.AperFunction,Conductor*
%ADD23C,4.000000*%
G04 #@! TD*
G04 #@! TA.AperFunction,Conductor*
%ADD24C,2.000000*%
G04 #@! TD*
G04 #@! TA.AperFunction,Conductor*
%ADD25C,0.254000*%
G04 #@! TD*
G04 #@! TA.AperFunction,Conductor*
%ADD26C,0.150000*%
G04 #@! TD*
%ADD27C,0.350000*%
%ADD28C,0.300000*%
%ADD29O,0.600000X1.400000*%
%ADD30O,0.600000X2.100000*%
%ADD31O,2.000000X3.500000*%
G04 APERTURE END LIST*
D10*
X10000000Y-10000000D02*
X230000000Y-10000000D01*
X230000000Y-10000000D02*
X230000000Y-170000000D01*
X230000000Y-170000000D02*
X10000000Y-170000000D01*
X10000000Y-170000000D02*
X10000000Y-10000000D01*
D11*
G04 #@! TO.P,J2,S1*
G04 #@! TO.N,GND*
X28700000Y-19640000D03*
X37350000Y-19640000D03*
D12*
X28700000Y-23020000D03*
X37350000Y-23020000D03*
D13*
G04 #@! TO.P,J2,B6*
G04 #@! TO.N,USB_DP*
X32600000Y-22650000D03*
G04 #@! TO.P,J2,B1*
G04 #@! TO.N,GND*
X30050000Y-22650000D03*
G04 #@! TO.P,J2,B4*
G04 #@! TO.N,VBUS_USB*
X30900000Y-22650000D03*
G04 #@! TO.P,J2,B5*
G04 #@! TO.N,CC2*
X31750000Y-22650000D03*
G04 #@! TO.P,J2,B12*
G04 #@! TO.N,GND*
X36000000Y-22650000D03*
G04 #@! TO.P,J2,B8*
G04 #@! TO.N,N/C*
X34300000Y-22650000D03*
G04 #@! TO.P,J2,B7*
G04 #@! TO.N,USB_DM*
X33450000Y-22650000D03*
G04 #@! TO.P,J2,B9*
G04 #@! TO.N,VBUS_USB*
X35150000Y-22650000D03*
G04 #@! TO.P,J2,A12*
G04 #@! TO.N,GND*
X30050000Y-24000000D03*
G04 #@! TO.P,J2,A9*
G04 #@! TO.N,VBUS_USB*
X30900000Y-24000000D03*
G04 #@! TO.P,J2,A8*
G04 #@! TO.N,N/C*
X31750000Y-24000000D03*
G04 #@! TO.P,J2,A7*
G04 #@! TO.N,USB_DM*
X32600000Y-24000000D03*
G04 #@! TO.P,J2,A6*
G04 #@! TO.N,USB_DP*
X33450000Y-24000000D03*
G04 #@! TO.P,J2,A5*
G04 #@! TO.N,CC1*
X34300000Y-24000000D03*
G04 #@! TO.P,J2,A4*
G04 #@! TO.N,VBUS_USB*
X35150000Y-24000000D03*
G04 #@! TO.P,J2,A1*
G04 #@! TO.N,GND*
X36000000Y-24000000D03*
G04 #@! TD*
D14*
G04 #@! TO.P,F1,2*
G04 #@! TO.N,VBAT_F*
X16000000Y-118000000D03*
D15*
G04 #@! TO.P,F1,1*
G04 #@! TO.N,VBAT*
X16000000Y-126000000D03*
G04 #@! TD*
G04 #@! TO.P,J1,1*
G04 #@! TO.N,VBAT*
G04 #@! TA.AperFunction,ComponentPad*
G36*
G01*
X27000000Y-137500000D02*
X27000000Y-134500000D01*
G75*
G02*
X28500000Y-133000000I1500000J0D01*
G01*
X31500000Y-133000000D01*
G75*
G02*
X33000000Y-134500000I0J-1500000D01*
G01*
X33000000Y-137500000D01*
G75*
G02*
X31500000Y-139000000I-1500000J0D01*
G01*
X28500000Y-139000000D01*
G75*
G02*
X27000000Y-137500000I0J1500000D01*
G01*
G37*
G04 #@! TD.AperFunction*
D16*
G04 #@! TO.P,J1,2*
G04 #@! TO.N,GND*
X37200000Y-136000000D03*
G04 #@! TD*
D17*
G04 #@! TO.P,J_M4,3*
G04 #@! TO.N,PHM403*
X187000000Y-14000000D03*
G04 #@! TO.P,J_M4,2*
G04 #@! TO.N,PHM402*
X190500000Y-14000000D03*
D18*
G04 #@! TO.P,J_M4,1*
G04 #@! TO.N,PHM401*
X194000000Y-14000000D03*
D19*
G04 #@! TO.P,J_M4,*
G04 #@! TO.N,*
X184000000Y-9000000D03*
X197000000Y-9000000D03*
G04 #@! TD*
D17*
G04 #@! TO.P,J_M3,3*
G04 #@! TO.N,PHM303*
X149000000Y-14000000D03*
G04 #@! TO.P,J_M3,2*
G04 #@! TO.N,PHM302*
X152500000Y-14000000D03*
D18*
G04 #@! TO.P,J_M3,1*
G04 #@! TO.N,PHM301*
X156000000Y-14000000D03*
D19*
G04 #@! TO.P,J_M3,*
G04 #@! TO.N,*
X146000000Y-9000000D03*
X159000000Y-9000000D03*
G04 #@! TD*
D17*
G04 #@! TO.P,J_M2,3*
G04 #@! TO.N,PHM203*
X111000000Y-14000000D03*
G04 #@! TO.P,J_M2,2*
G04 #@! TO.N,PHM202*
X114500000Y-14000000D03*
D18*
G04 #@! TO.P,J_M2,1*
G04 #@! TO.N,PHM201*
X118000000Y-14000000D03*
D19*
G04 #@! TO.P,J_M2,*
G04 #@! TO.N,*
X108000000Y-9000000D03*
X121000000Y-9000000D03*
G04 #@! TD*
D17*
G04 #@! TO.P,J_M1,3*
G04 #@! TO.N,PHM103*
X73000000Y-14000000D03*
G04 #@! TO.P,J_M1,2*
G04 #@! TO.N,PHM102*
X76500000Y-14000000D03*
D18*
G04 #@! TO.P,J_M1,1*
G04 #@! TO.N,PHM101*
X80000000Y-14000000D03*
D19*
G04 #@! TO.P,J_M1,*
G04 #@! TO.N,*
X70000000Y-9000000D03*
X83000000Y-9000000D03*
G04 #@! TD*
D20*
G04 #@! TO.N,VBAT_PROT*
X92000000Y-26000000D03*
X92000000Y-70000000D03*
X92000000Y-114000000D03*
X130000000Y-26000000D03*
X130000000Y-70000000D03*
X130000000Y-114000000D03*
X168000000Y-26000000D03*
X168000000Y-70000000D03*
X168000000Y-114000000D03*
X206000000Y-26000000D03*
X206000000Y-70000000D03*
X206000000Y-114000000D03*
D21*
X44000000Y-106000000D03*
X44000000Y-108000000D03*
X44000000Y-110000000D03*
X46000000Y-106000000D03*
X46000000Y-108000000D03*
X46000000Y-110000000D03*
X48000000Y-106000000D03*
X48000000Y-108000000D03*
X48000000Y-110000000D03*
D20*
G04 #@! TO.N,GND*
X92000000Y-63000000D03*
X92000000Y-107000000D03*
X92000000Y-151000000D03*
X130000000Y-63000000D03*
X130000000Y-107000000D03*
X130000000Y-151000000D03*
X168000000Y-63000000D03*
X168000000Y-107000000D03*
X168000000Y-151000000D03*
X206000000Y-63000000D03*
X206000000Y-107000000D03*
X206000000Y-151000000D03*
D22*
X22000000Y-14000000D03*
X30000000Y-14000000D03*
X38000000Y-14000000D03*
X46000000Y-14000000D03*
X54000000Y-14000000D03*
X62000000Y-14000000D03*
X70000000Y-14000000D03*
X94000000Y-14000000D03*
X102000000Y-14000000D03*
X134000000Y-14000000D03*
X142000000Y-14000000D03*
X174000000Y-14000000D03*
X182000000Y-14000000D03*
X206000000Y-14000000D03*
X214000000Y-14000000D03*
X222000000Y-14000000D03*
X14000000Y-22000000D03*
X62000000Y-22000000D03*
X70000000Y-22000000D03*
X78000000Y-22000000D03*
X94000000Y-22000000D03*
X102000000Y-22000000D03*
X110000000Y-22000000D03*
X134000000Y-22000000D03*
X142000000Y-22000000D03*
X150000000Y-22000000D03*
X174000000Y-22000000D03*
X182000000Y-22000000D03*
X190000000Y-22000000D03*
X214000000Y-22000000D03*
X222000000Y-22000000D03*
X14000000Y-30000000D03*
X22000000Y-30000000D03*
X30000000Y-30000000D03*
X38000000Y-30000000D03*
X46000000Y-30000000D03*
X62000000Y-30000000D03*
X70000000Y-30000000D03*
X78000000Y-30000000D03*
X110000000Y-30000000D03*
X134000000Y-30000000D03*
X142000000Y-30000000D03*
X150000000Y-30000000D03*
X182000000Y-30000000D03*
X190000000Y-30000000D03*
X222000000Y-30000000D03*
X14000000Y-38000000D03*
X22000000Y-38000000D03*
X46000000Y-38000000D03*
X54000000Y-38000000D03*
X62000000Y-38000000D03*
X70000000Y-38000000D03*
X78000000Y-38000000D03*
X110000000Y-38000000D03*
X142000000Y-38000000D03*
X182000000Y-38000000D03*
X190000000Y-38000000D03*
X222000000Y-38000000D03*
X14000000Y-46000000D03*
X46000000Y-46000000D03*
X54000000Y-46000000D03*
X62000000Y-46000000D03*
X150000000Y-46000000D03*
X182000000Y-46000000D03*
X214000000Y-46000000D03*
X222000000Y-46000000D03*
X14000000Y-54000000D03*
X22000000Y-54000000D03*
X46000000Y-54000000D03*
X54000000Y-54000000D03*
X62000000Y-54000000D03*
X70000000Y-54000000D03*
X102000000Y-54000000D03*
X110000000Y-54000000D03*
X134000000Y-54000000D03*
X142000000Y-54000000D03*
X150000000Y-54000000D03*
X174000000Y-54000000D03*
X182000000Y-54000000D03*
X214000000Y-54000000D03*
X222000000Y-54000000D03*
X14000000Y-62000000D03*
X46000000Y-62000000D03*
X54000000Y-62000000D03*
X62000000Y-62000000D03*
X70000000Y-62000000D03*
X78000000Y-62000000D03*
X102000000Y-62000000D03*
X110000000Y-62000000D03*
X134000000Y-62000000D03*
X142000000Y-62000000D03*
X150000000Y-62000000D03*
X174000000Y-62000000D03*
X182000000Y-62000000D03*
X190000000Y-62000000D03*
X214000000Y-62000000D03*
X222000000Y-62000000D03*
X14000000Y-70000000D03*
X46000000Y-70000000D03*
X54000000Y-70000000D03*
X62000000Y-70000000D03*
X70000000Y-70000000D03*
X78000000Y-70000000D03*
X110000000Y-70000000D03*
X134000000Y-70000000D03*
X142000000Y-70000000D03*
X150000000Y-70000000D03*
X182000000Y-70000000D03*
X190000000Y-70000000D03*
X222000000Y-70000000D03*
X14000000Y-78000000D03*
X22000000Y-78000000D03*
X30000000Y-78000000D03*
X38000000Y-78000000D03*
X46000000Y-78000000D03*
X78000000Y-78000000D03*
X94000000Y-78000000D03*
X102000000Y-78000000D03*
X134000000Y-78000000D03*
X166000000Y-78000000D03*
X174000000Y-78000000D03*
X182000000Y-78000000D03*
X206000000Y-78000000D03*
X222000000Y-78000000D03*
X14000000Y-86000000D03*
X22000000Y-86000000D03*
X30000000Y-86000000D03*
X38000000Y-86000000D03*
X46000000Y-86000000D03*
X54000000Y-86000000D03*
X62000000Y-86000000D03*
X134000000Y-86000000D03*
X142000000Y-86000000D03*
X150000000Y-86000000D03*
X182000000Y-86000000D03*
X222000000Y-86000000D03*
X14000000Y-94000000D03*
X54000000Y-94000000D03*
X62000000Y-94000000D03*
X70000000Y-94000000D03*
X78000000Y-94000000D03*
X110000000Y-94000000D03*
X150000000Y-94000000D03*
X182000000Y-94000000D03*
X190000000Y-94000000D03*
X214000000Y-94000000D03*
X222000000Y-94000000D03*
X14000000Y-102000000D03*
X54000000Y-102000000D03*
X78000000Y-102000000D03*
X86000000Y-102000000D03*
X102000000Y-102000000D03*
X110000000Y-102000000D03*
X126000000Y-102000000D03*
X134000000Y-102000000D03*
X142000000Y-102000000D03*
X150000000Y-102000000D03*
X166000000Y-102000000D03*
X174000000Y-102000000D03*
X182000000Y-102000000D03*
X190000000Y-102000000D03*
X206000000Y-102000000D03*
X214000000Y-102000000D03*
X222000000Y-102000000D03*
X14000000Y-110000000D03*
X30000000Y-110000000D03*
X38000000Y-110000000D03*
X46000000Y-110000000D03*
X54000000Y-110000000D03*
X62000000Y-110000000D03*
X70000000Y-110000000D03*
X78000000Y-110000000D03*
X86000000Y-110000000D03*
X94000000Y-110000000D03*
X102000000Y-110000000D03*
X110000000Y-110000000D03*
X126000000Y-110000000D03*
X134000000Y-110000000D03*
X142000000Y-110000000D03*
X150000000Y-110000000D03*
X166000000Y-110000000D03*
X174000000Y-110000000D03*
X182000000Y-110000000D03*
X190000000Y-110000000D03*
X206000000Y-110000000D03*
X214000000Y-110000000D03*
X222000000Y-110000000D03*
X22000000Y-118000000D03*
X30000000Y-118000000D03*
X54000000Y-118000000D03*
X62000000Y-118000000D03*
X70000000Y-118000000D03*
X78000000Y-118000000D03*
X86000000Y-118000000D03*
X110000000Y-118000000D03*
X126000000Y-118000000D03*
X134000000Y-118000000D03*
X142000000Y-118000000D03*
X150000000Y-118000000D03*
X182000000Y-118000000D03*
X190000000Y-118000000D03*
X222000000Y-118000000D03*
X22000000Y-126000000D03*
X30000000Y-126000000D03*
X38000000Y-126000000D03*
X46000000Y-126000000D03*
X54000000Y-126000000D03*
X62000000Y-126000000D03*
X70000000Y-126000000D03*
X78000000Y-126000000D03*
X110000000Y-126000000D03*
X142000000Y-126000000D03*
X182000000Y-126000000D03*
X190000000Y-126000000D03*
X222000000Y-126000000D03*
X14000000Y-134000000D03*
X22000000Y-134000000D03*
X46000000Y-134000000D03*
X54000000Y-134000000D03*
X62000000Y-134000000D03*
X86000000Y-134000000D03*
X118000000Y-134000000D03*
X126000000Y-134000000D03*
X150000000Y-134000000D03*
X158000000Y-134000000D03*
X182000000Y-134000000D03*
X198000000Y-134000000D03*
X214000000Y-134000000D03*
X222000000Y-134000000D03*
X14000000Y-142000000D03*
X22000000Y-142000000D03*
X38000000Y-142000000D03*
X46000000Y-142000000D03*
X70000000Y-142000000D03*
X86000000Y-142000000D03*
X102000000Y-142000000D03*
X110000000Y-142000000D03*
X126000000Y-142000000D03*
X134000000Y-142000000D03*
X142000000Y-142000000D03*
X150000000Y-142000000D03*
X158000000Y-142000000D03*
X174000000Y-142000000D03*
X182000000Y-142000000D03*
X198000000Y-142000000D03*
X214000000Y-142000000D03*
X222000000Y-142000000D03*
X22000000Y-150000000D03*
X38000000Y-150000000D03*
X46000000Y-150000000D03*
X70000000Y-150000000D03*
X78000000Y-150000000D03*
X86000000Y-150000000D03*
X102000000Y-150000000D03*
X110000000Y-150000000D03*
X118000000Y-150000000D03*
X126000000Y-150000000D03*
X134000000Y-150000000D03*
X142000000Y-150000000D03*
X150000000Y-150000000D03*
X158000000Y-150000000D03*
X174000000Y-150000000D03*
X182000000Y-150000000D03*
X190000000Y-150000000D03*
X198000000Y-150000000D03*
X214000000Y-150000000D03*
X222000000Y-150000000D03*
X14000000Y-158000000D03*
X38000000Y-158000000D03*
X46000000Y-158000000D03*
X62000000Y-158000000D03*
X70000000Y-158000000D03*
X94000000Y-158000000D03*
X102000000Y-158000000D03*
X110000000Y-158000000D03*
X126000000Y-158000000D03*
X134000000Y-158000000D03*
X142000000Y-158000000D03*
X166000000Y-158000000D03*
X174000000Y-158000000D03*
X182000000Y-158000000D03*
X206000000Y-158000000D03*
X214000000Y-158000000D03*
X222000000Y-158000000D03*
D21*
G04 #@! TO.N,PHM101*
X92000000Y-40000000D03*
X92000000Y-42500000D03*
X92000000Y-45000000D03*
G04 #@! TO.N,PHM102*
X92000000Y-84000000D03*
X92000000Y-86500000D03*
X92000000Y-89000000D03*
G04 #@! TO.N,PHM103*
X92000000Y-128000000D03*
X92000000Y-130500000D03*
X92000000Y-133000000D03*
G04 #@! TO.N,PHM201*
X130000000Y-40000000D03*
X130000000Y-42500000D03*
X130000000Y-45000000D03*
G04 #@! TO.N,PHM202*
X130000000Y-84000000D03*
X130000000Y-86500000D03*
X130000000Y-89000000D03*
G04 #@! TO.N,PHM203*
X130000000Y-128000000D03*
X130000000Y-130500000D03*
X130000000Y-133000000D03*
G04 #@! TO.N,PHM301*
X168000000Y-40000000D03*
X168000000Y-42500000D03*
X168000000Y-45000000D03*
G04 #@! TO.N,PHM302*
X168000000Y-84000000D03*
X168000000Y-86500000D03*
X168000000Y-89000000D03*
G04 #@! TO.N,PHM303*
X168000000Y-128000000D03*
X168000000Y-130500000D03*
X168000000Y-133000000D03*
G04 #@! TO.N,PHM401*
X206000000Y-40000000D03*
X206000000Y-42500000D03*
X206000000Y-45000000D03*
G04 #@! TO.N,PHM402*
X206000000Y-84000000D03*
X206000000Y-86500000D03*
X206000000Y-89000000D03*
G04 #@! TO.N,PHM403*
X206000000Y-128000000D03*
X206000000Y-130500000D03*
X206000000Y-133000000D03*
G04 #@! TD*
D23*
G04 #@! TO.N,PHM101*
X92000000Y-42500000D02*
X91200000Y-42500000D01*
X91200000Y-42500000D02*
X91200000Y-26000000D01*
X91200000Y-26000000D02*
X91200000Y-21000000D01*
D24*
X91200000Y-21000000D02*
X91200000Y-15600000D01*
X91200000Y-15600000D02*
X80000000Y-14000000D01*
D23*
G04 #@! TO.N,PHM102*
X92000000Y-86500000D02*
X86600000Y-86500000D01*
X86600000Y-86500000D02*
X86600000Y-26000000D01*
X86600000Y-26000000D02*
X86600000Y-21000000D01*
D24*
X86600000Y-21000000D02*
X86600000Y-15600000D01*
X86600000Y-15600000D02*
X76500000Y-14000000D01*
D23*
G04 #@! TO.N,PHM103*
X92000000Y-130500000D02*
X82000000Y-130500000D01*
X82000000Y-130500000D02*
X82000000Y-26000000D01*
X82000000Y-26000000D02*
X82000000Y-21000000D01*
D24*
X82000000Y-21000000D02*
X82000000Y-15600000D01*
X82000000Y-15600000D02*
X73000000Y-14000000D01*
D23*
G04 #@! TO.N,PHM201*
X130000000Y-42500000D02*
X129199999Y-42500000D01*
X129199999Y-42500000D02*
X129199999Y-26000000D01*
X129199999Y-26000000D02*
X129199999Y-21000000D01*
D24*
X129199999Y-21000000D02*
X129199999Y-15600000D01*
X129199999Y-15600000D02*
X118000000Y-14000000D01*
D23*
G04 #@! TO.N,PHM202*
X130000000Y-86500000D02*
X124600000Y-86500000D01*
X124600000Y-86500000D02*
X124600000Y-26000000D01*
X124600000Y-26000000D02*
X124600000Y-21000000D01*
D24*
X124600000Y-21000000D02*
X124600000Y-15600000D01*
X124600000Y-15600000D02*
X114500000Y-14000000D01*
D23*
G04 #@! TO.N,PHM203*
X130000000Y-130500000D02*
X120000000Y-130500000D01*
X120000000Y-130500000D02*
X120000000Y-26000000D01*
X120000000Y-26000000D02*
X120000000Y-21000000D01*
D24*
X120000000Y-21000000D02*
X120000000Y-15600000D01*
X120000000Y-15600000D02*
X111000000Y-14000000D01*
D23*
G04 #@! TO.N,PHM301*
X168000000Y-42500000D02*
X167200000Y-42500000D01*
X167200000Y-42500000D02*
X167200000Y-26000000D01*
X167200000Y-26000000D02*
X167200000Y-21000000D01*
D24*
X167200000Y-21000000D02*
X167200000Y-15600000D01*
X167200000Y-15600000D02*
X156000000Y-14000000D01*
D23*
G04 #@! TO.N,PHM302*
X168000000Y-86500000D02*
X162600000Y-86500000D01*
X162600000Y-86500000D02*
X162600000Y-26000000D01*
X162600000Y-26000000D02*
X162600000Y-21000000D01*
D24*
X162600000Y-21000000D02*
X162600000Y-15600000D01*
X162600000Y-15600000D02*
X152500000Y-14000000D01*
D23*
G04 #@! TO.N,PHM303*
X168000000Y-130500000D02*
X158000000Y-130500000D01*
X158000000Y-130500000D02*
X158000000Y-26000000D01*
X158000000Y-26000000D02*
X158000000Y-21000000D01*
D24*
X158000000Y-21000000D02*
X158000000Y-15600000D01*
X158000000Y-15600000D02*
X149000000Y-14000000D01*
D23*
G04 #@! TO.N,PHM401*
X206000000Y-42500000D02*
X205200000Y-42500000D01*
X205200000Y-42500000D02*
X205200000Y-26000000D01*
X205200000Y-26000000D02*
X205200000Y-21000000D01*
D24*
X205200000Y-21000000D02*
X205200000Y-15600000D01*
X205200000Y-15600000D02*
X194000000Y-14000000D01*
D23*
G04 #@! TO.N,PHM402*
X206000000Y-86500000D02*
X200600000Y-86500000D01*
X200600000Y-86500000D02*
X200600000Y-26000000D01*
X200600000Y-26000000D02*
X200600000Y-21000000D01*
D24*
X200600000Y-21000000D02*
X200600000Y-15600000D01*
X200600000Y-15600000D02*
X190500000Y-14000000D01*
D23*
G04 #@! TO.N,PHM403*
X206000000Y-130500000D02*
X196000000Y-130500000D01*
X196000000Y-130500000D02*
X196000000Y-26000000D01*
X196000000Y-26000000D02*
X196000000Y-21000000D01*
D24*
X196000000Y-21000000D02*
X196000000Y-15600000D01*
X196000000Y-15600000D02*
X187000000Y-14000000D01*
G04 #@! TD*
D25*
G04 #@! TO.N,GND*
X228873000Y-168873000D02*
X11127000Y-168873000D01*
X11127000Y-165790509D01*
X11873000Y-165790509D01*
X11873000Y-166209491D01*
X11954739Y-166620423D01*
X12115077Y-167007512D01*
X12347851Y-167355884D01*
X12644116Y-167652149D01*
X12992488Y-167884923D01*
X13379577Y-168045261D01*
X13790509Y-168127000D01*
X14209491Y-168127000D01*
X14620423Y-168045261D01*
X15007512Y-167884923D01*
X15355884Y-167652149D01*
X15652149Y-167355884D01*
X15884923Y-167007512D01*
X16045261Y-166620423D01*
X16127000Y-166209491D01*
X16127000Y-165790509D01*
X223873000Y-165790509D01*
X223873000Y-166209491D01*
X223954739Y-166620423D01*
X224115077Y-167007512D01*
X224347851Y-167355884D01*
X224644116Y-167652149D01*
X224992488Y-167884923D01*
X225379577Y-168045261D01*
X225790509Y-168127000D01*
X226209491Y-168127000D01*
X226620423Y-168045261D01*
X227007512Y-167884923D01*
X227355884Y-167652149D01*
X227652149Y-167355884D01*
X227884923Y-167007512D01*
X228045261Y-166620423D01*
X228127000Y-166209491D01*
X228127000Y-165790509D01*
X228045261Y-165379577D01*
X227884923Y-164992488D01*
X227652149Y-164644116D01*
X227355884Y-164347851D01*
X227007512Y-164115077D01*
X226620423Y-163954739D01*
X226209491Y-163873000D01*
X225790509Y-163873000D01*
X225379577Y-163954739D01*
X224992488Y-164115077D01*
X224644116Y-164347851D01*
X224347851Y-164644116D01*
X224115077Y-164992488D01*
X223954739Y-165379577D01*
X223873000Y-165790509D01*
X16127000Y-165790509D01*
X16045261Y-165379577D01*
X15884923Y-164992488D01*
X15652149Y-164644116D01*
X15355884Y-164347851D01*
X15007512Y-164115077D01*
X14620423Y-163954739D01*
X14209491Y-163873000D01*
X13790509Y-163873000D01*
X13379577Y-163954739D01*
X12992488Y-164115077D01*
X12644116Y-164347851D01*
X12347851Y-164644116D01*
X12115077Y-164992488D01*
X11954739Y-165379577D01*
X11873000Y-165790509D01*
X11127000Y-165790509D01*
X11127000Y-134500000D01*
X26470451Y-134500000D01*
X26470451Y-137500000D01*
X26509448Y-137895945D01*
X26624941Y-138276675D01*
X26812492Y-138627557D01*
X27064892Y-138935108D01*
X27372443Y-139187508D01*
X27723325Y-139375059D01*
X28104055Y-139490552D01*
X28500000Y-139529549D01*
X31500000Y-139529549D01*
X31895945Y-139490552D01*
X32276675Y-139375059D01*
X32627557Y-139187508D01*
X32935108Y-138935108D01*
X33187508Y-138627557D01*
X33224320Y-138558686D01*
X34820919Y-138558686D01*
X35157106Y-139027868D01*
X35787068Y-139368237D01*
X36471327Y-139579166D01*
X37183589Y-139652550D01*
X37896482Y-139585569D01*
X38582609Y-139380796D01*
X39215603Y-139046102D01*
X39242894Y-139027868D01*
X39579081Y-138558686D01*
X37200000Y-136179605D01*
X34820919Y-138558686D01*
X33224320Y-138558686D01*
X33375059Y-138276675D01*
X33490552Y-137895945D01*
X33529549Y-137500000D01*
X33529549Y-135983589D01*
X33547450Y-135983589D01*
X33614431Y-136696482D01*
X33819204Y-137382609D01*
X34153898Y-138015603D01*
X34172132Y-138042894D01*
X34641314Y-138379081D01*
X37020395Y-136000000D01*
X37379605Y-136000000D01*
X39758686Y-138379081D01*
X40227868Y-138042894D01*
X40568237Y-137412932D01*
X40779166Y-136728673D01*
X40852550Y-136016411D01*
X40785569Y-135303518D01*
X40580796Y-134617391D01*
X40246102Y-133984397D01*
X40227868Y-133957106D01*
X39758686Y-133620919D01*
X37379605Y-136000000D01*
X37020395Y-136000000D01*
X34641314Y-133620919D01*
X34172132Y-133957106D01*
X33831763Y-134587068D01*
X33620834Y-135271327D01*
X33547450Y-135983589D01*
X33529549Y-135983589D01*
X33529549Y-134500000D01*
X33490552Y-134104055D01*
X33375059Y-133723325D01*
X33224321Y-133441314D01*
X34820919Y-133441314D01*
X37200000Y-135820395D01*
X39579081Y-133441314D01*
X39242894Y-132972132D01*
X38612932Y-132631763D01*
X37928673Y-132420834D01*
X37216411Y-132347450D01*
X36503518Y-132414431D01*
X35817391Y-132619204D01*
X35184397Y-132953898D01*
X35157106Y-132972132D01*
X34820919Y-133441314D01*
X33224321Y-133441314D01*
X33187508Y-133372443D01*
X32935108Y-133064892D01*
X32627557Y-132812492D01*
X32276675Y-132624941D01*
X31895945Y-132509448D01*
X31500000Y-132470451D01*
X28500000Y-132470451D01*
X28104055Y-132509448D01*
X27723325Y-132624941D01*
X27372443Y-132812492D01*
X27064892Y-133064892D01*
X26812492Y-133372443D01*
X26624941Y-133723325D01*
X26509448Y-134104055D01*
X26470451Y-134500000D01*
X11127000Y-134500000D01*
X11127000Y-125030773D01*
X13573000Y-125030773D01*
X13573000Y-126969228D01*
X13608117Y-127325775D01*
X13746895Y-127783267D01*
X13972260Y-128204893D01*
X14275549Y-128574452D01*
X14645108Y-128877741D01*
X15066734Y-129103105D01*
X15524226Y-129241883D01*
X16000000Y-129288743D01*
X16475775Y-129241883D01*
X16933267Y-129103105D01*
X17354893Y-128877741D01*
X17724452Y-128574452D01*
X18027741Y-128204893D01*
X18253105Y-127783267D01*
X18391883Y-127325775D01*
X18427000Y-126969227D01*
X18427000Y-125030772D01*
X18391883Y-124674225D01*
X18253105Y-124216733D01*
X18027741Y-123795107D01*
X17724452Y-123425548D01*
X17354892Y-123122259D01*
X16933266Y-122896895D01*
X16475774Y-122758117D01*
X16000000Y-122711257D01*
X15524225Y-122758117D01*
X15066733Y-122896895D01*
X14645107Y-123122259D01*
X14275548Y-123425548D01*
X13972259Y-123795108D01*
X13746895Y-124216734D01*
X13608117Y-124674226D01*
X13573000Y-125030773D01*
X11127000Y-125030773D01*
X11127000Y-117130773D01*
X13573000Y-117130773D01*
X13573000Y-118869228D01*
X13608117Y-119225775D01*
X13746895Y-119683267D01*
X13972260Y-120104893D01*
X14275549Y-120474452D01*
X14645108Y-120777741D01*
X15066734Y-121003105D01*
X15524226Y-121141883D01*
X16000000Y-121188743D01*
X16475775Y-121141883D01*
X16933267Y-121003105D01*
X17354893Y-120777741D01*
X17724452Y-120474452D01*
X18027741Y-120104893D01*
X18253105Y-119683267D01*
X18391883Y-119225774D01*
X18427000Y-118869227D01*
X18427000Y-117130772D01*
X18391883Y-116774225D01*
X18253105Y-116316733D01*
X18027741Y-115895107D01*
X17724452Y-115525548D01*
X17354892Y-115222259D01*
X16933266Y-114996895D01*
X16475774Y-114858117D01*
X16000000Y-114811257D01*
X15524225Y-114858117D01*
X15066733Y-114996895D01*
X14645107Y-115222259D01*
X14275548Y-115525548D01*
X13972259Y-115895108D01*
X13746895Y-116316734D01*
X13608117Y-116774226D01*
X13573000Y-117130773D01*
X11127000Y-117130773D01*
X11127000Y-105889000D01*
X42873000Y-105889000D01*
X42873000Y-106111000D01*
X42916310Y-106328734D01*
X43001266Y-106533835D01*
X43124602Y-106718421D01*
X43281579Y-106875398D01*
X43466165Y-106998734D01*
X43469221Y-107000000D01*
X43466165Y-107001266D01*
X43281579Y-107124602D01*
X43124602Y-107281579D01*
X43001266Y-107466165D01*
X42916310Y-107671266D01*
X42873000Y-107889000D01*
X42873000Y-108111000D01*
X42916310Y-108328734D01*
X43001266Y-108533835D01*
X43124602Y-108718421D01*
X43281579Y-108875398D01*
X43466165Y-108998734D01*
X43469221Y-109000000D01*
X43466165Y-109001266D01*
X43281579Y-109124602D01*
X43124602Y-109281579D01*
X43001266Y-109466165D01*
X42916310Y-109671266D01*
X42873000Y-109889000D01*
X42873000Y-110111000D01*
X42916310Y-110328734D01*
X43001266Y-110533835D01*
X43124602Y-110718421D01*
X43281579Y-110875398D01*
X43466165Y-110998734D01*
X43671266Y-111083690D01*
X43889000Y-111127000D01*
X44111000Y-111127000D01*
X44328734Y-111083690D01*
X44533835Y-110998734D01*
X44718421Y-110875398D01*
X44875398Y-110718421D01*
X44998734Y-110533835D01*
X45000000Y-110530779D01*
X45001266Y-110533835D01*
X45124602Y-110718421D01*
X45281579Y-110875398D01*
X45466165Y-110998734D01*
X45671266Y-111083690D01*
X45889000Y-111127000D01*
X46111000Y-111127000D01*
X46328734Y-111083690D01*
X46533835Y-110998734D01*
X46718421Y-110875398D01*
X46875398Y-110718421D01*
X46998734Y-110533835D01*
X47000000Y-110530779D01*
X47001266Y-110533835D01*
X47124602Y-110718421D01*
X47281579Y-110875398D01*
X47466165Y-110998734D01*
X47671266Y-111083690D01*
X47889000Y-111127000D01*
X48111000Y-111127000D01*
X48328734Y-111083690D01*
X48533835Y-110998734D01*
X48718421Y-110875398D01*
X48875398Y-110718421D01*
X48998734Y-110533835D01*
X49083690Y-110328734D01*
X49127000Y-110111000D01*
X49127000Y-109889000D01*
X49083690Y-109671266D01*
X48998734Y-109466165D01*
X48875398Y-109281579D01*
X48718421Y-109124602D01*
X48533835Y-109001266D01*
X48530779Y-109000000D01*
X48533835Y-108998734D01*
X48718421Y-108875398D01*
X48875398Y-108718421D01*
X48998734Y-108533835D01*
X49083690Y-108328734D01*
X49127000Y-108111000D01*
X49127000Y-107889000D01*
X49083690Y-107671266D01*
X48998734Y-107466165D01*
X48875398Y-107281579D01*
X48718421Y-107124602D01*
X48533835Y-107001266D01*
X48530779Y-107000000D01*
X48533835Y-106998734D01*
X48718421Y-106875398D01*
X48875398Y-106718421D01*
X48998734Y-106533835D01*
X49083690Y-106328734D01*
X49127000Y-106111000D01*
X49127000Y-105889000D01*
X49083690Y-105671266D01*
X48998734Y-105466165D01*
X48875398Y-105281579D01*
X48718421Y-105124602D01*
X48533835Y-105001266D01*
X48328734Y-104916310D01*
X48111000Y-104873000D01*
X47889000Y-104873000D01*
X47671266Y-104916310D01*
X47466165Y-105001266D01*
X47281579Y-105124602D01*
X47124602Y-105281579D01*
X47001266Y-105466165D01*
X47000000Y-105469221D01*
X46998734Y-105466165D01*
X46875398Y-105281579D01*
X46718421Y-105124602D01*
X46533835Y-105001266D01*
X46328734Y-104916310D01*
X46111000Y-104873000D01*
X45889000Y-104873000D01*
X45671266Y-104916310D01*
X45466165Y-105001266D01*
X45281579Y-105124602D01*
X45124602Y-105281579D01*
X45001266Y-105466165D01*
X45000000Y-105469221D01*
X44998734Y-105466165D01*
X44875398Y-105281579D01*
X44718421Y-105124602D01*
X44533835Y-105001266D01*
X44328734Y-104916310D01*
X44111000Y-104873000D01*
X43889000Y-104873000D01*
X43671266Y-104916310D01*
X43466165Y-105001266D01*
X43281579Y-105124602D01*
X43124602Y-105281579D01*
X43001266Y-105466165D01*
X42916310Y-105671266D01*
X42873000Y-105889000D01*
X11127000Y-105889000D01*
X11127000Y-23147000D01*
X27615000Y-23147000D01*
X27615000Y-23897000D01*
X27660624Y-24106233D01*
X27746191Y-24302545D01*
X27868413Y-24478391D01*
X28022592Y-24627014D01*
X28202803Y-24742702D01*
X28405999Y-24814408D01*
X28573000Y-24687502D01*
X28573000Y-23147000D01*
X27615000Y-23147000D01*
X11127000Y-23147000D01*
X11127000Y-22143000D01*
X27615000Y-22143000D01*
X27615000Y-22893000D01*
X28573000Y-22893000D01*
X28573000Y-21352498D01*
X28827000Y-21352498D01*
X28827000Y-22893000D01*
X29093537Y-22893000D01*
X29100368Y-22928989D01*
X29173043Y-23108893D01*
X29181233Y-23124216D01*
X29379480Y-23140912D01*
X29373392Y-23147000D01*
X28827000Y-23147000D01*
X28827000Y-24687502D01*
X28994001Y-24814408D01*
X29197197Y-24742702D01*
X29377408Y-24627014D01*
X29531587Y-24478391D01*
X29653809Y-24302545D01*
X29720225Y-24150170D01*
X29870395Y-24000000D01*
X29856253Y-23985858D01*
X30035858Y-23806253D01*
X30042947Y-23813342D01*
X30023000Y-23913623D01*
X30023000Y-24086377D01*
X30042947Y-24186658D01*
X29559088Y-24670517D01*
X29575784Y-24868767D01*
X29754384Y-24944589D01*
X29944344Y-24984110D01*
X30138364Y-24985813D01*
X30328989Y-24949632D01*
X30508893Y-24876957D01*
X30524216Y-24868767D01*
X30530333Y-24796136D01*
X30644189Y-24843297D01*
X30813623Y-24877000D01*
X30986377Y-24877000D01*
X31155811Y-24843297D01*
X31315415Y-24777187D01*
X31325000Y-24770783D01*
X31334585Y-24777187D01*
X31494189Y-24843297D01*
X31663623Y-24877000D01*
X31836377Y-24877000D01*
X32005811Y-24843297D01*
X32165415Y-24777187D01*
X32175000Y-24770783D01*
X32184585Y-24777187D01*
X32344189Y-24843297D01*
X32513623Y-24877000D01*
X32686377Y-24877000D01*
X32855811Y-24843297D01*
X33015415Y-24777187D01*
X33025000Y-24770783D01*
X33034585Y-24777187D01*
X33194189Y-24843297D01*
X33363623Y-24877000D01*
X33536377Y-24877000D01*
X33705811Y-24843297D01*
X33865415Y-24777187D01*
X33875000Y-24770783D01*
X33884585Y-24777187D01*
X34044189Y-24843297D01*
X34213623Y-24877000D01*
X34386377Y-24877000D01*
X34555811Y-24843297D01*
X34715415Y-24777187D01*
X34725000Y-24770783D01*
X34734585Y-24777187D01*
X34894189Y-24843297D01*
X35063623Y-24877000D01*
X35236377Y-24877000D01*
X35405811Y-24843297D01*
X35519667Y-24796136D01*
X35525784Y-24868767D01*
X35704384Y-24944589D01*
X35894344Y-24984110D01*
X36088364Y-24985813D01*
X36278989Y-24949632D01*
X36458893Y-24876957D01*
X36474216Y-24868767D01*
X36490912Y-24670517D01*
X36007053Y-24186658D01*
X36027000Y-24086377D01*
X36027000Y-23913623D01*
X36007053Y-23813342D01*
X36014143Y-23806253D01*
X36193748Y-23985858D01*
X36179605Y-24000000D01*
X36329775Y-24150170D01*
X36396191Y-24302545D01*
X36518413Y-24478391D01*
X36672592Y-24627014D01*
X36852803Y-24742702D01*
X37055999Y-24814408D01*
X37223000Y-24687502D01*
X37223000Y-23147000D01*
X37477000Y-23147000D01*
X37477000Y-24687502D01*
X37644001Y-24814408D01*
X37847197Y-24742702D01*
X38027408Y-24627014D01*
X38181587Y-24478391D01*
X38303809Y-24302545D01*
X38389376Y-24106233D01*
X38435000Y-23897000D01*
X38435000Y-23147000D01*
X37477000Y-23147000D01*
X37223000Y-23147000D01*
X36676608Y-23147000D01*
X36670520Y-23140912D01*
X36868767Y-23124216D01*
X36944589Y-22945616D01*
X36955536Y-22893000D01*
X37223000Y-22893000D01*
X37223000Y-21352498D01*
X37477000Y-21352498D01*
X37477000Y-22893000D01*
X38435000Y-22893000D01*
X38435000Y-22143000D01*
X38389376Y-21933767D01*
X38303809Y-21737455D01*
X38181587Y-21561609D01*
X38027408Y-21412986D01*
X37847197Y-21297298D01*
X37644001Y-21225592D01*
X37477000Y-21352498D01*
X37223000Y-21352498D01*
X37055999Y-21225592D01*
X36852803Y-21297298D01*
X36672592Y-21412986D01*
X36518413Y-21561609D01*
X36396191Y-21737455D01*
X36392272Y-21746445D01*
X36295616Y-21705411D01*
X36105656Y-21665890D01*
X35911636Y-21664187D01*
X35721011Y-21700368D01*
X35541107Y-21773043D01*
X35525784Y-21781233D01*
X35519667Y-21853864D01*
X35405811Y-21806703D01*
X35236377Y-21773000D01*
X35063623Y-21773000D01*
X34894189Y-21806703D01*
X34734585Y-21872813D01*
X34725000Y-21879217D01*
X34715415Y-21872813D01*
X34555811Y-21806703D01*
X34386377Y-21773000D01*
X34213623Y-21773000D01*
X34044189Y-21806703D01*
X33884585Y-21872813D01*
X33875000Y-21879217D01*
X33865415Y-21872813D01*
X33705811Y-21806703D01*
X33536377Y-21773000D01*
X33363623Y-21773000D01*
X33194189Y-21806703D01*
X33034585Y-21872813D01*
X33025000Y-21879217D01*
X33015415Y-21872813D01*
X32855811Y-21806703D01*
X32686377Y-21773000D01*
X32513623Y-21773000D01*
X32344189Y-21806703D01*
X32184585Y-21872813D01*
X32175000Y-21879217D01*
X32165415Y-21872813D01*
X32005811Y-21806703D01*
X31836377Y-21773000D01*
X31663623Y-21773000D01*
X31494189Y-21806703D01*
X31334585Y-21872813D01*
X31325000Y-21879217D01*
X31315415Y-21872813D01*
X31155811Y-21806703D01*
X30986377Y-21773000D01*
X30813623Y-21773000D01*
X30644189Y-21806703D01*
X30530333Y-21853864D01*
X30524216Y-21781233D01*
X30345616Y-21705411D01*
X30155656Y-21665890D01*
X29961636Y-21664187D01*
X29771011Y-21700368D01*
X29657611Y-21746178D01*
X29653809Y-21737455D01*
X29531587Y-21561609D01*
X29377408Y-21412986D01*
X29197197Y-21297298D01*
X28994001Y-21225592D01*
X28827000Y-21352498D01*
X28573000Y-21352498D01*
X28405999Y-21225592D01*
X28202803Y-21297298D01*
X28022592Y-21412986D01*
X27868413Y-21561609D01*
X27746191Y-21737455D01*
X27660624Y-21933767D01*
X27615000Y-22143000D01*
X11127000Y-22143000D01*
X11127000Y-19767000D01*
X27615000Y-19767000D01*
X27615000Y-20167000D01*
X27660624Y-20376233D01*
X27746191Y-20572545D01*
X27868413Y-20748391D01*
X28022592Y-20897014D01*
X28202803Y-21012702D01*
X28405999Y-21084408D01*
X28573000Y-20957502D01*
X28573000Y-19767000D01*
X28827000Y-19767000D01*
X28827000Y-20957502D01*
X28994001Y-21084408D01*
X29197197Y-21012702D01*
X29377408Y-20897014D01*
X29531587Y-20748391D01*
X29653809Y-20572545D01*
X29739376Y-20376233D01*
X29785000Y-20167000D01*
X29785000Y-19767000D01*
X36265000Y-19767000D01*
X36265000Y-20167000D01*
X36310624Y-20376233D01*
X36396191Y-20572545D01*
X36518413Y-20748391D01*
X36672592Y-20897014D01*
X36852803Y-21012702D01*
X37055999Y-21084408D01*
X37223000Y-20957502D01*
X37223000Y-19767000D01*
X37477000Y-19767000D01*
X37477000Y-20957502D01*
X37644001Y-21084408D01*
X37847197Y-21012702D01*
X38027408Y-20897014D01*
X38181587Y-20748391D01*
X38303809Y-20572545D01*
X38389376Y-20376233D01*
X38435000Y-20167000D01*
X38435000Y-19767000D01*
X37477000Y-19767000D01*
X37223000Y-19767000D01*
X36265000Y-19767000D01*
X29785000Y-19767000D01*
X28827000Y-19767000D01*
X28573000Y-19767000D01*
X27615000Y-19767000D01*
X11127000Y-19767000D01*
X11127000Y-19113000D01*
X27615000Y-19113000D01*
X27615000Y-19513000D01*
X28573000Y-19513000D01*
X28573000Y-18322498D01*
X28827000Y-18322498D01*
X28827000Y-19513000D01*
X29785000Y-19513000D01*
X29785000Y-19113000D01*
X36265000Y-19113000D01*
X36265000Y-19513000D01*
X37223000Y-19513000D01*
X37223000Y-18322498D01*
X37477000Y-18322498D01*
X37477000Y-19513000D01*
X38435000Y-19513000D01*
X38435000Y-19113000D01*
X38389376Y-18903767D01*
X38303809Y-18707455D01*
X38181587Y-18531609D01*
X38027408Y-18382986D01*
X37847197Y-18267298D01*
X37644001Y-18195592D01*
X37477000Y-18322498D01*
X37223000Y-18322498D01*
X37055999Y-18195592D01*
X36852803Y-18267298D01*
X36672592Y-18382986D01*
X36518413Y-18531609D01*
X36396191Y-18707455D01*
X36310624Y-18903767D01*
X36265000Y-19113000D01*
X29785000Y-19113000D01*
X29739376Y-18903767D01*
X29653809Y-18707455D01*
X29531587Y-18531609D01*
X29377408Y-18382986D01*
X29197197Y-18267298D01*
X28994001Y-18195592D01*
X28827000Y-18322498D01*
X28573000Y-18322498D01*
X28405999Y-18195592D01*
X28202803Y-18267298D01*
X28022592Y-18382986D01*
X27868413Y-18531609D01*
X27746191Y-18707455D01*
X27660624Y-18903767D01*
X27615000Y-19113000D01*
X11127000Y-19113000D01*
X11127000Y-13790509D01*
X11873000Y-13790509D01*
X11873000Y-14209491D01*
X11954739Y-14620423D01*
X12115077Y-15007512D01*
X12347851Y-15355884D01*
X12644116Y-15652149D01*
X12992488Y-15884923D01*
X13379577Y-16045261D01*
X13790509Y-16127000D01*
X14209491Y-16127000D01*
X14620423Y-16045261D01*
X15007512Y-15884923D01*
X15355884Y-15652149D01*
X15652149Y-15355884D01*
X15884923Y-15007512D01*
X16045261Y-14620423D01*
X16127000Y-14209491D01*
X16127000Y-13800358D01*
X70973000Y-13800358D01*
X70973000Y-14199642D01*
X71050896Y-14591254D01*
X71203696Y-14960145D01*
X71425526Y-15292137D01*
X71707863Y-15574474D01*
X72039855Y-15796304D01*
X72408746Y-15949104D01*
X72800358Y-16027000D01*
X73199642Y-16027000D01*
X73591254Y-15949104D01*
X73960145Y-15796304D01*
X74048411Y-15737326D01*
X80473001Y-16879476D01*
X80473000Y-18984140D01*
X80204496Y-19204495D01*
X79888711Y-19589281D01*
X79654061Y-20028280D01*
X79509565Y-20504621D01*
X79473001Y-20875858D01*
X79473000Y-26124141D01*
X79473001Y-26124151D01*
X79473000Y-130375858D01*
X79460773Y-130500000D01*
X79509564Y-130995379D01*
X79654060Y-131471720D01*
X79888710Y-131910719D01*
X79963020Y-132001266D01*
X80204495Y-132295505D01*
X80589281Y-132611290D01*
X81028280Y-132845940D01*
X81504621Y-132990436D01*
X82000000Y-133039227D01*
X82124141Y-133027000D01*
X90873000Y-133027000D01*
X90873000Y-133111000D01*
X90916310Y-133328734D01*
X91001266Y-133533835D01*
X91124602Y-133718421D01*
X91281579Y-133875398D01*
X91466165Y-133998734D01*
X91671266Y-134083690D01*
X91889000Y-134127000D01*
X92111000Y-134127000D01*
X92328734Y-134083690D01*
X92533835Y-133998734D01*
X92718421Y-133875398D01*
X92875398Y-133718421D01*
X92998734Y-133533835D01*
X93083690Y-133328734D01*
X93127000Y-133111000D01*
X93127000Y-132889000D01*
X93104335Y-132775056D01*
X93410719Y-132611290D01*
X93795505Y-132295505D01*
X94111290Y-131910719D01*
X94345940Y-131471720D01*
X94490436Y-130995379D01*
X94539227Y-130500000D01*
X94490436Y-130004621D01*
X94345940Y-129528280D01*
X94111290Y-129089281D01*
X93795505Y-128704495D01*
X93410719Y-128388710D01*
X93104335Y-128224944D01*
X93127000Y-128111000D01*
X93127000Y-127889000D01*
X93083690Y-127671266D01*
X92998734Y-127466165D01*
X92875398Y-127281579D01*
X92718421Y-127124602D01*
X92533835Y-127001266D01*
X92328734Y-126916310D01*
X92111000Y-126873000D01*
X91889000Y-126873000D01*
X91671266Y-126916310D01*
X91466165Y-127001266D01*
X91281579Y-127124602D01*
X91124602Y-127281579D01*
X91001266Y-127466165D01*
X90916310Y-127671266D01*
X90873000Y-127889000D01*
X90873000Y-127973000D01*
X84527000Y-127973000D01*
X84527000Y-113898849D01*
X90973000Y-113898849D01*
X90973000Y-114101151D01*
X91012467Y-114299565D01*
X91089885Y-114486467D01*
X91202277Y-114654674D01*
X91345326Y-114797723D01*
X91513533Y-114910115D01*
X91700435Y-114987533D01*
X91898849Y-115027000D01*
X92101151Y-115027000D01*
X92299565Y-114987533D01*
X92486467Y-114910115D01*
X92654674Y-114797723D01*
X92797723Y-114654674D01*
X92910115Y-114486467D01*
X92987533Y-114299565D01*
X93027000Y-114101151D01*
X93027000Y-113898849D01*
X92987533Y-113700435D01*
X92910115Y-113513533D01*
X92797723Y-113345326D01*
X92654674Y-113202277D01*
X92486467Y-113089885D01*
X92299565Y-113012467D01*
X92101151Y-112973000D01*
X91898849Y-112973000D01*
X91700435Y-113012467D01*
X91513533Y-113089885D01*
X91345326Y-113202277D01*
X91202277Y-113345326D01*
X91089885Y-113513533D01*
X91012467Y-113700435D01*
X90973000Y-113898849D01*
X84527000Y-113898849D01*
X84527000Y-87957376D01*
X84563020Y-88001266D01*
X84804495Y-88295505D01*
X85189281Y-88611290D01*
X85628280Y-88845940D01*
X86104621Y-88990436D01*
X86600000Y-89039227D01*
X86724141Y-89027000D01*
X90873000Y-89027000D01*
X90873000Y-89111000D01*
X90916310Y-89328734D01*
X91001266Y-89533835D01*
X91124602Y-89718421D01*
X91281579Y-89875398D01*
X91466165Y-89998734D01*
X91671266Y-90083690D01*
X91889000Y-90127000D01*
X92111000Y-90127000D01*
X92328734Y-90083690D01*
X92533835Y-89998734D01*
X92718421Y-89875398D01*
X92875398Y-89718421D01*
X92998734Y-89533835D01*
X93083690Y-89328734D01*
X93127000Y-89111000D01*
X93127000Y-88889000D01*
X93104335Y-88775056D01*
X93410719Y-88611290D01*
X93795505Y-88295505D01*
X94111290Y-87910719D01*
X94345940Y-87471720D01*
X94490436Y-86995379D01*
X94539227Y-86500000D01*
X94490436Y-86004621D01*
X94345940Y-85528280D01*
X94111290Y-85089281D01*
X93795505Y-84704495D01*
X93410719Y-84388710D01*
X93104335Y-84224944D01*
X93127000Y-84111000D01*
X93127000Y-83889000D01*
X93083690Y-83671266D01*
X92998734Y-83466165D01*
X92875398Y-83281579D01*
X92718421Y-83124602D01*
X92533835Y-83001266D01*
X92328734Y-82916310D01*
X92111000Y-82873000D01*
X91889000Y-82873000D01*
X91671266Y-82916310D01*
X91466165Y-83001266D01*
X91281579Y-83124602D01*
X91124602Y-83281579D01*
X91001266Y-83466165D01*
X90916310Y-83671266D01*
X90873000Y-83889000D01*
X90873000Y-83973000D01*
X89127000Y-83973000D01*
X89127000Y-69898849D01*
X90973000Y-69898849D01*
X90973000Y-70101151D01*
X91012467Y-70299565D01*
X91089885Y-70486467D01*
X91202277Y-70654674D01*
X91345326Y-70797723D01*
X91513533Y-70910115D01*
X91700435Y-70987533D01*
X91898849Y-71027000D01*
X92101151Y-71027000D01*
X92299565Y-70987533D01*
X92486467Y-70910115D01*
X92654674Y-70797723D01*
X92797723Y-70654674D01*
X92910115Y-70486467D01*
X92987533Y-70299565D01*
X93027000Y-70101151D01*
X93027000Y-69898849D01*
X92987533Y-69700435D01*
X92910115Y-69513533D01*
X92797723Y-69345326D01*
X92654674Y-69202277D01*
X92486467Y-69089885D01*
X92299565Y-69012467D01*
X92101151Y-68973000D01*
X91898849Y-68973000D01*
X91700435Y-69012467D01*
X91513533Y-69089885D01*
X91345326Y-69202277D01*
X91202277Y-69345326D01*
X91089885Y-69513533D01*
X91012467Y-69700435D01*
X90973000Y-69898849D01*
X89127000Y-69898849D01*
X89127000Y-43957376D01*
X89163020Y-44001266D01*
X89404495Y-44295505D01*
X89789281Y-44611290D01*
X90228280Y-44845940D01*
X90704621Y-44990436D01*
X90873000Y-45007020D01*
X90873000Y-45111000D01*
X90916310Y-45328734D01*
X91001266Y-45533835D01*
X91124602Y-45718421D01*
X91281579Y-45875398D01*
X91466165Y-45998734D01*
X91671266Y-46083690D01*
X91889000Y-46127000D01*
X92111000Y-46127000D01*
X92328734Y-46083690D01*
X92533835Y-45998734D01*
X92718421Y-45875398D01*
X92875398Y-45718421D01*
X92998734Y-45533835D01*
X93083690Y-45328734D01*
X93127000Y-45111000D01*
X93127000Y-44889000D01*
X93104335Y-44775056D01*
X93410719Y-44611290D01*
X93795505Y-44295505D01*
X94111290Y-43910719D01*
X94345940Y-43471720D01*
X94490436Y-42995379D01*
X94539227Y-42500000D01*
X94490436Y-42004621D01*
X94345940Y-41528280D01*
X94111290Y-41089281D01*
X93795505Y-40704495D01*
X93727000Y-40648275D01*
X93727000Y-20875858D01*
X93690436Y-20504621D01*
X93545940Y-20028280D01*
X93311290Y-19589281D01*
X92995505Y-19204495D01*
X92727000Y-18984139D01*
X92727000Y-15633359D01*
X92732113Y-15516490D01*
X92715571Y-15408953D01*
X92704905Y-15300656D01*
X92692748Y-15260581D01*
X92686382Y-15219193D01*
X92649179Y-15116950D01*
X92617590Y-15012815D01*
X92597847Y-14975879D01*
X92583530Y-14936532D01*
X92527097Y-14843514D01*
X92475797Y-14747540D01*
X92449227Y-14715165D01*
X92427509Y-14679367D01*
X92354013Y-14599146D01*
X92284976Y-14515024D01*
X92252602Y-14488455D01*
X92224316Y-14457581D01*
X92136572Y-14393232D01*
X92052460Y-14324203D01*
X92015532Y-14304465D01*
X91981760Y-14279697D01*
X91883143Y-14233701D01*
X91787185Y-14182410D01*
X91747111Y-14170254D01*
X91709160Y-14152553D01*
X91603467Y-14126680D01*
X91499344Y-14095095D01*
X91382917Y-14083628D01*
X89400027Y-13800358D01*
X108973000Y-13800358D01*
X108973000Y-14199642D01*
X109050896Y-14591254D01*
X109203696Y-14960145D01*
X109425526Y-15292137D01*
X109707863Y-15574474D01*
X110039855Y-15796304D01*
X110408746Y-15949104D01*
X110800358Y-16027000D01*
X111199642Y-16027000D01*
X111591254Y-15949104D01*
X111960145Y-15796304D01*
X112048411Y-15737326D01*
X118473001Y-16879476D01*
X118473000Y-18984140D01*
X118204496Y-19204495D01*
X117888711Y-19589281D01*
X117654061Y-20028280D01*
X117509565Y-20504621D01*
X117473001Y-20875858D01*
X117473000Y-26124141D01*
X117473001Y-26124151D01*
X117473000Y-130375858D01*
X117460773Y-130500000D01*
X117509564Y-130995379D01*
X117654060Y-131471720D01*
X117888710Y-131910719D01*
X117963020Y-132001266D01*
X118204495Y-132295505D01*
X118589281Y-132611290D01*
X119028280Y-132845940D01*
X119504621Y-132990436D01*
X120000000Y-133039227D01*
X120124141Y-133027000D01*
X128873000Y-133027000D01*
X128873000Y-133111000D01*
X128916310Y-133328734D01*
X129001266Y-133533835D01*
X129124602Y-133718421D01*
X129281579Y-133875398D01*
X129466165Y-133998734D01*
X129671266Y-134083690D01*
X129889000Y-134127000D01*
X130111000Y-134127000D01*
X130328734Y-134083690D01*
X130533835Y-133998734D01*
X130718421Y-133875398D01*
X130875398Y-133718421D01*
X130998734Y-133533835D01*
X131083690Y-133328734D01*
X131127000Y-133111000D01*
X131127000Y-132889000D01*
X131104335Y-132775056D01*
X131410719Y-132611290D01*
X131795505Y-132295505D01*
X132111290Y-131910719D01*
X132345940Y-131471720D01*
X132490436Y-130995379D01*
X132539227Y-130500000D01*
X132490436Y-130004621D01*
X132345940Y-129528280D01*
X132111290Y-129089281D01*
X131795505Y-128704495D01*
X131410719Y-128388710D01*
X131104335Y-128224944D01*
X131127000Y-128111000D01*
X131127000Y-127889000D01*
X131083690Y-127671266D01*
X130998734Y-127466165D01*
X130875398Y-127281579D01*
X130718421Y-127124602D01*
X130533835Y-127001266D01*
X130328734Y-126916310D01*
X130111000Y-126873000D01*
X129889000Y-126873000D01*
X129671266Y-126916310D01*
X129466165Y-127001266D01*
X129281579Y-127124602D01*
X129124602Y-127281579D01*
X129001266Y-127466165D01*
X128916310Y-127671266D01*
X128873000Y-127889000D01*
X128873000Y-127973000D01*
X122527000Y-127973000D01*
X122527000Y-113898849D01*
X128973000Y-113898849D01*
X128973000Y-114101151D01*
X129012467Y-114299565D01*
X129089885Y-114486467D01*
X129202277Y-114654674D01*
X129345326Y-114797723D01*
X129513533Y-114910115D01*
X129700435Y-114987533D01*
X129898849Y-115027000D01*
X130101151Y-115027000D01*
X130299565Y-114987533D01*
X130486467Y-114910115D01*
X130654674Y-114797723D01*
X130797723Y-114654674D01*
X130910115Y-114486467D01*
X130987533Y-114299565D01*
X131027000Y-114101151D01*
X131027000Y-113898849D01*
X130987533Y-113700435D01*
X130910115Y-113513533D01*
X130797723Y-113345326D01*
X130654674Y-113202277D01*
X130486467Y-113089885D01*
X130299565Y-113012467D01*
X130101151Y-112973000D01*
X129898849Y-112973000D01*
X129700435Y-113012467D01*
X129513533Y-113089885D01*
X129345326Y-113202277D01*
X129202277Y-113345326D01*
X129089885Y-113513533D01*
X129012467Y-113700435D01*
X128973000Y-113898849D01*
X122527000Y-113898849D01*
X122527000Y-87957376D01*
X122563020Y-88001266D01*
X122804495Y-88295505D01*
X123189281Y-88611290D01*
X123628280Y-88845940D01*
X124104621Y-88990436D01*
X124600000Y-89039227D01*
X124724141Y-89027000D01*
X128873000Y-89027000D01*
X128873000Y-89111000D01*
X128916310Y-89328734D01*
X129001266Y-89533835D01*
X129124602Y-89718421D01*
X129281579Y-89875398D01*
X129466165Y-89998734D01*
X129671266Y-90083690D01*
X129889000Y-90127000D01*
X130111000Y-90127000D01*
X130328734Y-90083690D01*
X130533835Y-89998734D01*
X130718421Y-89875398D01*
X130875398Y-89718421D01*
X130998734Y-89533835D01*
X131083690Y-89328734D01*
X131127000Y-89111000D01*
X131127000Y-88889000D01*
X131104335Y-88775056D01*
X131410719Y-88611290D01*
X131795505Y-88295505D01*
X132111290Y-87910719D01*
X132345940Y-87471720D01*
X132490436Y-86995379D01*
X132539227Y-86500000D01*
X132490436Y-86004621D01*
X132345940Y-85528280D01*
X132111290Y-85089281D01*
X131795505Y-84704495D01*
X131410719Y-84388710D01*
X131104335Y-84224944D01*
X131127000Y-84111000D01*
X131127000Y-83889000D01*
X131083690Y-83671266D01*
X130998734Y-83466165D01*
X130875398Y-83281579D01*
X130718421Y-83124602D01*
X130533835Y-83001266D01*
X130328734Y-82916310D01*
X130111000Y-82873000D01*
X129889000Y-82873000D01*
X129671266Y-82916310D01*
X129466165Y-83001266D01*
X129281579Y-83124602D01*
X129124602Y-83281579D01*
X129001266Y-83466165D01*
X128916310Y-83671266D01*
X128873000Y-83889000D01*
X128873000Y-83973000D01*
X127127000Y-83973000D01*
X127127000Y-69898849D01*
X128973000Y-69898849D01*
X128973000Y-70101151D01*
X129012467Y-70299565D01*
X129089885Y-70486467D01*
X129202277Y-70654674D01*
X129345326Y-70797723D01*
X129513533Y-70910115D01*
X129700435Y-70987533D01*
X129898849Y-71027000D01*
X130101151Y-71027000D01*
X130299565Y-70987533D01*
X130486467Y-70910115D01*
X130654674Y-70797723D01*
X130797723Y-70654674D01*
X130910115Y-70486467D01*
X130987533Y-70299565D01*
X131027000Y-70101151D01*
X131027000Y-69898849D01*
X130987533Y-69700435D01*
X130910115Y-69513533D01*
X130797723Y-69345326D01*
X130654674Y-69202277D01*
X130486467Y-69089885D01*
X130299565Y-69012467D01*
X130101151Y-68973000D01*
X129898849Y-68973000D01*
X129700435Y-69012467D01*
X129513533Y-69089885D01*
X129345326Y-69202277D01*
X129202277Y-69345326D01*
X129089885Y-69513533D01*
X129012467Y-69700435D01*
X128973000Y-69898849D01*
X127127000Y-69898849D01*
X127127000Y-43957377D01*
X127163019Y-44001266D01*
X127404494Y-44295505D01*
X127789280Y-44611290D01*
X128228279Y-44845940D01*
X128704620Y-44990436D01*
X128873000Y-45007020D01*
X128873000Y-45111000D01*
X128916310Y-45328734D01*
X129001266Y-45533835D01*
X129124602Y-45718421D01*
X129281579Y-45875398D01*
X129466165Y-45998734D01*
X129671266Y-46083690D01*
X129889000Y-46127000D01*
X130111000Y-46127000D01*
X130328734Y-46083690D01*
X130533835Y-45998734D01*
X130718421Y-45875398D01*
X130875398Y-45718421D01*
X130998734Y-45533835D01*
X131083690Y-45328734D01*
X131127000Y-45111000D01*
X131127000Y-44889000D01*
X131104335Y-44775056D01*
X131410719Y-44611290D01*
X131795505Y-44295505D01*
X132111290Y-43910719D01*
X132345940Y-43471720D01*
X132490436Y-42995379D01*
X132539227Y-42500000D01*
X132490436Y-42004621D01*
X132345940Y-41528280D01*
X132111290Y-41089281D01*
X131795505Y-40704495D01*
X131726999Y-40648274D01*
X131726999Y-20875858D01*
X131690435Y-20504621D01*
X131545939Y-20028280D01*
X131311289Y-19589281D01*
X130995504Y-19204495D01*
X130726999Y-18984139D01*
X130726999Y-15633382D01*
X130732113Y-15516490D01*
X130715569Y-15408936D01*
X130704904Y-15300656D01*
X130692749Y-15260586D01*
X130686382Y-15219194D01*
X130649174Y-15116937D01*
X130617589Y-15012815D01*
X130597849Y-14975885D01*
X130583530Y-14936532D01*
X130527088Y-14843501D01*
X130475796Y-14747540D01*
X130449230Y-14715170D01*
X130427509Y-14679367D01*
X130354003Y-14599135D01*
X130284975Y-14515024D01*
X130252605Y-14488459D01*
X130224316Y-14457581D01*
X130136566Y-14393228D01*
X130052459Y-14324203D01*
X130015530Y-14304464D01*
X129981760Y-14279698D01*
X129883144Y-14233702D01*
X129787184Y-14182410D01*
X129747112Y-14170254D01*
X129709160Y-14152553D01*
X129603462Y-14126679D01*
X129499343Y-14095095D01*
X129382919Y-14083628D01*
X127400028Y-13800358D01*
X146973000Y-13800358D01*
X146973000Y-14199642D01*
X147050896Y-14591254D01*
X147203696Y-14960145D01*
X147425526Y-15292137D01*
X147707863Y-15574474D01*
X148039855Y-15796304D01*
X148408746Y-15949104D01*
X148800358Y-16027000D01*
X149199642Y-16027000D01*
X149591254Y-15949104D01*
X149960145Y-15796304D01*
X150048411Y-15737326D01*
X156473001Y-16879476D01*
X156473000Y-18984140D01*
X156204496Y-19204495D01*
X155888711Y-19589281D01*
X155654061Y-20028280D01*
X155509565Y-20504621D01*
X155473001Y-20875858D01*
X155473000Y-26124141D01*
X155473001Y-26124151D01*
X155473000Y-130375858D01*
X155460773Y-130500000D01*
X155509564Y-130995379D01*
X155654060Y-131471720D01*
X155888710Y-131910719D01*
X155963020Y-132001266D01*
X156204495Y-132295505D01*
X156589281Y-132611290D01*
X157028280Y-132845940D01*
X157504621Y-132990436D01*
X158000000Y-133039227D01*
X158124141Y-133027000D01*
X166873000Y-133027000D01*
X166873000Y-133111000D01*
X166916310Y-133328734D01*
X167001266Y-133533835D01*
X167124602Y-133718421D01*
X167281579Y-133875398D01*
X167466165Y-133998734D01*
X167671266Y-134083690D01*
X167889000Y-134127000D01*
X168111000Y-134127000D01*
X168328734Y-134083690D01*
X168533835Y-133998734D01*
X168718421Y-133875398D01*
X168875398Y-133718421D01*
X168998734Y-133533835D01*
X169083690Y-133328734D01*
X169127000Y-133111000D01*
X169127000Y-132889000D01*
X169104335Y-132775056D01*
X169410719Y-132611290D01*
X169795505Y-132295505D01*
X170111290Y-131910719D01*
X170345940Y-131471720D01*
X170490436Y-130995379D01*
X170539227Y-130500000D01*
X170490436Y-130004621D01*
X170345940Y-129528280D01*
X170111290Y-129089281D01*
X169795505Y-128704495D01*
X169410719Y-128388710D01*
X169104335Y-128224944D01*
X169127000Y-128111000D01*
X169127000Y-127889000D01*
X169083690Y-127671266D01*
X168998734Y-127466165D01*
X168875398Y-127281579D01*
X168718421Y-127124602D01*
X168533835Y-127001266D01*
X168328734Y-126916310D01*
X168111000Y-126873000D01*
X167889000Y-126873000D01*
X167671266Y-126916310D01*
X167466165Y-127001266D01*
X167281579Y-127124602D01*
X167124602Y-127281579D01*
X167001266Y-127466165D01*
X166916310Y-127671266D01*
X166873000Y-127889000D01*
X166873000Y-127973000D01*
X160527000Y-127973000D01*
X160527000Y-113898849D01*
X166973000Y-113898849D01*
X166973000Y-114101151D01*
X167012467Y-114299565D01*
X167089885Y-114486467D01*
X167202277Y-114654674D01*
X167345326Y-114797723D01*
X167513533Y-114910115D01*
X167700435Y-114987533D01*
X167898849Y-115027000D01*
X168101151Y-115027000D01*
X168299565Y-114987533D01*
X168486467Y-114910115D01*
X168654674Y-114797723D01*
X168797723Y-114654674D01*
X168910115Y-114486467D01*
X168987533Y-114299565D01*
X169027000Y-114101151D01*
X169027000Y-113898849D01*
X168987533Y-113700435D01*
X168910115Y-113513533D01*
X168797723Y-113345326D01*
X168654674Y-113202277D01*
X168486467Y-113089885D01*
X168299565Y-113012467D01*
X168101151Y-112973000D01*
X167898849Y-112973000D01*
X167700435Y-113012467D01*
X167513533Y-113089885D01*
X167345326Y-113202277D01*
X167202277Y-113345326D01*
X167089885Y-113513533D01*
X167012467Y-113700435D01*
X166973000Y-113898849D01*
X160527000Y-113898849D01*
X160527000Y-87957376D01*
X160563020Y-88001266D01*
X160804495Y-88295505D01*
X161189281Y-88611290D01*
X161628280Y-88845940D01*
X162104621Y-88990436D01*
X162600000Y-89039227D01*
X162724141Y-89027000D01*
X166873000Y-89027000D01*
X166873000Y-89111000D01*
X166916310Y-89328734D01*
X167001266Y-89533835D01*
X167124602Y-89718421D01*
X167281579Y-89875398D01*
X167466165Y-89998734D01*
X167671266Y-90083690D01*
X167889000Y-90127000D01*
X168111000Y-90127000D01*
X168328734Y-90083690D01*
X168533835Y-89998734D01*
X168718421Y-89875398D01*
X168875398Y-89718421D01*
X168998734Y-89533835D01*
X169083690Y-89328734D01*
X169127000Y-89111000D01*
X169127000Y-88889000D01*
X169104335Y-88775056D01*
X169410719Y-88611290D01*
X169795505Y-88295505D01*
X170111290Y-87910719D01*
X170345940Y-87471720D01*
X170490436Y-86995379D01*
X170539227Y-86500000D01*
X170490436Y-86004621D01*
X170345940Y-85528280D01*
X170111290Y-85089281D01*
X169795505Y-84704495D01*
X169410719Y-84388710D01*
X169104335Y-84224944D01*
X169127000Y-84111000D01*
X169127000Y-83889000D01*
X169083690Y-83671266D01*
X168998734Y-83466165D01*
X168875398Y-83281579D01*
X168718421Y-83124602D01*
X168533835Y-83001266D01*
X168328734Y-82916310D01*
X168111000Y-82873000D01*
X167889000Y-82873000D01*
X167671266Y-82916310D01*
X167466165Y-83001266D01*
X167281579Y-83124602D01*
X167124602Y-83281579D01*
X167001266Y-83466165D01*
X166916310Y-83671266D01*
X166873000Y-83889000D01*
X166873000Y-83973000D01*
X165127000Y-83973000D01*
X165127000Y-69898849D01*
X166973000Y-69898849D01*
X166973000Y-70101151D01*
X167012467Y-70299565D01*
X167089885Y-70486467D01*
X167202277Y-70654674D01*
X167345326Y-70797723D01*
X167513533Y-70910115D01*
X167700435Y-70987533D01*
X167898849Y-71027000D01*
X168101151Y-71027000D01*
X168299565Y-70987533D01*
X168486467Y-70910115D01*
X168654674Y-70797723D01*
X168797723Y-70654674D01*
X168910115Y-70486467D01*
X168987533Y-70299565D01*
X169027000Y-70101151D01*
X169027000Y-69898849D01*
X168987533Y-69700435D01*
X168910115Y-69513533D01*
X168797723Y-69345326D01*
X168654674Y-69202277D01*
X168486467Y-69089885D01*
X168299565Y-69012467D01*
X168101151Y-68973000D01*
X167898849Y-68973000D01*
X167700435Y-69012467D01*
X167513533Y-69089885D01*
X167345326Y-69202277D01*
X167202277Y-69345326D01*
X167089885Y-69513533D01*
X167012467Y-69700435D01*
X166973000Y-69898849D01*
X165127000Y-69898849D01*
X165127000Y-43957376D01*
X165163020Y-44001266D01*
X165404495Y-44295505D01*
X165789281Y-44611290D01*
X166228280Y-44845940D01*
X166704621Y-44990436D01*
X166873000Y-45007020D01*
X166873000Y-45111000D01*
X166916310Y-45328734D01*
X167001266Y-45533835D01*
X167124602Y-45718421D01*
X167281579Y-45875398D01*
X167466165Y-45998734D01*
X167671266Y-46083690D01*
X167889000Y-46127000D01*
X168111000Y-46127000D01*
X168328734Y-46083690D01*
X168533835Y-45998734D01*
X168718421Y-45875398D01*
X168875398Y-45718421D01*
X168998734Y-45533835D01*
X169083690Y-45328734D01*
X169127000Y-45111000D01*
X169127000Y-44889000D01*
X169104335Y-44775056D01*
X169410719Y-44611290D01*
X169795505Y-44295505D01*
X170111290Y-43910719D01*
X170345940Y-43471720D01*
X170490436Y-42995379D01*
X170539227Y-42500000D01*
X170490436Y-42004621D01*
X170345940Y-41528280D01*
X170111290Y-41089281D01*
X169795505Y-40704495D01*
X169727000Y-40648275D01*
X169727000Y-20875858D01*
X169690436Y-20504621D01*
X169545940Y-20028280D01*
X169311290Y-19589281D01*
X168995505Y-19204495D01*
X168727000Y-18984139D01*
X168727000Y-15633359D01*
X168732113Y-15516490D01*
X168715571Y-15408953D01*
X168704905Y-15300656D01*
X168692748Y-15260581D01*
X168686382Y-15219193D01*
X168649179Y-15116950D01*
X168617590Y-15012815D01*
X168597847Y-14975879D01*
X168583530Y-14936532D01*
X168527097Y-14843514D01*
X168475797Y-14747540D01*
X168449227Y-14715165D01*
X168427509Y-14679367D01*
X168354013Y-14599146D01*
X168284976Y-14515024D01*
X168252602Y-14488455D01*
X168224316Y-14457581D01*
X168136572Y-14393232D01*
X168052460Y-14324203D01*
X168015532Y-14304465D01*
X167981760Y-14279697D01*
X167883143Y-14233701D01*
X167787185Y-14182410D01*
X167747111Y-14170254D01*
X167709160Y-14152553D01*
X167603467Y-14126680D01*
X167499344Y-14095095D01*
X167382917Y-14083628D01*
X165400027Y-13800358D01*
X184973000Y-13800358D01*
X184973000Y-14199642D01*
X185050896Y-14591254D01*
X185203696Y-14960145D01*
X185425526Y-15292137D01*
X185707863Y-15574474D01*
X186039855Y-15796304D01*
X186408746Y-15949104D01*
X186800358Y-16027000D01*
X187199642Y-16027000D01*
X187591254Y-15949104D01*
X187960145Y-15796304D01*
X188048411Y-15737326D01*
X194473001Y-16879476D01*
X194473000Y-18984140D01*
X194204496Y-19204495D01*
X193888711Y-19589281D01*
X193654061Y-20028280D01*
X193509565Y-20504621D01*
X193473001Y-20875858D01*
X193473000Y-26124141D01*
X193473001Y-26124151D01*
X193473000Y-130375858D01*
X193460773Y-130500000D01*
X193509564Y-130995379D01*
X193654060Y-131471720D01*
X193888710Y-131910719D01*
X193963020Y-132001266D01*
X194204495Y-132295505D01*
X194589281Y-132611290D01*
X195028280Y-132845940D01*
X195504621Y-132990436D01*
X196000000Y-133039227D01*
X196124141Y-133027000D01*
X204873000Y-133027000D01*
X204873000Y-133111000D01*
X204916310Y-133328734D01*
X205001266Y-133533835D01*
X205124602Y-133718421D01*
X205281579Y-133875398D01*
X205466165Y-133998734D01*
X205671266Y-134083690D01*
X205889000Y-134127000D01*
X206111000Y-134127000D01*
X206328734Y-134083690D01*
X206533835Y-133998734D01*
X206718421Y-133875398D01*
X206875398Y-133718421D01*
X206998734Y-133533835D01*
X207083690Y-133328734D01*
X207127000Y-133111000D01*
X207127000Y-132889000D01*
X207104335Y-132775056D01*
X207410719Y-132611290D01*
X207795505Y-132295505D01*
X208111290Y-131910719D01*
X208345940Y-131471720D01*
X208490436Y-130995379D01*
X208539227Y-130500000D01*
X208490436Y-130004621D01*
X208345940Y-129528280D01*
X208111290Y-129089281D01*
X207795505Y-128704495D01*
X207410719Y-128388710D01*
X207104335Y-128224944D01*
X207127000Y-128111000D01*
X207127000Y-127889000D01*
X207083690Y-127671266D01*
X206998734Y-127466165D01*
X206875398Y-127281579D01*
X206718421Y-127124602D01*
X206533835Y-127001266D01*
X206328734Y-126916310D01*
X206111000Y-126873000D01*
X205889000Y-126873000D01*
X205671266Y-126916310D01*
X205466165Y-127001266D01*
X205281579Y-127124602D01*
X205124602Y-127281579D01*
X205001266Y-127466165D01*
X204916310Y-127671266D01*
X204873000Y-127889000D01*
X204873000Y-127973000D01*
X198527000Y-127973000D01*
X198527000Y-113898849D01*
X204973000Y-113898849D01*
X204973000Y-114101151D01*
X205012467Y-114299565D01*
X205089885Y-114486467D01*
X205202277Y-114654674D01*
X205345326Y-114797723D01*
X205513533Y-114910115D01*
X205700435Y-114987533D01*
X205898849Y-115027000D01*
X206101151Y-115027000D01*
X206299565Y-114987533D01*
X206486467Y-114910115D01*
X206654674Y-114797723D01*
X206797723Y-114654674D01*
X206910115Y-114486467D01*
X206987533Y-114299565D01*
X207027000Y-114101151D01*
X207027000Y-113898849D01*
X206987533Y-113700435D01*
X206910115Y-113513533D01*
X206797723Y-113345326D01*
X206654674Y-113202277D01*
X206486467Y-113089885D01*
X206299565Y-113012467D01*
X206101151Y-112973000D01*
X205898849Y-112973000D01*
X205700435Y-113012467D01*
X205513533Y-113089885D01*
X205345326Y-113202277D01*
X205202277Y-113345326D01*
X205089885Y-113513533D01*
X205012467Y-113700435D01*
X204973000Y-113898849D01*
X198527000Y-113898849D01*
X198527000Y-87957376D01*
X198563020Y-88001266D01*
X198804495Y-88295505D01*
X199189281Y-88611290D01*
X199628280Y-88845940D01*
X200104621Y-88990436D01*
X200600000Y-89039227D01*
X200724141Y-89027000D01*
X204873000Y-89027000D01*
X204873000Y-89111000D01*
X204916310Y-89328734D01*
X205001266Y-89533835D01*
X205124602Y-89718421D01*
X205281579Y-89875398D01*
X205466165Y-89998734D01*
X205671266Y-90083690D01*
X205889000Y-90127000D01*
X206111000Y-90127000D01*
X206328734Y-90083690D01*
X206533835Y-89998734D01*
X206718421Y-89875398D01*
X206875398Y-89718421D01*
X206998734Y-89533835D01*
X207083690Y-89328734D01*
X207127000Y-89111000D01*
X207127000Y-88889000D01*
X207104335Y-88775056D01*
X207410719Y-88611290D01*
X207795505Y-88295505D01*
X208111290Y-87910719D01*
X208345940Y-87471720D01*
X208490436Y-86995379D01*
X208539227Y-86500000D01*
X208490436Y-86004621D01*
X208345940Y-85528280D01*
X208111290Y-85089281D01*
X207795505Y-84704495D01*
X207410719Y-84388710D01*
X207104335Y-84224944D01*
X207127000Y-84111000D01*
X207127000Y-83889000D01*
X207083690Y-83671266D01*
X206998734Y-83466165D01*
X206875398Y-83281579D01*
X206718421Y-83124602D01*
X206533835Y-83001266D01*
X206328734Y-82916310D01*
X206111000Y-82873000D01*
X205889000Y-82873000D01*
X205671266Y-82916310D01*
X205466165Y-83001266D01*
X205281579Y-83124602D01*
X205124602Y-83281579D01*
X205001266Y-83466165D01*
X204916310Y-83671266D01*
X204873000Y-83889000D01*
X204873000Y-83973000D01*
X203127000Y-83973000D01*
X203127000Y-69898849D01*
X204973000Y-69898849D01*
X204973000Y-70101151D01*
X205012467Y-70299565D01*
X205089885Y-70486467D01*
X205202277Y-70654674D01*
X205345326Y-70797723D01*
X205513533Y-70910115D01*
X205700435Y-70987533D01*
X205898849Y-71027000D01*
X206101151Y-71027000D01*
X206299565Y-70987533D01*
X206486467Y-70910115D01*
X206654674Y-70797723D01*
X206797723Y-70654674D01*
X206910115Y-70486467D01*
X206987533Y-70299565D01*
X207027000Y-70101151D01*
X207027000Y-69898849D01*
X206987533Y-69700435D01*
X206910115Y-69513533D01*
X206797723Y-69345326D01*
X206654674Y-69202277D01*
X206486467Y-69089885D01*
X206299565Y-69012467D01*
X206101151Y-68973000D01*
X205898849Y-68973000D01*
X205700435Y-69012467D01*
X205513533Y-69089885D01*
X205345326Y-69202277D01*
X205202277Y-69345326D01*
X205089885Y-69513533D01*
X205012467Y-69700435D01*
X204973000Y-69898849D01*
X203127000Y-69898849D01*
X203127000Y-43957376D01*
X203163020Y-44001266D01*
X203404495Y-44295505D01*
X203789281Y-44611290D01*
X204228280Y-44845940D01*
X204704621Y-44990436D01*
X204873000Y-45007020D01*
X204873000Y-45111000D01*
X204916310Y-45328734D01*
X205001266Y-45533835D01*
X205124602Y-45718421D01*
X205281579Y-45875398D01*
X205466165Y-45998734D01*
X205671266Y-46083690D01*
X205889000Y-46127000D01*
X206111000Y-46127000D01*
X206328734Y-46083690D01*
X206533835Y-45998734D01*
X206718421Y-45875398D01*
X206875398Y-45718421D01*
X206998734Y-45533835D01*
X207083690Y-45328734D01*
X207127000Y-45111000D01*
X207127000Y-44889000D01*
X207104335Y-44775056D01*
X207410719Y-44611290D01*
X207795505Y-44295505D01*
X208111290Y-43910719D01*
X208345940Y-43471720D01*
X208490436Y-42995379D01*
X208539227Y-42500000D01*
X208490436Y-42004621D01*
X208345940Y-41528280D01*
X208111290Y-41089281D01*
X207795505Y-40704495D01*
X207727000Y-40648275D01*
X207727000Y-20875858D01*
X207690436Y-20504621D01*
X207545940Y-20028280D01*
X207311290Y-19589281D01*
X206995505Y-19204495D01*
X206727000Y-18984139D01*
X206727000Y-15633359D01*
X206732113Y-15516490D01*
X206715571Y-15408953D01*
X206704905Y-15300656D01*
X206692748Y-15260581D01*
X206686382Y-15219193D01*
X206649179Y-15116950D01*
X206617590Y-15012815D01*
X206597847Y-14975879D01*
X206583530Y-14936532D01*
X206527097Y-14843514D01*
X206475797Y-14747540D01*
X206449227Y-14715165D01*
X206427509Y-14679367D01*
X206354013Y-14599146D01*
X206284976Y-14515024D01*
X206252602Y-14488455D01*
X206224316Y-14457581D01*
X206136572Y-14393232D01*
X206052460Y-14324203D01*
X206015532Y-14304465D01*
X205981760Y-14279697D01*
X205883143Y-14233701D01*
X205787185Y-14182410D01*
X205747111Y-14170254D01*
X205709160Y-14152553D01*
X205603467Y-14126680D01*
X205499344Y-14095095D01*
X205382917Y-14083628D01*
X203331084Y-13790509D01*
X223873000Y-13790509D01*
X223873000Y-14209491D01*
X223954739Y-14620423D01*
X224115077Y-15007512D01*
X224347851Y-15355884D01*
X224644116Y-15652149D01*
X224992488Y-15884923D01*
X225379577Y-16045261D01*
X225790509Y-16127000D01*
X226209491Y-16127000D01*
X226620423Y-16045261D01*
X227007512Y-15884923D01*
X227355884Y-15652149D01*
X227652149Y-15355884D01*
X227884923Y-15007512D01*
X228045261Y-14620423D01*
X228127000Y-14209491D01*
X228127000Y-13790509D01*
X228045261Y-13379577D01*
X227884923Y-12992488D01*
X227652149Y-12644116D01*
X227355884Y-12347851D01*
X227007512Y-12115077D01*
X226620423Y-11954739D01*
X226209491Y-11873000D01*
X225790509Y-11873000D01*
X225379577Y-11954739D01*
X224992488Y-12115077D01*
X224644116Y-12347851D01*
X224347851Y-12644116D01*
X224115077Y-12992488D01*
X223954739Y-13379577D01*
X223873000Y-13790509D01*
X203331084Y-13790509D01*
X196029549Y-12747433D01*
X196029549Y-12500000D01*
X196019374Y-12396690D01*
X195989239Y-12297350D01*
X195940304Y-12205798D01*
X195874448Y-12125552D01*
X195794202Y-12059696D01*
X195702650Y-12010761D01*
X195603310Y-11980626D01*
X195500000Y-11970451D01*
X192500000Y-11970451D01*
X192396690Y-11980626D01*
X192297350Y-12010761D01*
X192205798Y-12059696D01*
X192125552Y-12125552D01*
X192059696Y-12205798D01*
X192010761Y-12297350D01*
X191980626Y-12396690D01*
X191970451Y-12500000D01*
X191970451Y-12603840D01*
X191792137Y-12425526D01*
X191460145Y-12203696D01*
X191091254Y-12050896D01*
X190699642Y-11973000D01*
X190300358Y-11973000D01*
X189908746Y-12050896D01*
X189539855Y-12203696D01*
X189207863Y-12425526D01*
X188925526Y-12707863D01*
X188875651Y-12782507D01*
X188590474Y-12731809D01*
X188574474Y-12707863D01*
X188292137Y-12425526D01*
X187960145Y-12203696D01*
X187591254Y-12050896D01*
X187199642Y-11973000D01*
X186800358Y-11973000D01*
X186408746Y-12050896D01*
X186039855Y-12203696D01*
X185707863Y-12425526D01*
X185425526Y-12707863D01*
X185203696Y-13039855D01*
X185050896Y-13408746D01*
X184973000Y-13800358D01*
X165400027Y-13800358D01*
X158029549Y-12747433D01*
X158029549Y-12500000D01*
X158019374Y-12396690D01*
X157989239Y-12297350D01*
X157940304Y-12205798D01*
X157874448Y-12125552D01*
X157794202Y-12059696D01*
X157702650Y-12010761D01*
X157603310Y-11980626D01*
X157500000Y-11970451D01*
X154500000Y-11970451D01*
X154396690Y-11980626D01*
X154297350Y-12010761D01*
X154205798Y-12059696D01*
X154125552Y-12125552D01*
X154059696Y-12205798D01*
X154010761Y-12297350D01*
X153980626Y-12396690D01*
X153970451Y-12500000D01*
X153970451Y-12603840D01*
X153792137Y-12425526D01*
X153460145Y-12203696D01*
X153091254Y-12050896D01*
X152699642Y-11973000D01*
X152300358Y-11973000D01*
X151908746Y-12050896D01*
X151539855Y-12203696D01*
X151207863Y-12425526D01*
X150925526Y-12707863D01*
X150875651Y-12782507D01*
X150590474Y-12731809D01*
X150574474Y-12707863D01*
X150292137Y-12425526D01*
X149960145Y-12203696D01*
X149591254Y-12050896D01*
X149199642Y-11973000D01*
X148800358Y-11973000D01*
X148408746Y-12050896D01*
X148039855Y-12203696D01*
X147707863Y-12425526D01*
X147425526Y-12707863D01*
X147203696Y-13039855D01*
X147050896Y-13408746D01*
X146973000Y-13800358D01*
X127400028Y-13800358D01*
X120029549Y-12747433D01*
X120029549Y-12500000D01*
X120019374Y-12396690D01*
X119989239Y-12297350D01*
X119940304Y-12205798D01*
X119874448Y-12125552D01*
X119794202Y-12059696D01*
X119702650Y-12010761D01*
X119603310Y-11980626D01*
X119500000Y-11970451D01*
X116500000Y-11970451D01*
X116396690Y-11980626D01*
X116297350Y-12010761D01*
X116205798Y-12059696D01*
X116125552Y-12125552D01*
X116059696Y-12205798D01*
X116010761Y-12297350D01*
X115980626Y-12396690D01*
X115970451Y-12500000D01*
X115970451Y-12603840D01*
X115792137Y-12425526D01*
X115460145Y-12203696D01*
X115091254Y-12050896D01*
X114699642Y-11973000D01*
X114300358Y-11973000D01*
X113908746Y-12050896D01*
X113539855Y-12203696D01*
X113207863Y-12425526D01*
X112925526Y-12707863D01*
X112875651Y-12782507D01*
X112590474Y-12731809D01*
X112574474Y-12707863D01*
X112292137Y-12425526D01*
X111960145Y-12203696D01*
X111591254Y-12050896D01*
X111199642Y-11973000D01*
X110800358Y-11973000D01*
X110408746Y-12050896D01*
X110039855Y-12203696D01*
X109707863Y-12425526D01*
X109425526Y-12707863D01*
X109203696Y-13039855D01*
X109050896Y-13408746D01*
X108973000Y-13800358D01*
X89400027Y-13800358D01*
X82029549Y-12747433D01*
X82029549Y-12500000D01*
X82019374Y-12396690D01*
X81989239Y-12297350D01*
X81940304Y-12205798D01*
X81874448Y-12125552D01*
X81794202Y-12059696D01*
X81702650Y-12010761D01*
X81603310Y-11980626D01*
X81500000Y-11970451D01*
X78500000Y-11970451D01*
X78396690Y-11980626D01*
X78297350Y-12010761D01*
X78205798Y-12059696D01*
X78125552Y-12125552D01*
X78059696Y-12205798D01*
X78010761Y-12297350D01*
X77980626Y-12396690D01*
X77970451Y-12500000D01*
X77970451Y-12603840D01*
X77792137Y-12425526D01*
X77460145Y-12203696D01*
X77091254Y-12050896D01*
X76699642Y-11973000D01*
X76300358Y-11973000D01*
X75908746Y-12050896D01*
X75539855Y-12203696D01*
X75207863Y-12425526D01*
X74925526Y-12707863D01*
X74875651Y-12782507D01*
X74590474Y-12731809D01*
X74574474Y-12707863D01*
X74292137Y-12425526D01*
X73960145Y-12203696D01*
X73591254Y-12050896D01*
X73199642Y-11973000D01*
X72800358Y-11973000D01*
X72408746Y-12050896D01*
X72039855Y-12203696D01*
X71707863Y-12425526D01*
X71425526Y-12707863D01*
X71203696Y-13039855D01*
X71050896Y-13408746D01*
X70973000Y-13800358D01*
X16127000Y-13800358D01*
X16127000Y-13790509D01*
X16045261Y-13379577D01*
X15884923Y-12992488D01*
X15652149Y-12644116D01*
X15355884Y-12347851D01*
X15007512Y-12115077D01*
X14620423Y-11954739D01*
X14209491Y-11873000D01*
X13790509Y-11873000D01*
X13379577Y-11954739D01*
X12992488Y-12115077D01*
X12644116Y-12347851D01*
X12347851Y-12644116D01*
X12115077Y-12992488D01*
X11954739Y-13379577D01*
X11873000Y-13790509D01*
X11127000Y-13790509D01*
X11127000Y-11127000D01*
X228873000Y-11127000D01*
X228873000Y-168873000D01*
G04 #@! TA.AperFunction,Conductor*
D26*
G36*
X228873000Y-168873000D02*
G01*
X11127000Y-168873000D01*
X11127000Y-165790509D01*
X11873000Y-165790509D01*
X11873000Y-166209491D01*
X11954739Y-166620423D01*
X12115077Y-167007512D01*
X12347851Y-167355884D01*
X12644116Y-167652149D01*
X12992488Y-167884923D01*
X13379577Y-168045261D01*
X13790509Y-168127000D01*
X14209491Y-168127000D01*
X14620423Y-168045261D01*
X15007512Y-167884923D01*
X15355884Y-167652149D01*
X15652149Y-167355884D01*
X15884923Y-167007512D01*
X16045261Y-166620423D01*
X16127000Y-166209491D01*
X16127000Y-165790509D01*
X223873000Y-165790509D01*
X223873000Y-166209491D01*
X223954739Y-166620423D01*
X224115077Y-167007512D01*
X224347851Y-167355884D01*
X224644116Y-167652149D01*
X224992488Y-167884923D01*
X225379577Y-168045261D01*
X225790509Y-168127000D01*
X226209491Y-168127000D01*
X226620423Y-168045261D01*
X227007512Y-167884923D01*
X227355884Y-167652149D01*
X227652149Y-167355884D01*
X227884923Y-167007512D01*
X228045261Y-166620423D01*
X228127000Y-166209491D01*
X228127000Y-165790509D01*
X228045261Y-165379577D01*
X227884923Y-164992488D01*
X227652149Y-164644116D01*
X227355884Y-164347851D01*
X227007512Y-164115077D01*
X226620423Y-163954739D01*
X226209491Y-163873000D01*
X225790509Y-163873000D01*
X225379577Y-163954739D01*
X224992488Y-164115077D01*
X224644116Y-164347851D01*
X224347851Y-164644116D01*
X224115077Y-164992488D01*
X223954739Y-165379577D01*
X223873000Y-165790509D01*
X16127000Y-165790509D01*
X16045261Y-165379577D01*
X15884923Y-164992488D01*
X15652149Y-164644116D01*
X15355884Y-164347851D01*
X15007512Y-164115077D01*
X14620423Y-163954739D01*
X14209491Y-163873000D01*
X13790509Y-163873000D01*
X13379577Y-163954739D01*
X12992488Y-164115077D01*
X12644116Y-164347851D01*
X12347851Y-164644116D01*
X12115077Y-164992488D01*
X11954739Y-165379577D01*
X11873000Y-165790509D01*
X11127000Y-165790509D01*
X11127000Y-134500000D01*
X26470451Y-134500000D01*
X26470451Y-137500000D01*
X26509448Y-137895945D01*
X26624941Y-138276675D01*
X26812492Y-138627557D01*
X27064892Y-138935108D01*
X27372443Y-139187508D01*
X27723325Y-139375059D01*
X28104055Y-139490552D01*
X28500000Y-139529549D01*
X31500000Y-139529549D01*
X31895945Y-139490552D01*
X32276675Y-139375059D01*
X32627557Y-139187508D01*
X32935108Y-138935108D01*
X33187508Y-138627557D01*
X33224320Y-138558686D01*
X34820919Y-138558686D01*
X35157106Y-139027868D01*
X35787068Y-139368237D01*
X36471327Y-139579166D01*
X37183589Y-139652550D01*
X37896482Y-139585569D01*
X38582609Y-139380796D01*
X39215603Y-139046102D01*
X39242894Y-139027868D01*
X39579081Y-138558686D01*
X37200000Y-136179605D01*
X34820919Y-138558686D01*
X33224320Y-138558686D01*
X33375059Y-138276675D01*
X33490552Y-137895945D01*
X33529549Y-137500000D01*
X33529549Y-135983589D01*
X33547450Y-135983589D01*
X33614431Y-136696482D01*
X33819204Y-137382609D01*
X34153898Y-138015603D01*
X34172132Y-138042894D01*
X34641314Y-138379081D01*
X37020395Y-136000000D01*
X37379605Y-136000000D01*
X39758686Y-138379081D01*
X40227868Y-138042894D01*
X40568237Y-137412932D01*
X40779166Y-136728673D01*
X40852550Y-136016411D01*
X40785569Y-135303518D01*
X40580796Y-134617391D01*
X40246102Y-133984397D01*
X40227868Y-133957106D01*
X39758686Y-133620919D01*
X37379605Y-136000000D01*
X37020395Y-136000000D01*
X34641314Y-133620919D01*
X34172132Y-133957106D01*
X33831763Y-134587068D01*
X33620834Y-135271327D01*
X33547450Y-135983589D01*
X33529549Y-135983589D01*
X33529549Y-134500000D01*
X33490552Y-134104055D01*
X33375059Y-133723325D01*
X33224321Y-133441314D01*
X34820919Y-133441314D01*
X37200000Y-135820395D01*
X39579081Y-133441314D01*
X39242894Y-132972132D01*
X38612932Y-132631763D01*
X37928673Y-132420834D01*
X37216411Y-132347450D01*
X36503518Y-132414431D01*
X35817391Y-132619204D01*
X35184397Y-132953898D01*
X35157106Y-132972132D01*
X34820919Y-133441314D01*
X33224321Y-133441314D01*
X33187508Y-133372443D01*
X32935108Y-133064892D01*
X32627557Y-132812492D01*
X32276675Y-132624941D01*
X31895945Y-132509448D01*
X31500000Y-132470451D01*
X28500000Y-132470451D01*
X28104055Y-132509448D01*
X27723325Y-132624941D01*
X27372443Y-132812492D01*
X27064892Y-133064892D01*
X26812492Y-133372443D01*
X26624941Y-133723325D01*
X26509448Y-134104055D01*
X26470451Y-134500000D01*
X11127000Y-134500000D01*
X11127000Y-125030773D01*
X13573000Y-125030773D01*
X13573000Y-126969228D01*
X13608117Y-127325775D01*
X13746895Y-127783267D01*
X13972260Y-128204893D01*
X14275549Y-128574452D01*
X14645108Y-128877741D01*
X15066734Y-129103105D01*
X15524226Y-129241883D01*
X16000000Y-129288743D01*
X16475775Y-129241883D01*
X16933267Y-129103105D01*
X17354893Y-128877741D01*
X17724452Y-128574452D01*
X18027741Y-128204893D01*
X18253105Y-127783267D01*
X18391883Y-127325775D01*
X18427000Y-126969227D01*
X18427000Y-125030772D01*
X18391883Y-124674225D01*
X18253105Y-124216733D01*
X18027741Y-123795107D01*
X17724452Y-123425548D01*
X17354892Y-123122259D01*
X16933266Y-122896895D01*
X16475774Y-122758117D01*
X16000000Y-122711257D01*
X15524225Y-122758117D01*
X15066733Y-122896895D01*
X14645107Y-123122259D01*
X14275548Y-123425548D01*
X13972259Y-123795108D01*
X13746895Y-124216734D01*
X13608117Y-124674226D01*
X13573000Y-125030773D01*
X11127000Y-125030773D01*
X11127000Y-117130773D01*
X13573000Y-117130773D01*
X13573000Y-118869228D01*
X13608117Y-119225775D01*
X13746895Y-119683267D01*
X13972260Y-120104893D01*
X14275549Y-120474452D01*
X14645108Y-120777741D01*
X15066734Y-121003105D01*
X15524226Y-121141883D01*
X16000000Y-121188743D01*
X16475775Y-121141883D01*
X16933267Y-121003105D01*
X17354893Y-120777741D01*
X17724452Y-120474452D01*
X18027741Y-120104893D01*
X18253105Y-119683267D01*
X18391883Y-119225774D01*
X18427000Y-118869227D01*
X18427000Y-117130772D01*
X18391883Y-116774225D01*
X18253105Y-116316733D01*
X18027741Y-115895107D01*
X17724452Y-115525548D01*
X17354892Y-115222259D01*
X16933266Y-114996895D01*
X16475774Y-114858117D01*
X16000000Y-114811257D01*
X15524225Y-114858117D01*
X15066733Y-114996895D01*
X14645107Y-115222259D01*
X14275548Y-115525548D01*
X13972259Y-115895108D01*
X13746895Y-116316734D01*
X13608117Y-116774226D01*
X13573000Y-117130773D01*
X11127000Y-117130773D01*
X11127000Y-105889000D01*
X42873000Y-105889000D01*
X42873000Y-106111000D01*
X42916310Y-106328734D01*
X43001266Y-106533835D01*
X43124602Y-106718421D01*
X43281579Y-106875398D01*
X43466165Y-106998734D01*
X43469221Y-107000000D01*
X43466165Y-107001266D01*
X43281579Y-107124602D01*
X43124602Y-107281579D01*
X43001266Y-107466165D01*
X42916310Y-107671266D01*
X42873000Y-107889000D01*
X42873000Y-108111000D01*
X42916310Y-108328734D01*
X43001266Y-108533835D01*
X43124602Y-108718421D01*
X43281579Y-108875398D01*
X43466165Y-108998734D01*
X43469221Y-109000000D01*
X43466165Y-109001266D01*
X43281579Y-109124602D01*
X43124602Y-109281579D01*
X43001266Y-109466165D01*
X42916310Y-109671266D01*
X42873000Y-109889000D01*
X42873000Y-110111000D01*
X42916310Y-110328734D01*
X43001266Y-110533835D01*
X43124602Y-110718421D01*
X43281579Y-110875398D01*
X43466165Y-110998734D01*
X43671266Y-111083690D01*
X43889000Y-111127000D01*
X44111000Y-111127000D01*
X44328734Y-111083690D01*
X44533835Y-110998734D01*
X44718421Y-110875398D01*
X44875398Y-110718421D01*
X44998734Y-110533835D01*
X45000000Y-110530779D01*
X45001266Y-110533835D01*
X45124602Y-110718421D01*
X45281579Y-110875398D01*
X45466165Y-110998734D01*
X45671266Y-111083690D01*
X45889000Y-111127000D01*
X46111000Y-111127000D01*
X46328734Y-111083690D01*
X46533835Y-110998734D01*
X46718421Y-110875398D01*
X46875398Y-110718421D01*
X46998734Y-110533835D01*
X47000000Y-110530779D01*
X47001266Y-110533835D01*
X47124602Y-110718421D01*
X47281579Y-110875398D01*
X47466165Y-110998734D01*
X47671266Y-111083690D01*
X47889000Y-111127000D01*
X48111000Y-111127000D01*
X48328734Y-111083690D01*
X48533835Y-110998734D01*
X48718421Y-110875398D01*
X48875398Y-110718421D01*
X48998734Y-110533835D01*
X49083690Y-110328734D01*
X49127000Y-110111000D01*
X49127000Y-109889000D01*
X49083690Y-109671266D01*
X48998734Y-109466165D01*
X48875398Y-109281579D01*
X48718421Y-109124602D01*
X48533835Y-109001266D01*
X48530779Y-109000000D01*
X48533835Y-108998734D01*
X48718421Y-108875398D01*
X48875398Y-108718421D01*
X48998734Y-108533835D01*
X49083690Y-108328734D01*
X49127000Y-108111000D01*
X49127000Y-107889000D01*
X49083690Y-107671266D01*
X48998734Y-107466165D01*
X48875398Y-107281579D01*
X48718421Y-107124602D01*
X48533835Y-107001266D01*
X48530779Y-107000000D01*
X48533835Y-106998734D01*
X48718421Y-106875398D01*
X48875398Y-106718421D01*
X48998734Y-106533835D01*
X49083690Y-106328734D01*
X49127000Y-106111000D01*
X49127000Y-105889000D01*
X49083690Y-105671266D01*
X48998734Y-105466165D01*
X48875398Y-105281579D01*
X48718421Y-105124602D01*
X48533835Y-105001266D01*
X48328734Y-104916310D01*
X48111000Y-104873000D01*
X47889000Y-104873000D01*
X47671266Y-104916310D01*
X47466165Y-105001266D01*
X47281579Y-105124602D01*
X47124602Y-105281579D01*
X47001266Y-105466165D01*
X47000000Y-105469221D01*
X46998734Y-105466165D01*
X46875398Y-105281579D01*
X46718421Y-105124602D01*
X46533835Y-105001266D01*
X46328734Y-104916310D01*
X46111000Y-104873000D01*
X45889000Y-104873000D01*
X45671266Y-104916310D01*
X45466165Y-105001266D01*
X45281579Y-105124602D01*
X45124602Y-105281579D01*
X45001266Y-105466165D01*
X45000000Y-105469221D01*
X44998734Y-105466165D01*
X44875398Y-105281579D01*
X44718421Y-105124602D01*
X44533835Y-105001266D01*
X44328734Y-104916310D01*
X44111000Y-104873000D01*
X43889000Y-104873000D01*
X43671266Y-104916310D01*
X43466165Y-105001266D01*
X43281579Y-105124602D01*
X43124602Y-105281579D01*
X43001266Y-105466165D01*
X42916310Y-105671266D01*
X42873000Y-105889000D01*
X11127000Y-105889000D01*
X11127000Y-23147000D01*
X27615000Y-23147000D01*
X27615000Y-23897000D01*
X27660624Y-24106233D01*
X27746191Y-24302545D01*
X27868413Y-24478391D01*
X28022592Y-24627014D01*
X28202803Y-24742702D01*
X28405999Y-24814408D01*
X28573000Y-24687502D01*
X28573000Y-23147000D01*
X27615000Y-23147000D01*
X11127000Y-23147000D01*
X11127000Y-22143000D01*
X27615000Y-22143000D01*
X27615000Y-22893000D01*
X28573000Y-22893000D01*
X28573000Y-21352498D01*
X28827000Y-21352498D01*
X28827000Y-22893000D01*
X29093537Y-22893000D01*
X29100368Y-22928989D01*
X29173043Y-23108893D01*
X29181233Y-23124216D01*
X29379480Y-23140912D01*
X29373392Y-23147000D01*
X28827000Y-23147000D01*
X28827000Y-24687502D01*
X28994001Y-24814408D01*
X29197197Y-24742702D01*
X29377408Y-24627014D01*
X29531587Y-24478391D01*
X29653809Y-24302545D01*
X29720225Y-24150170D01*
X29870395Y-24000000D01*
X29856253Y-23985858D01*
X30035858Y-23806253D01*
X30042947Y-23813342D01*
X30023000Y-23913623D01*
X30023000Y-24086377D01*
X30042947Y-24186658D01*
X29559088Y-24670517D01*
X29575784Y-24868767D01*
X29754384Y-24944589D01*
X29944344Y-24984110D01*
X30138364Y-24985813D01*
X30328989Y-24949632D01*
X30508893Y-24876957D01*
X30524216Y-24868767D01*
X30530333Y-24796136D01*
X30644189Y-24843297D01*
X30813623Y-24877000D01*
X30986377Y-24877000D01*
X31155811Y-24843297D01*
X31315415Y-24777187D01*
X31325000Y-24770783D01*
X31334585Y-24777187D01*
X31494189Y-24843297D01*
X31663623Y-24877000D01*
X31836377Y-24877000D01*
X32005811Y-24843297D01*
X32165415Y-24777187D01*
X32175000Y-24770783D01*
X32184585Y-24777187D01*
X32344189Y-24843297D01*
X32513623Y-24877000D01*
X32686377Y-24877000D01*
X32855811Y-24843297D01*
X33015415Y-24777187D01*
X33025000Y-24770783D01*
X33034585Y-24777187D01*
X33194189Y-24843297D01*
X33363623Y-24877000D01*
X33536377Y-24877000D01*
X33705811Y-24843297D01*
X33865415Y-24777187D01*
X33875000Y-24770783D01*
X33884585Y-24777187D01*
X34044189Y-24843297D01*
X34213623Y-24877000D01*
X34386377Y-24877000D01*
X34555811Y-24843297D01*
X34715415Y-24777187D01*
X34725000Y-24770783D01*
X34734585Y-24777187D01*
X34894189Y-24843297D01*
X35063623Y-24877000D01*
X35236377Y-24877000D01*
X35405811Y-24843297D01*
X35519667Y-24796136D01*
X35525784Y-24868767D01*
X35704384Y-24944589D01*
X35894344Y-24984110D01*
X36088364Y-24985813D01*
X36278989Y-24949632D01*
X36458893Y-24876957D01*
X36474216Y-24868767D01*
X36490912Y-24670517D01*
X36007053Y-24186658D01*
X36027000Y-24086377D01*
X36027000Y-23913623D01*
X36007053Y-23813342D01*
X36014143Y-23806253D01*
X36193748Y-23985858D01*
X36179605Y-24000000D01*
X36329775Y-24150170D01*
X36396191Y-24302545D01*
X36518413Y-24478391D01*
X36672592Y-24627014D01*
X36852803Y-24742702D01*
X37055999Y-24814408D01*
X37223000Y-24687502D01*
X37223000Y-23147000D01*
X37477000Y-23147000D01*
X37477000Y-24687502D01*
X37644001Y-24814408D01*
X37847197Y-24742702D01*
X38027408Y-24627014D01*
X38181587Y-24478391D01*
X38303809Y-24302545D01*
X38389376Y-24106233D01*
X38435000Y-23897000D01*
X38435000Y-23147000D01*
X37477000Y-23147000D01*
X37223000Y-23147000D01*
X36676608Y-23147000D01*
X36670520Y-23140912D01*
X36868767Y-23124216D01*
X36944589Y-22945616D01*
X36955536Y-22893000D01*
X37223000Y-22893000D01*
X37223000Y-21352498D01*
X37477000Y-21352498D01*
X37477000Y-22893000D01*
X38435000Y-22893000D01*
X38435000Y-22143000D01*
X38389376Y-21933767D01*
X38303809Y-21737455D01*
X38181587Y-21561609D01*
X38027408Y-21412986D01*
X37847197Y-21297298D01*
X37644001Y-21225592D01*
X37477000Y-21352498D01*
X37223000Y-21352498D01*
X37055999Y-21225592D01*
X36852803Y-21297298D01*
X36672592Y-21412986D01*
X36518413Y-21561609D01*
X36396191Y-21737455D01*
X36392272Y-21746445D01*
X36295616Y-21705411D01*
X36105656Y-21665890D01*
X35911636Y-21664187D01*
X35721011Y-21700368D01*
X35541107Y-21773043D01*
X35525784Y-21781233D01*
X35519667Y-21853864D01*
X35405811Y-21806703D01*
X35236377Y-21773000D01*
X35063623Y-21773000D01*
X34894189Y-21806703D01*
X34734585Y-21872813D01*
X34725000Y-21879217D01*
X34715415Y-21872813D01*
X34555811Y-21806703D01*
X34386377Y-21773000D01*
X34213623Y-21773000D01*
X34044189Y-21806703D01*
X33884585Y-21872813D01*
X33875000Y-21879217D01*
X33865415Y-21872813D01*
X33705811Y-21806703D01*
X33536377Y-21773000D01*
X33363623Y-21773000D01*
X33194189Y-21806703D01*
X33034585Y-21872813D01*
X33025000Y-21879217D01*
X33015415Y-21872813D01*
X32855811Y-21806703D01*
X32686377Y-21773000D01*
X32513623Y-21773000D01*
X32344189Y-21806703D01*
X32184585Y-21872813D01*
X32175000Y-21879217D01*
X32165415Y-21872813D01*
X32005811Y-21806703D01*
X31836377Y-21773000D01*
X31663623Y-21773000D01*
X31494189Y-21806703D01*
X31334585Y-21872813D01*
X31325000Y-21879217D01*
X31315415Y-21872813D01*
X31155811Y-21806703D01*
X30986377Y-21773000D01*
X30813623Y-21773000D01*
X30644189Y-21806703D01*
X30530333Y-21853864D01*
X30524216Y-21781233D01*
X30345616Y-21705411D01*
X30155656Y-21665890D01*
X29961636Y-21664187D01*
X29771011Y-21700368D01*
X29657611Y-21746178D01*
X29653809Y-21737455D01*
X29531587Y-21561609D01*
X29377408Y-21412986D01*
X29197197Y-21297298D01*
X28994001Y-21225592D01*
X28827000Y-21352498D01*
X28573000Y-21352498D01*
X28405999Y-21225592D01*
X28202803Y-21297298D01*
X28022592Y-21412986D01*
X27868413Y-21561609D01*
X27746191Y-21737455D01*
X27660624Y-21933767D01*
X27615000Y-22143000D01*
X11127000Y-22143000D01*
X11127000Y-19767000D01*
X27615000Y-19767000D01*
X27615000Y-20167000D01*
X27660624Y-20376233D01*
X27746191Y-20572545D01*
X27868413Y-20748391D01*
X28022592Y-20897014D01*
X28202803Y-21012702D01*
X28405999Y-21084408D01*
X28573000Y-20957502D01*
X28573000Y-19767000D01*
X28827000Y-19767000D01*
X28827000Y-20957502D01*
X28994001Y-21084408D01*
X29197197Y-21012702D01*
X29377408Y-20897014D01*
X29531587Y-20748391D01*
X29653809Y-20572545D01*
X29739376Y-20376233D01*
X29785000Y-20167000D01*
X29785000Y-19767000D01*
X36265000Y-19767000D01*
X36265000Y-20167000D01*
X36310624Y-20376233D01*
X36396191Y-20572545D01*
X36518413Y-20748391D01*
X36672592Y-20897014D01*
X36852803Y-21012702D01*
X37055999Y-21084408D01*
X37223000Y-20957502D01*
X37223000Y-19767000D01*
X37477000Y-19767000D01*
X37477000Y-20957502D01*
X37644001Y-21084408D01*
X37847197Y-21012702D01*
X38027408Y-20897014D01*
X38181587Y-20748391D01*
X38303809Y-20572545D01*
X38389376Y-20376233D01*
X38435000Y-20167000D01*
X38435000Y-19767000D01*
X37477000Y-19767000D01*
X37223000Y-19767000D01*
X36265000Y-19767000D01*
X29785000Y-19767000D01*
X28827000Y-19767000D01*
X28573000Y-19767000D01*
X27615000Y-19767000D01*
X11127000Y-19767000D01*
X11127000Y-19113000D01*
X27615000Y-19113000D01*
X27615000Y-19513000D01*
X28573000Y-19513000D01*
X28573000Y-18322498D01*
X28827000Y-18322498D01*
X28827000Y-19513000D01*
X29785000Y-19513000D01*
X29785000Y-19113000D01*
X36265000Y-19113000D01*
X36265000Y-19513000D01*
X37223000Y-19513000D01*
X37223000Y-18322498D01*
X37477000Y-18322498D01*
X37477000Y-19513000D01*
X38435000Y-19513000D01*
X38435000Y-19113000D01*
X38389376Y-18903767D01*
X38303809Y-18707455D01*
X38181587Y-18531609D01*
X38027408Y-18382986D01*
X37847197Y-18267298D01*
X37644001Y-18195592D01*
X37477000Y-18322498D01*
X37223000Y-18322498D01*
X37055999Y-18195592D01*
X36852803Y-18267298D01*
X36672592Y-18382986D01*
X36518413Y-18531609D01*
X36396191Y-18707455D01*
X36310624Y-18903767D01*
X36265000Y-19113000D01*
X29785000Y-19113000D01*
X29739376Y-18903767D01*
X29653809Y-18707455D01*
X29531587Y-18531609D01*
X29377408Y-18382986D01*
X29197197Y-18267298D01*
X28994001Y-18195592D01*
X28827000Y-18322498D01*
X28573000Y-18322498D01*
X28405999Y-18195592D01*
X28202803Y-18267298D01*
X28022592Y-18382986D01*
X27868413Y-18531609D01*
X27746191Y-18707455D01*
X27660624Y-18903767D01*
X27615000Y-19113000D01*
X11127000Y-19113000D01*
X11127000Y-13790509D01*
X11873000Y-13790509D01*
X11873000Y-14209491D01*
X11954739Y-14620423D01*
X12115077Y-15007512D01*
X12347851Y-15355884D01*
X12644116Y-15652149D01*
X12992488Y-15884923D01*
X13379577Y-16045261D01*
X13790509Y-16127000D01*
X14209491Y-16127000D01*
X14620423Y-16045261D01*
X15007512Y-15884923D01*
X15355884Y-15652149D01*
X15652149Y-15355884D01*
X15884923Y-15007512D01*
X16045261Y-14620423D01*
X16127000Y-14209491D01*
X16127000Y-13800358D01*
X70973000Y-13800358D01*
X70973000Y-14199642D01*
X71050896Y-14591254D01*
X71203696Y-14960145D01*
X71425526Y-15292137D01*
X71707863Y-15574474D01*
X72039855Y-15796304D01*
X72408746Y-15949104D01*
X72800358Y-16027000D01*
X73199642Y-16027000D01*
X73591254Y-15949104D01*
X73960145Y-15796304D01*
X74048411Y-15737326D01*
X80473001Y-16879476D01*
X80473000Y-18984140D01*
X80204496Y-19204495D01*
X79888711Y-19589281D01*
X79654061Y-20028280D01*
X79509565Y-20504621D01*
X79473001Y-20875858D01*
X79473000Y-26124141D01*
X79473001Y-26124151D01*
X79473000Y-130375858D01*
X79460773Y-130500000D01*
X79509564Y-130995379D01*
X79654060Y-131471720D01*
X79888710Y-131910719D01*
X79963020Y-132001266D01*
X80204495Y-132295505D01*
X80589281Y-132611290D01*
X81028280Y-132845940D01*
X81504621Y-132990436D01*
X82000000Y-133039227D01*
X82124141Y-133027000D01*
X90873000Y-133027000D01*
X90873000Y-133111000D01*
X90916310Y-133328734D01*
X91001266Y-133533835D01*
X91124602Y-133718421D01*
X91281579Y-133875398D01*
X91466165Y-133998734D01*
X91671266Y-134083690D01*
X91889000Y-134127000D01*
X92111000Y-134127000D01*
X92328734Y-134083690D01*
X92533835Y-133998734D01*
X92718421Y-133875398D01*
X92875398Y-133718421D01*
X92998734Y-133533835D01*
X93083690Y-133328734D01*
X93127000Y-133111000D01*
X93127000Y-132889000D01*
X93104335Y-132775056D01*
X93410719Y-132611290D01*
X93795505Y-132295505D01*
X94111290Y-131910719D01*
X94345940Y-131471720D01*
X94490436Y-130995379D01*
X94539227Y-130500000D01*
X94490436Y-130004621D01*
X94345940Y-129528280D01*
X94111290Y-129089281D01*
X93795505Y-128704495D01*
X93410719Y-128388710D01*
X93104335Y-128224944D01*
X93127000Y-128111000D01*
X93127000Y-127889000D01*
X93083690Y-127671266D01*
X92998734Y-127466165D01*
X92875398Y-127281579D01*
X92718421Y-127124602D01*
X92533835Y-127001266D01*
X92328734Y-126916310D01*
X92111000Y-126873000D01*
X91889000Y-126873000D01*
X91671266Y-126916310D01*
X91466165Y-127001266D01*
X91281579Y-127124602D01*
X91124602Y-127281579D01*
X91001266Y-127466165D01*
X90916310Y-127671266D01*
X90873000Y-127889000D01*
X90873000Y-127973000D01*
X84527000Y-127973000D01*
X84527000Y-113898849D01*
X90973000Y-113898849D01*
X90973000Y-114101151D01*
X91012467Y-114299565D01*
X91089885Y-114486467D01*
X91202277Y-114654674D01*
X91345326Y-114797723D01*
X91513533Y-114910115D01*
X91700435Y-114987533D01*
X91898849Y-115027000D01*
X92101151Y-115027000D01*
X92299565Y-114987533D01*
X92486467Y-114910115D01*
X92654674Y-114797723D01*
X92797723Y-114654674D01*
X92910115Y-114486467D01*
X92987533Y-114299565D01*
X93027000Y-114101151D01*
X93027000Y-113898849D01*
X92987533Y-113700435D01*
X92910115Y-113513533D01*
X92797723Y-113345326D01*
X92654674Y-113202277D01*
X92486467Y-113089885D01*
X92299565Y-113012467D01*
X92101151Y-112973000D01*
X91898849Y-112973000D01*
X91700435Y-113012467D01*
X91513533Y-113089885D01*
X91345326Y-113202277D01*
X91202277Y-113345326D01*
X91089885Y-113513533D01*
X91012467Y-113700435D01*
X90973000Y-113898849D01*
X84527000Y-113898849D01*
X84527000Y-87957376D01*
X84563020Y-88001266D01*
X84804495Y-88295505D01*
X85189281Y-88611290D01*
X85628280Y-88845940D01*
X86104621Y-88990436D01*
X86600000Y-89039227D01*
X86724141Y-89027000D01*
X90873000Y-89027000D01*
X90873000Y-89111000D01*
X90916310Y-89328734D01*
X91001266Y-89533835D01*
X91124602Y-89718421D01*
X91281579Y-89875398D01*
X91466165Y-89998734D01*
X91671266Y-90083690D01*
X91889000Y-90127000D01*
X92111000Y-90127000D01*
X92328734Y-90083690D01*
X92533835Y-89998734D01*
X92718421Y-89875398D01*
X92875398Y-89718421D01*
X92998734Y-89533835D01*
X93083690Y-89328734D01*
X93127000Y-89111000D01*
X93127000Y-88889000D01*
X93104335Y-88775056D01*
X93410719Y-88611290D01*
X93795505Y-88295505D01*
X94111290Y-87910719D01*
X94345940Y-87471720D01*
X94490436Y-86995379D01*
X94539227Y-86500000D01*
X94490436Y-86004621D01*
X94345940Y-85528280D01*
X94111290Y-85089281D01*
X93795505Y-84704495D01*
X93410719Y-84388710D01*
X93104335Y-84224944D01*
X93127000Y-84111000D01*
X93127000Y-83889000D01*
X93083690Y-83671266D01*
X92998734Y-83466165D01*
X92875398Y-83281579D01*
X92718421Y-83124602D01*
X92533835Y-83001266D01*
X92328734Y-82916310D01*
X92111000Y-82873000D01*
X91889000Y-82873000D01*
X91671266Y-82916310D01*
X91466165Y-83001266D01*
X91281579Y-83124602D01*
X91124602Y-83281579D01*
X91001266Y-83466165D01*
X90916310Y-83671266D01*
X90873000Y-83889000D01*
X90873000Y-83973000D01*
X89127000Y-83973000D01*
X89127000Y-69898849D01*
X90973000Y-69898849D01*
X90973000Y-70101151D01*
X91012467Y-70299565D01*
X91089885Y-70486467D01*
X91202277Y-70654674D01*
X91345326Y-70797723D01*
X91513533Y-70910115D01*
X91700435Y-70987533D01*
X91898849Y-71027000D01*
X92101151Y-71027000D01*
X92299565Y-70987533D01*
X92486467Y-70910115D01*
X92654674Y-70797723D01*
X92797723Y-70654674D01*
X92910115Y-70486467D01*
X92987533Y-70299565D01*
X93027000Y-70101151D01*
X93027000Y-69898849D01*
X92987533Y-69700435D01*
X92910115Y-69513533D01*
X92797723Y-69345326D01*
X92654674Y-69202277D01*
X92486467Y-69089885D01*
X92299565Y-69012467D01*
X92101151Y-68973000D01*
X91898849Y-68973000D01*
X91700435Y-69012467D01*
X91513533Y-69089885D01*
X91345326Y-69202277D01*
X91202277Y-69345326D01*
X91089885Y-69513533D01*
X91012467Y-69700435D01*
X90973000Y-69898849D01*
X89127000Y-69898849D01*
X89127000Y-43957376D01*
X89163020Y-44001266D01*
X89404495Y-44295505D01*
X89789281Y-44611290D01*
X90228280Y-44845940D01*
X90704621Y-44990436D01*
X90873000Y-45007020D01*
X90873000Y-45111000D01*
X90916310Y-45328734D01*
X91001266Y-45533835D01*
X91124602Y-45718421D01*
X91281579Y-45875398D01*
X91466165Y-45998734D01*
X91671266Y-46083690D01*
X91889000Y-46127000D01*
X92111000Y-46127000D01*
X92328734Y-46083690D01*
X92533835Y-45998734D01*
X92718421Y-45875398D01*
X92875398Y-45718421D01*
X92998734Y-45533835D01*
X93083690Y-45328734D01*
X93127000Y-45111000D01*
X93127000Y-44889000D01*
X93104335Y-44775056D01*
X93410719Y-44611290D01*
X93795505Y-44295505D01*
X94111290Y-43910719D01*
X94345940Y-43471720D01*
X94490436Y-42995379D01*
X94539227Y-42500000D01*
X94490436Y-42004621D01*
X94345940Y-41528280D01*
X94111290Y-41089281D01*
X93795505Y-40704495D01*
X93727000Y-40648275D01*
X93727000Y-20875858D01*
X93690436Y-20504621D01*
X93545940Y-20028280D01*
X93311290Y-19589281D01*
X92995505Y-19204495D01*
X92727000Y-18984139D01*
X92727000Y-15633359D01*
X92732113Y-15516490D01*
X92715571Y-15408953D01*
X92704905Y-15300656D01*
X92692748Y-15260581D01*
X92686382Y-15219193D01*
X92649179Y-15116950D01*
X92617590Y-15012815D01*
X92597847Y-14975879D01*
X92583530Y-14936532D01*
X92527097Y-14843514D01*
X92475797Y-14747540D01*
X92449227Y-14715165D01*
X92427509Y-14679367D01*
X92354013Y-14599146D01*
X92284976Y-14515024D01*
X92252602Y-14488455D01*
X92224316Y-14457581D01*
X92136572Y-14393232D01*
X92052460Y-14324203D01*
X92015532Y-14304465D01*
X91981760Y-14279697D01*
X91883143Y-14233701D01*
X91787185Y-14182410D01*
X91747111Y-14170254D01*
X91709160Y-14152553D01*
X91603467Y-14126680D01*
X91499344Y-14095095D01*
X91382917Y-14083628D01*
X89400027Y-13800358D01*
X108973000Y-13800358D01*
X108973000Y-14199642D01*
X109050896Y-14591254D01*
X109203696Y-14960145D01*
X109425526Y-15292137D01*
X109707863Y-15574474D01*
X110039855Y-15796304D01*
X110408746Y-15949104D01*
X110800358Y-16027000D01*
X111199642Y-16027000D01*
X111591254Y-15949104D01*
X111960145Y-15796304D01*
X112048411Y-15737326D01*
X118473001Y-16879476D01*
X118473000Y-18984140D01*
X118204496Y-19204495D01*
X117888711Y-19589281D01*
X117654061Y-20028280D01*
X117509565Y-20504621D01*
X117473001Y-20875858D01*
X117473000Y-26124141D01*
X117473001Y-26124151D01*
X117473000Y-130375858D01*
X117460773Y-130500000D01*
X117509564Y-130995379D01*
X117654060Y-131471720D01*
X117888710Y-131910719D01*
X117963020Y-132001266D01*
X118204495Y-132295505D01*
X118589281Y-132611290D01*
X119028280Y-132845940D01*
X119504621Y-132990436D01*
X120000000Y-133039227D01*
X120124141Y-133027000D01*
X128873000Y-133027000D01*
X128873000Y-133111000D01*
X128916310Y-133328734D01*
X129001266Y-133533835D01*
X129124602Y-133718421D01*
X129281579Y-133875398D01*
X129466165Y-133998734D01*
X129671266Y-134083690D01*
X129889000Y-134127000D01*
X130111000Y-134127000D01*
X130328734Y-134083690D01*
X130533835Y-133998734D01*
X130718421Y-133875398D01*
X130875398Y-133718421D01*
X130998734Y-133533835D01*
X131083690Y-133328734D01*
X131127000Y-133111000D01*
X131127000Y-132889000D01*
X131104335Y-132775056D01*
X131410719Y-132611290D01*
X131795505Y-132295505D01*
X132111290Y-131910719D01*
X132345940Y-131471720D01*
X132490436Y-130995379D01*
X132539227Y-130500000D01*
X132490436Y-130004621D01*
X132345940Y-129528280D01*
X132111290Y-129089281D01*
X131795505Y-128704495D01*
X131410719Y-128388710D01*
X131104335Y-128224944D01*
X131127000Y-128111000D01*
X131127000Y-127889000D01*
X131083690Y-127671266D01*
X130998734Y-127466165D01*
X130875398Y-127281579D01*
X130718421Y-127124602D01*
X130533835Y-127001266D01*
X130328734Y-126916310D01*
X130111000Y-126873000D01*
X129889000Y-126873000D01*
X129671266Y-126916310D01*
X129466165Y-127001266D01*
X129281579Y-127124602D01*
X129124602Y-127281579D01*
X129001266Y-127466165D01*
X128916310Y-127671266D01*
X128873000Y-127889000D01*
X128873000Y-127973000D01*
X122527000Y-127973000D01*
X122527000Y-113898849D01*
X128973000Y-113898849D01*
X128973000Y-114101151D01*
X129012467Y-114299565D01*
X129089885Y-114486467D01*
X129202277Y-114654674D01*
X129345326Y-114797723D01*
X129513533Y-114910115D01*
X129700435Y-114987533D01*
X129898849Y-115027000D01*
X130101151Y-115027000D01*
X130299565Y-114987533D01*
X130486467Y-114910115D01*
X130654674Y-114797723D01*
X130797723Y-114654674D01*
X130910115Y-114486467D01*
X130987533Y-114299565D01*
X131027000Y-114101151D01*
X131027000Y-113898849D01*
X130987533Y-113700435D01*
X130910115Y-113513533D01*
X130797723Y-113345326D01*
X130654674Y-113202277D01*
X130486467Y-113089885D01*
X130299565Y-113012467D01*
X130101151Y-112973000D01*
X129898849Y-112973000D01*
X129700435Y-113012467D01*
X129513533Y-113089885D01*
X129345326Y-113202277D01*
X129202277Y-113345326D01*
X129089885Y-113513533D01*
X129012467Y-113700435D01*
X128973000Y-113898849D01*
X122527000Y-113898849D01*
X122527000Y-87957376D01*
X122563020Y-88001266D01*
X122804495Y-88295505D01*
X123189281Y-88611290D01*
X123628280Y-88845940D01*
X124104621Y-88990436D01*
X124600000Y-89039227D01*
X124724141Y-89027000D01*
X128873000Y-89027000D01*
X128873000Y-89111000D01*
X128916310Y-89328734D01*
X129001266Y-89533835D01*
X129124602Y-89718421D01*
X129281579Y-89875398D01*
X129466165Y-89998734D01*
X129671266Y-90083690D01*
X129889000Y-90127000D01*
X130111000Y-90127000D01*
X130328734Y-90083690D01*
X130533835Y-89998734D01*
X130718421Y-89875398D01*
X130875398Y-89718421D01*
X130998734Y-89533835D01*
X131083690Y-89328734D01*
X131127000Y-89111000D01*
X131127000Y-88889000D01*
X131104335Y-88775056D01*
X131410719Y-88611290D01*
X131795505Y-88295505D01*
X132111290Y-87910719D01*
X132345940Y-87471720D01*
X132490436Y-86995379D01*
X132539227Y-86500000D01*
X132490436Y-86004621D01*
X132345940Y-85528280D01*
X132111290Y-85089281D01*
X131795505Y-84704495D01*
X131410719Y-84388710D01*
X131104335Y-84224944D01*
X131127000Y-84111000D01*
X131127000Y-83889000D01*
X131083690Y-83671266D01*
X130998734Y-83466165D01*
X130875398Y-83281579D01*
X130718421Y-83124602D01*
X130533835Y-83001266D01*
X130328734Y-82916310D01*
X130111000Y-82873000D01*
X129889000Y-82873000D01*
X129671266Y-82916310D01*
X129466165Y-83001266D01*
X129281579Y-83124602D01*
X129124602Y-83281579D01*
X129001266Y-83466165D01*
X128916310Y-83671266D01*
X128873000Y-83889000D01*
X128873000Y-83973000D01*
X127127000Y-83973000D01*
X127127000Y-69898849D01*
X128973000Y-69898849D01*
X128973000Y-70101151D01*
X129012467Y-70299565D01*
X129089885Y-70486467D01*
X129202277Y-70654674D01*
X129345326Y-70797723D01*
X129513533Y-70910115D01*
X129700435Y-70987533D01*
X129898849Y-71027000D01*
X130101151Y-71027000D01*
X130299565Y-70987533D01*
X130486467Y-70910115D01*
X130654674Y-70797723D01*
X130797723Y-70654674D01*
X130910115Y-70486467D01*
X130987533Y-70299565D01*
X131027000Y-70101151D01*
X131027000Y-69898849D01*
X130987533Y-69700435D01*
X130910115Y-69513533D01*
X130797723Y-69345326D01*
X130654674Y-69202277D01*
X130486467Y-69089885D01*
X130299565Y-69012467D01*
X130101151Y-68973000D01*
X129898849Y-68973000D01*
X129700435Y-69012467D01*
X129513533Y-69089885D01*
X129345326Y-69202277D01*
X129202277Y-69345326D01*
X129089885Y-69513533D01*
X129012467Y-69700435D01*
X128973000Y-69898849D01*
X127127000Y-69898849D01*
X127127000Y-43957377D01*
X127163019Y-44001266D01*
X127404494Y-44295505D01*
X127789280Y-44611290D01*
X128228279Y-44845940D01*
X128704620Y-44990436D01*
X128873000Y-45007020D01*
X128873000Y-45111000D01*
X128916310Y-45328734D01*
X129001266Y-45533835D01*
X129124602Y-45718421D01*
X129281579Y-45875398D01*
X129466165Y-45998734D01*
X129671266Y-46083690D01*
X129889000Y-46127000D01*
X130111000Y-46127000D01*
X130328734Y-46083690D01*
X130533835Y-45998734D01*
X130718421Y-45875398D01*
X130875398Y-45718421D01*
X130998734Y-45533835D01*
X131083690Y-45328734D01*
X131127000Y-45111000D01*
X131127000Y-44889000D01*
X131104335Y-44775056D01*
X131410719Y-44611290D01*
X131795505Y-44295505D01*
X132111290Y-43910719D01*
X132345940Y-43471720D01*
X132490436Y-42995379D01*
X132539227Y-42500000D01*
X132490436Y-42004621D01*
X132345940Y-41528280D01*
X132111290Y-41089281D01*
X131795505Y-40704495D01*
X131726999Y-40648274D01*
X131726999Y-20875858D01*
X131690435Y-20504621D01*
X131545939Y-20028280D01*
X131311289Y-19589281D01*
X130995504Y-19204495D01*
X130726999Y-18984139D01*
X130726999Y-15633382D01*
X130732113Y-15516490D01*
X130715569Y-15408936D01*
X130704904Y-15300656D01*
X130692749Y-15260586D01*
X130686382Y-15219194D01*
X130649174Y-15116937D01*
X130617589Y-15012815D01*
X130597849Y-14975885D01*
X130583530Y-14936532D01*
X130527088Y-14843501D01*
X130475796Y-14747540D01*
X130449230Y-14715170D01*
X130427509Y-14679367D01*
X130354003Y-14599135D01*
X130284975Y-14515024D01*
X130252605Y-14488459D01*
X130224316Y-14457581D01*
X130136566Y-14393228D01*
X130052459Y-14324203D01*
X130015530Y-14304464D01*
X129981760Y-14279698D01*
X129883144Y-14233702D01*
X129787184Y-14182410D01*
X129747112Y-14170254D01*
X129709160Y-14152553D01*
X129603462Y-14126679D01*
X129499343Y-14095095D01*
X129382919Y-14083628D01*
X127400028Y-13800358D01*
X146973000Y-13800358D01*
X146973000Y-14199642D01*
X147050896Y-14591254D01*
X147203696Y-14960145D01*
X147425526Y-15292137D01*
X147707863Y-15574474D01*
X148039855Y-15796304D01*
X148408746Y-15949104D01*
X148800358Y-16027000D01*
X149199642Y-16027000D01*
X149591254Y-15949104D01*
X149960145Y-15796304D01*
X150048411Y-15737326D01*
X156473001Y-16879476D01*
X156473000Y-18984140D01*
X156204496Y-19204495D01*
X155888711Y-19589281D01*
X155654061Y-20028280D01*
X155509565Y-20504621D01*
X155473001Y-20875858D01*
X155473000Y-26124141D01*
X155473001Y-26124151D01*
X155473000Y-130375858D01*
X155460773Y-130500000D01*
X155509564Y-130995379D01*
X155654060Y-131471720D01*
X155888710Y-131910719D01*
X155963020Y-132001266D01*
X156204495Y-132295505D01*
X156589281Y-132611290D01*
X157028280Y-132845940D01*
X157504621Y-132990436D01*
X158000000Y-133039227D01*
X158124141Y-133027000D01*
X166873000Y-133027000D01*
X166873000Y-133111000D01*
X166916310Y-133328734D01*
X167001266Y-133533835D01*
X167124602Y-133718421D01*
X167281579Y-133875398D01*
X167466165Y-133998734D01*
X167671266Y-134083690D01*
X167889000Y-134127000D01*
X168111000Y-134127000D01*
X168328734Y-134083690D01*
X168533835Y-133998734D01*
X168718421Y-133875398D01*
X168875398Y-133718421D01*
X168998734Y-133533835D01*
X169083690Y-133328734D01*
X169127000Y-133111000D01*
X169127000Y-132889000D01*
X169104335Y-132775056D01*
X169410719Y-132611290D01*
X169795505Y-132295505D01*
X170111290Y-131910719D01*
X170345940Y-131471720D01*
X170490436Y-130995379D01*
X170539227Y-130500000D01*
X170490436Y-130004621D01*
X170345940Y-129528280D01*
X170111290Y-129089281D01*
X169795505Y-128704495D01*
X169410719Y-128388710D01*
X169104335Y-128224944D01*
X169127000Y-128111000D01*
X169127000Y-127889000D01*
X169083690Y-127671266D01*
X168998734Y-127466165D01*
X168875398Y-127281579D01*
X168718421Y-127124602D01*
X168533835Y-127001266D01*
X168328734Y-126916310D01*
X168111000Y-126873000D01*
X167889000Y-126873000D01*
X167671266Y-126916310D01*
X167466165Y-127001266D01*
X167281579Y-127124602D01*
X167124602Y-127281579D01*
X167001266Y-127466165D01*
X166916310Y-127671266D01*
X166873000Y-127889000D01*
X166873000Y-127973000D01*
X160527000Y-127973000D01*
X160527000Y-113898849D01*
X166973000Y-113898849D01*
X166973000Y-114101151D01*
X167012467Y-114299565D01*
X167089885Y-114486467D01*
X167202277Y-114654674D01*
X167345326Y-114797723D01*
X167513533Y-114910115D01*
X167700435Y-114987533D01*
X167898849Y-115027000D01*
X168101151Y-115027000D01*
X168299565Y-114987533D01*
X168486467Y-114910115D01*
X168654674Y-114797723D01*
X168797723Y-114654674D01*
X168910115Y-114486467D01*
X168987533Y-114299565D01*
X169027000Y-114101151D01*
X169027000Y-113898849D01*
X168987533Y-113700435D01*
X168910115Y-113513533D01*
X168797723Y-113345326D01*
X168654674Y-113202277D01*
X168486467Y-113089885D01*
X168299565Y-113012467D01*
X168101151Y-112973000D01*
X167898849Y-112973000D01*
X167700435Y-113012467D01*
X167513533Y-113089885D01*
X167345326Y-113202277D01*
X167202277Y-113345326D01*
X167089885Y-113513533D01*
X167012467Y-113700435D01*
X166973000Y-113898849D01*
X160527000Y-113898849D01*
X160527000Y-87957376D01*
X160563020Y-88001266D01*
X160804495Y-88295505D01*
X161189281Y-88611290D01*
X161628280Y-88845940D01*
X162104621Y-88990436D01*
X162600000Y-89039227D01*
X162724141Y-89027000D01*
X166873000Y-89027000D01*
X166873000Y-89111000D01*
X166916310Y-89328734D01*
X167001266Y-89533835D01*
X167124602Y-89718421D01*
X167281579Y-89875398D01*
X167466165Y-89998734D01*
X167671266Y-90083690D01*
X167889000Y-90127000D01*
X168111000Y-90127000D01*
X168328734Y-90083690D01*
X168533835Y-89998734D01*
X168718421Y-89875398D01*
X168875398Y-89718421D01*
X168998734Y-89533835D01*
X169083690Y-89328734D01*
X169127000Y-89111000D01*
X169127000Y-88889000D01*
X169104335Y-88775056D01*
X169410719Y-88611290D01*
X169795505Y-88295505D01*
X170111290Y-87910719D01*
X170345940Y-87471720D01*
X170490436Y-86995379D01*
X170539227Y-86500000D01*
X170490436Y-86004621D01*
X170345940Y-85528280D01*
X170111290Y-85089281D01*
X169795505Y-84704495D01*
X169410719Y-84388710D01*
X169104335Y-84224944D01*
X169127000Y-84111000D01*
X169127000Y-83889000D01*
X169083690Y-83671266D01*
X168998734Y-83466165D01*
X168875398Y-83281579D01*
X168718421Y-83124602D01*
X168533835Y-83001266D01*
X168328734Y-82916310D01*
X168111000Y-82873000D01*
X167889000Y-82873000D01*
X167671266Y-82916310D01*
X167466165Y-83001266D01*
X167281579Y-83124602D01*
X167124602Y-83281579D01*
X167001266Y-83466165D01*
X166916310Y-83671266D01*
X166873000Y-83889000D01*
X166873000Y-83973000D01*
X165127000Y-83973000D01*
X165127000Y-69898849D01*
X166973000Y-69898849D01*
X166973000Y-70101151D01*
X167012467Y-70299565D01*
X167089885Y-70486467D01*
X167202277Y-70654674D01*
X167345326Y-70797723D01*
X167513533Y-70910115D01*
X167700435Y-70987533D01*
X167898849Y-71027000D01*
X168101151Y-71027000D01*
X168299565Y-70987533D01*
X168486467Y-70910115D01*
X168654674Y-70797723D01*
X168797723Y-70654674D01*
X168910115Y-70486467D01*
X168987533Y-70299565D01*
X169027000Y-70101151D01*
X169027000Y-69898849D01*
X168987533Y-69700435D01*
X168910115Y-69513533D01*
X168797723Y-69345326D01*
X168654674Y-69202277D01*
X168486467Y-69089885D01*
X168299565Y-69012467D01*
X168101151Y-68973000D01*
X167898849Y-68973000D01*
X167700435Y-69012467D01*
X167513533Y-69089885D01*
X167345326Y-69202277D01*
X167202277Y-69345326D01*
X167089885Y-69513533D01*
X167012467Y-69700435D01*
X166973000Y-69898849D01*
X165127000Y-69898849D01*
X165127000Y-43957376D01*
X165163020Y-44001266D01*
X165404495Y-44295505D01*
X165789281Y-44611290D01*
X166228280Y-44845940D01*
X166704621Y-44990436D01*
X166873000Y-45007020D01*
X166873000Y-45111000D01*
X166916310Y-45328734D01*
X167001266Y-45533835D01*
X167124602Y-45718421D01*
X167281579Y-45875398D01*
X167466165Y-45998734D01*
X167671266Y-46083690D01*
X167889000Y-46127000D01*
X168111000Y-46127000D01*
X168328734Y-46083690D01*
X168533835Y-45998734D01*
X168718421Y-45875398D01*
X168875398Y-45718421D01*
X168998734Y-45533835D01*
X169083690Y-45328734D01*
X169127000Y-45111000D01*
X169127000Y-44889000D01*
X169104335Y-44775056D01*
X169410719Y-44611290D01*
X169795505Y-44295505D01*
X170111290Y-43910719D01*
X170345940Y-43471720D01*
X170490436Y-42995379D01*
X170539227Y-42500000D01*
X170490436Y-42004621D01*
X170345940Y-41528280D01*
X170111290Y-41089281D01*
X169795505Y-40704495D01*
X169727000Y-40648275D01*
X169727000Y-20875858D01*
X169690436Y-20504621D01*
X169545940Y-20028280D01*
X169311290Y-19589281D01*
X168995505Y-19204495D01*
X168727000Y-18984139D01*
X168727000Y-15633359D01*
X168732113Y-15516490D01*
X168715571Y-15408953D01*
X168704905Y-15300656D01*
X168692748Y-15260581D01*
X168686382Y-15219193D01*
X168649179Y-15116950D01*
X168617590Y-15012815D01*
X168597847Y-14975879D01*
X168583530Y-14936532D01*
X168527097Y-14843514D01*
X168475797Y-14747540D01*
X168449227Y-14715165D01*
X168427509Y-14679367D01*
X168354013Y-14599146D01*
X168284976Y-14515024D01*
X168252602Y-14488455D01*
X168224316Y-14457581D01*
X168136572Y-14393232D01*
X168052460Y-14324203D01*
X168015532Y-14304465D01*
X167981760Y-14279697D01*
X167883143Y-14233701D01*
X167787185Y-14182410D01*
X167747111Y-14170254D01*
X167709160Y-14152553D01*
X167603467Y-14126680D01*
X167499344Y-14095095D01*
X167382917Y-14083628D01*
X165400027Y-13800358D01*
X184973000Y-13800358D01*
X184973000Y-14199642D01*
X185050896Y-14591254D01*
X185203696Y-14960145D01*
X185425526Y-15292137D01*
X185707863Y-15574474D01*
X186039855Y-15796304D01*
X186408746Y-15949104D01*
X186800358Y-16027000D01*
X187199642Y-16027000D01*
X187591254Y-15949104D01*
X187960145Y-15796304D01*
X188048411Y-15737326D01*
X194473001Y-16879476D01*
X194473000Y-18984140D01*
X194204496Y-19204495D01*
X193888711Y-19589281D01*
X193654061Y-20028280D01*
X193509565Y-20504621D01*
X193473001Y-20875858D01*
X193473000Y-26124141D01*
X193473001Y-26124151D01*
X193473000Y-130375858D01*
X193460773Y-130500000D01*
X193509564Y-130995379D01*
X193654060Y-131471720D01*
X193888710Y-131910719D01*
X193963020Y-132001266D01*
X194204495Y-132295505D01*
X194589281Y-132611290D01*
X195028280Y-132845940D01*
X195504621Y-132990436D01*
X196000000Y-133039227D01*
X196124141Y-133027000D01*
X204873000Y-133027000D01*
X204873000Y-133111000D01*
X204916310Y-133328734D01*
X205001266Y-133533835D01*
X205124602Y-133718421D01*
X205281579Y-133875398D01*
X205466165Y-133998734D01*
X205671266Y-134083690D01*
X205889000Y-134127000D01*
X206111000Y-134127000D01*
X206328734Y-134083690D01*
X206533835Y-133998734D01*
X206718421Y-133875398D01*
X206875398Y-133718421D01*
X206998734Y-133533835D01*
X207083690Y-133328734D01*
X207127000Y-133111000D01*
X207127000Y-132889000D01*
X207104335Y-132775056D01*
X207410719Y-132611290D01*
X207795505Y-132295505D01*
X208111290Y-131910719D01*
X208345940Y-131471720D01*
X208490436Y-130995379D01*
X208539227Y-130500000D01*
X208490436Y-130004621D01*
X208345940Y-129528280D01*
X208111290Y-129089281D01*
X207795505Y-128704495D01*
X207410719Y-128388710D01*
X207104335Y-128224944D01*
X207127000Y-128111000D01*
X207127000Y-127889000D01*
X207083690Y-127671266D01*
X206998734Y-127466165D01*
X206875398Y-127281579D01*
X206718421Y-127124602D01*
X206533835Y-127001266D01*
X206328734Y-126916310D01*
X206111000Y-126873000D01*
X205889000Y-126873000D01*
X205671266Y-126916310D01*
X205466165Y-127001266D01*
X205281579Y-127124602D01*
X205124602Y-127281579D01*
X205001266Y-127466165D01*
X204916310Y-127671266D01*
X204873000Y-127889000D01*
X204873000Y-127973000D01*
X198527000Y-127973000D01*
X198527000Y-113898849D01*
X204973000Y-113898849D01*
X204973000Y-114101151D01*
X205012467Y-114299565D01*
X205089885Y-114486467D01*
X205202277Y-114654674D01*
X205345326Y-114797723D01*
X205513533Y-114910115D01*
X205700435Y-114987533D01*
X205898849Y-115027000D01*
X206101151Y-115027000D01*
X206299565Y-114987533D01*
X206486467Y-114910115D01*
X206654674Y-114797723D01*
X206797723Y-114654674D01*
X206910115Y-114486467D01*
X206987533Y-114299565D01*
X207027000Y-114101151D01*
X207027000Y-113898849D01*
X206987533Y-113700435D01*
X206910115Y-113513533D01*
X206797723Y-113345326D01*
X206654674Y-113202277D01*
X206486467Y-113089885D01*
X206299565Y-113012467D01*
X206101151Y-112973000D01*
X205898849Y-112973000D01*
X205700435Y-113012467D01*
X205513533Y-113089885D01*
X205345326Y-113202277D01*
X205202277Y-113345326D01*
X205089885Y-113513533D01*
X205012467Y-113700435D01*
X204973000Y-113898849D01*
X198527000Y-113898849D01*
X198527000Y-87957376D01*
X198563020Y-88001266D01*
X198804495Y-88295505D01*
X199189281Y-88611290D01*
X199628280Y-88845940D01*
X200104621Y-88990436D01*
X200600000Y-89039227D01*
X200724141Y-89027000D01*
X204873000Y-89027000D01*
X204873000Y-89111000D01*
X204916310Y-89328734D01*
X205001266Y-89533835D01*
X205124602Y-89718421D01*
X205281579Y-89875398D01*
X205466165Y-89998734D01*
X205671266Y-90083690D01*
X205889000Y-90127000D01*
X206111000Y-90127000D01*
X206328734Y-90083690D01*
X206533835Y-89998734D01*
X206718421Y-89875398D01*
X206875398Y-89718421D01*
X206998734Y-89533835D01*
X207083690Y-89328734D01*
X207127000Y-89111000D01*
X207127000Y-88889000D01*
X207104335Y-88775056D01*
X207410719Y-88611290D01*
X207795505Y-88295505D01*
X208111290Y-87910719D01*
X208345940Y-87471720D01*
X208490436Y-86995379D01*
X208539227Y-86500000D01*
X208490436Y-86004621D01*
X208345940Y-85528280D01*
X208111290Y-85089281D01*
X207795505Y-84704495D01*
X207410719Y-84388710D01*
X207104335Y-84224944D01*
X207127000Y-84111000D01*
X207127000Y-83889000D01*
X207083690Y-83671266D01*
X206998734Y-83466165D01*
X206875398Y-83281579D01*
X206718421Y-83124602D01*
X206533835Y-83001266D01*
X206328734Y-82916310D01*
X206111000Y-82873000D01*
X205889000Y-82873000D01*
X205671266Y-82916310D01*
X205466165Y-83001266D01*
X205281579Y-83124602D01*
X205124602Y-83281579D01*
X205001266Y-83466165D01*
X204916310Y-83671266D01*
X204873000Y-83889000D01*
X204873000Y-83973000D01*
X203127000Y-83973000D01*
X203127000Y-69898849D01*
X204973000Y-69898849D01*
X204973000Y-70101151D01*
X205012467Y-70299565D01*
X205089885Y-70486467D01*
X205202277Y-70654674D01*
X205345326Y-70797723D01*
X205513533Y-70910115D01*
X205700435Y-70987533D01*
X205898849Y-71027000D01*
X206101151Y-71027000D01*
X206299565Y-70987533D01*
X206486467Y-70910115D01*
X206654674Y-70797723D01*
X206797723Y-70654674D01*
X206910115Y-70486467D01*
X206987533Y-70299565D01*
X207027000Y-70101151D01*
X207027000Y-69898849D01*
X206987533Y-69700435D01*
X206910115Y-69513533D01*
X206797723Y-69345326D01*
X206654674Y-69202277D01*
X206486467Y-69089885D01*
X206299565Y-69012467D01*
X206101151Y-68973000D01*
X205898849Y-68973000D01*
X205700435Y-69012467D01*
X205513533Y-69089885D01*
X205345326Y-69202277D01*
X205202277Y-69345326D01*
X205089885Y-69513533D01*
X205012467Y-69700435D01*
X204973000Y-69898849D01*
X203127000Y-69898849D01*
X203127000Y-43957376D01*
X203163020Y-44001266D01*
X203404495Y-44295505D01*
X203789281Y-44611290D01*
X204228280Y-44845940D01*
X204704621Y-44990436D01*
X204873000Y-45007020D01*
X204873000Y-45111000D01*
X204916310Y-45328734D01*
X205001266Y-45533835D01*
X205124602Y-45718421D01*
X205281579Y-45875398D01*
X205466165Y-45998734D01*
X205671266Y-46083690D01*
X205889000Y-46127000D01*
X206111000Y-46127000D01*
X206328734Y-46083690D01*
X206533835Y-45998734D01*
X206718421Y-45875398D01*
X206875398Y-45718421D01*
X206998734Y-45533835D01*
X207083690Y-45328734D01*
X207127000Y-45111000D01*
X207127000Y-44889000D01*
X207104335Y-44775056D01*
X207410719Y-44611290D01*
X207795505Y-44295505D01*
X208111290Y-43910719D01*
X208345940Y-43471720D01*
X208490436Y-42995379D01*
X208539227Y-42500000D01*
X208490436Y-42004621D01*
X208345940Y-41528280D01*
X208111290Y-41089281D01*
X207795505Y-40704495D01*
X207727000Y-40648275D01*
X207727000Y-20875858D01*
X207690436Y-20504621D01*
X207545940Y-20028280D01*
X207311290Y-19589281D01*
X206995505Y-19204495D01*
X206727000Y-18984139D01*
X206727000Y-15633359D01*
X206732113Y-15516490D01*
X206715571Y-15408953D01*
X206704905Y-15300656D01*
X206692748Y-15260581D01*
X206686382Y-15219193D01*
X206649179Y-15116950D01*
X206617590Y-15012815D01*
X206597847Y-14975879D01*
X206583530Y-14936532D01*
X206527097Y-14843514D01*
X206475797Y-14747540D01*
X206449227Y-14715165D01*
X206427509Y-14679367D01*
X206354013Y-14599146D01*
X206284976Y-14515024D01*
X206252602Y-14488455D01*
X206224316Y-14457581D01*
X206136572Y-14393232D01*
X206052460Y-14324203D01*
X206015532Y-14304465D01*
X205981760Y-14279697D01*
X205883143Y-14233701D01*
X205787185Y-14182410D01*
X205747111Y-14170254D01*
X205709160Y-14152553D01*
X205603467Y-14126680D01*
X205499344Y-14095095D01*
X205382917Y-14083628D01*
X203331084Y-13790509D01*
X223873000Y-13790509D01*
X223873000Y-14209491D01*
X223954739Y-14620423D01*
X224115077Y-15007512D01*
X224347851Y-15355884D01*
X224644116Y-15652149D01*
X224992488Y-15884923D01*
X225379577Y-16045261D01*
X225790509Y-16127000D01*
X226209491Y-16127000D01*
X226620423Y-16045261D01*
X227007512Y-15884923D01*
X227355884Y-15652149D01*
X227652149Y-15355884D01*
X227884923Y-15007512D01*
X228045261Y-14620423D01*
X228127000Y-14209491D01*
X228127000Y-13790509D01*
X228045261Y-13379577D01*
X227884923Y-12992488D01*
X227652149Y-12644116D01*
X227355884Y-12347851D01*
X227007512Y-12115077D01*
X226620423Y-11954739D01*
X226209491Y-11873000D01*
X225790509Y-11873000D01*
X225379577Y-11954739D01*
X224992488Y-12115077D01*
X224644116Y-12347851D01*
X224347851Y-12644116D01*
X224115077Y-12992488D01*
X223954739Y-13379577D01*
X223873000Y-13790509D01*
X203331084Y-13790509D01*
X196029549Y-12747433D01*
X196029549Y-12500000D01*
X196019374Y-12396690D01*
X195989239Y-12297350D01*
X195940304Y-12205798D01*
X195874448Y-12125552D01*
X195794202Y-12059696D01*
X195702650Y-12010761D01*
X195603310Y-11980626D01*
X195500000Y-11970451D01*
X192500000Y-11970451D01*
X192396690Y-11980626D01*
X192297350Y-12010761D01*
X192205798Y-12059696D01*
X192125552Y-12125552D01*
X192059696Y-12205798D01*
X192010761Y-12297350D01*
X191980626Y-12396690D01*
X191970451Y-12500000D01*
X191970451Y-12603840D01*
X191792137Y-12425526D01*
X191460145Y-12203696D01*
X191091254Y-12050896D01*
X190699642Y-11973000D01*
X190300358Y-11973000D01*
X189908746Y-12050896D01*
X189539855Y-12203696D01*
X189207863Y-12425526D01*
X188925526Y-12707863D01*
X188875651Y-12782507D01*
X188590474Y-12731809D01*
X188574474Y-12707863D01*
X188292137Y-12425526D01*
X187960145Y-12203696D01*
X187591254Y-12050896D01*
X187199642Y-11973000D01*
X186800358Y-11973000D01*
X186408746Y-12050896D01*
X186039855Y-12203696D01*
X185707863Y-12425526D01*
X185425526Y-12707863D01*
X185203696Y-13039855D01*
X185050896Y-13408746D01*
X184973000Y-13800358D01*
X165400027Y-13800358D01*
X158029549Y-12747433D01*
X158029549Y-12500000D01*
X158019374Y-12396690D01*
X157989239Y-12297350D01*
X157940304Y-12205798D01*
X157874448Y-12125552D01*
X157794202Y-12059696D01*
X157702650Y-12010761D01*
X157603310Y-11980626D01*
X157500000Y-11970451D01*
X154500000Y-11970451D01*
X154396690Y-11980626D01*
X154297350Y-12010761D01*
X154205798Y-12059696D01*
X154125552Y-12125552D01*
X154059696Y-12205798D01*
X154010761Y-12297350D01*
X153980626Y-12396690D01*
X153970451Y-12500000D01*
X153970451Y-12603840D01*
X153792137Y-12425526D01*
X153460145Y-12203696D01*
X153091254Y-12050896D01*
X152699642Y-11973000D01*
X152300358Y-11973000D01*
X151908746Y-12050896D01*
X151539855Y-12203696D01*
X151207863Y-12425526D01*
X150925526Y-12707863D01*
X150875651Y-12782507D01*
X150590474Y-12731809D01*
X150574474Y-12707863D01*
X150292137Y-12425526D01*
X149960145Y-12203696D01*
X149591254Y-12050896D01*
X149199642Y-11973000D01*
X148800358Y-11973000D01*
X148408746Y-12050896D01*
X148039855Y-12203696D01*
X147707863Y-12425526D01*
X147425526Y-12707863D01*
X147203696Y-13039855D01*
X147050896Y-13408746D01*
X146973000Y-13800358D01*
X127400028Y-13800358D01*
X120029549Y-12747433D01*
X120029549Y-12500000D01*
X120019374Y-12396690D01*
X119989239Y-12297350D01*
X119940304Y-12205798D01*
X119874448Y-12125552D01*
X119794202Y-12059696D01*
X119702650Y-12010761D01*
X119603310Y-11980626D01*
X119500000Y-11970451D01*
X116500000Y-11970451D01*
X116396690Y-11980626D01*
X116297350Y-12010761D01*
X116205798Y-12059696D01*
X116125552Y-12125552D01*
X116059696Y-12205798D01*
X116010761Y-12297350D01*
X115980626Y-12396690D01*
X115970451Y-12500000D01*
X115970451Y-12603840D01*
X115792137Y-12425526D01*
X115460145Y-12203696D01*
X115091254Y-12050896D01*
X114699642Y-11973000D01*
X114300358Y-11973000D01*
X113908746Y-12050896D01*
X113539855Y-12203696D01*
X113207863Y-12425526D01*
X112925526Y-12707863D01*
X112875651Y-12782507D01*
X112590474Y-12731809D01*
X112574474Y-12707863D01*
X112292137Y-12425526D01*
X111960145Y-12203696D01*
X111591254Y-12050896D01*
X111199642Y-11973000D01*
X110800358Y-11973000D01*
X110408746Y-12050896D01*
X110039855Y-12203696D01*
X109707863Y-12425526D01*
X109425526Y-12707863D01*
X109203696Y-13039855D01*
X109050896Y-13408746D01*
X108973000Y-13800358D01*
X89400027Y-13800358D01*
X82029549Y-12747433D01*
X82029549Y-12500000D01*
X82019374Y-12396690D01*
X81989239Y-12297350D01*
X81940304Y-12205798D01*
X81874448Y-12125552D01*
X81794202Y-12059696D01*
X81702650Y-12010761D01*
X81603310Y-11980626D01*
X81500000Y-11970451D01*
X78500000Y-11970451D01*
X78396690Y-11980626D01*
X78297350Y-12010761D01*
X78205798Y-12059696D01*
X78125552Y-12125552D01*
X78059696Y-12205798D01*
X78010761Y-12297350D01*
X77980626Y-12396690D01*
X77970451Y-12500000D01*
X77970451Y-12603840D01*
X77792137Y-12425526D01*
X77460145Y-12203696D01*
X77091254Y-12050896D01*
X76699642Y-11973000D01*
X76300358Y-11973000D01*
X75908746Y-12050896D01*
X75539855Y-12203696D01*
X75207863Y-12425526D01*
X74925526Y-12707863D01*
X74875651Y-12782507D01*
X74590474Y-12731809D01*
X74574474Y-12707863D01*
X74292137Y-12425526D01*
X73960145Y-12203696D01*
X73591254Y-12050896D01*
X73199642Y-11973000D01*
X72800358Y-11973000D01*
X72408746Y-12050896D01*
X72039855Y-12203696D01*
X71707863Y-12425526D01*
X71425526Y-12707863D01*
X71203696Y-13039855D01*
X71050896Y-13408746D01*
X70973000Y-13800358D01*
X16127000Y-13800358D01*
X16127000Y-13790509D01*
X16045261Y-13379577D01*
X15884923Y-12992488D01*
X15652149Y-12644116D01*
X15355884Y-12347851D01*
X15007512Y-12115077D01*
X14620423Y-11954739D01*
X14209491Y-11873000D01*
X13790509Y-11873000D01*
X13379577Y-11954739D01*
X12992488Y-12115077D01*
X12644116Y-12347851D01*
X12347851Y-12644116D01*
X12115077Y-12992488D01*
X11954739Y-13379577D01*
X11873000Y-13790509D01*
X11127000Y-13790509D01*
X11127000Y-11127000D01*
X228873000Y-11127000D01*
X228873000Y-168873000D01*
G37*
G04 #@! TD.AperFunction*
D25*
X30042947Y-22463342D02*
X30023000Y-22563623D01*
X30023000Y-22736377D01*
X30042947Y-22836658D01*
X30035858Y-22843748D01*
X29856253Y-22664143D01*
X29870395Y-22650000D01*
X29856253Y-22635858D01*
X30035858Y-22456253D01*
X30042947Y-22463342D01*
G04 #@! TA.AperFunction,Conductor*
D26*
G36*
X30042947Y-22463342D02*
G01*
X30023000Y-22563623D01*
X30023000Y-22736377D01*
X30042947Y-22836658D01*
X30035858Y-22843748D01*
X29856253Y-22664143D01*
X29870395Y-22650000D01*
X29856253Y-22635858D01*
X30035858Y-22456253D01*
X30042947Y-22463342D01*
G37*
G04 #@! TD.AperFunction*
D25*
X36193748Y-22635858D02*
X36179605Y-22650000D01*
X36193748Y-22664143D01*
X36014143Y-22843748D01*
X36007053Y-22836658D01*
X36027000Y-22736377D01*
X36027000Y-22563623D01*
X36007053Y-22463342D01*
X36014143Y-22456253D01*
X36193748Y-22635858D01*
G04 #@! TA.AperFunction,Conductor*
D26*
G36*
X36193748Y-22635858D02*
G01*
X36179605Y-22650000D01*
X36193748Y-22664143D01*
X36014143Y-22843748D01*
X36007053Y-22836658D01*
X36027000Y-22736377D01*
X36027000Y-22563623D01*
X36007053Y-22463342D01*
X36014143Y-22456253D01*
X36193748Y-22635858D01*
G37*
G04 #@! TD.AperFunction*
G04 #@! TD*
D27*
X92000000Y-26000000D03*
X92000000Y-70000000D03*
X92000000Y-114000000D03*
X130000000Y-26000000D03*
X130000000Y-70000000D03*
X130000000Y-114000000D03*
X168000000Y-26000000D03*
X168000000Y-70000000D03*
X168000000Y-114000000D03*
X206000000Y-26000000D03*
X206000000Y-70000000D03*
X206000000Y-114000000D03*
X44000000Y-106000000D03*
X44000000Y-108000000D03*
X44000000Y-110000000D03*
X46000000Y-106000000D03*
X46000000Y-108000000D03*
X46000000Y-110000000D03*
X48000000Y-106000000D03*
X48000000Y-108000000D03*
X48000000Y-110000000D03*
X92000000Y-63000000D03*
X92000000Y-107000000D03*
X92000000Y-151000000D03*
X130000000Y-63000000D03*
X130000000Y-107000000D03*
X130000000Y-151000000D03*
X168000000Y-63000000D03*
X168000000Y-107000000D03*
X168000000Y-151000000D03*
X206000000Y-63000000D03*
X206000000Y-107000000D03*
X206000000Y-151000000D03*
D28*
X22000000Y-14000000D03*
X30000000Y-14000000D03*
X38000000Y-14000000D03*
X46000000Y-14000000D03*
X54000000Y-14000000D03*
X62000000Y-14000000D03*
X70000000Y-14000000D03*
X94000000Y-14000000D03*
X102000000Y-14000000D03*
X134000000Y-14000000D03*
X142000000Y-14000000D03*
X174000000Y-14000000D03*
X182000000Y-14000000D03*
X206000000Y-14000000D03*
X214000000Y-14000000D03*
X222000000Y-14000000D03*
X14000000Y-22000000D03*
X62000000Y-22000000D03*
X70000000Y-22000000D03*
X78000000Y-22000000D03*
X94000000Y-22000000D03*
X102000000Y-22000000D03*
X110000000Y-22000000D03*
X134000000Y-22000000D03*
X142000000Y-22000000D03*
X150000000Y-22000000D03*
X174000000Y-22000000D03*
X182000000Y-22000000D03*
X190000000Y-22000000D03*
X214000000Y-22000000D03*
X222000000Y-22000000D03*
X14000000Y-30000000D03*
X22000000Y-30000000D03*
X30000000Y-30000000D03*
X38000000Y-30000000D03*
X46000000Y-30000000D03*
X62000000Y-30000000D03*
X70000000Y-30000000D03*
X78000000Y-30000000D03*
X110000000Y-30000000D03*
X134000000Y-30000000D03*
X142000000Y-30000000D03*
X150000000Y-30000000D03*
X182000000Y-30000000D03*
X190000000Y-30000000D03*
X222000000Y-30000000D03*
X14000000Y-38000000D03*
X22000000Y-38000000D03*
X46000000Y-38000000D03*
X54000000Y-38000000D03*
X62000000Y-38000000D03*
X70000000Y-38000000D03*
X78000000Y-38000000D03*
X110000000Y-38000000D03*
X142000000Y-38000000D03*
X182000000Y-38000000D03*
X190000000Y-38000000D03*
X222000000Y-38000000D03*
X14000000Y-46000000D03*
X46000000Y-46000000D03*
X54000000Y-46000000D03*
X62000000Y-46000000D03*
X150000000Y-46000000D03*
X182000000Y-46000000D03*
X214000000Y-46000000D03*
X222000000Y-46000000D03*
X14000000Y-54000000D03*
X22000000Y-54000000D03*
X46000000Y-54000000D03*
X54000000Y-54000000D03*
X62000000Y-54000000D03*
X70000000Y-54000000D03*
X102000000Y-54000000D03*
X110000000Y-54000000D03*
X134000000Y-54000000D03*
X142000000Y-54000000D03*
X150000000Y-54000000D03*
X174000000Y-54000000D03*
X182000000Y-54000000D03*
X214000000Y-54000000D03*
X222000000Y-54000000D03*
X14000000Y-62000000D03*
X46000000Y-62000000D03*
X54000000Y-62000000D03*
X62000000Y-62000000D03*
X70000000Y-62000000D03*
X78000000Y-62000000D03*
X102000000Y-62000000D03*
X110000000Y-62000000D03*
X134000000Y-62000000D03*
X142000000Y-62000000D03*
X150000000Y-62000000D03*
X174000000Y-62000000D03*
X182000000Y-62000000D03*
X190000000Y-62000000D03*
X214000000Y-62000000D03*
X222000000Y-62000000D03*
X14000000Y-70000000D03*
X46000000Y-70000000D03*
X54000000Y-70000000D03*
X62000000Y-70000000D03*
X70000000Y-70000000D03*
X78000000Y-70000000D03*
X110000000Y-70000000D03*
X134000000Y-70000000D03*
X142000000Y-70000000D03*
X150000000Y-70000000D03*
X182000000Y-70000000D03*
X190000000Y-70000000D03*
X222000000Y-70000000D03*
X14000000Y-78000000D03*
X22000000Y-78000000D03*
X30000000Y-78000000D03*
X38000000Y-78000000D03*
X46000000Y-78000000D03*
X78000000Y-78000000D03*
X94000000Y-78000000D03*
X102000000Y-78000000D03*
X134000000Y-78000000D03*
X166000000Y-78000000D03*
X174000000Y-78000000D03*
X182000000Y-78000000D03*
X206000000Y-78000000D03*
X222000000Y-78000000D03*
X14000000Y-86000000D03*
X22000000Y-86000000D03*
X30000000Y-86000000D03*
X38000000Y-86000000D03*
X46000000Y-86000000D03*
X54000000Y-86000000D03*
X62000000Y-86000000D03*
X134000000Y-86000000D03*
X142000000Y-86000000D03*
X150000000Y-86000000D03*
X182000000Y-86000000D03*
X222000000Y-86000000D03*
X14000000Y-94000000D03*
X54000000Y-94000000D03*
X62000000Y-94000000D03*
X70000000Y-94000000D03*
X78000000Y-94000000D03*
X110000000Y-94000000D03*
X150000000Y-94000000D03*
X182000000Y-94000000D03*
X190000000Y-94000000D03*
X214000000Y-94000000D03*
X222000000Y-94000000D03*
X14000000Y-102000000D03*
X54000000Y-102000000D03*
X78000000Y-102000000D03*
X86000000Y-102000000D03*
X102000000Y-102000000D03*
X110000000Y-102000000D03*
X126000000Y-102000000D03*
X134000000Y-102000000D03*
X142000000Y-102000000D03*
X150000000Y-102000000D03*
X166000000Y-102000000D03*
X174000000Y-102000000D03*
X182000000Y-102000000D03*
X190000000Y-102000000D03*
X206000000Y-102000000D03*
X214000000Y-102000000D03*
X222000000Y-102000000D03*
X14000000Y-110000000D03*
X30000000Y-110000000D03*
X38000000Y-110000000D03*
X46000000Y-110000000D03*
X54000000Y-110000000D03*
X62000000Y-110000000D03*
X70000000Y-110000000D03*
X78000000Y-110000000D03*
X86000000Y-110000000D03*
X94000000Y-110000000D03*
X102000000Y-110000000D03*
X110000000Y-110000000D03*
X126000000Y-110000000D03*
X134000000Y-110000000D03*
X142000000Y-110000000D03*
X150000000Y-110000000D03*
X166000000Y-110000000D03*
X174000000Y-110000000D03*
X182000000Y-110000000D03*
X190000000Y-110000000D03*
X206000000Y-110000000D03*
X214000000Y-110000000D03*
X222000000Y-110000000D03*
X22000000Y-118000000D03*
X30000000Y-118000000D03*
X54000000Y-118000000D03*
X62000000Y-118000000D03*
X70000000Y-118000000D03*
X78000000Y-118000000D03*
X86000000Y-118000000D03*
X110000000Y-118000000D03*
X126000000Y-118000000D03*
X134000000Y-118000000D03*
X142000000Y-118000000D03*
X150000000Y-118000000D03*
X182000000Y-118000000D03*
X190000000Y-118000000D03*
X222000000Y-118000000D03*
X22000000Y-126000000D03*
X30000000Y-126000000D03*
X38000000Y-126000000D03*
X46000000Y-126000000D03*
X54000000Y-126000000D03*
X62000000Y-126000000D03*
X70000000Y-126000000D03*
X78000000Y-126000000D03*
X110000000Y-126000000D03*
X142000000Y-126000000D03*
X182000000Y-126000000D03*
X190000000Y-126000000D03*
X222000000Y-126000000D03*
X14000000Y-134000000D03*
X22000000Y-134000000D03*
X46000000Y-134000000D03*
X54000000Y-134000000D03*
X62000000Y-134000000D03*
X86000000Y-134000000D03*
X118000000Y-134000000D03*
X126000000Y-134000000D03*
X150000000Y-134000000D03*
X158000000Y-134000000D03*
X182000000Y-134000000D03*
X198000000Y-134000000D03*
X214000000Y-134000000D03*
X222000000Y-134000000D03*
X14000000Y-142000000D03*
X22000000Y-142000000D03*
X38000000Y-142000000D03*
X46000000Y-142000000D03*
X70000000Y-142000000D03*
X86000000Y-142000000D03*
X102000000Y-142000000D03*
X110000000Y-142000000D03*
X126000000Y-142000000D03*
X134000000Y-142000000D03*
X142000000Y-142000000D03*
X150000000Y-142000000D03*
X158000000Y-142000000D03*
X174000000Y-142000000D03*
X182000000Y-142000000D03*
X198000000Y-142000000D03*
X214000000Y-142000000D03*
X222000000Y-142000000D03*
X22000000Y-150000000D03*
X38000000Y-150000000D03*
X46000000Y-150000000D03*
X70000000Y-150000000D03*
X78000000Y-150000000D03*
X86000000Y-150000000D03*
X102000000Y-150000000D03*
X110000000Y-150000000D03*
X118000000Y-150000000D03*
X126000000Y-150000000D03*
X134000000Y-150000000D03*
X142000000Y-150000000D03*
X150000000Y-150000000D03*
X158000000Y-150000000D03*
X174000000Y-150000000D03*
X182000000Y-150000000D03*
X190000000Y-150000000D03*
X198000000Y-150000000D03*
X214000000Y-150000000D03*
X222000000Y-150000000D03*
X14000000Y-158000000D03*
X38000000Y-158000000D03*
X46000000Y-158000000D03*
X62000000Y-158000000D03*
X70000000Y-158000000D03*
X94000000Y-158000000D03*
X102000000Y-158000000D03*
X110000000Y-158000000D03*
X126000000Y-158000000D03*
X134000000Y-158000000D03*
X142000000Y-158000000D03*
X166000000Y-158000000D03*
X174000000Y-158000000D03*
X182000000Y-158000000D03*
X206000000Y-158000000D03*
X214000000Y-158000000D03*
X222000000Y-158000000D03*
D27*
X92000000Y-40000000D03*
X92000000Y-42500000D03*
X92000000Y-45000000D03*
X92000000Y-84000000D03*
X92000000Y-86500000D03*
X92000000Y-89000000D03*
X92000000Y-128000000D03*
X92000000Y-130500000D03*
X92000000Y-133000000D03*
X130000000Y-40000000D03*
X130000000Y-42500000D03*
X130000000Y-45000000D03*
X130000000Y-84000000D03*
X130000000Y-86500000D03*
X130000000Y-89000000D03*
X130000000Y-128000000D03*
X130000000Y-130500000D03*
X130000000Y-133000000D03*
X168000000Y-40000000D03*
X168000000Y-42500000D03*
X168000000Y-45000000D03*
X168000000Y-84000000D03*
X168000000Y-86500000D03*
X168000000Y-89000000D03*
X168000000Y-128000000D03*
X168000000Y-130500000D03*
X168000000Y-133000000D03*
X206000000Y-40000000D03*
X206000000Y-42500000D03*
X206000000Y-45000000D03*
X206000000Y-84000000D03*
X206000000Y-86500000D03*
X206000000Y-89000000D03*
X206000000Y-128000000D03*
X206000000Y-130500000D03*
X206000000Y-133000000D03*
D29*
X28700000Y-19640000D03*
X37350000Y-19640000D03*
D30*
X28700000Y-23020000D03*
X37350000Y-23020000D03*
D27*
X32600000Y-22650000D03*
X30050000Y-22650000D03*
X30900000Y-22650000D03*
X31750000Y-22650000D03*
X36000000Y-22650000D03*
X34300000Y-22650000D03*
X33450000Y-22650000D03*
X35150000Y-22650000D03*
X30050000Y-24000000D03*
X30900000Y-24000000D03*
X31750000Y-24000000D03*
X32600000Y-24000000D03*
X33450000Y-24000000D03*
X34300000Y-24000000D03*
X35150000Y-24000000D03*
X36000000Y-24000000D03*
X226000000Y-166000000D03*
X14000000Y-166000000D03*
X226000000Y-14000000D03*
X14000000Y-14000000D03*
D31*
X16000000Y-118000000D03*
X16000000Y-126000000D03*
D27*
X30000000Y-136000000D03*
X37200000Y-136000000D03*
X187000000Y-14000000D03*
X190500000Y-14000000D03*
X194000000Y-14000000D03*
X184000000Y-9000000D03*
X197000000Y-9000000D03*
X149000000Y-14000000D03*
X152500000Y-14000000D03*
X156000000Y-14000000D03*
X146000000Y-9000000D03*
X159000000Y-9000000D03*
X111000000Y-14000000D03*
X114500000Y-14000000D03*
X118000000Y-14000000D03*
X108000000Y-9000000D03*
X121000000Y-9000000D03*
X73000000Y-14000000D03*
X76500000Y-14000000D03*
X80000000Y-14000000D03*
X70000000Y-9000000D03*
X83000000Y-9000000D03*
M02*
