G04 #@! TF.GenerationSoftware,KiCad,Pcbnew,5.1.9+dfsg1-1+deb11u1*
G04 #@! TF.CreationDate,2026-09-11T21:52:00-03:00*
G04 #@! TF.ProjectId,,58585858-5858-4585-9858-585858585858,rev?*
G04 #@! TF.SameCoordinates,Original*
G04 #@! TF.FileFunction,Legend,Bot*
G04 #@! TF.FilePolarity,Positive*
%FSLAX46Y46*%
G04 Gerber Fmt 4.6, Leading zero omitted, Abs format (unit mm)*
G04 Created by KiCad (PCBNEW 5.1.9+dfsg1-1+deb11u1) date 2026-09-11 21:52:00*
%MOMM*%
%LPD*%
G01*
G04 APERTURE LIST*
G04 #@! TA.AperFunction,Profile*
%ADD10C,0.100000*%
G04 #@! TD*
%ADD11C,3.000000*%
%ADD12R,3.000000X3.000000*%
%ADD13C,1.400000*%
%ADD14O,0.900000X1.700000*%
%ADD15O,0.900000X2.400000*%
%ADD16C,0.700000*%
%ADD17C,6.000000*%
G04 APERTURE END LIST*
D10*
X10000000Y-10000000D02*
X230000000Y-10000000D01*
X230000000Y-10000000D02*
X230000000Y-170000000D01*
X230000000Y-170000000D02*
X10000000Y-170000000D01*
X10000000Y-170000000D02*
X10000000Y-10000000D01*
%LPC*%
D11*
G04 #@! TO.C,J_M4*
X187000000Y-14000000D03*
X190500000Y-14000000D03*
D12*
X194000000Y-14000000D03*
D13*
X184000000Y-9000000D03*
X197000000Y-9000000D03*
G04 #@! TD*
D11*
G04 #@! TO.C,J_M3*
X149000000Y-14000000D03*
X152500000Y-14000000D03*
D12*
X156000000Y-14000000D03*
D13*
X146000000Y-9000000D03*
X159000000Y-9000000D03*
G04 #@! TD*
D11*
G04 #@! TO.C,J_M2*
X111000000Y-14000000D03*
X114500000Y-14000000D03*
D12*
X118000000Y-14000000D03*
D13*
X108000000Y-9000000D03*
X121000000Y-9000000D03*
G04 #@! TD*
D11*
G04 #@! TO.C,J_M1*
X73000000Y-14000000D03*
X76500000Y-14000000D03*
D12*
X80000000Y-14000000D03*
D13*
X70000000Y-9000000D03*
X83000000Y-9000000D03*
G04 #@! TD*
D14*
G04 #@! TO.C,J2*
X28700000Y-19640000D03*
X37350000Y-19640000D03*
D15*
X28700000Y-23020000D03*
X37350000Y-23020000D03*
D16*
X32600000Y-22650000D03*
X30050000Y-22650000D03*
X30900000Y-22650000D03*
X31750000Y-22650000D03*
X36000000Y-22650000D03*
X34300000Y-22650000D03*
X33450000Y-22650000D03*
X35150000Y-22650000D03*
X30050000Y-24000000D03*
X30900000Y-24000000D03*
X31750000Y-24000000D03*
X32600000Y-24000000D03*
X33450000Y-24000000D03*
X34300000Y-24000000D03*
X35150000Y-24000000D03*
X36000000Y-24000000D03*
G04 #@! TD*
G04 #@! TO.C,J1*
G36*
G01*
X27000000Y-137500000D02*
X27000000Y-134500000D01*
G75*
G02*
X28500000Y-133000000I1500000J0D01*
G01*
X31500000Y-133000000D01*
G75*
G02*
X33000000Y-134500000I0J-1500000D01*
G01*
X33000000Y-137500000D01*
G75*
G02*
X31500000Y-139000000I-1500000J0D01*
G01*
X28500000Y-139000000D01*
G75*
G02*
X27000000Y-137500000I0J1500000D01*
G01*
G37*
D17*
X37200000Y-136000000D03*
G04 #@! TD*
M02*
