M48
; DRILL file {KiCad 5.1.9+dfsg1-1+deb11u1} date Mon Sep 28 09:16:53 2026
; FORMAT={-:-/ absolute / metric / decimal}
; #@! TF.CreationDate,2026-09-28T09:16:53-03:00
; #@! TF.GenerationSoftware,Kicad,Pcbnew,5.1.9+dfsg1-1+deb11u1
; #@! TF.FileFunction,Plated,1,6,PTH
FMAT,2
METRIC
T1C30.000
T2C40.000
T3C60.000
T4C100.000
T5C190.000
T6C450.000
%
G90
G05
T1
X-67.357Y-4092.25
X-17.75Y-5852.905
X-17.75Y-6147.905
X11.75Y-11348.656
X25.25Y-2900.0
X29.25Y-8160.905
X51.69Y-13822.108
X64.714Y-9601.905
X98.705Y-13200.108
X383.75Y-10692.916
X510.75Y-10692.916
X566.05Y-5852.905
X566.05Y-6147.905
X577.511Y-12008.156
X577.511Y-12628.156
X605.25Y-11128.156
X633.75Y-8302.916
X679.956Y-3596.25
X720.821Y-510.75
X734.895Y-13200.108
X906.761Y-2900.0
X975.762Y-9580.155
X998.587Y-13753.239
X1146.05Y-5852.905
X1146.05Y-6147.905
X1255.567Y-10310.155
X1348.0Y-4981.405
X1371.086Y-13200.108
X1410.761Y-8160.905
X1425.67Y-4092.25
X1453.762Y-9760.905
X1494.587Y-13753.239
X1700.691Y-12089.929
X1700.691Y-12709.929
X1726.05Y-5852.905
X1726.05Y-6147.905
X1796.761Y-2900.0
X1860.25Y-11128.156
X1878.464Y-12008.156
X1878.464Y-12628.156
X2007.276Y-13200.108
X2023.75Y-8302.916
X2025.238Y-1119.25
X2171.385Y-3596.25
X2469.659Y-3774.905
X2486.587Y-13786.572
X2492.145Y-9706.641
X2524.762Y-11160.156
X2617.881Y-9538.538
X2643.467Y-13200.108
X2684.667Y-10370.155
X2686.761Y-2900.0
X2800.761Y-8160.905
X2833.775Y-9845.905
X2917.099Y-4092.25
X2940.238Y-1349.25
X2982.587Y-13807.858
X3179.416Y-12008.156
X3179.416Y-12628.156
X3275.239Y-11160.156
X3279.657Y-13200.108
X3478.587Y-13760.382
X3530.381Y-10370.155
X3536.059Y-510.75
X3576.761Y-2900.0
X3662.813Y-3596.25
X3915.848Y-13200.108
X3924.753Y-7358.405
X3924.753Y-7953.405
X4285.25Y-7223.405
X4285.25Y-8088.405
X4292.446Y-7358.405
X4292.446Y-7953.405
X4302.595Y-12089.929
X4302.595Y-12709.929
X4376.095Y-10370.155
X4408.527Y-4092.25
X4466.761Y-2900.0
X4470.587Y-13925.382
X4480.368Y-12008.156
X4480.368Y-12628.156
X4552.038Y-13200.108
X4586.427Y-7223.405
X4586.427Y-8088.405
X4591.31Y-11190.156
X5154.242Y-3596.25
X5188.229Y-13200.108
X5221.81Y-10370.155
X5254.441Y-1027.5
X5254.441Y-1677.5
X5289.75Y-7853.405
X5356.761Y-2900.0
X5781.321Y-12008.156
X5781.321Y-12628.156
X5807.035Y-4659.25
X5824.419Y-13200.108
X5899.956Y-4092.25
X5963.26Y-9601.905
X6241.035Y-9902.916
X6246.761Y-2900.0
X6351.296Y-510.75
X6368.035Y-9902.916
X6454.587Y-13807.858
X6504.441Y-1027.5
X6504.441Y-1677.5
X6543.226Y-4659.25
X6552.315Y-5379.691
X6645.67Y-3596.25
X6904.5Y-12089.929
X6904.5Y-12709.929
X6950.587Y-13807.858
X7082.273Y-12008.156
X7082.273Y-12628.156
X7131.035Y-9902.916
X7136.761Y-2900.0
X7258.035Y-9902.916
X7279.416Y-4659.25
X7361.481Y-4164.445
X7468.845Y-13849.108
X7574.631Y-10093.405
X7574.631Y-10523.405
X7754.441Y-1027.5
X7754.441Y-1677.5
X7944.242Y-2806.25
X7962.178Y-13849.108
X8015.607Y-4659.25
X8021.035Y-9902.916
X8137.099Y-3596.25
X8148.035Y-9902.916
X8277.738Y-13930.881
X8283.631Y-10338.155
X8383.226Y-12008.156
X8383.226Y-12628.156
X8383.757Y-10978.405
X8383.757Y-11388.405
X8455.511Y-13849.108
X8751.797Y-4659.25
X8798.903Y-13217.108
X8882.813Y-4092.25
X8911.036Y-9902.916
X8933.261Y-13802.025
X9004.441Y-1027.5
X9004.441Y-1677.5
X9038.036Y-9902.916
X9093.757Y-10978.405
X9093.757Y-11388.405
X9097.631Y-10338.155
X9166.534Y-510.75
X9277.653Y-13129.786
X9375.261Y-13842.501
X9435.67Y-2806.25
X9487.988Y-4659.25
X9506.405Y-12089.929
X9506.405Y-12709.929
X9628.528Y-3596.25
X9684.178Y-12008.156
X9684.178Y-12628.156
X9801.036Y-9902.916
X9817.261Y-13837.739
X9819.489Y-11072.81
X9911.631Y-10338.155
X9928.036Y-9902.916
X10224.178Y-4659.25
X10254.441Y-1027.5
X10254.441Y-1677.5
X10374.242Y-4092.25
X10489.489Y-11072.81
X10691.036Y-9902.916
X10725.632Y-10338.155
X10818.036Y-9902.916
X10878.596Y-4577.477
X10927.099Y-2806.25
X10969.526Y-13242.108
X10985.13Y-12008.156
X10985.13Y-12628.156
X11119.956Y-3596.25
X11159.489Y-11072.81
X11491.431Y-13242.108
X11504.441Y-1027.5
X11504.441Y-1677.5
X11539.632Y-10338.155
X11581.036Y-9902.916
X11696.559Y-4659.25
X11708.036Y-9902.916
X11829.489Y-11072.81
X11981.772Y-510.75
X12000.5Y-5617.155
X12013.336Y-13242.108
X12108.31Y-12089.929
X12108.31Y-12709.929
X12286.083Y-12008.156
X12286.083Y-12628.156
X12353.632Y-10338.155
X12418.527Y-2806.25
X12432.75Y-4659.25
X12471.036Y-9902.916
X12499.489Y-11072.81
X12535.241Y-13242.108
X12598.036Y-9902.916
X12611.385Y-3596.25
X13038.952Y-1755.0
X13167.632Y-10338.155
X13168.94Y-4659.25
X13169.489Y-11072.81
X13299.995Y-12405.679
X13330.211Y-12296.641
X13361.036Y-9902.916
X13488.036Y-9902.916
X13548.289Y-12747.218
X13585.956Y-13242.108
X13587.035Y-12008.156
X13643.454Y-12405.679
X13643.454Y-12638.179
X13651.878Y-12521.929
X13784.274Y-11274.156
X13909.956Y-2806.25
X13928.952Y-1755.0
X13981.632Y-10338.155
X14102.813Y-3596.25
X14251.036Y-9902.916
X14378.036Y-9902.916
X14408.705Y-12559.156
X14601.194Y-13242.108
X14710.215Y-12089.929
X14818.952Y-1755.0
X14887.988Y-12008.156
X14907.453Y-11355.929
X14945.665Y-8496.905
X15044.896Y-12559.156
X15085.226Y-11274.156
X15236.633Y-10338.155
X15272.011Y-5376.655
X15272.011Y-6011.655
X15450.492Y-2592.143
T2
X4014.25Y-7358.405
X4014.25Y-7443.405
X4014.25Y-7528.405
X4014.25Y-7613.405
X4014.25Y-7698.405
X4014.25Y-7783.405
X4014.25Y-7868.405
X4014.25Y-7953.405
X4149.25Y-7358.405
X4149.25Y-7443.405
X4149.25Y-7528.405
X4149.25Y-7613.405
X4149.25Y-7698.405
X4149.25Y-7783.405
X4149.25Y-7868.405
X4149.25Y-7953.405
T4
X5419.25Y-4060.405
X5419.25Y-5360.405
X7479.25Y-4060.405
X7479.25Y-5360.405
X9539.25Y-4060.405
X9539.25Y-5360.405
X11599.25Y-4060.405
X11599.25Y-5360.405
T5
X4919.25Y-4360.405
X4919.25Y-4710.405
X4919.25Y-5060.405
X6979.25Y-4360.405
X6979.25Y-4710.405
X6979.25Y-5060.405
X9039.25Y-4360.405
X9039.25Y-4710.405
X9039.25Y-5060.405
X11099.25Y-4360.405
X11099.25Y-4710.405
X11099.25Y-5060.405
T6
X11647.5Y-5617.155
X12367.5Y-5617.155
T3
G00X4037.25Y-7223.405
M15
G01X4187.25Y-7223.405
M16
G05
G00X4037.25Y-8088.405
M15
G01X4187.25Y-8088.405
M16
G05
G00X4410.25Y-7223.405
M15
G01X4490.25Y-7223.405
M16
G05
G00X4410.25Y-8088.405
M15
G01X4490.25Y-8088.405
M16
G05
T0
M30
