G04 #@! TF.GenerationSoftware,KiCad,Pcbnew,5.1.9+dfsg1-1+deb11u1*
G04 #@! TF.CreationDate,2026-09-28T09:16:52-03:00*
G04 #@! TF.ProjectId,v8_drone,76385f64-726f-46e6-952e-6b696361645f,rev?*
G04 #@! TF.SameCoordinates,Original*
G04 #@! TF.FileFunction,Copper,L6,Bot*
G04 #@! TF.FilePolarity,Positive*
%FSLAX46Y46*%
G04 Gerber Fmt 4.6, Leading zero omitted, Abs format (unit mm)*
G04 Created by KiCad (PCBNEW 5.1.9+dfsg1-1+deb11u1) date 2026-09-28 09:16:52*
%MOMM*%
%LPD*%
G01*
G04 APERTURE LIST*
G04 #@! TA.AperFunction,Profile*
%ADD10C,0.100000*%
G04 #@! TD*
G04 #@! TA.AperFunction,ComponentPad*
%ADD11O,1.700000X0.900000*%
G04 #@! TD*
G04 #@! TA.AperFunction,ComponentPad*
%ADD12O,2.400000X0.900000*%
G04 #@! TD*
G04 #@! TA.AperFunction,ComponentPad*
%ADD13C,0.700000*%
G04 #@! TD*
G04 #@! TA.AperFunction,ComponentPad*
%ADD14C,6.000000*%
G04 #@! TD*
G04 #@! TA.AperFunction,ComponentPad*
%ADD15C,3.000000*%
G04 #@! TD*
G04 #@! TA.AperFunction,ComponentPad*
%ADD16R,3.000000X3.000000*%
G04 #@! TD*
G04 #@! TA.AperFunction,ComponentPad*
%ADD17C,1.400000*%
G04 #@! TD*
G04 #@! TA.AperFunction,ViaPad*
%ADD18C,0.600000*%
G04 #@! TD*
%ADD19C,0.300000*%
%ADD20O,1.400000X0.600000*%
%ADD21O,2.100000X0.600000*%
%ADD22C,0.350000*%
G04 APERTURE END LIST*
D10*
X0Y0D02*
X162000000Y0D01*
X162000000Y0D02*
X162000000Y-144918580D01*
X162000000Y-144918580D02*
X0Y-144918580D01*
X0Y-144918580D02*
X0Y0D01*
D11*
G04 #@! TO.P,J2,S1*
G04 #@! TO.N,GND*
X44502500Y-72234049D03*
X44502500Y-80884049D03*
D12*
X41122500Y-72234049D03*
X41122500Y-80884049D03*
D13*
G04 #@! TO.P,J2,B6*
G04 #@! TO.N,USB_DP*
X41492500Y-76134049D03*
G04 #@! TO.P,J2,B1*
G04 #@! TO.N,GND*
X41492500Y-73584049D03*
G04 #@! TO.P,J2,B4*
G04 #@! TO.N,VBUS_USB*
X41492500Y-74434049D03*
G04 #@! TO.P,J2,B5*
G04 #@! TO.N,CC2*
X41492500Y-75284049D03*
G04 #@! TO.P,J2,B12*
G04 #@! TO.N,GND*
X41492500Y-79534049D03*
G04 #@! TO.P,J2,B8*
G04 #@! TO.N,N/C*
X41492500Y-77834049D03*
G04 #@! TO.P,J2,B7*
G04 #@! TO.N,USB_DM*
X41492500Y-76984049D03*
G04 #@! TO.P,J2,B9*
G04 #@! TO.N,VBUS_USB*
X41492500Y-78684049D03*
G04 #@! TO.P,J2,A12*
G04 #@! TO.N,GND*
X40142500Y-73584049D03*
G04 #@! TO.P,J2,A9*
G04 #@! TO.N,VBUS_USB*
X40142500Y-74434049D03*
G04 #@! TO.P,J2,A8*
G04 #@! TO.N,N/C*
X40142500Y-75284049D03*
G04 #@! TO.P,J2,A7*
G04 #@! TO.N,USB_DM*
X40142500Y-76134049D03*
G04 #@! TO.P,J2,A6*
G04 #@! TO.N,USB_DP*
X40142500Y-76984049D03*
G04 #@! TO.P,J2,A5*
G04 #@! TO.N,CC1*
X40142500Y-77834049D03*
G04 #@! TO.P,J2,A4*
G04 #@! TO.N,VBUS_USB*
X40142500Y-78684049D03*
G04 #@! TO.P,J2,A1*
G04 #@! TO.N,GND*
X40142500Y-79534049D03*
G04 #@! TD*
G04 #@! TO.P,J1,1*
G04 #@! TO.N,VBAT*
G04 #@! TA.AperFunction,ComponentPad*
G36*
G01*
X126674998Y-54671550D02*
X126674998Y-57671550D01*
G75*
G02*
X125174998Y-59171550I-1500000J0D01*
G01*
X122174998Y-59171550D01*
G75*
G02*
X120674998Y-57671550I0J1500000D01*
G01*
X120674998Y-54671550D01*
G75*
G02*
X122174998Y-53171550I1500000J0D01*
G01*
X125174998Y-53171550D01*
G75*
G02*
X126674998Y-54671550I0J-1500000D01*
G01*
G37*
G04 #@! TD.AperFunction*
D14*
G04 #@! TO.P,J1,2*
G04 #@! TO.N,GND*
X116474998Y-56171550D03*
G04 #@! TD*
D15*
G04 #@! TO.P,J_M4,3*
G04 #@! TO.N,PHM403*
X49192499Y-43604049D03*
G04 #@! TO.P,J_M4,2*
G04 #@! TO.N,PHM402*
X49192499Y-47104049D03*
D16*
G04 #@! TO.P,J_M4,1*
G04 #@! TO.N,PHM401*
X49192499Y-50604049D03*
D17*
G04 #@! TO.P,J_M4,*
G04 #@! TO.N,*
X54192499Y-40604049D03*
X54192499Y-53604049D03*
G04 #@! TD*
D15*
G04 #@! TO.P,J_M3,3*
G04 #@! TO.N,PHM303*
X69792500Y-43604049D03*
G04 #@! TO.P,J_M3,2*
G04 #@! TO.N,PHM302*
X69792500Y-47104049D03*
D16*
G04 #@! TO.P,J_M3,1*
G04 #@! TO.N,PHM301*
X69792500Y-50604049D03*
D17*
G04 #@! TO.P,J_M3,*
G04 #@! TO.N,*
X74792500Y-40604049D03*
X74792500Y-53604049D03*
G04 #@! TD*
D15*
G04 #@! TO.P,J_M2,3*
G04 #@! TO.N,PHM203*
X90392500Y-43604049D03*
G04 #@! TO.P,J_M2,2*
G04 #@! TO.N,PHM202*
X90392500Y-47104049D03*
D16*
G04 #@! TO.P,J_M2,1*
G04 #@! TO.N,PHM201*
X90392500Y-50604049D03*
D17*
G04 #@! TO.P,J_M2,*
G04 #@! TO.N,*
X95392500Y-40604049D03*
X95392500Y-53604049D03*
G04 #@! TD*
D15*
G04 #@! TO.P,J_M1,3*
G04 #@! TO.N,PHM103*
X110992500Y-43604049D03*
G04 #@! TO.P,J_M1,2*
G04 #@! TO.N,PHM102*
X110992500Y-47104049D03*
D16*
G04 #@! TO.P,J_M1,1*
G04 #@! TO.N,PHM101*
X110992500Y-50604049D03*
D17*
G04 #@! TO.P,J_M1,*
G04 #@! TO.N,*
X115992500Y-40604049D03*
X115992500Y-53604049D03*
G04 #@! TD*
D18*
G04 #@! TO.N,VBAT_PROT*
X7208205Y-5107499D03*
X35360585Y-5107499D03*
X63512964Y-5107499D03*
X91665344Y-5107499D03*
X119817724Y-5107499D03*
X44705867Y-139253818D03*
X82777380Y-139308811D03*
X5660500Y-61479048D03*
X11460500Y-61479048D03*
X17260499Y-61479048D03*
X64545867Y-138078579D03*
X149074531Y-113559286D03*
X17006905Y-120899286D03*
X43025953Y-120899286D03*
X69045001Y-120899286D03*
X95064049Y-120899286D03*
X121083097Y-120899286D03*
X147102145Y-120899286D03*
X17006905Y-127099286D03*
X43025953Y-127099286D03*
X69045001Y-127099286D03*
X95064049Y-127099286D03*
X121083097Y-127099286D03*
X-177500Y-61479048D03*
X52544405Y-16774998D03*
X65044405Y-16774998D03*
X77544406Y-16774998D03*
X90044406Y-16774998D03*
X102544406Y-16774998D03*
X115044406Y-16774998D03*
X75746310Y-105234053D03*
X29402379Y-13492499D03*
X20252379Y-11192499D03*
G04 #@! TO.N,GND*
X28337746Y-98459051D03*
X26178809Y-95385377D03*
X24921446Y-97066412D03*
X89332610Y-138020246D03*
X132999954Y-124056793D03*
X133302114Y-122966405D03*
X136434543Y-124056793D03*
X136518777Y-125219293D03*
X136434543Y-126381793D03*
X135482889Y-127472180D03*
X9985867Y-137532389D03*
X14945867Y-137532389D03*
X12555668Y-103101554D03*
X45864269Y-72234049D03*
X45864269Y-80884049D03*
X42924459Y-73584049D03*
X42924459Y-79534049D03*
X39247525Y-73584049D03*
X39247525Y-79534049D03*
X65523153Y-53796907D03*
X24865867Y-137865723D03*
X29825867Y-138078579D03*
X93752610Y-138425008D03*
X34785867Y-137603818D03*
X98172610Y-138377389D03*
X83837569Y-109784054D03*
X83837569Y-113884054D03*
X90937569Y-109784054D03*
X90937569Y-113884054D03*
X24696585Y-37749049D03*
X109695265Y-132421078D03*
X152720111Y-53766550D03*
X152720111Y-60116550D03*
X114914313Y-132421078D03*
X120133361Y-132421078D03*
X6337500Y-83029159D03*
X14107610Y-81609049D03*
X125352409Y-132421078D03*
X20237500Y-83029159D03*
X28007610Y-81609049D03*
X87989029Y-132171078D03*
X92776529Y-131297864D03*
X14537617Y-97609051D03*
X74688445Y-138491080D03*
X135859561Y-132421078D03*
X149456648Y-84969050D03*
X79621778Y-138491080D03*
X146011941Y-132421078D03*
X59632600Y-96019052D03*
X84555111Y-138491080D03*
X5660500Y-58529048D03*
X11460500Y-58529048D03*
X17260499Y-58529048D03*
X69505867Y-138078579D03*
X79442416Y-28062499D03*
X137842738Y-112741555D03*
X94356702Y-28062499D03*
X63680355Y-99029160D03*
X62410355Y-99029160D03*
X150852262Y-112741555D03*
X144087050Y-125591555D03*
X130389515Y-17549998D03*
X58070352Y-46592501D03*
X109270988Y-28062499D03*
X5775112Y-120081555D03*
X124185274Y-28062499D03*
X72580355Y-99029160D03*
X71310355Y-99029160D03*
X18784636Y-120081555D03*
X150448955Y-125591555D03*
X139289516Y-17549998D03*
X65432256Y-46592501D03*
X139099560Y-28062499D03*
X31794160Y-120081555D03*
X154504917Y-25921427D03*
X81480355Y-99029160D03*
X80210355Y-99029160D03*
X44803684Y-120081555D03*
X987048Y-132001080D03*
X148189516Y-17549998D03*
X72794162Y-46592501D03*
X6799559Y-35962501D03*
X57813208Y-120081555D03*
X21713845Y-35962501D03*
X90380356Y-99029160D03*
X89110356Y-99029160D03*
X70822732Y-120081555D03*
X7348953Y-132001080D03*
X80156067Y-46592501D03*
X36628131Y-35962501D03*
X83832256Y-120081555D03*
X51542417Y-35962501D03*
X99280356Y-99029160D03*
X98010356Y-99029160D03*
X96841780Y-120081555D03*
X13710858Y-132001080D03*
X9067609Y-28999998D03*
X87517972Y-46592501D03*
X66456703Y-35962501D03*
X109851304Y-120081555D03*
X81370989Y-35962501D03*
X108180356Y-99029160D03*
X106910356Y-99029160D03*
X122860828Y-120081555D03*
X20072763Y-132001080D03*
X17967609Y-28999998D03*
X94879877Y-46592501D03*
X96285275Y-35962501D03*
X135870352Y-120081555D03*
X111199561Y-35962501D03*
X117080356Y-99029160D03*
X115810356Y-99029160D03*
X148879876Y-120081555D03*
X26434668Y-132001080D03*
X26867609Y-28999998D03*
X102241782Y-46592501D03*
X126113847Y-35962501D03*
X5775112Y-126281555D03*
X141028133Y-35962501D03*
X125980356Y-99029160D03*
X124710356Y-99029160D03*
X18784636Y-126281555D03*
X32796573Y-132001080D03*
X35767609Y-28999998D03*
X108785956Y-45774769D03*
X31794160Y-126281555D03*
X14256702Y-40922501D03*
X134880356Y-99029160D03*
X133610356Y-99029160D03*
X44803684Y-126281555D03*
X39158478Y-132001080D03*
X44667609Y-28999998D03*
X116965592Y-46592501D03*
X29170988Y-40922501D03*
X57813208Y-126281555D03*
X44085274Y-40922501D03*
X143780356Y-99029160D03*
X142510356Y-99029160D03*
X70822732Y-126281555D03*
X45520383Y-132001080D03*
X53567609Y-28999998D03*
X124327497Y-46592501D03*
X58999560Y-40922501D03*
X83832256Y-126281555D03*
X73614805Y-41644447D03*
X96841780Y-126281555D03*
X51882288Y-132001080D03*
X62467609Y-28999998D03*
X131689402Y-46592501D03*
X88828132Y-40922501D03*
X109851304Y-126281555D03*
X103742418Y-40922501D03*
X5107499Y-106929162D03*
X3837499Y-106929162D03*
X122860828Y-126281555D03*
X58244193Y-132001080D03*
X71367609Y-28999998D03*
X42852500Y-72234049D03*
X42852500Y-80884049D03*
X45913102Y-111901556D03*
X52897498Y-78534049D03*
X13480000Y-49814049D03*
X292500Y-81609049D03*
X9757617Y-95801551D03*
X26846665Y-103701553D03*
X35303808Y-103701553D03*
X25247623Y-111601555D03*
X32752386Y-111601555D03*
X43760951Y-103701553D03*
X52218095Y-103701553D03*
X98194887Y-110728103D03*
X104894888Y-110728103D03*
X111594888Y-110728103D03*
X118294888Y-110728103D03*
X516904Y-138221080D03*
X124994887Y-110728103D03*
X131694887Y-110728103D03*
X647144Y-96019052D03*
X-177500Y-58529048D03*
X52544405Y-10274998D03*
X65044405Y-10274998D03*
X77544406Y-10274998D03*
X90044406Y-10274998D03*
X102544406Y-10274998D03*
X115044406Y-10274998D03*
X75746310Y-100934053D03*
X120004998Y-56171550D03*
X82836309Y-103381554D03*
X90976311Y-103381554D03*
X99116313Y-103381554D03*
X252500Y-28999998D03*
X107256315Y-103381554D03*
X115396316Y-103381554D03*
X123536318Y-103381554D03*
X131676320Y-103381554D03*
X139816323Y-103381554D03*
X-673570Y-40922501D03*
X152366325Y-103381554D03*
X117499Y-113486556D03*
X6052500Y-111281556D03*
X18602501Y-111281556D03*
G04 #@! TD*
D19*
X7208205Y-5107499D03*
X35360585Y-5107499D03*
X63512964Y-5107499D03*
X91665344Y-5107499D03*
X119817724Y-5107499D03*
X44705867Y-139253818D03*
X82777380Y-139308811D03*
X5660500Y-61479048D03*
X11460500Y-61479048D03*
X17260499Y-61479048D03*
X64545867Y-138078579D03*
X149074531Y-113559286D03*
X17006905Y-120899286D03*
X43025953Y-120899286D03*
X69045001Y-120899286D03*
X95064049Y-120899286D03*
X121083097Y-120899286D03*
X147102145Y-120899286D03*
X17006905Y-127099286D03*
X43025953Y-127099286D03*
X69045001Y-127099286D03*
X95064049Y-127099286D03*
X121083097Y-127099286D03*
X-177500Y-61479048D03*
X52544405Y-16774998D03*
X65044405Y-16774998D03*
X77544406Y-16774998D03*
X90044406Y-16774998D03*
X102544406Y-16774998D03*
X115044406Y-16774998D03*
X75746310Y-105234053D03*
X29402379Y-13492499D03*
X20252379Y-11192499D03*
X28337746Y-98459051D03*
X26178809Y-95385377D03*
X24921446Y-97066412D03*
X89332610Y-138020246D03*
X132999954Y-124056793D03*
X133302114Y-122966405D03*
X136434543Y-124056793D03*
X136518777Y-125219293D03*
X136434543Y-126381793D03*
X135482889Y-127472180D03*
X9985867Y-137532389D03*
X14945867Y-137532389D03*
X12555668Y-103101554D03*
X45864269Y-72234049D03*
X45864269Y-80884049D03*
X42924459Y-73584049D03*
X42924459Y-79534049D03*
X39247525Y-73584049D03*
X39247525Y-79534049D03*
X65523153Y-53796907D03*
X24865867Y-137865723D03*
X29825867Y-138078579D03*
X93752610Y-138425008D03*
X34785867Y-137603818D03*
X98172610Y-138377389D03*
X83837569Y-109784054D03*
X83837569Y-113884054D03*
X90937569Y-109784054D03*
X90937569Y-113884054D03*
X24696585Y-37749049D03*
X109695265Y-132421078D03*
X152720111Y-53766550D03*
X152720111Y-60116550D03*
X114914313Y-132421078D03*
X120133361Y-132421078D03*
X6337500Y-83029159D03*
X14107610Y-81609049D03*
X125352409Y-132421078D03*
X20237500Y-83029159D03*
X28007610Y-81609049D03*
X87989029Y-132171078D03*
X92776529Y-131297864D03*
X14537617Y-97609051D03*
X74688445Y-138491080D03*
X135859561Y-132421078D03*
X149456648Y-84969050D03*
X79621778Y-138491080D03*
X146011941Y-132421078D03*
X59632600Y-96019052D03*
X84555111Y-138491080D03*
X5660500Y-58529048D03*
X11460500Y-58529048D03*
X17260499Y-58529048D03*
X69505867Y-138078579D03*
X79442416Y-28062499D03*
X137842738Y-112741555D03*
X94356702Y-28062499D03*
X63680355Y-99029160D03*
X62410355Y-99029160D03*
X150852262Y-112741555D03*
X144087050Y-125591555D03*
X130389515Y-17549998D03*
X58070352Y-46592501D03*
X109270988Y-28062499D03*
X5775112Y-120081555D03*
X124185274Y-28062499D03*
X72580355Y-99029160D03*
X71310355Y-99029160D03*
X18784636Y-120081555D03*
X150448955Y-125591555D03*
X139289516Y-17549998D03*
X65432256Y-46592501D03*
X139099560Y-28062499D03*
X31794160Y-120081555D03*
X154504917Y-25921427D03*
X81480355Y-99029160D03*
X80210355Y-99029160D03*
X44803684Y-120081555D03*
X987048Y-132001080D03*
X148189516Y-17549998D03*
X72794162Y-46592501D03*
X6799559Y-35962501D03*
X57813208Y-120081555D03*
X21713845Y-35962501D03*
X90380356Y-99029160D03*
X89110356Y-99029160D03*
X70822732Y-120081555D03*
X7348953Y-132001080D03*
X80156067Y-46592501D03*
X36628131Y-35962501D03*
X83832256Y-120081555D03*
X51542417Y-35962501D03*
X99280356Y-99029160D03*
X98010356Y-99029160D03*
X96841780Y-120081555D03*
X13710858Y-132001080D03*
X9067609Y-28999998D03*
X87517972Y-46592501D03*
X66456703Y-35962501D03*
X109851304Y-120081555D03*
X81370989Y-35962501D03*
X108180356Y-99029160D03*
X106910356Y-99029160D03*
X122860828Y-120081555D03*
X20072763Y-132001080D03*
X17967609Y-28999998D03*
X94879877Y-46592501D03*
X96285275Y-35962501D03*
X135870352Y-120081555D03*
X111199561Y-35962501D03*
X117080356Y-99029160D03*
X115810356Y-99029160D03*
X148879876Y-120081555D03*
X26434668Y-132001080D03*
X26867609Y-28999998D03*
X102241782Y-46592501D03*
X126113847Y-35962501D03*
X5775112Y-126281555D03*
X141028133Y-35962501D03*
X125980356Y-99029160D03*
X124710356Y-99029160D03*
X18784636Y-126281555D03*
X32796573Y-132001080D03*
X35767609Y-28999998D03*
X108785956Y-45774769D03*
X31794160Y-126281555D03*
X14256702Y-40922501D03*
X134880356Y-99029160D03*
X133610356Y-99029160D03*
X44803684Y-126281555D03*
X39158478Y-132001080D03*
X44667609Y-28999998D03*
X116965592Y-46592501D03*
X29170988Y-40922501D03*
X57813208Y-126281555D03*
X44085274Y-40922501D03*
X143780356Y-99029160D03*
X142510356Y-99029160D03*
X70822732Y-126281555D03*
X45520383Y-132001080D03*
X53567609Y-28999998D03*
X124327497Y-46592501D03*
X58999560Y-40922501D03*
X83832256Y-126281555D03*
X73614805Y-41644447D03*
X96841780Y-126281555D03*
X51882288Y-132001080D03*
X62467609Y-28999998D03*
X131689402Y-46592501D03*
X88828132Y-40922501D03*
X109851304Y-126281555D03*
X103742418Y-40922501D03*
X5107499Y-106929162D03*
X3837499Y-106929162D03*
X122860828Y-126281555D03*
X58244193Y-132001080D03*
X71367609Y-28999998D03*
X42852500Y-72234049D03*
X42852500Y-80884049D03*
X45913102Y-111901556D03*
X52897498Y-78534049D03*
X13480000Y-49814049D03*
X292500Y-81609049D03*
X9757617Y-95801551D03*
X26846665Y-103701553D03*
X35303808Y-103701553D03*
X25247623Y-111601555D03*
X32752386Y-111601555D03*
X43760951Y-103701553D03*
X52218095Y-103701553D03*
X98194887Y-110728103D03*
X104894888Y-110728103D03*
X111594888Y-110728103D03*
X118294888Y-110728103D03*
X516904Y-138221080D03*
X124994887Y-110728103D03*
X131694887Y-110728103D03*
X647144Y-96019052D03*
X-177500Y-58529048D03*
X52544405Y-10274998D03*
X65044405Y-10274998D03*
X77544406Y-10274998D03*
X90044406Y-10274998D03*
X102544406Y-10274998D03*
X115044406Y-10274998D03*
X75746310Y-100934053D03*
X120004998Y-56171550D03*
X82836309Y-103381554D03*
X90976311Y-103381554D03*
X99116313Y-103381554D03*
X252500Y-28999998D03*
X107256315Y-103381554D03*
X115396316Y-103381554D03*
X123536318Y-103381554D03*
X131676320Y-103381554D03*
X139816323Y-103381554D03*
X-673570Y-40922501D03*
X152366325Y-103381554D03*
X117499Y-113486556D03*
X6052500Y-111281556D03*
X18602501Y-111281556D03*
D20*
X44502500Y-72234049D03*
X44502500Y-80884049D03*
D21*
X41122500Y-72234049D03*
X41122500Y-80884049D03*
D22*
X41492500Y-76134049D03*
X41492500Y-73584049D03*
X41492500Y-74434049D03*
X41492500Y-75284049D03*
X41492500Y-79534049D03*
X41492500Y-77834049D03*
X41492500Y-76984049D03*
X41492500Y-78684049D03*
X40142500Y-73584049D03*
X40142500Y-74434049D03*
X40142500Y-75284049D03*
X40142500Y-76134049D03*
X40142500Y-76984049D03*
X40142500Y-77834049D03*
X40142500Y-78684049D03*
X40142500Y-79534049D03*
X102206190Y-82851550D03*
X112853810Y-82851550D03*
X123501428Y-82851550D03*
X134149048Y-82851550D03*
X123674998Y-56171550D03*
X116474998Y-56171550D03*
X49192499Y-43604049D03*
X49192499Y-47104049D03*
X49192499Y-50604049D03*
X54192499Y-40604049D03*
X54192499Y-53604049D03*
X69792500Y-43604049D03*
X69792500Y-47104049D03*
X69792500Y-50604049D03*
X74792500Y-40604049D03*
X74792500Y-53604049D03*
X90392500Y-43604049D03*
X90392500Y-47104049D03*
X90392500Y-50604049D03*
X95392500Y-40604049D03*
X95392500Y-53604049D03*
X110992500Y-43604049D03*
X110992500Y-47104049D03*
X110992500Y-50604049D03*
X115992500Y-40604049D03*
X115992500Y-53604049D03*
M02*
