M48
; DRILL file {KiCad 5.1.9+dfsg1-1+deb11u1} date Mon Sep 28 11:23:23 2026
; FORMAT={-:-/ absolute / metric / decimal}
; #@! TF.CreationDate,2026-09-28T11:23:23-03:00
; #@! TF.GenerationSoftware,Kicad,Pcbnew,5.1.9+dfsg1-1+deb11u1
; #@! TF.FileFunction,Plated,1,6,PTH
FMAT,2
METRIC
T1C0.300
T2C0.400
T3C0.600
T4C1.000
T5C1.900
T6C4.500
%
G90
G05
T1
X0.819Y-116.977
X0.821Y-67.38
X0.821Y-70.879
X0.823Y-64.805
X0.823Y-73.455
X0.842Y-66.155
X0.842Y-72.105
X0.996Y-29.132
X1.55Y-30.32
X2.802Y-66.205
X2.802Y-74.855
X3.492Y-102.739
X3.655Y-89.146
X3.655Y-91.214
X3.802Y-64.805
X3.802Y-73.455
X4.238Y-5.107
X4.731Y-116.977
X5.107Y-89.08
X5.107Y-91.28
X5.779Y-31.498
X5.792Y-102.739
X6.729Y-30.448
X7.017Y-71.105
X7.031Y-116.977
X7.058Y-95.952
X7.338Y-5.107
X7.782Y-123.054
X9.682Y-123.054
X10.117Y-71.105
X10.192Y-102.739
X11.093Y-116.977
X11.462Y-112.157
X12.312Y-111.257
X12.492Y-102.739
X12.555Y-89.146
X12.555Y-91.214
X12.742Y-123.054
X13.236Y-36.458
X13.393Y-116.977
X14.007Y-89.08
X14.007Y-91.28
X14.186Y-35.408
X14.642Y-123.054
X15.198Y-95.952
X17.455Y-116.977
X18.553Y-105.652
X19.078Y-124.367
X19.403Y-104.752
X19.755Y-116.977
X19.928Y-123.467
X20.693Y-31.498
X21.455Y-89.146
X21.455Y-91.214
X21.643Y-30.448
X22.662Y-111.257
X22.907Y-89.08
X22.907Y-91.28
X23.338Y-95.952
X23.512Y-110.357
X23.817Y-116.977
X24.012Y-124.367
X24.472Y-112.157
X24.862Y-123.467
X25.322Y-111.257
X26.117Y-116.977
X27.135Y-123.467
X27.985Y-122.567
X28.15Y-34.358
X28.945Y-124.367
X29.1Y-35.408
X29.752Y-104.752
X29.795Y-123.467
X30.179Y-116.977
X30.355Y-89.146
X30.355Y-91.214
X30.602Y-103.852
X31.478Y-95.952
X31.562Y-105.652
X31.807Y-89.08
X31.807Y-91.28
X32.39Y-5.107
X32.412Y-104.752
X32.479Y-116.977
X32.872Y-122.996
X34.572Y-122.996
X35.49Y-5.107
X35.607Y-31.498
X36.557Y-30.448
X37.292Y-123.4
X37.481Y-112.157
X38.331Y-111.257
X38.992Y-123.4
X39.255Y-89.146
X39.255Y-91.214
X39.618Y-95.952
X40.707Y-89.08
X40.707Y-91.28
X41.712Y-123.353
X43.064Y-36.458
X43.412Y-123.353
X44.014Y-35.408
X44.572Y-105.652
X45.422Y-104.752
X47.758Y-95.952
X48.155Y-89.146
X48.155Y-91.214
X48.681Y-111.257
X49.531Y-110.357
X49.607Y-89.08
X49.607Y-91.28
X50.491Y-112.157
X50.521Y-31.498
X51.341Y-111.257
X51.471Y-30.448
X55.771Y-104.752
X55.898Y-95.952
X56.621Y-103.852
X57.055Y-89.146
X57.055Y-91.214
X57.207Y-45.418
X57.207Y-47.318
X57.581Y-105.652
X57.979Y-36.458
X58.431Y-104.752
X58.507Y-89.08
X58.507Y-91.28
X58.929Y-35.408
X60.543Y-5.107
X61.261Y-118.447
X62.311Y-117.147
X63.5Y-112.157
X63.643Y-5.107
X64.038Y-95.952
X64.35Y-111.257
X64.71Y-40.178
X64.998Y-116.273
X65.436Y-31.498
X65.596Y-41.234
X65.955Y-89.146
X65.955Y-91.214
X66.386Y-30.448
X67.098Y-116.273
X67.407Y-89.08
X67.407Y-91.28
X70.591Y-105.652
X71.441Y-104.752
X72.072Y-41.978
X72.178Y-95.952
X72.893Y-36.458
X72.922Y-41.078
X73.843Y-35.408
X73.93Y-19.066
X73.93Y-21.134
X74.7Y-111.257
X74.855Y-89.146
X74.855Y-91.214
X75.55Y-110.357
X76.307Y-89.08
X76.307Y-91.28
X76.51Y-112.157
X77.36Y-111.257
X79.434Y-41.978
X80.284Y-41.078
X80.318Y-95.952
X80.35Y-31.498
X81.3Y-30.448
X81.79Y-104.752
X82.64Y-103.852
X82.718Y-95.952
X82.83Y-19.066
X82.83Y-21.134
X83.193Y-118.447
X83.6Y-105.652
X83.755Y-89.146
X83.755Y-91.214
X84.193Y-117.397
X84.45Y-104.752
X85.207Y-89.08
X85.207Y-91.28
X85.608Y-40.081
X85.608Y-42.074
X87.555Y-33.98
X88.412Y-118.447
X88.695Y-5.107
X88.803Y-34.22
X89.412Y-117.397
X89.519Y-112.157
X89.638Y-96.272
X90.369Y-111.257
X91.73Y-19.066
X91.73Y-21.134
X91.795Y-5.107
X92.655Y-89.146
X92.655Y-91.214
X93.631Y-118.447
X94.108Y-89.08
X94.108Y-91.28
X94.157Y-41.978
X94.631Y-117.397
X95.007Y-41.078
X95.264Y-31.498
X96.214Y-30.448
X96.61Y-105.652
X97.142Y-96.272
X97.46Y-104.752
X98.85Y-118.447
X99.85Y-117.397
X100.63Y-19.066
X100.63Y-21.134
X100.719Y-111.257
X101.477Y-87.772
X101.519Y-41.978
X101.569Y-110.357
X102.369Y-41.078
X102.529Y-112.157
X102.721Y-36.458
X103.379Y-111.257
X103.671Y-35.408
X104.763Y-77.54
X107.809Y-104.752
X107.863Y-77.54
X108.659Y-103.852
X108.881Y-41.978
X108.978Y-78.81
X109.391Y-118.447
X109.503Y-98.122
X109.53Y-19.066
X109.53Y-21.134
X109.619Y-105.652
X109.731Y-41.078
X110.179Y-31.498
X110.341Y-117.397
X110.469Y-104.752
X111.053Y-96.572
X111.129Y-30.448
X112.078Y-77.54
X112.078Y-78.81
X114.978Y-77.54
X115.117Y-88.372
X115.538Y-112.157
X116.243Y-41.978
X116.388Y-111.257
X116.848Y-5.107
X117.093Y-41.078
X117.636Y-36.458
X118.078Y-77.54
X118.43Y-19.066
X118.43Y-21.134
X118.586Y-35.408
X119.543Y-118.447
X119.948Y-5.107
X120.493Y-117.397
X120.788Y-47.6
X120.788Y-49.8
X122.629Y-105.652
X123.479Y-104.752
X123.574Y-88.372
X123.605Y-41.978
X124.455Y-41.078
X125.093Y-31.498
X126.043Y-30.448
X126.439Y-77.322
X126.738Y-111.257
X127.32Y-47.666
X127.32Y-49.734
X127.33Y-19.066
X127.33Y-21.134
X127.588Y-110.357
X128.548Y-112.157
X129.398Y-111.257
X129.696Y-118.447
X130.646Y-117.397
X130.967Y-41.978
X131.817Y-41.078
X131.882Y-79.13
X132.031Y-88.372
X132.55Y-36.458
X133.5Y-35.408
X133.828Y-104.752
X134.678Y-103.852
X134.688Y-47.6
X134.688Y-49.8
X135.638Y-105.652
X136.23Y-19.066
X136.23Y-21.134
X136.488Y-104.752
X138.199Y-116.708
X138.329Y-41.978
X139.179Y-41.078
X139.401Y-107.845
X139.547Y-111.357
X139.697Y-109.032
X140.007Y-31.498
X140.099Y-116.708
X140.422Y-112.18
X140.488Y-88.372
X140.607Y-108.234
X140.957Y-30.448
X141.22Y-47.666
X141.22Y-49.734
X141.31Y-110.195
X141.688Y-112.156
X141.872Y-108.21
X142.14Y-77.98
X142.24Y-76.767
X142.709Y-109.32
X142.901Y-111.904
X143.056Y-110.53
X143.159Y-116.708
X143.59Y-77.03
X144.658Y-3.842
X144.89Y-80.93
X145.059Y-116.708
X145.13Y-19.066
X145.13Y-21.134
X145.69Y-79.98
X145.691Y-41.978
X146.541Y-41.078
X147.464Y-36.458
X147.512Y-47.032
X147.771Y-44.595
X147.885Y-95.505
X147.885Y-99.605
X147.974Y-110.567
X148.414Y-35.408
X148.588Y-49.8
X148.648Y-105.652
X148.885Y-94.455
X148.885Y-98.555
X149.498Y-104.752
X150.071Y-44.595
X150.237Y-47.066
X150.274Y-110.567
X153.079Y-117.041
X153.359Y-47.049
X153.571Y-44.595
X154.03Y-19.066
X154.03Y-21.134
X154.336Y-110.567
X154.921Y-31.498
X154.979Y-117.041
X154.985Y-95.505
X154.985Y-99.605
X155.12Y-49.734
X155.871Y-44.595
X155.871Y-30.448
X155.985Y-94.455
X155.985Y-98.555
X156.001Y-47.319
X156.488Y-48.7
X156.636Y-110.567
X158.039Y-117.254
X159.205Y-47.066
X159.371Y-44.595
X159.847Y-104.752
X159.939Y-117.254
X160.285Y-95.399
X160.697Y-103.852
X160.698Y-110.567
X161.657Y-105.652
X161.671Y-44.595
X161.747Y-46.517
X162.488Y-47.6
X162.488Y-49.8
X162.507Y-104.752
X162.585Y-95.399
X162.93Y-19.066
X162.93Y-21.134
X162.998Y-110.567
X162.999Y-116.779
X164.899Y-116.779
X165.022Y-46.795
X165.171Y-44.595
X166.985Y-95.399
X167.06Y-110.567
X167.471Y-44.595
X167.62Y-46.795
X169.02Y-47.666
X169.02Y-49.734
X169.285Y-95.399
X169.36Y-110.567
X169.836Y-31.498
X170.786Y-30.448
X171.83Y-19.066
X171.83Y-21.134
X172.841Y-88.052
X172.919Y-118.429
X173.421Y-110.567
X173.685Y-95.399
X174.05Y-77.54
X174.667Y-105.652
X174.819Y-118.429
X175.241Y-88.052
X175.517Y-104.752
X175.721Y-110.567
X175.985Y-95.399
X177.15Y-77.54
X179.662Y-17.021
X179.783Y-110.567
X181.562Y-17.021
X182.083Y-110.567
T2
X-1.557Y-66.155
X-1.557Y-67.005
X-1.557Y-67.855
X-1.557Y-68.705
X-1.557Y-69.555
X-1.557Y-70.405
X-1.557Y-71.255
X-1.557Y-72.105
X-0.207Y-66.155
X-0.207Y-67.005
X-0.207Y-67.855
X-0.207Y-68.705
X-0.207Y-69.555
X-0.207Y-70.405
X-0.207Y-71.255
X-0.207Y-72.105
T4
X30.992Y-33.175
X30.992Y-46.175
X51.592Y-33.175
X51.592Y-46.175
X72.192Y-33.175
X72.192Y-46.175
X92.792Y-33.175
X92.792Y-46.175
T5
X25.992Y-36.175
X25.992Y-39.675
X25.992Y-43.175
X46.592Y-36.175
X46.592Y-39.675
X46.592Y-43.175
X67.192Y-36.175
X67.192Y-39.675
X67.192Y-43.175
X87.792Y-36.175
X87.792Y-39.675
X87.792Y-43.175
T6
X93.275Y-48.742
X100.475Y-48.742
T3
G00X-1.327Y-64.805
M15
G01X0.172Y-64.805
M16
G05
G00X-1.327Y-73.455
M15
G01X0.172Y-73.455
M16
G05
G00X2.402Y-64.805
M15
G01X3.202Y-64.805
M16
G05
G00X2.402Y-73.455
M15
G01X3.202Y-73.455
M16
G05
T0
M30
