G04 #@! TF.GenerationSoftware,KiCad,Pcbnew,5.1.9+dfsg1-1+deb11u1*
G04 #@! TF.CreationDate,2026-09-28T11:23:23-03:00*
G04 #@! TF.ProjectId,v9_drone,76395f64-726f-46e6-952e-6b696361645f,rev?*
G04 #@! TF.SameCoordinates,Original*
G04 #@! TF.FileFunction,Soldermask,Bot*
G04 #@! TF.FilePolarity,Negative*
%FSLAX46Y46*%
G04 Gerber Fmt 4.6, Leading zero omitted, Abs format (unit mm)*
G04 Created by KiCad (PCBNEW 5.1.9+dfsg1-1+deb11u1) date 2026-09-28 11:23:23*
%MOMM*%
%LPD*%
G01*
G04 APERTURE LIST*
%ADD10O,1.700000X0.900000*%
%ADD11O,2.400000X0.900000*%
%ADD12C,0.700000*%
%ADD13C,3.200000*%
%ADD14C,6.000000*%
%ADD15C,3.000000*%
%ADD16R,3.000000X3.000000*%
%ADD17C,1.400000*%
G04 APERTURE END LIST*
D10*
G04 #@! TO.C,J2*
X2802500Y-64804762D03*
X2802500Y-73454762D03*
D11*
X-577500Y-64804762D03*
X-577500Y-73454762D03*
D12*
X-207500Y-68704762D03*
X-207500Y-66154762D03*
X-207500Y-67004762D03*
X-207500Y-67854762D03*
X-207500Y-72104762D03*
X-207500Y-70404762D03*
X-207500Y-69554762D03*
X-207500Y-71254762D03*
X-1557500Y-66154762D03*
X-1557500Y-67004762D03*
X-1557500Y-67854762D03*
X-1557500Y-68704762D03*
X-1557500Y-69554762D03*
X-1557500Y-70404762D03*
X-1557500Y-71254762D03*
X-1557500Y-72104762D03*
G04 #@! TD*
D13*
G04 #@! TO.C,H4*
X60506191Y-75422264D03*
G04 #@! TD*
G04 #@! TO.C,H3*
X71153810Y-75422264D03*
G04 #@! TD*
G04 #@! TO.C,H2*
X81801429Y-75422264D03*
G04 #@! TD*
G04 #@! TO.C,H1*
X92449047Y-75422264D03*
G04 #@! TD*
G04 #@! TO.C,J1*
G36*
G01*
X103474998Y-47242263D02*
X103474998Y-50242263D01*
G75*
G02*
X101974998Y-51742263I-1500000J0D01*
G01*
X98974998Y-51742263D01*
G75*
G02*
X97474998Y-50242263I0J1500000D01*
G01*
X97474998Y-47242263D01*
G75*
G02*
X98974998Y-45742263I1500000J0D01*
G01*
X101974998Y-45742263D01*
G75*
G02*
X103474998Y-47242263I0J-1500000D01*
G01*
G37*
D14*
X93274998Y-48742263D03*
G04 #@! TD*
D15*
G04 #@! TO.C,J_M4*
X25992500Y-36174762D03*
X25992500Y-39674762D03*
D16*
X25992500Y-43174762D03*
D17*
X30992500Y-33174762D03*
X30992500Y-46174762D03*
G04 #@! TD*
D15*
G04 #@! TO.C,J_M3*
X46592499Y-36174762D03*
X46592499Y-39674762D03*
D16*
X46592499Y-43174762D03*
D17*
X51592499Y-33174762D03*
X51592499Y-46174762D03*
G04 #@! TD*
D15*
G04 #@! TO.C,J_M2*
X67192500Y-36174762D03*
X67192500Y-39674762D03*
D16*
X67192500Y-43174762D03*
D17*
X72192500Y-33174762D03*
X72192500Y-46174762D03*
G04 #@! TD*
D15*
G04 #@! TO.C,J_M1*
X87792499Y-36174762D03*
X87792499Y-39674762D03*
D16*
X87792499Y-43174762D03*
D17*
X92792499Y-33174762D03*
X92792499Y-46174762D03*
G04 #@! TD*
M02*
