G04 #@! TF.GenerationSoftware,KiCad,Pcbnew,5.1.9+dfsg1-1+deb11u1*
G04 #@! TF.CreationDate,2026-09-28T11:23:23-03:00*
G04 #@! TF.ProjectId,v9_drone,76395f64-726f-46e6-952e-6b696361645f,rev?*
G04 #@! TF.SameCoordinates,Original*
G04 #@! TF.FileFunction,Copper,L2,Inr*
G04 #@! TF.FilePolarity,Positive*
%FSLAX46Y46*%
G04 Gerber Fmt 4.6, Leading zero omitted, Abs format (unit mm)*
G04 Created by KiCad (PCBNEW 5.1.9+dfsg1-1+deb11u1) date 2026-09-28 11:23:23*
%MOMM*%
%LPD*%
G01*
G04 APERTURE LIST*
G04 #@! TA.AperFunction,ComponentPad*
%ADD10O,1.700000X0.900000*%
G04 #@! TD*
G04 #@! TA.AperFunction,ComponentPad*
%ADD11O,2.400000X0.900000*%
G04 #@! TD*
G04 #@! TA.AperFunction,ComponentPad*
%ADD12C,0.700000*%
G04 #@! TD*
G04 #@! TA.AperFunction,ComponentPad*
%ADD13C,6.000000*%
G04 #@! TD*
G04 #@! TA.AperFunction,ComponentPad*
%ADD14C,3.000000*%
G04 #@! TD*
G04 #@! TA.AperFunction,ComponentPad*
%ADD15R,3.000000X3.000000*%
G04 #@! TD*
G04 #@! TA.AperFunction,ComponentPad*
%ADD16C,1.400000*%
G04 #@! TD*
G04 #@! TA.AperFunction,ViaPad*
%ADD17C,0.600000*%
G04 #@! TD*
G04 #@! TA.AperFunction,Conductor*
%ADD18C,0.200000*%
G04 #@! TD*
G04 #@! TA.AperFunction,Conductor*
%ADD19C,0.150000*%
G04 #@! TD*
%ADD20C,0.300000*%
%ADD21O,1.400000X0.600000*%
%ADD22O,2.100000X0.600000*%
%ADD23C,0.350000*%
G04 APERTURE END LIST*
D10*
G04 #@! TO.N,GND*
G04 #@! TO.C,J2*
X2802500Y-64804762D03*
X2802500Y-73454762D03*
D11*
X-577500Y-64804762D03*
X-577500Y-73454762D03*
D12*
G04 #@! TO.N,USB_DP*
X-207500Y-68704762D03*
G04 #@! TO.N,GND*
X-207500Y-66154762D03*
G04 #@! TO.N,VBUS_USB*
X-207500Y-67004762D03*
G04 #@! TO.N,CC2*
X-207500Y-67854762D03*
G04 #@! TO.N,GND*
X-207500Y-72104762D03*
G04 #@! TO.N,N/C*
X-207500Y-70404762D03*
G04 #@! TO.N,USB_DM*
X-207500Y-69554762D03*
G04 #@! TO.N,VBUS_USB*
X-207500Y-71254762D03*
G04 #@! TO.N,GND*
X-1557500Y-66154762D03*
G04 #@! TO.N,VBUS_USB*
X-1557500Y-67004762D03*
G04 #@! TO.N,N/C*
X-1557500Y-67854762D03*
G04 #@! TO.N,USB_DM*
X-1557500Y-68704762D03*
G04 #@! TO.N,USB_DP*
X-1557500Y-69554762D03*
G04 #@! TO.N,CC1*
X-1557500Y-70404762D03*
G04 #@! TO.N,VBUS_USB*
X-1557500Y-71254762D03*
G04 #@! TO.N,GND*
X-1557500Y-72104762D03*
G04 #@! TD*
G04 #@! TO.N,VBAT*
G04 #@! TO.C,J1*
G04 #@! TA.AperFunction,ComponentPad*
G36*
G01*
X103474998Y-47242263D02*
X103474998Y-50242263D01*
G75*
G02*
X101974998Y-51742263I-1500000J0D01*
G01*
X98974998Y-51742263D01*
G75*
G02*
X97474998Y-50242263I0J1500000D01*
G01*
X97474998Y-47242263D01*
G75*
G02*
X98974998Y-45742263I1500000J0D01*
G01*
X101974998Y-45742263D01*
G75*
G02*
X103474998Y-47242263I0J-1500000D01*
G01*
G37*
G04 #@! TD.AperFunction*
D13*
G04 #@! TO.N,GND*
X93274998Y-48742263D03*
G04 #@! TD*
D14*
G04 #@! TO.N,PHM403*
G04 #@! TO.C,J_M4*
X25992500Y-36174762D03*
G04 #@! TO.N,PHM402*
X25992500Y-39674762D03*
D15*
G04 #@! TO.N,PHM401*
X25992500Y-43174762D03*
D16*
G04 #@! TO.N,*
X30992500Y-33174762D03*
X30992500Y-46174762D03*
G04 #@! TD*
D14*
G04 #@! TO.N,PHM303*
G04 #@! TO.C,J_M3*
X46592499Y-36174762D03*
G04 #@! TO.N,PHM302*
X46592499Y-39674762D03*
D15*
G04 #@! TO.N,PHM301*
X46592499Y-43174762D03*
D16*
G04 #@! TO.N,*
X51592499Y-33174762D03*
X51592499Y-46174762D03*
G04 #@! TD*
D14*
G04 #@! TO.N,PHM203*
G04 #@! TO.C,J_M2*
X67192500Y-36174762D03*
G04 #@! TO.N,PHM202*
X67192500Y-39674762D03*
D15*
G04 #@! TO.N,PHM201*
X67192500Y-43174762D03*
D16*
G04 #@! TO.N,*
X72192500Y-33174762D03*
X72192500Y-46174762D03*
G04 #@! TD*
D14*
G04 #@! TO.N,PHM103*
G04 #@! TO.C,J_M1*
X87792499Y-36174762D03*
G04 #@! TO.N,PHM102*
X87792499Y-39674762D03*
D15*
G04 #@! TO.N,PHM101*
X87792499Y-43174762D03*
D16*
G04 #@! TO.N,*
X92792499Y-33174762D03*
X92792499Y-46174762D03*
G04 #@! TD*
D17*
G04 #@! TO.N,VBAT_PROT*
X7338095Y-5107499D03*
X35490475Y-5107499D03*
X63642854Y-5107499D03*
X91795234Y-5107499D03*
X119947614Y-5107499D03*
X174818689Y-118429292D03*
X27134999Y-123466554D03*
X112078332Y-77539764D03*
X112078332Y-78809764D03*
X150236637Y-47066171D03*
X156001318Y-47319257D03*
X159205498Y-47066171D03*
X165022029Y-46795000D03*
X9682500Y-123054053D03*
X144658089Y-3842499D03*
X29752143Y-104752268D03*
X55771191Y-104752268D03*
X81790239Y-104752268D03*
X107809287Y-104752268D03*
X133828335Y-104752268D03*
X159847383Y-104752268D03*
X22661666Y-111257030D03*
X48680715Y-111257030D03*
X74699763Y-111257030D03*
X100718811Y-111257030D03*
X126737859Y-111257030D03*
X4238094Y-5107499D03*
X32390474Y-5107499D03*
X60542854Y-5107499D03*
X88695234Y-5107499D03*
X116847614Y-5107499D03*
X172918690Y-118429292D03*
X27985000Y-122566554D03*
X108978332Y-78809764D03*
X147511529Y-47031969D03*
X153358513Y-47049070D03*
X161746739Y-46516539D03*
X167620106Y-46795000D03*
X7782500Y-123054053D03*
X30602143Y-103852268D03*
X56621191Y-103852268D03*
X82640239Y-103852268D03*
X108659287Y-103852268D03*
X134678335Y-103852268D03*
X160697383Y-103852268D03*
X23511667Y-110357030D03*
X49530715Y-110357030D03*
X75549763Y-110357030D03*
X101568811Y-110357030D03*
X127587859Y-110357030D03*
G04 #@! TO.N,GND*
X145689998Y-79979763D03*
X143589999Y-77029763D03*
X142139998Y-77979763D03*
X34572499Y-122995720D03*
X139697264Y-109032268D03*
X140606546Y-108233529D03*
X141872264Y-108209543D03*
X142709283Y-109319768D03*
X141309764Y-110194768D03*
X141687981Y-112156006D03*
X140422264Y-112179992D03*
X140098689Y-116707863D03*
X145058689Y-116707863D03*
X101477381Y-87772266D03*
X3802500Y-64804762D03*
X3802500Y-73454762D03*
X822500Y-64804762D03*
X822500Y-73454762D03*
X842500Y-66154762D03*
X842500Y-72104762D03*
X111053117Y-96572268D03*
X57206788Y-47317620D03*
X10117499Y-71104762D03*
X154978690Y-117041197D03*
X159938689Y-117254053D03*
X38992499Y-123400482D03*
X164898690Y-116779292D03*
X43412499Y-123352863D03*
X148884903Y-94454767D03*
X148884903Y-98554767D03*
X155984903Y-94454767D03*
X155984903Y-98554767D03*
X1550000Y-30319763D03*
X84193334Y-117396554D03*
X120787501Y-49799762D03*
X127319831Y-49733810D03*
X89412382Y-117396554D03*
X134687502Y-49799762D03*
X141219832Y-49733810D03*
X94631430Y-117396554D03*
X148587502Y-49799762D03*
X155119832Y-49733810D03*
X99850478Y-117396554D03*
X162487502Y-49799762D03*
X169019832Y-49733810D03*
X62310714Y-117146554D03*
X67098214Y-116273339D03*
X131881903Y-79129764D03*
X126438808Y-77322263D03*
X115116667Y-88372266D03*
X123573810Y-88372266D03*
X89637640Y-96272268D03*
X97142402Y-96272268D03*
X132030953Y-88372266D03*
X140488096Y-88372266D03*
X19928334Y-123466554D03*
X110340955Y-117396554D03*
X162584903Y-95398815D03*
X169284903Y-95398815D03*
X107862618Y-77539764D03*
X24861667Y-123466554D03*
X120493335Y-117396554D03*
X175984903Y-95398815D03*
X177149760Y-77539764D03*
X29795000Y-123466554D03*
X130645715Y-117396554D03*
X5792500Y-102738815D03*
X12492500Y-102738815D03*
X118078332Y-77539764D03*
X150071068Y-44595000D03*
X155871068Y-44595000D03*
X161671068Y-44595000D03*
X167471068Y-44595000D03*
X14642499Y-123054053D03*
X65596090Y-41233784D03*
X181562500Y-17021427D03*
X19402619Y-104752268D03*
X6728572Y-30447502D03*
X32412143Y-104752268D03*
X150273812Y-110567030D03*
X73929830Y-21134047D03*
X175241307Y-88052266D03*
X72921669Y-41077501D03*
X21642858Y-30447502D03*
X45421667Y-104752268D03*
X36557144Y-30447502D03*
X5107499Y-91279765D03*
X3655168Y-91213813D03*
X58431191Y-104752268D03*
X156635717Y-110567030D03*
X82829830Y-21134047D03*
X80283573Y-41077501D03*
X51471430Y-30447502D03*
X71440715Y-104752268D03*
X66385716Y-30447502D03*
X14007499Y-91279765D03*
X12555168Y-91213813D03*
X84450239Y-104752268D03*
X162997622Y-110567030D03*
X91729830Y-21134047D03*
X7057500Y-95952268D03*
X85608110Y-42073821D03*
X81300002Y-30447502D03*
X97459763Y-104752268D03*
X96214288Y-30447502D03*
X22907499Y-91279765D03*
X21455168Y-91213813D03*
X110469287Y-104752268D03*
X169359527Y-110567030D03*
X100629830Y-21134047D03*
X15197501Y-95952268D03*
X95007383Y-41077501D03*
X111128574Y-30447502D03*
X123478811Y-104752268D03*
X126042860Y-30447502D03*
X31807499Y-91279765D03*
X30355168Y-91213813D03*
X136488335Y-104752268D03*
X175721432Y-110567030D03*
X109529830Y-21134047D03*
X23337504Y-95952268D03*
X102369289Y-41077501D03*
X140957146Y-30447502D03*
X149497859Y-104752268D03*
X155871432Y-30447502D03*
X40707499Y-91279765D03*
X39255168Y-91213813D03*
X162507383Y-104752268D03*
X182083337Y-110567030D03*
X118429830Y-21134047D03*
X31477506Y-95952268D03*
X109731193Y-41077501D03*
X170785718Y-30447502D03*
X175516907Y-104752268D03*
X49607499Y-91279765D03*
X48155168Y-91213813D03*
X819048Y-116976554D03*
X127329830Y-21134047D03*
X39617507Y-95952268D03*
X117093099Y-41077501D03*
X14185715Y-35407501D03*
X12312142Y-111257030D03*
X29100001Y-35407501D03*
X58507499Y-91279765D03*
X57055168Y-91213813D03*
X25321667Y-111257030D03*
X7030953Y-116976554D03*
X136229830Y-21134047D03*
X47757510Y-95952268D03*
X124455003Y-41077501D03*
X44014287Y-35407501D03*
X38331191Y-111257030D03*
X58928573Y-35407501D03*
X67407499Y-91279765D03*
X65955168Y-91213813D03*
X51340715Y-111257030D03*
X13392858Y-116976554D03*
X145129830Y-21134047D03*
X55897512Y-95952268D03*
X131816908Y-41077501D03*
X73842859Y-35407501D03*
X64350239Y-111257030D03*
X87555355Y-33979529D03*
X76307500Y-91279765D03*
X74855169Y-91213813D03*
X77359763Y-111257030D03*
X19754762Y-116976554D03*
X154029830Y-21134047D03*
X64037514Y-95952268D03*
X139178814Y-41077501D03*
X103671431Y-35407501D03*
X90369287Y-111257030D03*
X118585717Y-35407501D03*
X85207500Y-91279765D03*
X83755169Y-91213813D03*
X103378811Y-111257030D03*
X26116667Y-116976554D03*
X162929830Y-21134047D03*
X72177516Y-95952268D03*
X146540719Y-41077501D03*
X133500002Y-35407501D03*
X116388335Y-111257030D03*
X148414289Y-35407501D03*
X94107500Y-91279765D03*
X92655169Y-91213813D03*
X129397858Y-111257030D03*
X32478572Y-116976554D03*
X171829830Y-21134047D03*
X82717518Y-95952268D03*
X144889998Y-80929763D03*
X142239998Y-76767327D03*
X32872498Y-122995720D03*
X139400943Y-107844899D03*
X143055621Y-110530391D03*
X142900772Y-111904500D03*
X139547264Y-111357268D03*
X138198690Y-116707863D03*
X143158690Y-116707863D03*
X2802500Y-66204762D03*
X2802500Y-74854762D03*
X820960Y-67380433D03*
X820960Y-70879090D03*
X109503117Y-98122267D03*
X57206788Y-45417620D03*
X7017498Y-71104762D03*
X153078690Y-117041197D03*
X158038690Y-117254053D03*
X37292499Y-123400482D03*
X162998690Y-116779292D03*
X41712499Y-123352863D03*
X147884903Y-95504767D03*
X147884903Y-99604767D03*
X154984903Y-95504767D03*
X154984903Y-99604767D03*
X996320Y-29132394D03*
X83193334Y-118446553D03*
X120787501Y-47599762D03*
X127319831Y-47665713D03*
X88412382Y-118446553D03*
X134687502Y-47599762D03*
X141219832Y-47665713D03*
X93631430Y-118446553D03*
X156487502Y-48699762D03*
X98850478Y-118446553D03*
X162487502Y-47599762D03*
X169019832Y-47665713D03*
X61260715Y-118446553D03*
X64998215Y-116273339D03*
X19078334Y-124366554D03*
X109390955Y-118446553D03*
X160284903Y-95398815D03*
X166984903Y-95398815D03*
X104762618Y-77539764D03*
X24011667Y-124366554D03*
X119543335Y-118446553D03*
X173684903Y-95398815D03*
X174049760Y-77539764D03*
X28945000Y-124366554D03*
X129695715Y-118446553D03*
X3492499Y-102738815D03*
X10192499Y-102738815D03*
X114978332Y-77539764D03*
X147771068Y-44595000D03*
X153571068Y-44595000D03*
X159371068Y-44595000D03*
X165171068Y-44595000D03*
X12742498Y-123054053D03*
X64709764Y-40177501D03*
X179662500Y-17021427D03*
X18552619Y-105652268D03*
X5778572Y-31497502D03*
X31562143Y-105652268D03*
X147973811Y-110567030D03*
X73929830Y-19065950D03*
X172841308Y-88052266D03*
X72071669Y-41977501D03*
X20692858Y-31497502D03*
X44571667Y-105652268D03*
X35607144Y-31497502D03*
X5107499Y-89079765D03*
X3655168Y-89145716D03*
X57581191Y-105652268D03*
X154335717Y-110567030D03*
X82829830Y-19065950D03*
X79433574Y-41977501D03*
X50521430Y-31497502D03*
X70590715Y-105652268D03*
X65435716Y-31497502D03*
X14007499Y-89079765D03*
X12555168Y-89145716D03*
X83600239Y-105652268D03*
X160697622Y-110567030D03*
X91729830Y-19065950D03*
X85608110Y-40081180D03*
X80350002Y-31497502D03*
X96609763Y-105652268D03*
X95264288Y-31497502D03*
X22907499Y-89079765D03*
X21455168Y-89145716D03*
X109619287Y-105652268D03*
X167059527Y-110567030D03*
X100629830Y-19065950D03*
X94157384Y-41977501D03*
X110178574Y-31497502D03*
X122628811Y-105652268D03*
X125092860Y-31497502D03*
X31807499Y-89079765D03*
X30355168Y-89145716D03*
X135638335Y-105652268D03*
X173421431Y-110567030D03*
X109529830Y-19065950D03*
X101519289Y-41977501D03*
X140007146Y-31497502D03*
X148647859Y-105652268D03*
X154921432Y-31497502D03*
X40707499Y-89079765D03*
X39255168Y-89145716D03*
X161657383Y-105652268D03*
X179783337Y-110567030D03*
X118429830Y-19065950D03*
X108881194Y-41977501D03*
X169835718Y-31497502D03*
X174666907Y-105652268D03*
X49607499Y-89079765D03*
X48155168Y-89145716D03*
X127329830Y-19065950D03*
X116243099Y-41977501D03*
X13235715Y-36457501D03*
X11462143Y-112157030D03*
X28150001Y-34357501D03*
X58507499Y-89079765D03*
X57055168Y-89145716D03*
X24471667Y-112157030D03*
X4730952Y-116976554D03*
X136229830Y-19065950D03*
X123605004Y-41977501D03*
X43064287Y-36457501D03*
X37481191Y-112157030D03*
X57978573Y-36457501D03*
X67407499Y-89079765D03*
X65955168Y-89145716D03*
X50490715Y-112157030D03*
X11092858Y-116976554D03*
X145129830Y-19065950D03*
X130966908Y-41977501D03*
X72892859Y-36457501D03*
X63500239Y-112157030D03*
X88803465Y-34220132D03*
X76307500Y-89079765D03*
X74855169Y-89145716D03*
X76509763Y-112157030D03*
X17454763Y-116976554D03*
X154029830Y-19065950D03*
X138328814Y-41977501D03*
X102721431Y-36457501D03*
X89519287Y-112157030D03*
X117635717Y-36457501D03*
X85207500Y-89079765D03*
X83755169Y-89145716D03*
X102528811Y-112157030D03*
X23816668Y-116976554D03*
X162929830Y-19065950D03*
X145690719Y-41977501D03*
X132550003Y-36457501D03*
X115538335Y-112157030D03*
X147464289Y-36457501D03*
X94107500Y-89079765D03*
X92655169Y-89145716D03*
X128547858Y-112157030D03*
X30178573Y-116976554D03*
X171829830Y-19065950D03*
X80317518Y-95952268D03*
G04 #@! TD*
D18*
G04 #@! TO.N,GND*
X189000000Y-144000000D02*
X1000000Y-144000000D01*
X1000000Y-122990034D01*
X7132500Y-122990034D01*
X7132500Y-123118072D01*
X7157479Y-123243651D01*
X7206478Y-123361943D01*
X7277612Y-123468404D01*
X7368149Y-123558941D01*
X7474610Y-123630075D01*
X7592902Y-123679074D01*
X7718481Y-123704053D01*
X7846519Y-123704053D01*
X7972098Y-123679074D01*
X8090390Y-123630075D01*
X8196851Y-123558941D01*
X8287388Y-123468404D01*
X8358522Y-123361943D01*
X8407521Y-123243651D01*
X8432500Y-123118072D01*
X8432500Y-122990034D01*
X9032500Y-122990034D01*
X9032500Y-123118072D01*
X9057479Y-123243651D01*
X9106478Y-123361943D01*
X9177612Y-123468404D01*
X9268149Y-123558941D01*
X9374610Y-123630075D01*
X9492902Y-123679074D01*
X9618481Y-123704053D01*
X9746519Y-123704053D01*
X9872098Y-123679074D01*
X9990390Y-123630075D01*
X10096851Y-123558941D01*
X10187388Y-123468404D01*
X10231399Y-123402535D01*
X26484999Y-123402535D01*
X26484999Y-123530573D01*
X26509978Y-123656152D01*
X26558977Y-123774444D01*
X26630111Y-123880905D01*
X26720648Y-123971442D01*
X26827109Y-124042576D01*
X26945401Y-124091575D01*
X27070980Y-124116554D01*
X27199018Y-124116554D01*
X27324597Y-124091575D01*
X27442889Y-124042576D01*
X27549350Y-123971442D01*
X27639887Y-123880905D01*
X27711021Y-123774444D01*
X27760020Y-123656152D01*
X27784999Y-123530573D01*
X27784999Y-123402535D01*
X27760020Y-123276956D01*
X27711021Y-123158664D01*
X27709135Y-123155841D01*
X27795402Y-123191575D01*
X27920981Y-123216554D01*
X28049019Y-123216554D01*
X28174598Y-123191575D01*
X28292890Y-123142576D01*
X28399351Y-123071442D01*
X28489888Y-122980905D01*
X28561022Y-122874444D01*
X28610021Y-122756152D01*
X28635000Y-122630573D01*
X28635000Y-122502535D01*
X28610021Y-122376956D01*
X28561022Y-122258664D01*
X28489888Y-122152203D01*
X28399351Y-122061666D01*
X28292890Y-121990532D01*
X28174598Y-121941533D01*
X28049019Y-121916554D01*
X27920981Y-121916554D01*
X27795402Y-121941533D01*
X27677110Y-121990532D01*
X27570649Y-122061666D01*
X27480112Y-122152203D01*
X27408978Y-122258664D01*
X27359979Y-122376956D01*
X27335000Y-122502535D01*
X27335000Y-122630573D01*
X27359979Y-122756152D01*
X27408978Y-122874444D01*
X27410864Y-122877267D01*
X27324597Y-122841533D01*
X27199018Y-122816554D01*
X27070980Y-122816554D01*
X26945401Y-122841533D01*
X26827109Y-122890532D01*
X26720648Y-122961666D01*
X26630111Y-123052203D01*
X26558977Y-123158664D01*
X26509978Y-123276956D01*
X26484999Y-123402535D01*
X10231399Y-123402535D01*
X10258522Y-123361943D01*
X10307521Y-123243651D01*
X10332500Y-123118072D01*
X10332500Y-122990034D01*
X10307521Y-122864455D01*
X10258522Y-122746163D01*
X10187388Y-122639702D01*
X10096851Y-122549165D01*
X9990390Y-122478031D01*
X9872098Y-122429032D01*
X9746519Y-122404053D01*
X9618481Y-122404053D01*
X9492902Y-122429032D01*
X9374610Y-122478031D01*
X9268149Y-122549165D01*
X9177612Y-122639702D01*
X9106478Y-122746163D01*
X9057479Y-122864455D01*
X9032500Y-122990034D01*
X8432500Y-122990034D01*
X8407521Y-122864455D01*
X8358522Y-122746163D01*
X8287388Y-122639702D01*
X8196851Y-122549165D01*
X8090390Y-122478031D01*
X7972098Y-122429032D01*
X7846519Y-122404053D01*
X7718481Y-122404053D01*
X7592902Y-122429032D01*
X7474610Y-122478031D01*
X7368149Y-122549165D01*
X7277612Y-122639702D01*
X7206478Y-122746163D01*
X7157479Y-122864455D01*
X7132500Y-122990034D01*
X1000000Y-122990034D01*
X1000000Y-118365273D01*
X172268690Y-118365273D01*
X172268690Y-118493311D01*
X172293669Y-118618890D01*
X172342668Y-118737182D01*
X172413802Y-118843643D01*
X172504339Y-118934180D01*
X172610800Y-119005314D01*
X172729092Y-119054313D01*
X172854671Y-119079292D01*
X172982709Y-119079292D01*
X173108288Y-119054313D01*
X173226580Y-119005314D01*
X173333041Y-118934180D01*
X173423578Y-118843643D01*
X173494712Y-118737182D01*
X173543711Y-118618890D01*
X173568690Y-118493311D01*
X173568690Y-118365273D01*
X174168689Y-118365273D01*
X174168689Y-118493311D01*
X174193668Y-118618890D01*
X174242667Y-118737182D01*
X174313801Y-118843643D01*
X174404338Y-118934180D01*
X174510799Y-119005314D01*
X174629091Y-119054313D01*
X174754670Y-119079292D01*
X174882708Y-119079292D01*
X175008287Y-119054313D01*
X175126579Y-119005314D01*
X175233040Y-118934180D01*
X175323577Y-118843643D01*
X175394711Y-118737182D01*
X175443710Y-118618890D01*
X175468689Y-118493311D01*
X175468689Y-118365273D01*
X175443710Y-118239694D01*
X175394711Y-118121402D01*
X175323577Y-118014941D01*
X175233040Y-117924404D01*
X175126579Y-117853270D01*
X175008287Y-117804271D01*
X174882708Y-117779292D01*
X174754670Y-117779292D01*
X174629091Y-117804271D01*
X174510799Y-117853270D01*
X174404338Y-117924404D01*
X174313801Y-118014941D01*
X174242667Y-118121402D01*
X174193668Y-118239694D01*
X174168689Y-118365273D01*
X173568690Y-118365273D01*
X173543711Y-118239694D01*
X173494712Y-118121402D01*
X173423578Y-118014941D01*
X173333041Y-117924404D01*
X173226580Y-117853270D01*
X173108288Y-117804271D01*
X172982709Y-117779292D01*
X172854671Y-117779292D01*
X172729092Y-117804271D01*
X172610800Y-117853270D01*
X172504339Y-117924404D01*
X172413802Y-118014941D01*
X172342668Y-118121402D01*
X172293669Y-118239694D01*
X172268690Y-118365273D01*
X1000000Y-118365273D01*
X1000000Y-111193011D01*
X22011666Y-111193011D01*
X22011666Y-111321049D01*
X22036645Y-111446628D01*
X22085644Y-111564920D01*
X22156778Y-111671381D01*
X22247315Y-111761918D01*
X22353776Y-111833052D01*
X22472068Y-111882051D01*
X22597647Y-111907030D01*
X22725685Y-111907030D01*
X22851264Y-111882051D01*
X22969556Y-111833052D01*
X23076017Y-111761918D01*
X23166554Y-111671381D01*
X23237688Y-111564920D01*
X23286687Y-111446628D01*
X23311666Y-111321049D01*
X23311666Y-111193011D01*
X48030715Y-111193011D01*
X48030715Y-111321049D01*
X48055694Y-111446628D01*
X48104693Y-111564920D01*
X48175827Y-111671381D01*
X48266364Y-111761918D01*
X48372825Y-111833052D01*
X48491117Y-111882051D01*
X48616696Y-111907030D01*
X48744734Y-111907030D01*
X48870313Y-111882051D01*
X48988605Y-111833052D01*
X49095066Y-111761918D01*
X49185603Y-111671381D01*
X49256737Y-111564920D01*
X49305736Y-111446628D01*
X49330715Y-111321049D01*
X49330715Y-111193011D01*
X74049763Y-111193011D01*
X74049763Y-111321049D01*
X74074742Y-111446628D01*
X74123741Y-111564920D01*
X74194875Y-111671381D01*
X74285412Y-111761918D01*
X74391873Y-111833052D01*
X74510165Y-111882051D01*
X74635744Y-111907030D01*
X74763782Y-111907030D01*
X74889361Y-111882051D01*
X75007653Y-111833052D01*
X75114114Y-111761918D01*
X75204651Y-111671381D01*
X75275785Y-111564920D01*
X75324784Y-111446628D01*
X75349763Y-111321049D01*
X75349763Y-111193011D01*
X100068811Y-111193011D01*
X100068811Y-111321049D01*
X100093790Y-111446628D01*
X100142789Y-111564920D01*
X100213923Y-111671381D01*
X100304460Y-111761918D01*
X100410921Y-111833052D01*
X100529213Y-111882051D01*
X100654792Y-111907030D01*
X100782830Y-111907030D01*
X100908409Y-111882051D01*
X101026701Y-111833052D01*
X101133162Y-111761918D01*
X101223699Y-111671381D01*
X101294833Y-111564920D01*
X101343832Y-111446628D01*
X101368811Y-111321049D01*
X101368811Y-111193011D01*
X126087859Y-111193011D01*
X126087859Y-111321049D01*
X126112838Y-111446628D01*
X126161837Y-111564920D01*
X126232971Y-111671381D01*
X126323508Y-111761918D01*
X126429969Y-111833052D01*
X126548261Y-111882051D01*
X126673840Y-111907030D01*
X126801878Y-111907030D01*
X126927457Y-111882051D01*
X127045749Y-111833052D01*
X127152210Y-111761918D01*
X127242747Y-111671381D01*
X127313881Y-111564920D01*
X127362880Y-111446628D01*
X127387859Y-111321049D01*
X127387859Y-111193011D01*
X127362880Y-111067432D01*
X127313881Y-110949140D01*
X127311995Y-110946318D01*
X127398261Y-110982051D01*
X127523840Y-111007030D01*
X127651878Y-111007030D01*
X127777457Y-110982051D01*
X127895749Y-110933052D01*
X128002210Y-110861918D01*
X128092747Y-110771381D01*
X128163881Y-110664920D01*
X128212880Y-110546628D01*
X128237859Y-110421049D01*
X128237859Y-110293011D01*
X128212880Y-110167432D01*
X128163881Y-110049140D01*
X128092747Y-109942679D01*
X128002210Y-109852142D01*
X127895749Y-109781008D01*
X127777457Y-109732009D01*
X127651878Y-109707030D01*
X127523840Y-109707030D01*
X127398261Y-109732009D01*
X127279969Y-109781008D01*
X127173508Y-109852142D01*
X127082971Y-109942679D01*
X127011837Y-110049140D01*
X126962838Y-110167432D01*
X126937859Y-110293011D01*
X126937859Y-110421049D01*
X126962838Y-110546628D01*
X127011837Y-110664920D01*
X127013723Y-110667742D01*
X126927457Y-110632009D01*
X126801878Y-110607030D01*
X126673840Y-110607030D01*
X126548261Y-110632009D01*
X126429969Y-110681008D01*
X126323508Y-110752142D01*
X126232971Y-110842679D01*
X126161837Y-110949140D01*
X126112838Y-111067432D01*
X126087859Y-111193011D01*
X101368811Y-111193011D01*
X101343832Y-111067432D01*
X101294833Y-110949140D01*
X101292947Y-110946318D01*
X101379213Y-110982051D01*
X101504792Y-111007030D01*
X101632830Y-111007030D01*
X101758409Y-110982051D01*
X101876701Y-110933052D01*
X101983162Y-110861918D01*
X102073699Y-110771381D01*
X102144833Y-110664920D01*
X102193832Y-110546628D01*
X102218811Y-110421049D01*
X102218811Y-110293011D01*
X102193832Y-110167432D01*
X102144833Y-110049140D01*
X102073699Y-109942679D01*
X101983162Y-109852142D01*
X101876701Y-109781008D01*
X101758409Y-109732009D01*
X101632830Y-109707030D01*
X101504792Y-109707030D01*
X101379213Y-109732009D01*
X101260921Y-109781008D01*
X101154460Y-109852142D01*
X101063923Y-109942679D01*
X100992789Y-110049140D01*
X100943790Y-110167432D01*
X100918811Y-110293011D01*
X100918811Y-110421049D01*
X100943790Y-110546628D01*
X100992789Y-110664920D01*
X100994675Y-110667742D01*
X100908409Y-110632009D01*
X100782830Y-110607030D01*
X100654792Y-110607030D01*
X100529213Y-110632009D01*
X100410921Y-110681008D01*
X100304460Y-110752142D01*
X100213923Y-110842679D01*
X100142789Y-110949140D01*
X100093790Y-111067432D01*
X100068811Y-111193011D01*
X75349763Y-111193011D01*
X75324784Y-111067432D01*
X75275785Y-110949140D01*
X75273899Y-110946318D01*
X75360165Y-110982051D01*
X75485744Y-111007030D01*
X75613782Y-111007030D01*
X75739361Y-110982051D01*
X75857653Y-110933052D01*
X75964114Y-110861918D01*
X76054651Y-110771381D01*
X76125785Y-110664920D01*
X76174784Y-110546628D01*
X76199763Y-110421049D01*
X76199763Y-110293011D01*
X76174784Y-110167432D01*
X76125785Y-110049140D01*
X76054651Y-109942679D01*
X75964114Y-109852142D01*
X75857653Y-109781008D01*
X75739361Y-109732009D01*
X75613782Y-109707030D01*
X75485744Y-109707030D01*
X75360165Y-109732009D01*
X75241873Y-109781008D01*
X75135412Y-109852142D01*
X75044875Y-109942679D01*
X74973741Y-110049140D01*
X74924742Y-110167432D01*
X74899763Y-110293011D01*
X74899763Y-110421049D01*
X74924742Y-110546628D01*
X74973741Y-110664920D01*
X74975627Y-110667742D01*
X74889361Y-110632009D01*
X74763782Y-110607030D01*
X74635744Y-110607030D01*
X74510165Y-110632009D01*
X74391873Y-110681008D01*
X74285412Y-110752142D01*
X74194875Y-110842679D01*
X74123741Y-110949140D01*
X74074742Y-111067432D01*
X74049763Y-111193011D01*
X49330715Y-111193011D01*
X49305736Y-111067432D01*
X49256737Y-110949140D01*
X49254851Y-110946318D01*
X49341117Y-110982051D01*
X49466696Y-111007030D01*
X49594734Y-111007030D01*
X49720313Y-110982051D01*
X49838605Y-110933052D01*
X49945066Y-110861918D01*
X50035603Y-110771381D01*
X50106737Y-110664920D01*
X50155736Y-110546628D01*
X50180715Y-110421049D01*
X50180715Y-110293011D01*
X50155736Y-110167432D01*
X50106737Y-110049140D01*
X50035603Y-109942679D01*
X49945066Y-109852142D01*
X49838605Y-109781008D01*
X49720313Y-109732009D01*
X49594734Y-109707030D01*
X49466696Y-109707030D01*
X49341117Y-109732009D01*
X49222825Y-109781008D01*
X49116364Y-109852142D01*
X49025827Y-109942679D01*
X48954693Y-110049140D01*
X48905694Y-110167432D01*
X48880715Y-110293011D01*
X48880715Y-110421049D01*
X48905694Y-110546628D01*
X48954693Y-110664920D01*
X48956579Y-110667742D01*
X48870313Y-110632009D01*
X48744734Y-110607030D01*
X48616696Y-110607030D01*
X48491117Y-110632009D01*
X48372825Y-110681008D01*
X48266364Y-110752142D01*
X48175827Y-110842679D01*
X48104693Y-110949140D01*
X48055694Y-111067432D01*
X48030715Y-111193011D01*
X23311666Y-111193011D01*
X23286687Y-111067432D01*
X23237688Y-110949140D01*
X23235802Y-110946317D01*
X23322069Y-110982051D01*
X23447648Y-111007030D01*
X23575686Y-111007030D01*
X23701265Y-110982051D01*
X23819557Y-110933052D01*
X23926018Y-110861918D01*
X24016555Y-110771381D01*
X24087689Y-110664920D01*
X24136688Y-110546628D01*
X24161667Y-110421049D01*
X24161667Y-110293011D01*
X24136688Y-110167432D01*
X24087689Y-110049140D01*
X24016555Y-109942679D01*
X23926018Y-109852142D01*
X23819557Y-109781008D01*
X23701265Y-109732009D01*
X23575686Y-109707030D01*
X23447648Y-109707030D01*
X23322069Y-109732009D01*
X23203777Y-109781008D01*
X23097316Y-109852142D01*
X23006779Y-109942679D01*
X22935645Y-110049140D01*
X22886646Y-110167432D01*
X22861667Y-110293011D01*
X22861667Y-110421049D01*
X22886646Y-110546628D01*
X22935645Y-110664920D01*
X22937531Y-110667743D01*
X22851264Y-110632009D01*
X22725685Y-110607030D01*
X22597647Y-110607030D01*
X22472068Y-110632009D01*
X22353776Y-110681008D01*
X22247315Y-110752142D01*
X22156778Y-110842679D01*
X22085644Y-110949140D01*
X22036645Y-111067432D01*
X22011666Y-111193011D01*
X1000000Y-111193011D01*
X1000000Y-104688249D01*
X29102143Y-104688249D01*
X29102143Y-104816287D01*
X29127122Y-104941866D01*
X29176121Y-105060158D01*
X29247255Y-105166619D01*
X29337792Y-105257156D01*
X29444253Y-105328290D01*
X29562545Y-105377289D01*
X29688124Y-105402268D01*
X29816162Y-105402268D01*
X29941741Y-105377289D01*
X30060033Y-105328290D01*
X30166494Y-105257156D01*
X30257031Y-105166619D01*
X30328165Y-105060158D01*
X30377164Y-104941866D01*
X30402143Y-104816287D01*
X30402143Y-104688249D01*
X55121191Y-104688249D01*
X55121191Y-104816287D01*
X55146170Y-104941866D01*
X55195169Y-105060158D01*
X55266303Y-105166619D01*
X55356840Y-105257156D01*
X55463301Y-105328290D01*
X55581593Y-105377289D01*
X55707172Y-105402268D01*
X55835210Y-105402268D01*
X55960789Y-105377289D01*
X56079081Y-105328290D01*
X56185542Y-105257156D01*
X56276079Y-105166619D01*
X56347213Y-105060158D01*
X56396212Y-104941866D01*
X56421191Y-104816287D01*
X56421191Y-104688249D01*
X81140239Y-104688249D01*
X81140239Y-104816287D01*
X81165218Y-104941866D01*
X81214217Y-105060158D01*
X81285351Y-105166619D01*
X81375888Y-105257156D01*
X81482349Y-105328290D01*
X81600641Y-105377289D01*
X81726220Y-105402268D01*
X81854258Y-105402268D01*
X81979837Y-105377289D01*
X82098129Y-105328290D01*
X82204590Y-105257156D01*
X82295127Y-105166619D01*
X82366261Y-105060158D01*
X82415260Y-104941866D01*
X82440239Y-104816287D01*
X82440239Y-104688249D01*
X107159287Y-104688249D01*
X107159287Y-104816287D01*
X107184266Y-104941866D01*
X107233265Y-105060158D01*
X107304399Y-105166619D01*
X107394936Y-105257156D01*
X107501397Y-105328290D01*
X107619689Y-105377289D01*
X107745268Y-105402268D01*
X107873306Y-105402268D01*
X107998885Y-105377289D01*
X108117177Y-105328290D01*
X108223638Y-105257156D01*
X108314175Y-105166619D01*
X108385309Y-105060158D01*
X108434308Y-104941866D01*
X108459287Y-104816287D01*
X108459287Y-104688249D01*
X133178335Y-104688249D01*
X133178335Y-104816287D01*
X133203314Y-104941866D01*
X133252313Y-105060158D01*
X133323447Y-105166619D01*
X133413984Y-105257156D01*
X133520445Y-105328290D01*
X133638737Y-105377289D01*
X133764316Y-105402268D01*
X133892354Y-105402268D01*
X134017933Y-105377289D01*
X134136225Y-105328290D01*
X134242686Y-105257156D01*
X134333223Y-105166619D01*
X134404357Y-105060158D01*
X134453356Y-104941866D01*
X134478335Y-104816287D01*
X134478335Y-104688249D01*
X159197383Y-104688249D01*
X159197383Y-104816287D01*
X159222362Y-104941866D01*
X159271361Y-105060158D01*
X159342495Y-105166619D01*
X159433032Y-105257156D01*
X159539493Y-105328290D01*
X159657785Y-105377289D01*
X159783364Y-105402268D01*
X159911402Y-105402268D01*
X160036981Y-105377289D01*
X160155273Y-105328290D01*
X160261734Y-105257156D01*
X160352271Y-105166619D01*
X160423405Y-105060158D01*
X160472404Y-104941866D01*
X160497383Y-104816287D01*
X160497383Y-104688249D01*
X160472404Y-104562670D01*
X160423405Y-104444378D01*
X160421519Y-104441556D01*
X160507785Y-104477289D01*
X160633364Y-104502268D01*
X160761402Y-104502268D01*
X160886981Y-104477289D01*
X161005273Y-104428290D01*
X161111734Y-104357156D01*
X161202271Y-104266619D01*
X161273405Y-104160158D01*
X161322404Y-104041866D01*
X161347383Y-103916287D01*
X161347383Y-103788249D01*
X161322404Y-103662670D01*
X161273405Y-103544378D01*
X161202271Y-103437917D01*
X161111734Y-103347380D01*
X161005273Y-103276246D01*
X160886981Y-103227247D01*
X160761402Y-103202268D01*
X160633364Y-103202268D01*
X160507785Y-103227247D01*
X160389493Y-103276246D01*
X160283032Y-103347380D01*
X160192495Y-103437917D01*
X160121361Y-103544378D01*
X160072362Y-103662670D01*
X160047383Y-103788249D01*
X160047383Y-103916287D01*
X160072362Y-104041866D01*
X160121361Y-104160158D01*
X160123247Y-104162980D01*
X160036981Y-104127247D01*
X159911402Y-104102268D01*
X159783364Y-104102268D01*
X159657785Y-104127247D01*
X159539493Y-104176246D01*
X159433032Y-104247380D01*
X159342495Y-104337917D01*
X159271361Y-104444378D01*
X159222362Y-104562670D01*
X159197383Y-104688249D01*
X134478335Y-104688249D01*
X134453356Y-104562670D01*
X134404357Y-104444378D01*
X134402471Y-104441556D01*
X134488737Y-104477289D01*
X134614316Y-104502268D01*
X134742354Y-104502268D01*
X134867933Y-104477289D01*
X134986225Y-104428290D01*
X135092686Y-104357156D01*
X135183223Y-104266619D01*
X135254357Y-104160158D01*
X135303356Y-104041866D01*
X135328335Y-103916287D01*
X135328335Y-103788249D01*
X135303356Y-103662670D01*
X135254357Y-103544378D01*
X135183223Y-103437917D01*
X135092686Y-103347380D01*
X134986225Y-103276246D01*
X134867933Y-103227247D01*
X134742354Y-103202268D01*
X134614316Y-103202268D01*
X134488737Y-103227247D01*
X134370445Y-103276246D01*
X134263984Y-103347380D01*
X134173447Y-103437917D01*
X134102313Y-103544378D01*
X134053314Y-103662670D01*
X134028335Y-103788249D01*
X134028335Y-103916287D01*
X134053314Y-104041866D01*
X134102313Y-104160158D01*
X134104199Y-104162980D01*
X134017933Y-104127247D01*
X133892354Y-104102268D01*
X133764316Y-104102268D01*
X133638737Y-104127247D01*
X133520445Y-104176246D01*
X133413984Y-104247380D01*
X133323447Y-104337917D01*
X133252313Y-104444378D01*
X133203314Y-104562670D01*
X133178335Y-104688249D01*
X108459287Y-104688249D01*
X108434308Y-104562670D01*
X108385309Y-104444378D01*
X108383423Y-104441556D01*
X108469689Y-104477289D01*
X108595268Y-104502268D01*
X108723306Y-104502268D01*
X108848885Y-104477289D01*
X108967177Y-104428290D01*
X109073638Y-104357156D01*
X109164175Y-104266619D01*
X109235309Y-104160158D01*
X109284308Y-104041866D01*
X109309287Y-103916287D01*
X109309287Y-103788249D01*
X109284308Y-103662670D01*
X109235309Y-103544378D01*
X109164175Y-103437917D01*
X109073638Y-103347380D01*
X108967177Y-103276246D01*
X108848885Y-103227247D01*
X108723306Y-103202268D01*
X108595268Y-103202268D01*
X108469689Y-103227247D01*
X108351397Y-103276246D01*
X108244936Y-103347380D01*
X108154399Y-103437917D01*
X108083265Y-103544378D01*
X108034266Y-103662670D01*
X108009287Y-103788249D01*
X108009287Y-103916287D01*
X108034266Y-104041866D01*
X108083265Y-104160158D01*
X108085151Y-104162980D01*
X107998885Y-104127247D01*
X107873306Y-104102268D01*
X107745268Y-104102268D01*
X107619689Y-104127247D01*
X107501397Y-104176246D01*
X107394936Y-104247380D01*
X107304399Y-104337917D01*
X107233265Y-104444378D01*
X107184266Y-104562670D01*
X107159287Y-104688249D01*
X82440239Y-104688249D01*
X82415260Y-104562670D01*
X82366261Y-104444378D01*
X82364375Y-104441556D01*
X82450641Y-104477289D01*
X82576220Y-104502268D01*
X82704258Y-104502268D01*
X82829837Y-104477289D01*
X82948129Y-104428290D01*
X83054590Y-104357156D01*
X83145127Y-104266619D01*
X83216261Y-104160158D01*
X83265260Y-104041866D01*
X83290239Y-103916287D01*
X83290239Y-103788249D01*
X83265260Y-103662670D01*
X83216261Y-103544378D01*
X83145127Y-103437917D01*
X83054590Y-103347380D01*
X82948129Y-103276246D01*
X82829837Y-103227247D01*
X82704258Y-103202268D01*
X82576220Y-103202268D01*
X82450641Y-103227247D01*
X82332349Y-103276246D01*
X82225888Y-103347380D01*
X82135351Y-103437917D01*
X82064217Y-103544378D01*
X82015218Y-103662670D01*
X81990239Y-103788249D01*
X81990239Y-103916287D01*
X82015218Y-104041866D01*
X82064217Y-104160158D01*
X82066103Y-104162980D01*
X81979837Y-104127247D01*
X81854258Y-104102268D01*
X81726220Y-104102268D01*
X81600641Y-104127247D01*
X81482349Y-104176246D01*
X81375888Y-104247380D01*
X81285351Y-104337917D01*
X81214217Y-104444378D01*
X81165218Y-104562670D01*
X81140239Y-104688249D01*
X56421191Y-104688249D01*
X56396212Y-104562670D01*
X56347213Y-104444378D01*
X56345327Y-104441556D01*
X56431593Y-104477289D01*
X56557172Y-104502268D01*
X56685210Y-104502268D01*
X56810789Y-104477289D01*
X56929081Y-104428290D01*
X57035542Y-104357156D01*
X57126079Y-104266619D01*
X57197213Y-104160158D01*
X57246212Y-104041866D01*
X57271191Y-103916287D01*
X57271191Y-103788249D01*
X57246212Y-103662670D01*
X57197213Y-103544378D01*
X57126079Y-103437917D01*
X57035542Y-103347380D01*
X56929081Y-103276246D01*
X56810789Y-103227247D01*
X56685210Y-103202268D01*
X56557172Y-103202268D01*
X56431593Y-103227247D01*
X56313301Y-103276246D01*
X56206840Y-103347380D01*
X56116303Y-103437917D01*
X56045169Y-103544378D01*
X55996170Y-103662670D01*
X55971191Y-103788249D01*
X55971191Y-103916287D01*
X55996170Y-104041866D01*
X56045169Y-104160158D01*
X56047055Y-104162980D01*
X55960789Y-104127247D01*
X55835210Y-104102268D01*
X55707172Y-104102268D01*
X55581593Y-104127247D01*
X55463301Y-104176246D01*
X55356840Y-104247380D01*
X55266303Y-104337917D01*
X55195169Y-104444378D01*
X55146170Y-104562670D01*
X55121191Y-104688249D01*
X30402143Y-104688249D01*
X30377164Y-104562670D01*
X30328165Y-104444378D01*
X30326279Y-104441556D01*
X30412545Y-104477289D01*
X30538124Y-104502268D01*
X30666162Y-104502268D01*
X30791741Y-104477289D01*
X30910033Y-104428290D01*
X31016494Y-104357156D01*
X31107031Y-104266619D01*
X31178165Y-104160158D01*
X31227164Y-104041866D01*
X31252143Y-103916287D01*
X31252143Y-103788249D01*
X31227164Y-103662670D01*
X31178165Y-103544378D01*
X31107031Y-103437917D01*
X31016494Y-103347380D01*
X30910033Y-103276246D01*
X30791741Y-103227247D01*
X30666162Y-103202268D01*
X30538124Y-103202268D01*
X30412545Y-103227247D01*
X30294253Y-103276246D01*
X30187792Y-103347380D01*
X30097255Y-103437917D01*
X30026121Y-103544378D01*
X29977122Y-103662670D01*
X29952143Y-103788249D01*
X29952143Y-103916287D01*
X29977122Y-104041866D01*
X30026121Y-104160158D01*
X30028007Y-104162980D01*
X29941741Y-104127247D01*
X29816162Y-104102268D01*
X29688124Y-104102268D01*
X29562545Y-104127247D01*
X29444253Y-104176246D01*
X29337792Y-104247380D01*
X29247255Y-104337917D01*
X29176121Y-104444378D01*
X29127122Y-104562670D01*
X29102143Y-104688249D01*
X1000000Y-104688249D01*
X1000000Y-78745745D01*
X108328332Y-78745745D01*
X108328332Y-78873783D01*
X108353311Y-78999362D01*
X108402310Y-79117654D01*
X108473444Y-79224115D01*
X108563981Y-79314652D01*
X108670442Y-79385786D01*
X108788734Y-79434785D01*
X108914313Y-79459764D01*
X109042351Y-79459764D01*
X109167930Y-79434785D01*
X109286222Y-79385786D01*
X109392683Y-79314652D01*
X109483220Y-79224115D01*
X109554354Y-79117654D01*
X109603353Y-78999362D01*
X109628332Y-78873783D01*
X109628332Y-78745745D01*
X109603353Y-78620166D01*
X109554354Y-78501874D01*
X109483220Y-78395413D01*
X109392683Y-78304876D01*
X109286222Y-78233742D01*
X109167930Y-78184743D01*
X109042351Y-78159764D01*
X108914313Y-78159764D01*
X108788734Y-78184743D01*
X108670442Y-78233742D01*
X108563981Y-78304876D01*
X108473444Y-78395413D01*
X108402310Y-78501874D01*
X108353311Y-78620166D01*
X108328332Y-78745745D01*
X1000000Y-78745745D01*
X1000000Y-77475745D01*
X111428332Y-77475745D01*
X111428332Y-77603783D01*
X111453311Y-77729362D01*
X111502310Y-77847654D01*
X111573444Y-77954115D01*
X111663981Y-78044652D01*
X111770442Y-78115786D01*
X111888734Y-78164785D01*
X111938902Y-78174764D01*
X111888734Y-78184743D01*
X111770442Y-78233742D01*
X111663981Y-78304876D01*
X111573444Y-78395413D01*
X111502310Y-78501874D01*
X111453311Y-78620166D01*
X111428332Y-78745745D01*
X111428332Y-78873783D01*
X111453311Y-78999362D01*
X111502310Y-79117654D01*
X111573444Y-79224115D01*
X111663981Y-79314652D01*
X111770442Y-79385786D01*
X111888734Y-79434785D01*
X112014313Y-79459764D01*
X112142351Y-79459764D01*
X112267930Y-79434785D01*
X112386222Y-79385786D01*
X112492683Y-79314652D01*
X112583220Y-79224115D01*
X112654354Y-79117654D01*
X112703353Y-78999362D01*
X112728332Y-78873783D01*
X112728332Y-78745745D01*
X112703353Y-78620166D01*
X112654354Y-78501874D01*
X112583220Y-78395413D01*
X112492683Y-78304876D01*
X112386222Y-78233742D01*
X112267930Y-78184743D01*
X112217762Y-78174764D01*
X112267930Y-78164785D01*
X112386222Y-78115786D01*
X112492683Y-78044652D01*
X112583220Y-77954115D01*
X112654354Y-77847654D01*
X112703353Y-77729362D01*
X112728332Y-77603783D01*
X112728332Y-77475745D01*
X112703353Y-77350166D01*
X112654354Y-77231874D01*
X112583220Y-77125413D01*
X112492683Y-77034876D01*
X112386222Y-76963742D01*
X112267930Y-76914743D01*
X112142351Y-76889764D01*
X112014313Y-76889764D01*
X111888734Y-76914743D01*
X111770442Y-76963742D01*
X111663981Y-77034876D01*
X111573444Y-77125413D01*
X111502310Y-77231874D01*
X111453311Y-77350166D01*
X111428332Y-77475745D01*
X1000000Y-77475745D01*
X1000000Y-75230206D01*
X58556191Y-75230206D01*
X58556191Y-75614322D01*
X58631129Y-75991058D01*
X58778124Y-76345935D01*
X58991527Y-76665316D01*
X59263139Y-76936928D01*
X59582520Y-77150331D01*
X59937397Y-77297326D01*
X60314133Y-77372264D01*
X60698249Y-77372264D01*
X61074985Y-77297326D01*
X61429862Y-77150331D01*
X61749243Y-76936928D01*
X62020855Y-76665316D01*
X62234258Y-76345935D01*
X62381253Y-75991058D01*
X62456191Y-75614322D01*
X62456191Y-75230206D01*
X69203810Y-75230206D01*
X69203810Y-75614322D01*
X69278748Y-75991058D01*
X69425743Y-76345935D01*
X69639146Y-76665316D01*
X69910758Y-76936928D01*
X70230139Y-77150331D01*
X70585016Y-77297326D01*
X70961752Y-77372264D01*
X71345868Y-77372264D01*
X71722604Y-77297326D01*
X72077481Y-77150331D01*
X72396862Y-76936928D01*
X72668474Y-76665316D01*
X72881877Y-76345935D01*
X73028872Y-75991058D01*
X73103810Y-75614322D01*
X73103810Y-75230206D01*
X79851429Y-75230206D01*
X79851429Y-75614322D01*
X79926367Y-75991058D01*
X80073362Y-76345935D01*
X80286765Y-76665316D01*
X80558377Y-76936928D01*
X80877758Y-77150331D01*
X81232635Y-77297326D01*
X81609371Y-77372264D01*
X81993487Y-77372264D01*
X82370223Y-77297326D01*
X82725100Y-77150331D01*
X83044481Y-76936928D01*
X83316093Y-76665316D01*
X83529496Y-76345935D01*
X83676491Y-75991058D01*
X83751429Y-75614322D01*
X83751429Y-75230206D01*
X90499047Y-75230206D01*
X90499047Y-75614322D01*
X90573985Y-75991058D01*
X90720980Y-76345935D01*
X90934383Y-76665316D01*
X91205995Y-76936928D01*
X91525376Y-77150331D01*
X91880253Y-77297326D01*
X92256989Y-77372264D01*
X92641105Y-77372264D01*
X93017841Y-77297326D01*
X93372718Y-77150331D01*
X93692099Y-76936928D01*
X93963711Y-76665316D01*
X94177114Y-76345935D01*
X94324109Y-75991058D01*
X94399047Y-75614322D01*
X94399047Y-75230206D01*
X94324109Y-74853470D01*
X94177114Y-74498593D01*
X93963711Y-74179212D01*
X93692099Y-73907600D01*
X93372718Y-73694197D01*
X93017841Y-73547202D01*
X92641105Y-73472264D01*
X92256989Y-73472264D01*
X91880253Y-73547202D01*
X91525376Y-73694197D01*
X91205995Y-73907600D01*
X90934383Y-74179212D01*
X90720980Y-74498593D01*
X90573985Y-74853470D01*
X90499047Y-75230206D01*
X83751429Y-75230206D01*
X83676491Y-74853470D01*
X83529496Y-74498593D01*
X83316093Y-74179212D01*
X83044481Y-73907600D01*
X82725100Y-73694197D01*
X82370223Y-73547202D01*
X81993487Y-73472264D01*
X81609371Y-73472264D01*
X81232635Y-73547202D01*
X80877758Y-73694197D01*
X80558377Y-73907600D01*
X80286765Y-74179212D01*
X80073362Y-74498593D01*
X79926367Y-74853470D01*
X79851429Y-75230206D01*
X73103810Y-75230206D01*
X73028872Y-74853470D01*
X72881877Y-74498593D01*
X72668474Y-74179212D01*
X72396862Y-73907600D01*
X72077481Y-73694197D01*
X71722604Y-73547202D01*
X71345868Y-73472264D01*
X70961752Y-73472264D01*
X70585016Y-73547202D01*
X70230139Y-73694197D01*
X69910758Y-73907600D01*
X69639146Y-74179212D01*
X69425743Y-74498593D01*
X69278748Y-74853470D01*
X69203810Y-75230206D01*
X62456191Y-75230206D01*
X62381253Y-74853470D01*
X62234258Y-74498593D01*
X62020855Y-74179212D01*
X61749243Y-73907600D01*
X61429862Y-73694197D01*
X61074985Y-73547202D01*
X60698249Y-73472264D01*
X60314133Y-73472264D01*
X59937397Y-73547202D01*
X59582520Y-73694197D01*
X59263139Y-73907600D01*
X58991527Y-74179212D01*
X58778124Y-74498593D01*
X58631129Y-74853470D01*
X58556191Y-75230206D01*
X1000000Y-75230206D01*
X1000000Y-47242263D01*
X97123305Y-47242263D01*
X97123305Y-50242263D01*
X97158885Y-50603510D01*
X97264257Y-50950875D01*
X97435372Y-51271009D01*
X97665653Y-51551608D01*
X97946252Y-51781889D01*
X98266386Y-51953004D01*
X98613751Y-52058376D01*
X98974998Y-52093956D01*
X101974998Y-52093956D01*
X102336245Y-52058376D01*
X102683610Y-51953004D01*
X103003744Y-51781889D01*
X103284343Y-51551608D01*
X103514624Y-51271009D01*
X103685739Y-50950875D01*
X103791111Y-50603510D01*
X103826691Y-50242263D01*
X103826691Y-47242263D01*
X103799674Y-46967950D01*
X146861529Y-46967950D01*
X146861529Y-47095988D01*
X146886508Y-47221567D01*
X146935507Y-47339859D01*
X147006641Y-47446320D01*
X147097178Y-47536857D01*
X147203639Y-47607991D01*
X147321931Y-47656990D01*
X147447510Y-47681969D01*
X147575548Y-47681969D01*
X147701127Y-47656990D01*
X147819419Y-47607991D01*
X147925880Y-47536857D01*
X148016417Y-47446320D01*
X148087551Y-47339859D01*
X148136550Y-47221567D01*
X148161529Y-47095988D01*
X148161529Y-47002152D01*
X149586637Y-47002152D01*
X149586637Y-47130190D01*
X149611616Y-47255769D01*
X149660615Y-47374061D01*
X149731749Y-47480522D01*
X149822286Y-47571059D01*
X149928747Y-47642193D01*
X150047039Y-47691192D01*
X150172618Y-47716171D01*
X150300656Y-47716171D01*
X150426235Y-47691192D01*
X150544527Y-47642193D01*
X150650988Y-47571059D01*
X150741525Y-47480522D01*
X150812659Y-47374061D01*
X150861658Y-47255769D01*
X150886637Y-47130190D01*
X150886637Y-47002152D01*
X150883236Y-46985051D01*
X152708513Y-46985051D01*
X152708513Y-47113089D01*
X152733492Y-47238668D01*
X152782491Y-47356960D01*
X152853625Y-47463421D01*
X152944162Y-47553958D01*
X153050623Y-47625092D01*
X153168915Y-47674091D01*
X153294494Y-47699070D01*
X153422532Y-47699070D01*
X153548111Y-47674091D01*
X153666403Y-47625092D01*
X153772864Y-47553958D01*
X153863401Y-47463421D01*
X153934535Y-47356960D01*
X153976670Y-47255238D01*
X155351318Y-47255238D01*
X155351318Y-47383276D01*
X155376297Y-47508855D01*
X155425296Y-47627147D01*
X155496430Y-47733608D01*
X155586967Y-47824145D01*
X155693428Y-47895279D01*
X155811720Y-47944278D01*
X155937299Y-47969257D01*
X156065337Y-47969257D01*
X156190916Y-47944278D01*
X156309208Y-47895279D01*
X156415669Y-47824145D01*
X156506206Y-47733608D01*
X156577340Y-47627147D01*
X156626339Y-47508855D01*
X156651318Y-47383276D01*
X156651318Y-47255238D01*
X156626339Y-47129659D01*
X156577340Y-47011367D01*
X156571183Y-47002152D01*
X158555498Y-47002152D01*
X158555498Y-47130190D01*
X158580477Y-47255769D01*
X158629476Y-47374061D01*
X158700610Y-47480522D01*
X158791147Y-47571059D01*
X158897608Y-47642193D01*
X159015900Y-47691192D01*
X159141479Y-47716171D01*
X159269517Y-47716171D01*
X159395096Y-47691192D01*
X159513388Y-47642193D01*
X159619849Y-47571059D01*
X159710386Y-47480522D01*
X159781520Y-47374061D01*
X159830519Y-47255769D01*
X159855498Y-47130190D01*
X159855498Y-47002152D01*
X159830519Y-46876573D01*
X159781520Y-46758281D01*
X159710386Y-46651820D01*
X159619849Y-46561283D01*
X159513388Y-46490149D01*
X159422546Y-46452520D01*
X161096739Y-46452520D01*
X161096739Y-46580558D01*
X161121718Y-46706137D01*
X161170717Y-46824429D01*
X161241851Y-46930890D01*
X161332388Y-47021427D01*
X161438849Y-47092561D01*
X161557141Y-47141560D01*
X161682720Y-47166539D01*
X161810758Y-47166539D01*
X161936337Y-47141560D01*
X162054629Y-47092561D01*
X162161090Y-47021427D01*
X162251627Y-46930890D01*
X162322761Y-46824429D01*
X162361469Y-46730981D01*
X164372029Y-46730981D01*
X164372029Y-46859019D01*
X164397008Y-46984598D01*
X164446007Y-47102890D01*
X164517141Y-47209351D01*
X164607678Y-47299888D01*
X164714139Y-47371022D01*
X164832431Y-47420021D01*
X164958010Y-47445000D01*
X165086048Y-47445000D01*
X165211627Y-47420021D01*
X165329919Y-47371022D01*
X165436380Y-47299888D01*
X165526917Y-47209351D01*
X165598051Y-47102890D01*
X165647050Y-46984598D01*
X165672029Y-46859019D01*
X165672029Y-46730981D01*
X166970106Y-46730981D01*
X166970106Y-46859019D01*
X166995085Y-46984598D01*
X167044084Y-47102890D01*
X167115218Y-47209351D01*
X167205755Y-47299888D01*
X167312216Y-47371022D01*
X167430508Y-47420021D01*
X167556087Y-47445000D01*
X167684125Y-47445000D01*
X167809704Y-47420021D01*
X167927996Y-47371022D01*
X168034457Y-47299888D01*
X168124994Y-47209351D01*
X168196128Y-47102890D01*
X168245127Y-46984598D01*
X168270106Y-46859019D01*
X168270106Y-46730981D01*
X168245127Y-46605402D01*
X168196128Y-46487110D01*
X168124994Y-46380649D01*
X168034457Y-46290112D01*
X167927996Y-46218978D01*
X167809704Y-46169979D01*
X167684125Y-46145000D01*
X167556087Y-46145000D01*
X167430508Y-46169979D01*
X167312216Y-46218978D01*
X167205755Y-46290112D01*
X167115218Y-46380649D01*
X167044084Y-46487110D01*
X166995085Y-46605402D01*
X166970106Y-46730981D01*
X165672029Y-46730981D01*
X165647050Y-46605402D01*
X165598051Y-46487110D01*
X165526917Y-46380649D01*
X165436380Y-46290112D01*
X165329919Y-46218978D01*
X165211627Y-46169979D01*
X165086048Y-46145000D01*
X164958010Y-46145000D01*
X164832431Y-46169979D01*
X164714139Y-46218978D01*
X164607678Y-46290112D01*
X164517141Y-46380649D01*
X164446007Y-46487110D01*
X164397008Y-46605402D01*
X164372029Y-46730981D01*
X162361469Y-46730981D01*
X162371760Y-46706137D01*
X162396739Y-46580558D01*
X162396739Y-46452520D01*
X162371760Y-46326941D01*
X162322761Y-46208649D01*
X162251627Y-46102188D01*
X162161090Y-46011651D01*
X162054629Y-45940517D01*
X161936337Y-45891518D01*
X161810758Y-45866539D01*
X161682720Y-45866539D01*
X161557141Y-45891518D01*
X161438849Y-45940517D01*
X161332388Y-46011651D01*
X161241851Y-46102188D01*
X161170717Y-46208649D01*
X161121718Y-46326941D01*
X161096739Y-46452520D01*
X159422546Y-46452520D01*
X159395096Y-46441150D01*
X159269517Y-46416171D01*
X159141479Y-46416171D01*
X159015900Y-46441150D01*
X158897608Y-46490149D01*
X158791147Y-46561283D01*
X158700610Y-46651820D01*
X158629476Y-46758281D01*
X158580477Y-46876573D01*
X158555498Y-47002152D01*
X156571183Y-47002152D01*
X156506206Y-46904906D01*
X156415669Y-46814369D01*
X156309208Y-46743235D01*
X156190916Y-46694236D01*
X156065337Y-46669257D01*
X155937299Y-46669257D01*
X155811720Y-46694236D01*
X155693428Y-46743235D01*
X155586967Y-46814369D01*
X155496430Y-46904906D01*
X155425296Y-47011367D01*
X155376297Y-47129659D01*
X155351318Y-47255238D01*
X153976670Y-47255238D01*
X153983534Y-47238668D01*
X154008513Y-47113089D01*
X154008513Y-46985051D01*
X153983534Y-46859472D01*
X153934535Y-46741180D01*
X153863401Y-46634719D01*
X153772864Y-46544182D01*
X153666403Y-46473048D01*
X153548111Y-46424049D01*
X153422532Y-46399070D01*
X153294494Y-46399070D01*
X153168915Y-46424049D01*
X153050623Y-46473048D01*
X152944162Y-46544182D01*
X152853625Y-46634719D01*
X152782491Y-46741180D01*
X152733492Y-46859472D01*
X152708513Y-46985051D01*
X150883236Y-46985051D01*
X150861658Y-46876573D01*
X150812659Y-46758281D01*
X150741525Y-46651820D01*
X150650988Y-46561283D01*
X150544527Y-46490149D01*
X150426235Y-46441150D01*
X150300656Y-46416171D01*
X150172618Y-46416171D01*
X150047039Y-46441150D01*
X149928747Y-46490149D01*
X149822286Y-46561283D01*
X149731749Y-46651820D01*
X149660615Y-46758281D01*
X149611616Y-46876573D01*
X149586637Y-47002152D01*
X148161529Y-47002152D01*
X148161529Y-46967950D01*
X148136550Y-46842371D01*
X148087551Y-46724079D01*
X148016417Y-46617618D01*
X147925880Y-46527081D01*
X147819419Y-46455947D01*
X147701127Y-46406948D01*
X147575548Y-46381969D01*
X147447510Y-46381969D01*
X147321931Y-46406948D01*
X147203639Y-46455947D01*
X147097178Y-46527081D01*
X147006641Y-46617618D01*
X146935507Y-46724079D01*
X146886508Y-46842371D01*
X146861529Y-46967950D01*
X103799674Y-46967950D01*
X103791111Y-46881016D01*
X103685739Y-46533651D01*
X103514624Y-46213517D01*
X103284343Y-45932918D01*
X103003744Y-45702637D01*
X102683610Y-45531522D01*
X102336245Y-45426150D01*
X101974998Y-45390570D01*
X98974998Y-45390570D01*
X98613751Y-45426150D01*
X98266386Y-45531522D01*
X97946252Y-45702637D01*
X97665653Y-45932918D01*
X97435372Y-46213517D01*
X97264257Y-46533651D01*
X97158885Y-46881016D01*
X97123305Y-47242263D01*
X1000000Y-47242263D01*
X1000000Y-46071346D01*
X29942500Y-46071346D01*
X29942500Y-46278178D01*
X29982850Y-46481036D01*
X30062002Y-46672124D01*
X30176911Y-46844098D01*
X30323164Y-46990351D01*
X30495138Y-47105260D01*
X30686226Y-47184412D01*
X30889084Y-47224762D01*
X31095916Y-47224762D01*
X31298774Y-47184412D01*
X31489862Y-47105260D01*
X31661836Y-46990351D01*
X31808089Y-46844098D01*
X31922998Y-46672124D01*
X32002150Y-46481036D01*
X32042500Y-46278178D01*
X32042500Y-46071346D01*
X50542499Y-46071346D01*
X50542499Y-46278178D01*
X50582849Y-46481036D01*
X50662001Y-46672124D01*
X50776910Y-46844098D01*
X50923163Y-46990351D01*
X51095137Y-47105260D01*
X51286225Y-47184412D01*
X51489083Y-47224762D01*
X51695915Y-47224762D01*
X51898773Y-47184412D01*
X52089861Y-47105260D01*
X52261835Y-46990351D01*
X52408088Y-46844098D01*
X52522997Y-46672124D01*
X52602149Y-46481036D01*
X52642499Y-46278178D01*
X52642499Y-46071346D01*
X71142500Y-46071346D01*
X71142500Y-46278178D01*
X71182850Y-46481036D01*
X71262002Y-46672124D01*
X71376911Y-46844098D01*
X71523164Y-46990351D01*
X71695138Y-47105260D01*
X71886226Y-47184412D01*
X72089084Y-47224762D01*
X72295916Y-47224762D01*
X72498774Y-47184412D01*
X72689862Y-47105260D01*
X72861836Y-46990351D01*
X73008089Y-46844098D01*
X73122998Y-46672124D01*
X73202150Y-46481036D01*
X73242500Y-46278178D01*
X73242500Y-46071346D01*
X91742499Y-46071346D01*
X91742499Y-46278178D01*
X91782849Y-46481036D01*
X91862001Y-46672124D01*
X91976910Y-46844098D01*
X92123163Y-46990351D01*
X92295137Y-47105260D01*
X92486225Y-47184412D01*
X92689083Y-47224762D01*
X92895915Y-47224762D01*
X93098773Y-47184412D01*
X93289861Y-47105260D01*
X93461835Y-46990351D01*
X93608088Y-46844098D01*
X93722997Y-46672124D01*
X93802149Y-46481036D01*
X93842499Y-46278178D01*
X93842499Y-46071346D01*
X93802149Y-45868488D01*
X93722997Y-45677400D01*
X93608088Y-45505426D01*
X93461835Y-45359173D01*
X93289861Y-45244264D01*
X93098773Y-45165112D01*
X92895915Y-45124762D01*
X92689083Y-45124762D01*
X92486225Y-45165112D01*
X92295137Y-45244264D01*
X92123163Y-45359173D01*
X91976910Y-45505426D01*
X91862001Y-45677400D01*
X91782849Y-45868488D01*
X91742499Y-46071346D01*
X73242500Y-46071346D01*
X73202150Y-45868488D01*
X73122998Y-45677400D01*
X73008089Y-45505426D01*
X72861836Y-45359173D01*
X72689862Y-45244264D01*
X72498774Y-45165112D01*
X72295916Y-45124762D01*
X72089084Y-45124762D01*
X71886226Y-45165112D01*
X71695138Y-45244264D01*
X71523164Y-45359173D01*
X71376911Y-45505426D01*
X71262002Y-45677400D01*
X71182850Y-45868488D01*
X71142500Y-46071346D01*
X52642499Y-46071346D01*
X52602149Y-45868488D01*
X52522997Y-45677400D01*
X52408088Y-45505426D01*
X52261835Y-45359173D01*
X52089861Y-45244264D01*
X51898773Y-45165112D01*
X51695915Y-45124762D01*
X51489083Y-45124762D01*
X51286225Y-45165112D01*
X51095137Y-45244264D01*
X50923163Y-45359173D01*
X50776910Y-45505426D01*
X50662001Y-45677400D01*
X50582849Y-45868488D01*
X50542499Y-46071346D01*
X32042500Y-46071346D01*
X32002150Y-45868488D01*
X31922998Y-45677400D01*
X31808089Y-45505426D01*
X31661836Y-45359173D01*
X31489862Y-45244264D01*
X31298774Y-45165112D01*
X31095916Y-45124762D01*
X30889084Y-45124762D01*
X30686226Y-45165112D01*
X30495138Y-45244264D01*
X30323164Y-45359173D01*
X30176911Y-45505426D01*
X30062002Y-45677400D01*
X29982850Y-45868488D01*
X29942500Y-46071346D01*
X1000000Y-46071346D01*
X1000000Y-41674762D01*
X24140807Y-41674762D01*
X24140807Y-44674762D01*
X24147565Y-44743374D01*
X24167578Y-44809349D01*
X24200078Y-44870152D01*
X24243815Y-44923447D01*
X24297110Y-44967184D01*
X24357913Y-44999684D01*
X24423888Y-45019697D01*
X24492500Y-45026455D01*
X27492500Y-45026455D01*
X27561112Y-45019697D01*
X27627087Y-44999684D01*
X27687890Y-44967184D01*
X27741185Y-44923447D01*
X27784922Y-44870152D01*
X27817422Y-44809349D01*
X27837435Y-44743374D01*
X27844193Y-44674762D01*
X27844193Y-41674762D01*
X44740806Y-41674762D01*
X44740806Y-44674762D01*
X44747564Y-44743374D01*
X44767577Y-44809349D01*
X44800077Y-44870152D01*
X44843814Y-44923447D01*
X44897109Y-44967184D01*
X44957912Y-44999684D01*
X45023887Y-45019697D01*
X45092499Y-45026455D01*
X48092499Y-45026455D01*
X48161111Y-45019697D01*
X48227086Y-44999684D01*
X48287889Y-44967184D01*
X48341184Y-44923447D01*
X48384921Y-44870152D01*
X48417421Y-44809349D01*
X48437434Y-44743374D01*
X48444192Y-44674762D01*
X48444192Y-41674762D01*
X65340807Y-41674762D01*
X65340807Y-44674762D01*
X65347565Y-44743374D01*
X65367578Y-44809349D01*
X65400078Y-44870152D01*
X65443815Y-44923447D01*
X65497110Y-44967184D01*
X65557913Y-44999684D01*
X65623888Y-45019697D01*
X65692500Y-45026455D01*
X68692500Y-45026455D01*
X68761112Y-45019697D01*
X68827087Y-44999684D01*
X68887890Y-44967184D01*
X68941185Y-44923447D01*
X68984922Y-44870152D01*
X69017422Y-44809349D01*
X69037435Y-44743374D01*
X69044193Y-44674762D01*
X69044193Y-41674762D01*
X85940806Y-41674762D01*
X85940806Y-44674762D01*
X85947564Y-44743374D01*
X85967577Y-44809349D01*
X86000077Y-44870152D01*
X86043814Y-44923447D01*
X86097109Y-44967184D01*
X86157912Y-44999684D01*
X86223887Y-45019697D01*
X86292499Y-45026455D01*
X89292499Y-45026455D01*
X89361111Y-45019697D01*
X89427086Y-44999684D01*
X89487889Y-44967184D01*
X89541184Y-44923447D01*
X89584921Y-44870152D01*
X89617421Y-44809349D01*
X89637434Y-44743374D01*
X89644192Y-44674762D01*
X89644192Y-41674762D01*
X89637434Y-41606150D01*
X89617421Y-41540175D01*
X89584921Y-41479372D01*
X89541184Y-41426077D01*
X89487889Y-41382340D01*
X89427086Y-41349840D01*
X89361111Y-41329827D01*
X89292499Y-41323069D01*
X88647415Y-41323069D01*
X88668802Y-41314210D01*
X88971805Y-41111751D01*
X89229488Y-40854068D01*
X89431947Y-40551065D01*
X89571404Y-40214387D01*
X89642499Y-39856971D01*
X89642499Y-39492553D01*
X89571404Y-39135137D01*
X89431947Y-38798459D01*
X89229488Y-38495456D01*
X88971805Y-38237773D01*
X88668802Y-38035314D01*
X88401907Y-37924762D01*
X88668802Y-37814210D01*
X88971805Y-37611751D01*
X89229488Y-37354068D01*
X89431947Y-37051065D01*
X89571404Y-36714387D01*
X89642499Y-36356971D01*
X89642499Y-35992553D01*
X89571404Y-35635137D01*
X89431947Y-35298459D01*
X89229488Y-34995456D01*
X88971805Y-34737773D01*
X88668802Y-34535314D01*
X88332124Y-34395857D01*
X87974708Y-34324762D01*
X87610290Y-34324762D01*
X87252874Y-34395857D01*
X86916196Y-34535314D01*
X86613193Y-34737773D01*
X86355510Y-34995456D01*
X86153051Y-35298459D01*
X86013594Y-35635137D01*
X85942499Y-35992553D01*
X85942499Y-36356971D01*
X86013594Y-36714387D01*
X86153051Y-37051065D01*
X86355510Y-37354068D01*
X86613193Y-37611751D01*
X86916196Y-37814210D01*
X87183091Y-37924762D01*
X86916196Y-38035314D01*
X86613193Y-38237773D01*
X86355510Y-38495456D01*
X86153051Y-38798459D01*
X86013594Y-39135137D01*
X85942499Y-39492553D01*
X85942499Y-39856971D01*
X86013594Y-40214387D01*
X86153051Y-40551065D01*
X86355510Y-40854068D01*
X86613193Y-41111751D01*
X86916196Y-41314210D01*
X86937583Y-41323069D01*
X86292499Y-41323069D01*
X86223887Y-41329827D01*
X86157912Y-41349840D01*
X86097109Y-41382340D01*
X86043814Y-41426077D01*
X86000077Y-41479372D01*
X85967577Y-41540175D01*
X85947564Y-41606150D01*
X85940806Y-41674762D01*
X69044193Y-41674762D01*
X69037435Y-41606150D01*
X69017422Y-41540175D01*
X68984922Y-41479372D01*
X68941185Y-41426077D01*
X68887890Y-41382340D01*
X68827087Y-41349840D01*
X68761112Y-41329827D01*
X68692500Y-41323069D01*
X68047416Y-41323069D01*
X68068803Y-41314210D01*
X68371806Y-41111751D01*
X68629489Y-40854068D01*
X68831948Y-40551065D01*
X68971405Y-40214387D01*
X69042500Y-39856971D01*
X69042500Y-39492553D01*
X68971405Y-39135137D01*
X68831948Y-38798459D01*
X68629489Y-38495456D01*
X68371806Y-38237773D01*
X68068803Y-38035314D01*
X67801908Y-37924762D01*
X68068803Y-37814210D01*
X68371806Y-37611751D01*
X68629489Y-37354068D01*
X68831948Y-37051065D01*
X68971405Y-36714387D01*
X69042500Y-36356971D01*
X69042500Y-35992553D01*
X68971405Y-35635137D01*
X68831948Y-35298459D01*
X68629489Y-34995456D01*
X68371806Y-34737773D01*
X68068803Y-34535314D01*
X67732125Y-34395857D01*
X67374709Y-34324762D01*
X67010291Y-34324762D01*
X66652875Y-34395857D01*
X66316197Y-34535314D01*
X66013194Y-34737773D01*
X65755511Y-34995456D01*
X65553052Y-35298459D01*
X65413595Y-35635137D01*
X65342500Y-35992553D01*
X65342500Y-36356971D01*
X65413595Y-36714387D01*
X65553052Y-37051065D01*
X65755511Y-37354068D01*
X66013194Y-37611751D01*
X66316197Y-37814210D01*
X66583092Y-37924762D01*
X66316197Y-38035314D01*
X66013194Y-38237773D01*
X65755511Y-38495456D01*
X65553052Y-38798459D01*
X65413595Y-39135137D01*
X65342500Y-39492553D01*
X65342500Y-39856971D01*
X65413595Y-40214387D01*
X65553052Y-40551065D01*
X65755511Y-40854068D01*
X66013194Y-41111751D01*
X66316197Y-41314210D01*
X66337584Y-41323069D01*
X65692500Y-41323069D01*
X65623888Y-41329827D01*
X65557913Y-41349840D01*
X65497110Y-41382340D01*
X65443815Y-41426077D01*
X65400078Y-41479372D01*
X65367578Y-41540175D01*
X65347565Y-41606150D01*
X65340807Y-41674762D01*
X48444192Y-41674762D01*
X48437434Y-41606150D01*
X48417421Y-41540175D01*
X48384921Y-41479372D01*
X48341184Y-41426077D01*
X48287889Y-41382340D01*
X48227086Y-41349840D01*
X48161111Y-41329827D01*
X48092499Y-41323069D01*
X47447415Y-41323069D01*
X47468802Y-41314210D01*
X47771805Y-41111751D01*
X48029488Y-40854068D01*
X48231947Y-40551065D01*
X48371404Y-40214387D01*
X48442499Y-39856971D01*
X48442499Y-39492553D01*
X48371404Y-39135137D01*
X48231947Y-38798459D01*
X48029488Y-38495456D01*
X47771805Y-38237773D01*
X47468802Y-38035314D01*
X47201907Y-37924762D01*
X47468802Y-37814210D01*
X47771805Y-37611751D01*
X48029488Y-37354068D01*
X48231947Y-37051065D01*
X48371404Y-36714387D01*
X48442499Y-36356971D01*
X48442499Y-35992553D01*
X48371404Y-35635137D01*
X48231947Y-35298459D01*
X48029488Y-34995456D01*
X47771805Y-34737773D01*
X47468802Y-34535314D01*
X47132124Y-34395857D01*
X46774708Y-34324762D01*
X46410290Y-34324762D01*
X46052874Y-34395857D01*
X45716196Y-34535314D01*
X45413193Y-34737773D01*
X45155510Y-34995456D01*
X44953051Y-35298459D01*
X44813594Y-35635137D01*
X44742499Y-35992553D01*
X44742499Y-36356971D01*
X44813594Y-36714387D01*
X44953051Y-37051065D01*
X45155510Y-37354068D01*
X45413193Y-37611751D01*
X45716196Y-37814210D01*
X45983091Y-37924762D01*
X45716196Y-38035314D01*
X45413193Y-38237773D01*
X45155510Y-38495456D01*
X44953051Y-38798459D01*
X44813594Y-39135137D01*
X44742499Y-39492553D01*
X44742499Y-39856971D01*
X44813594Y-40214387D01*
X44953051Y-40551065D01*
X45155510Y-40854068D01*
X45413193Y-41111751D01*
X45716196Y-41314210D01*
X45737583Y-41323069D01*
X45092499Y-41323069D01*
X45023887Y-41329827D01*
X44957912Y-41349840D01*
X44897109Y-41382340D01*
X44843814Y-41426077D01*
X44800077Y-41479372D01*
X44767577Y-41540175D01*
X44747564Y-41606150D01*
X44740806Y-41674762D01*
X27844193Y-41674762D01*
X27837435Y-41606150D01*
X27817422Y-41540175D01*
X27784922Y-41479372D01*
X27741185Y-41426077D01*
X27687890Y-41382340D01*
X27627087Y-41349840D01*
X27561112Y-41329827D01*
X27492500Y-41323069D01*
X26847416Y-41323069D01*
X26868803Y-41314210D01*
X27171806Y-41111751D01*
X27429489Y-40854068D01*
X27631948Y-40551065D01*
X27771405Y-40214387D01*
X27842500Y-39856971D01*
X27842500Y-39492553D01*
X27771405Y-39135137D01*
X27631948Y-38798459D01*
X27429489Y-38495456D01*
X27171806Y-38237773D01*
X26868803Y-38035314D01*
X26601908Y-37924762D01*
X26868803Y-37814210D01*
X27171806Y-37611751D01*
X27429489Y-37354068D01*
X27631948Y-37051065D01*
X27771405Y-36714387D01*
X27842500Y-36356971D01*
X27842500Y-35992553D01*
X27771405Y-35635137D01*
X27631948Y-35298459D01*
X27429489Y-34995456D01*
X27171806Y-34737773D01*
X26868803Y-34535314D01*
X26532125Y-34395857D01*
X26174709Y-34324762D01*
X25810291Y-34324762D01*
X25452875Y-34395857D01*
X25116197Y-34535314D01*
X24813194Y-34737773D01*
X24555511Y-34995456D01*
X24353052Y-35298459D01*
X24213595Y-35635137D01*
X24142500Y-35992553D01*
X24142500Y-36356971D01*
X24213595Y-36714387D01*
X24353052Y-37051065D01*
X24555511Y-37354068D01*
X24813194Y-37611751D01*
X25116197Y-37814210D01*
X25383092Y-37924762D01*
X25116197Y-38035314D01*
X24813194Y-38237773D01*
X24555511Y-38495456D01*
X24353052Y-38798459D01*
X24213595Y-39135137D01*
X24142500Y-39492553D01*
X24142500Y-39856971D01*
X24213595Y-40214387D01*
X24353052Y-40551065D01*
X24555511Y-40854068D01*
X24813194Y-41111751D01*
X25116197Y-41314210D01*
X25137584Y-41323069D01*
X24492500Y-41323069D01*
X24423888Y-41329827D01*
X24357913Y-41349840D01*
X24297110Y-41382340D01*
X24243815Y-41426077D01*
X24200078Y-41479372D01*
X24167578Y-41540175D01*
X24147565Y-41606150D01*
X24140807Y-41674762D01*
X1000000Y-41674762D01*
X1000000Y-33071346D01*
X29942500Y-33071346D01*
X29942500Y-33278178D01*
X29982850Y-33481036D01*
X30062002Y-33672124D01*
X30176911Y-33844098D01*
X30323164Y-33990351D01*
X30495138Y-34105260D01*
X30686226Y-34184412D01*
X30889084Y-34224762D01*
X31095916Y-34224762D01*
X31298774Y-34184412D01*
X31489862Y-34105260D01*
X31661836Y-33990351D01*
X31808089Y-33844098D01*
X31922998Y-33672124D01*
X32002150Y-33481036D01*
X32042500Y-33278178D01*
X32042500Y-33071346D01*
X50542499Y-33071346D01*
X50542499Y-33278178D01*
X50582849Y-33481036D01*
X50662001Y-33672124D01*
X50776910Y-33844098D01*
X50923163Y-33990351D01*
X51095137Y-34105260D01*
X51286225Y-34184412D01*
X51489083Y-34224762D01*
X51695915Y-34224762D01*
X51898773Y-34184412D01*
X52089861Y-34105260D01*
X52261835Y-33990351D01*
X52408088Y-33844098D01*
X52522997Y-33672124D01*
X52602149Y-33481036D01*
X52642499Y-33278178D01*
X52642499Y-33071346D01*
X71142500Y-33071346D01*
X71142500Y-33278178D01*
X71182850Y-33481036D01*
X71262002Y-33672124D01*
X71376911Y-33844098D01*
X71523164Y-33990351D01*
X71695138Y-34105260D01*
X71886226Y-34184412D01*
X72089084Y-34224762D01*
X72295916Y-34224762D01*
X72498774Y-34184412D01*
X72689862Y-34105260D01*
X72861836Y-33990351D01*
X73008089Y-33844098D01*
X73122998Y-33672124D01*
X73202150Y-33481036D01*
X73242500Y-33278178D01*
X73242500Y-33071346D01*
X91742499Y-33071346D01*
X91742499Y-33278178D01*
X91782849Y-33481036D01*
X91862001Y-33672124D01*
X91976910Y-33844098D01*
X92123163Y-33990351D01*
X92295137Y-34105260D01*
X92486225Y-34184412D01*
X92689083Y-34224762D01*
X92895915Y-34224762D01*
X93098773Y-34184412D01*
X93289861Y-34105260D01*
X93461835Y-33990351D01*
X93608088Y-33844098D01*
X93722997Y-33672124D01*
X93802149Y-33481036D01*
X93842499Y-33278178D01*
X93842499Y-33071346D01*
X93802149Y-32868488D01*
X93722997Y-32677400D01*
X93608088Y-32505426D01*
X93461835Y-32359173D01*
X93289861Y-32244264D01*
X93098773Y-32165112D01*
X92895915Y-32124762D01*
X92689083Y-32124762D01*
X92486225Y-32165112D01*
X92295137Y-32244264D01*
X92123163Y-32359173D01*
X91976910Y-32505426D01*
X91862001Y-32677400D01*
X91782849Y-32868488D01*
X91742499Y-33071346D01*
X73242500Y-33071346D01*
X73202150Y-32868488D01*
X73122998Y-32677400D01*
X73008089Y-32505426D01*
X72861836Y-32359173D01*
X72689862Y-32244264D01*
X72498774Y-32165112D01*
X72295916Y-32124762D01*
X72089084Y-32124762D01*
X71886226Y-32165112D01*
X71695138Y-32244264D01*
X71523164Y-32359173D01*
X71376911Y-32505426D01*
X71262002Y-32677400D01*
X71182850Y-32868488D01*
X71142500Y-33071346D01*
X52642499Y-33071346D01*
X52602149Y-32868488D01*
X52522997Y-32677400D01*
X52408088Y-32505426D01*
X52261835Y-32359173D01*
X52089861Y-32244264D01*
X51898773Y-32165112D01*
X51695915Y-32124762D01*
X51489083Y-32124762D01*
X51286225Y-32165112D01*
X51095137Y-32244264D01*
X50923163Y-32359173D01*
X50776910Y-32505426D01*
X50662001Y-32677400D01*
X50582849Y-32868488D01*
X50542499Y-33071346D01*
X32042500Y-33071346D01*
X32002150Y-32868488D01*
X31922998Y-32677400D01*
X31808089Y-32505426D01*
X31661836Y-32359173D01*
X31489862Y-32244264D01*
X31298774Y-32165112D01*
X31095916Y-32124762D01*
X30889084Y-32124762D01*
X30686226Y-32165112D01*
X30495138Y-32244264D01*
X30323164Y-32359173D01*
X30176911Y-32505426D01*
X30062002Y-32677400D01*
X29982850Y-32868488D01*
X29942500Y-33071346D01*
X1000000Y-33071346D01*
X1000000Y-5043480D01*
X3588094Y-5043480D01*
X3588094Y-5171518D01*
X3613073Y-5297097D01*
X3662072Y-5415389D01*
X3733206Y-5521850D01*
X3823743Y-5612387D01*
X3930204Y-5683521D01*
X4048496Y-5732520D01*
X4174075Y-5757499D01*
X4302113Y-5757499D01*
X4427692Y-5732520D01*
X4545984Y-5683521D01*
X4652445Y-5612387D01*
X4742982Y-5521850D01*
X4814116Y-5415389D01*
X4863115Y-5297097D01*
X4888094Y-5171518D01*
X4888094Y-5043480D01*
X6688095Y-5043480D01*
X6688095Y-5171518D01*
X6713074Y-5297097D01*
X6762073Y-5415389D01*
X6833207Y-5521850D01*
X6923744Y-5612387D01*
X7030205Y-5683521D01*
X7148497Y-5732520D01*
X7274076Y-5757499D01*
X7402114Y-5757499D01*
X7527693Y-5732520D01*
X7645985Y-5683521D01*
X7752446Y-5612387D01*
X7842983Y-5521850D01*
X7914117Y-5415389D01*
X7963116Y-5297097D01*
X7988095Y-5171518D01*
X7988095Y-5043480D01*
X31740474Y-5043480D01*
X31740474Y-5171518D01*
X31765453Y-5297097D01*
X31814452Y-5415389D01*
X31885586Y-5521850D01*
X31976123Y-5612387D01*
X32082584Y-5683521D01*
X32200876Y-5732520D01*
X32326455Y-5757499D01*
X32454493Y-5757499D01*
X32580072Y-5732520D01*
X32698364Y-5683521D01*
X32804825Y-5612387D01*
X32895362Y-5521850D01*
X32966496Y-5415389D01*
X33015495Y-5297097D01*
X33040474Y-5171518D01*
X33040474Y-5043480D01*
X34840475Y-5043480D01*
X34840475Y-5171518D01*
X34865454Y-5297097D01*
X34914453Y-5415389D01*
X34985587Y-5521850D01*
X35076124Y-5612387D01*
X35182585Y-5683521D01*
X35300877Y-5732520D01*
X35426456Y-5757499D01*
X35554494Y-5757499D01*
X35680073Y-5732520D01*
X35798365Y-5683521D01*
X35904826Y-5612387D01*
X35995363Y-5521850D01*
X36066497Y-5415389D01*
X36115496Y-5297097D01*
X36140475Y-5171518D01*
X36140475Y-5043480D01*
X59892854Y-5043480D01*
X59892854Y-5171518D01*
X59917833Y-5297097D01*
X59966832Y-5415389D01*
X60037966Y-5521850D01*
X60128503Y-5612387D01*
X60234964Y-5683521D01*
X60353256Y-5732520D01*
X60478835Y-5757499D01*
X60606873Y-5757499D01*
X60732452Y-5732520D01*
X60850744Y-5683521D01*
X60957205Y-5612387D01*
X61047742Y-5521850D01*
X61118876Y-5415389D01*
X61167875Y-5297097D01*
X61192854Y-5171518D01*
X61192854Y-5043480D01*
X62992854Y-5043480D01*
X62992854Y-5171518D01*
X63017833Y-5297097D01*
X63066832Y-5415389D01*
X63137966Y-5521850D01*
X63228503Y-5612387D01*
X63334964Y-5683521D01*
X63453256Y-5732520D01*
X63578835Y-5757499D01*
X63706873Y-5757499D01*
X63832452Y-5732520D01*
X63950744Y-5683521D01*
X64057205Y-5612387D01*
X64147742Y-5521850D01*
X64218876Y-5415389D01*
X64267875Y-5297097D01*
X64292854Y-5171518D01*
X64292854Y-5043480D01*
X88045234Y-5043480D01*
X88045234Y-5171518D01*
X88070213Y-5297097D01*
X88119212Y-5415389D01*
X88190346Y-5521850D01*
X88280883Y-5612387D01*
X88387344Y-5683521D01*
X88505636Y-5732520D01*
X88631215Y-5757499D01*
X88759253Y-5757499D01*
X88884832Y-5732520D01*
X89003124Y-5683521D01*
X89109585Y-5612387D01*
X89200122Y-5521850D01*
X89271256Y-5415389D01*
X89320255Y-5297097D01*
X89345234Y-5171518D01*
X89345234Y-5043480D01*
X91145234Y-5043480D01*
X91145234Y-5171518D01*
X91170213Y-5297097D01*
X91219212Y-5415389D01*
X91290346Y-5521850D01*
X91380883Y-5612387D01*
X91487344Y-5683521D01*
X91605636Y-5732520D01*
X91731215Y-5757499D01*
X91859253Y-5757499D01*
X91984832Y-5732520D01*
X92103124Y-5683521D01*
X92209585Y-5612387D01*
X92300122Y-5521850D01*
X92371256Y-5415389D01*
X92420255Y-5297097D01*
X92445234Y-5171518D01*
X92445234Y-5043480D01*
X116197614Y-5043480D01*
X116197614Y-5171518D01*
X116222593Y-5297097D01*
X116271592Y-5415389D01*
X116342726Y-5521850D01*
X116433263Y-5612387D01*
X116539724Y-5683521D01*
X116658016Y-5732520D01*
X116783595Y-5757499D01*
X116911633Y-5757499D01*
X117037212Y-5732520D01*
X117155504Y-5683521D01*
X117261965Y-5612387D01*
X117352502Y-5521850D01*
X117423636Y-5415389D01*
X117472635Y-5297097D01*
X117497614Y-5171518D01*
X117497614Y-5043480D01*
X119297614Y-5043480D01*
X119297614Y-5171518D01*
X119322593Y-5297097D01*
X119371592Y-5415389D01*
X119442726Y-5521850D01*
X119533263Y-5612387D01*
X119639724Y-5683521D01*
X119758016Y-5732520D01*
X119883595Y-5757499D01*
X120011633Y-5757499D01*
X120137212Y-5732520D01*
X120255504Y-5683521D01*
X120361965Y-5612387D01*
X120452502Y-5521850D01*
X120523636Y-5415389D01*
X120572635Y-5297097D01*
X120597614Y-5171518D01*
X120597614Y-5043480D01*
X120572635Y-4917901D01*
X120523636Y-4799609D01*
X120452502Y-4693148D01*
X120361965Y-4602611D01*
X120255504Y-4531477D01*
X120137212Y-4482478D01*
X120011633Y-4457499D01*
X119883595Y-4457499D01*
X119758016Y-4482478D01*
X119639724Y-4531477D01*
X119533263Y-4602611D01*
X119442726Y-4693148D01*
X119371592Y-4799609D01*
X119322593Y-4917901D01*
X119297614Y-5043480D01*
X117497614Y-5043480D01*
X117472635Y-4917901D01*
X117423636Y-4799609D01*
X117352502Y-4693148D01*
X117261965Y-4602611D01*
X117155504Y-4531477D01*
X117037212Y-4482478D01*
X116911633Y-4457499D01*
X116783595Y-4457499D01*
X116658016Y-4482478D01*
X116539724Y-4531477D01*
X116433263Y-4602611D01*
X116342726Y-4693148D01*
X116271592Y-4799609D01*
X116222593Y-4917901D01*
X116197614Y-5043480D01*
X92445234Y-5043480D01*
X92420255Y-4917901D01*
X92371256Y-4799609D01*
X92300122Y-4693148D01*
X92209585Y-4602611D01*
X92103124Y-4531477D01*
X91984832Y-4482478D01*
X91859253Y-4457499D01*
X91731215Y-4457499D01*
X91605636Y-4482478D01*
X91487344Y-4531477D01*
X91380883Y-4602611D01*
X91290346Y-4693148D01*
X91219212Y-4799609D01*
X91170213Y-4917901D01*
X91145234Y-5043480D01*
X89345234Y-5043480D01*
X89320255Y-4917901D01*
X89271256Y-4799609D01*
X89200122Y-4693148D01*
X89109585Y-4602611D01*
X89003124Y-4531477D01*
X88884832Y-4482478D01*
X88759253Y-4457499D01*
X88631215Y-4457499D01*
X88505636Y-4482478D01*
X88387344Y-4531477D01*
X88280883Y-4602611D01*
X88190346Y-4693148D01*
X88119212Y-4799609D01*
X88070213Y-4917901D01*
X88045234Y-5043480D01*
X64292854Y-5043480D01*
X64267875Y-4917901D01*
X64218876Y-4799609D01*
X64147742Y-4693148D01*
X64057205Y-4602611D01*
X63950744Y-4531477D01*
X63832452Y-4482478D01*
X63706873Y-4457499D01*
X63578835Y-4457499D01*
X63453256Y-4482478D01*
X63334964Y-4531477D01*
X63228503Y-4602611D01*
X63137966Y-4693148D01*
X63066832Y-4799609D01*
X63017833Y-4917901D01*
X62992854Y-5043480D01*
X61192854Y-5043480D01*
X61167875Y-4917901D01*
X61118876Y-4799609D01*
X61047742Y-4693148D01*
X60957205Y-4602611D01*
X60850744Y-4531477D01*
X60732452Y-4482478D01*
X60606873Y-4457499D01*
X60478835Y-4457499D01*
X60353256Y-4482478D01*
X60234964Y-4531477D01*
X60128503Y-4602611D01*
X60037966Y-4693148D01*
X59966832Y-4799609D01*
X59917833Y-4917901D01*
X59892854Y-5043480D01*
X36140475Y-5043480D01*
X36115496Y-4917901D01*
X36066497Y-4799609D01*
X35995363Y-4693148D01*
X35904826Y-4602611D01*
X35798365Y-4531477D01*
X35680073Y-4482478D01*
X35554494Y-4457499D01*
X35426456Y-4457499D01*
X35300877Y-4482478D01*
X35182585Y-4531477D01*
X35076124Y-4602611D01*
X34985587Y-4693148D01*
X34914453Y-4799609D01*
X34865454Y-4917901D01*
X34840475Y-5043480D01*
X33040474Y-5043480D01*
X33015495Y-4917901D01*
X32966496Y-4799609D01*
X32895362Y-4693148D01*
X32804825Y-4602611D01*
X32698364Y-4531477D01*
X32580072Y-4482478D01*
X32454493Y-4457499D01*
X32326455Y-4457499D01*
X32200876Y-4482478D01*
X32082584Y-4531477D01*
X31976123Y-4602611D01*
X31885586Y-4693148D01*
X31814452Y-4799609D01*
X31765453Y-4917901D01*
X31740474Y-5043480D01*
X7988095Y-5043480D01*
X7963116Y-4917901D01*
X7914117Y-4799609D01*
X7842983Y-4693148D01*
X7752446Y-4602611D01*
X7645985Y-4531477D01*
X7527693Y-4482478D01*
X7402114Y-4457499D01*
X7274076Y-4457499D01*
X7148497Y-4482478D01*
X7030205Y-4531477D01*
X6923744Y-4602611D01*
X6833207Y-4693148D01*
X6762073Y-4799609D01*
X6713074Y-4917901D01*
X6688095Y-5043480D01*
X4888094Y-5043480D01*
X4863115Y-4917901D01*
X4814116Y-4799609D01*
X4742982Y-4693148D01*
X4652445Y-4602611D01*
X4545984Y-4531477D01*
X4427692Y-4482478D01*
X4302113Y-4457499D01*
X4174075Y-4457499D01*
X4048496Y-4482478D01*
X3930204Y-4531477D01*
X3823743Y-4602611D01*
X3733206Y-4693148D01*
X3662072Y-4799609D01*
X3613073Y-4917901D01*
X3588094Y-5043480D01*
X1000000Y-5043480D01*
X1000000Y-3778480D01*
X144008089Y-3778480D01*
X144008089Y-3906518D01*
X144033068Y-4032097D01*
X144082067Y-4150389D01*
X144153201Y-4256850D01*
X144243738Y-4347387D01*
X144350199Y-4418521D01*
X144468491Y-4467520D01*
X144594070Y-4492499D01*
X144722108Y-4492499D01*
X144847687Y-4467520D01*
X144965979Y-4418521D01*
X145072440Y-4347387D01*
X145162977Y-4256850D01*
X145234111Y-4150389D01*
X145283110Y-4032097D01*
X145308089Y-3906518D01*
X145308089Y-3778480D01*
X145283110Y-3652901D01*
X145234111Y-3534609D01*
X145162977Y-3428148D01*
X145072440Y-3337611D01*
X144965979Y-3266477D01*
X144847687Y-3217478D01*
X144722108Y-3192499D01*
X144594070Y-3192499D01*
X144468491Y-3217478D01*
X144350199Y-3266477D01*
X144243738Y-3337611D01*
X144153201Y-3428148D01*
X144082067Y-3534609D01*
X144033068Y-3652901D01*
X144008089Y-3778480D01*
X1000000Y-3778480D01*
X1000000Y-1000000D01*
X189000000Y-1000000D01*
X189000000Y-144000000D01*
G04 #@! TA.AperFunction,Conductor*
D19*
G36*
X189000000Y-144000000D02*
G01*
X1000000Y-144000000D01*
X1000000Y-122990034D01*
X7132500Y-122990034D01*
X7132500Y-123118072D01*
X7157479Y-123243651D01*
X7206478Y-123361943D01*
X7277612Y-123468404D01*
X7368149Y-123558941D01*
X7474610Y-123630075D01*
X7592902Y-123679074D01*
X7718481Y-123704053D01*
X7846519Y-123704053D01*
X7972098Y-123679074D01*
X8090390Y-123630075D01*
X8196851Y-123558941D01*
X8287388Y-123468404D01*
X8358522Y-123361943D01*
X8407521Y-123243651D01*
X8432500Y-123118072D01*
X8432500Y-122990034D01*
X9032500Y-122990034D01*
X9032500Y-123118072D01*
X9057479Y-123243651D01*
X9106478Y-123361943D01*
X9177612Y-123468404D01*
X9268149Y-123558941D01*
X9374610Y-123630075D01*
X9492902Y-123679074D01*
X9618481Y-123704053D01*
X9746519Y-123704053D01*
X9872098Y-123679074D01*
X9990390Y-123630075D01*
X10096851Y-123558941D01*
X10187388Y-123468404D01*
X10231399Y-123402535D01*
X26484999Y-123402535D01*
X26484999Y-123530573D01*
X26509978Y-123656152D01*
X26558977Y-123774444D01*
X26630111Y-123880905D01*
X26720648Y-123971442D01*
X26827109Y-124042576D01*
X26945401Y-124091575D01*
X27070980Y-124116554D01*
X27199018Y-124116554D01*
X27324597Y-124091575D01*
X27442889Y-124042576D01*
X27549350Y-123971442D01*
X27639887Y-123880905D01*
X27711021Y-123774444D01*
X27760020Y-123656152D01*
X27784999Y-123530573D01*
X27784999Y-123402535D01*
X27760020Y-123276956D01*
X27711021Y-123158664D01*
X27709135Y-123155841D01*
X27795402Y-123191575D01*
X27920981Y-123216554D01*
X28049019Y-123216554D01*
X28174598Y-123191575D01*
X28292890Y-123142576D01*
X28399351Y-123071442D01*
X28489888Y-122980905D01*
X28561022Y-122874444D01*
X28610021Y-122756152D01*
X28635000Y-122630573D01*
X28635000Y-122502535D01*
X28610021Y-122376956D01*
X28561022Y-122258664D01*
X28489888Y-122152203D01*
X28399351Y-122061666D01*
X28292890Y-121990532D01*
X28174598Y-121941533D01*
X28049019Y-121916554D01*
X27920981Y-121916554D01*
X27795402Y-121941533D01*
X27677110Y-121990532D01*
X27570649Y-122061666D01*
X27480112Y-122152203D01*
X27408978Y-122258664D01*
X27359979Y-122376956D01*
X27335000Y-122502535D01*
X27335000Y-122630573D01*
X27359979Y-122756152D01*
X27408978Y-122874444D01*
X27410864Y-122877267D01*
X27324597Y-122841533D01*
X27199018Y-122816554D01*
X27070980Y-122816554D01*
X26945401Y-122841533D01*
X26827109Y-122890532D01*
X26720648Y-122961666D01*
X26630111Y-123052203D01*
X26558977Y-123158664D01*
X26509978Y-123276956D01*
X26484999Y-123402535D01*
X10231399Y-123402535D01*
X10258522Y-123361943D01*
X10307521Y-123243651D01*
X10332500Y-123118072D01*
X10332500Y-122990034D01*
X10307521Y-122864455D01*
X10258522Y-122746163D01*
X10187388Y-122639702D01*
X10096851Y-122549165D01*
X9990390Y-122478031D01*
X9872098Y-122429032D01*
X9746519Y-122404053D01*
X9618481Y-122404053D01*
X9492902Y-122429032D01*
X9374610Y-122478031D01*
X9268149Y-122549165D01*
X9177612Y-122639702D01*
X9106478Y-122746163D01*
X9057479Y-122864455D01*
X9032500Y-122990034D01*
X8432500Y-122990034D01*
X8407521Y-122864455D01*
X8358522Y-122746163D01*
X8287388Y-122639702D01*
X8196851Y-122549165D01*
X8090390Y-122478031D01*
X7972098Y-122429032D01*
X7846519Y-122404053D01*
X7718481Y-122404053D01*
X7592902Y-122429032D01*
X7474610Y-122478031D01*
X7368149Y-122549165D01*
X7277612Y-122639702D01*
X7206478Y-122746163D01*
X7157479Y-122864455D01*
X7132500Y-122990034D01*
X1000000Y-122990034D01*
X1000000Y-118365273D01*
X172268690Y-118365273D01*
X172268690Y-118493311D01*
X172293669Y-118618890D01*
X172342668Y-118737182D01*
X172413802Y-118843643D01*
X172504339Y-118934180D01*
X172610800Y-119005314D01*
X172729092Y-119054313D01*
X172854671Y-119079292D01*
X172982709Y-119079292D01*
X173108288Y-119054313D01*
X173226580Y-119005314D01*
X173333041Y-118934180D01*
X173423578Y-118843643D01*
X173494712Y-118737182D01*
X173543711Y-118618890D01*
X173568690Y-118493311D01*
X173568690Y-118365273D01*
X174168689Y-118365273D01*
X174168689Y-118493311D01*
X174193668Y-118618890D01*
X174242667Y-118737182D01*
X174313801Y-118843643D01*
X174404338Y-118934180D01*
X174510799Y-119005314D01*
X174629091Y-119054313D01*
X174754670Y-119079292D01*
X174882708Y-119079292D01*
X175008287Y-119054313D01*
X175126579Y-119005314D01*
X175233040Y-118934180D01*
X175323577Y-118843643D01*
X175394711Y-118737182D01*
X175443710Y-118618890D01*
X175468689Y-118493311D01*
X175468689Y-118365273D01*
X175443710Y-118239694D01*
X175394711Y-118121402D01*
X175323577Y-118014941D01*
X175233040Y-117924404D01*
X175126579Y-117853270D01*
X175008287Y-117804271D01*
X174882708Y-117779292D01*
X174754670Y-117779292D01*
X174629091Y-117804271D01*
X174510799Y-117853270D01*
X174404338Y-117924404D01*
X174313801Y-118014941D01*
X174242667Y-118121402D01*
X174193668Y-118239694D01*
X174168689Y-118365273D01*
X173568690Y-118365273D01*
X173543711Y-118239694D01*
X173494712Y-118121402D01*
X173423578Y-118014941D01*
X173333041Y-117924404D01*
X173226580Y-117853270D01*
X173108288Y-117804271D01*
X172982709Y-117779292D01*
X172854671Y-117779292D01*
X172729092Y-117804271D01*
X172610800Y-117853270D01*
X172504339Y-117924404D01*
X172413802Y-118014941D01*
X172342668Y-118121402D01*
X172293669Y-118239694D01*
X172268690Y-118365273D01*
X1000000Y-118365273D01*
X1000000Y-111193011D01*
X22011666Y-111193011D01*
X22011666Y-111321049D01*
X22036645Y-111446628D01*
X22085644Y-111564920D01*
X22156778Y-111671381D01*
X22247315Y-111761918D01*
X22353776Y-111833052D01*
X22472068Y-111882051D01*
X22597647Y-111907030D01*
X22725685Y-111907030D01*
X22851264Y-111882051D01*
X22969556Y-111833052D01*
X23076017Y-111761918D01*
X23166554Y-111671381D01*
X23237688Y-111564920D01*
X23286687Y-111446628D01*
X23311666Y-111321049D01*
X23311666Y-111193011D01*
X48030715Y-111193011D01*
X48030715Y-111321049D01*
X48055694Y-111446628D01*
X48104693Y-111564920D01*
X48175827Y-111671381D01*
X48266364Y-111761918D01*
X48372825Y-111833052D01*
X48491117Y-111882051D01*
X48616696Y-111907030D01*
X48744734Y-111907030D01*
X48870313Y-111882051D01*
X48988605Y-111833052D01*
X49095066Y-111761918D01*
X49185603Y-111671381D01*
X49256737Y-111564920D01*
X49305736Y-111446628D01*
X49330715Y-111321049D01*
X49330715Y-111193011D01*
X74049763Y-111193011D01*
X74049763Y-111321049D01*
X74074742Y-111446628D01*
X74123741Y-111564920D01*
X74194875Y-111671381D01*
X74285412Y-111761918D01*
X74391873Y-111833052D01*
X74510165Y-111882051D01*
X74635744Y-111907030D01*
X74763782Y-111907030D01*
X74889361Y-111882051D01*
X75007653Y-111833052D01*
X75114114Y-111761918D01*
X75204651Y-111671381D01*
X75275785Y-111564920D01*
X75324784Y-111446628D01*
X75349763Y-111321049D01*
X75349763Y-111193011D01*
X100068811Y-111193011D01*
X100068811Y-111321049D01*
X100093790Y-111446628D01*
X100142789Y-111564920D01*
X100213923Y-111671381D01*
X100304460Y-111761918D01*
X100410921Y-111833052D01*
X100529213Y-111882051D01*
X100654792Y-111907030D01*
X100782830Y-111907030D01*
X100908409Y-111882051D01*
X101026701Y-111833052D01*
X101133162Y-111761918D01*
X101223699Y-111671381D01*
X101294833Y-111564920D01*
X101343832Y-111446628D01*
X101368811Y-111321049D01*
X101368811Y-111193011D01*
X126087859Y-111193011D01*
X126087859Y-111321049D01*
X126112838Y-111446628D01*
X126161837Y-111564920D01*
X126232971Y-111671381D01*
X126323508Y-111761918D01*
X126429969Y-111833052D01*
X126548261Y-111882051D01*
X126673840Y-111907030D01*
X126801878Y-111907030D01*
X126927457Y-111882051D01*
X127045749Y-111833052D01*
X127152210Y-111761918D01*
X127242747Y-111671381D01*
X127313881Y-111564920D01*
X127362880Y-111446628D01*
X127387859Y-111321049D01*
X127387859Y-111193011D01*
X127362880Y-111067432D01*
X127313881Y-110949140D01*
X127311995Y-110946318D01*
X127398261Y-110982051D01*
X127523840Y-111007030D01*
X127651878Y-111007030D01*
X127777457Y-110982051D01*
X127895749Y-110933052D01*
X128002210Y-110861918D01*
X128092747Y-110771381D01*
X128163881Y-110664920D01*
X128212880Y-110546628D01*
X128237859Y-110421049D01*
X128237859Y-110293011D01*
X128212880Y-110167432D01*
X128163881Y-110049140D01*
X128092747Y-109942679D01*
X128002210Y-109852142D01*
X127895749Y-109781008D01*
X127777457Y-109732009D01*
X127651878Y-109707030D01*
X127523840Y-109707030D01*
X127398261Y-109732009D01*
X127279969Y-109781008D01*
X127173508Y-109852142D01*
X127082971Y-109942679D01*
X127011837Y-110049140D01*
X126962838Y-110167432D01*
X126937859Y-110293011D01*
X126937859Y-110421049D01*
X126962838Y-110546628D01*
X127011837Y-110664920D01*
X127013723Y-110667742D01*
X126927457Y-110632009D01*
X126801878Y-110607030D01*
X126673840Y-110607030D01*
X126548261Y-110632009D01*
X126429969Y-110681008D01*
X126323508Y-110752142D01*
X126232971Y-110842679D01*
X126161837Y-110949140D01*
X126112838Y-111067432D01*
X126087859Y-111193011D01*
X101368811Y-111193011D01*
X101343832Y-111067432D01*
X101294833Y-110949140D01*
X101292947Y-110946318D01*
X101379213Y-110982051D01*
X101504792Y-111007030D01*
X101632830Y-111007030D01*
X101758409Y-110982051D01*
X101876701Y-110933052D01*
X101983162Y-110861918D01*
X102073699Y-110771381D01*
X102144833Y-110664920D01*
X102193832Y-110546628D01*
X102218811Y-110421049D01*
X102218811Y-110293011D01*
X102193832Y-110167432D01*
X102144833Y-110049140D01*
X102073699Y-109942679D01*
X101983162Y-109852142D01*
X101876701Y-109781008D01*
X101758409Y-109732009D01*
X101632830Y-109707030D01*
X101504792Y-109707030D01*
X101379213Y-109732009D01*
X101260921Y-109781008D01*
X101154460Y-109852142D01*
X101063923Y-109942679D01*
X100992789Y-110049140D01*
X100943790Y-110167432D01*
X100918811Y-110293011D01*
X100918811Y-110421049D01*
X100943790Y-110546628D01*
X100992789Y-110664920D01*
X100994675Y-110667742D01*
X100908409Y-110632009D01*
X100782830Y-110607030D01*
X100654792Y-110607030D01*
X100529213Y-110632009D01*
X100410921Y-110681008D01*
X100304460Y-110752142D01*
X100213923Y-110842679D01*
X100142789Y-110949140D01*
X100093790Y-111067432D01*
X100068811Y-111193011D01*
X75349763Y-111193011D01*
X75324784Y-111067432D01*
X75275785Y-110949140D01*
X75273899Y-110946318D01*
X75360165Y-110982051D01*
X75485744Y-111007030D01*
X75613782Y-111007030D01*
X75739361Y-110982051D01*
X75857653Y-110933052D01*
X75964114Y-110861918D01*
X76054651Y-110771381D01*
X76125785Y-110664920D01*
X76174784Y-110546628D01*
X76199763Y-110421049D01*
X76199763Y-110293011D01*
X76174784Y-110167432D01*
X76125785Y-110049140D01*
X76054651Y-109942679D01*
X75964114Y-109852142D01*
X75857653Y-109781008D01*
X75739361Y-109732009D01*
X75613782Y-109707030D01*
X75485744Y-109707030D01*
X75360165Y-109732009D01*
X75241873Y-109781008D01*
X75135412Y-109852142D01*
X75044875Y-109942679D01*
X74973741Y-110049140D01*
X74924742Y-110167432D01*
X74899763Y-110293011D01*
X74899763Y-110421049D01*
X74924742Y-110546628D01*
X74973741Y-110664920D01*
X74975627Y-110667742D01*
X74889361Y-110632009D01*
X74763782Y-110607030D01*
X74635744Y-110607030D01*
X74510165Y-110632009D01*
X74391873Y-110681008D01*
X74285412Y-110752142D01*
X74194875Y-110842679D01*
X74123741Y-110949140D01*
X74074742Y-111067432D01*
X74049763Y-111193011D01*
X49330715Y-111193011D01*
X49305736Y-111067432D01*
X49256737Y-110949140D01*
X49254851Y-110946318D01*
X49341117Y-110982051D01*
X49466696Y-111007030D01*
X49594734Y-111007030D01*
X49720313Y-110982051D01*
X49838605Y-110933052D01*
X49945066Y-110861918D01*
X50035603Y-110771381D01*
X50106737Y-110664920D01*
X50155736Y-110546628D01*
X50180715Y-110421049D01*
X50180715Y-110293011D01*
X50155736Y-110167432D01*
X50106737Y-110049140D01*
X50035603Y-109942679D01*
X49945066Y-109852142D01*
X49838605Y-109781008D01*
X49720313Y-109732009D01*
X49594734Y-109707030D01*
X49466696Y-109707030D01*
X49341117Y-109732009D01*
X49222825Y-109781008D01*
X49116364Y-109852142D01*
X49025827Y-109942679D01*
X48954693Y-110049140D01*
X48905694Y-110167432D01*
X48880715Y-110293011D01*
X48880715Y-110421049D01*
X48905694Y-110546628D01*
X48954693Y-110664920D01*
X48956579Y-110667742D01*
X48870313Y-110632009D01*
X48744734Y-110607030D01*
X48616696Y-110607030D01*
X48491117Y-110632009D01*
X48372825Y-110681008D01*
X48266364Y-110752142D01*
X48175827Y-110842679D01*
X48104693Y-110949140D01*
X48055694Y-111067432D01*
X48030715Y-111193011D01*
X23311666Y-111193011D01*
X23286687Y-111067432D01*
X23237688Y-110949140D01*
X23235802Y-110946317D01*
X23322069Y-110982051D01*
X23447648Y-111007030D01*
X23575686Y-111007030D01*
X23701265Y-110982051D01*
X23819557Y-110933052D01*
X23926018Y-110861918D01*
X24016555Y-110771381D01*
X24087689Y-110664920D01*
X24136688Y-110546628D01*
X24161667Y-110421049D01*
X24161667Y-110293011D01*
X24136688Y-110167432D01*
X24087689Y-110049140D01*
X24016555Y-109942679D01*
X23926018Y-109852142D01*
X23819557Y-109781008D01*
X23701265Y-109732009D01*
X23575686Y-109707030D01*
X23447648Y-109707030D01*
X23322069Y-109732009D01*
X23203777Y-109781008D01*
X23097316Y-109852142D01*
X23006779Y-109942679D01*
X22935645Y-110049140D01*
X22886646Y-110167432D01*
X22861667Y-110293011D01*
X22861667Y-110421049D01*
X22886646Y-110546628D01*
X22935645Y-110664920D01*
X22937531Y-110667743D01*
X22851264Y-110632009D01*
X22725685Y-110607030D01*
X22597647Y-110607030D01*
X22472068Y-110632009D01*
X22353776Y-110681008D01*
X22247315Y-110752142D01*
X22156778Y-110842679D01*
X22085644Y-110949140D01*
X22036645Y-111067432D01*
X22011666Y-111193011D01*
X1000000Y-111193011D01*
X1000000Y-104688249D01*
X29102143Y-104688249D01*
X29102143Y-104816287D01*
X29127122Y-104941866D01*
X29176121Y-105060158D01*
X29247255Y-105166619D01*
X29337792Y-105257156D01*
X29444253Y-105328290D01*
X29562545Y-105377289D01*
X29688124Y-105402268D01*
X29816162Y-105402268D01*
X29941741Y-105377289D01*
X30060033Y-105328290D01*
X30166494Y-105257156D01*
X30257031Y-105166619D01*
X30328165Y-105060158D01*
X30377164Y-104941866D01*
X30402143Y-104816287D01*
X30402143Y-104688249D01*
X55121191Y-104688249D01*
X55121191Y-104816287D01*
X55146170Y-104941866D01*
X55195169Y-105060158D01*
X55266303Y-105166619D01*
X55356840Y-105257156D01*
X55463301Y-105328290D01*
X55581593Y-105377289D01*
X55707172Y-105402268D01*
X55835210Y-105402268D01*
X55960789Y-105377289D01*
X56079081Y-105328290D01*
X56185542Y-105257156D01*
X56276079Y-105166619D01*
X56347213Y-105060158D01*
X56396212Y-104941866D01*
X56421191Y-104816287D01*
X56421191Y-104688249D01*
X81140239Y-104688249D01*
X81140239Y-104816287D01*
X81165218Y-104941866D01*
X81214217Y-105060158D01*
X81285351Y-105166619D01*
X81375888Y-105257156D01*
X81482349Y-105328290D01*
X81600641Y-105377289D01*
X81726220Y-105402268D01*
X81854258Y-105402268D01*
X81979837Y-105377289D01*
X82098129Y-105328290D01*
X82204590Y-105257156D01*
X82295127Y-105166619D01*
X82366261Y-105060158D01*
X82415260Y-104941866D01*
X82440239Y-104816287D01*
X82440239Y-104688249D01*
X107159287Y-104688249D01*
X107159287Y-104816287D01*
X107184266Y-104941866D01*
X107233265Y-105060158D01*
X107304399Y-105166619D01*
X107394936Y-105257156D01*
X107501397Y-105328290D01*
X107619689Y-105377289D01*
X107745268Y-105402268D01*
X107873306Y-105402268D01*
X107998885Y-105377289D01*
X108117177Y-105328290D01*
X108223638Y-105257156D01*
X108314175Y-105166619D01*
X108385309Y-105060158D01*
X108434308Y-104941866D01*
X108459287Y-104816287D01*
X108459287Y-104688249D01*
X133178335Y-104688249D01*
X133178335Y-104816287D01*
X133203314Y-104941866D01*
X133252313Y-105060158D01*
X133323447Y-105166619D01*
X133413984Y-105257156D01*
X133520445Y-105328290D01*
X133638737Y-105377289D01*
X133764316Y-105402268D01*
X133892354Y-105402268D01*
X134017933Y-105377289D01*
X134136225Y-105328290D01*
X134242686Y-105257156D01*
X134333223Y-105166619D01*
X134404357Y-105060158D01*
X134453356Y-104941866D01*
X134478335Y-104816287D01*
X134478335Y-104688249D01*
X159197383Y-104688249D01*
X159197383Y-104816287D01*
X159222362Y-104941866D01*
X159271361Y-105060158D01*
X159342495Y-105166619D01*
X159433032Y-105257156D01*
X159539493Y-105328290D01*
X159657785Y-105377289D01*
X159783364Y-105402268D01*
X159911402Y-105402268D01*
X160036981Y-105377289D01*
X160155273Y-105328290D01*
X160261734Y-105257156D01*
X160352271Y-105166619D01*
X160423405Y-105060158D01*
X160472404Y-104941866D01*
X160497383Y-104816287D01*
X160497383Y-104688249D01*
X160472404Y-104562670D01*
X160423405Y-104444378D01*
X160421519Y-104441556D01*
X160507785Y-104477289D01*
X160633364Y-104502268D01*
X160761402Y-104502268D01*
X160886981Y-104477289D01*
X161005273Y-104428290D01*
X161111734Y-104357156D01*
X161202271Y-104266619D01*
X161273405Y-104160158D01*
X161322404Y-104041866D01*
X161347383Y-103916287D01*
X161347383Y-103788249D01*
X161322404Y-103662670D01*
X161273405Y-103544378D01*
X161202271Y-103437917D01*
X161111734Y-103347380D01*
X161005273Y-103276246D01*
X160886981Y-103227247D01*
X160761402Y-103202268D01*
X160633364Y-103202268D01*
X160507785Y-103227247D01*
X160389493Y-103276246D01*
X160283032Y-103347380D01*
X160192495Y-103437917D01*
X160121361Y-103544378D01*
X160072362Y-103662670D01*
X160047383Y-103788249D01*
X160047383Y-103916287D01*
X160072362Y-104041866D01*
X160121361Y-104160158D01*
X160123247Y-104162980D01*
X160036981Y-104127247D01*
X159911402Y-104102268D01*
X159783364Y-104102268D01*
X159657785Y-104127247D01*
X159539493Y-104176246D01*
X159433032Y-104247380D01*
X159342495Y-104337917D01*
X159271361Y-104444378D01*
X159222362Y-104562670D01*
X159197383Y-104688249D01*
X134478335Y-104688249D01*
X134453356Y-104562670D01*
X134404357Y-104444378D01*
X134402471Y-104441556D01*
X134488737Y-104477289D01*
X134614316Y-104502268D01*
X134742354Y-104502268D01*
X134867933Y-104477289D01*
X134986225Y-104428290D01*
X135092686Y-104357156D01*
X135183223Y-104266619D01*
X135254357Y-104160158D01*
X135303356Y-104041866D01*
X135328335Y-103916287D01*
X135328335Y-103788249D01*
X135303356Y-103662670D01*
X135254357Y-103544378D01*
X135183223Y-103437917D01*
X135092686Y-103347380D01*
X134986225Y-103276246D01*
X134867933Y-103227247D01*
X134742354Y-103202268D01*
X134614316Y-103202268D01*
X134488737Y-103227247D01*
X134370445Y-103276246D01*
X134263984Y-103347380D01*
X134173447Y-103437917D01*
X134102313Y-103544378D01*
X134053314Y-103662670D01*
X134028335Y-103788249D01*
X134028335Y-103916287D01*
X134053314Y-104041866D01*
X134102313Y-104160158D01*
X134104199Y-104162980D01*
X134017933Y-104127247D01*
X133892354Y-104102268D01*
X133764316Y-104102268D01*
X133638737Y-104127247D01*
X133520445Y-104176246D01*
X133413984Y-104247380D01*
X133323447Y-104337917D01*
X133252313Y-104444378D01*
X133203314Y-104562670D01*
X133178335Y-104688249D01*
X108459287Y-104688249D01*
X108434308Y-104562670D01*
X108385309Y-104444378D01*
X108383423Y-104441556D01*
X108469689Y-104477289D01*
X108595268Y-104502268D01*
X108723306Y-104502268D01*
X108848885Y-104477289D01*
X108967177Y-104428290D01*
X109073638Y-104357156D01*
X109164175Y-104266619D01*
X109235309Y-104160158D01*
X109284308Y-104041866D01*
X109309287Y-103916287D01*
X109309287Y-103788249D01*
X109284308Y-103662670D01*
X109235309Y-103544378D01*
X109164175Y-103437917D01*
X109073638Y-103347380D01*
X108967177Y-103276246D01*
X108848885Y-103227247D01*
X108723306Y-103202268D01*
X108595268Y-103202268D01*
X108469689Y-103227247D01*
X108351397Y-103276246D01*
X108244936Y-103347380D01*
X108154399Y-103437917D01*
X108083265Y-103544378D01*
X108034266Y-103662670D01*
X108009287Y-103788249D01*
X108009287Y-103916287D01*
X108034266Y-104041866D01*
X108083265Y-104160158D01*
X108085151Y-104162980D01*
X107998885Y-104127247D01*
X107873306Y-104102268D01*
X107745268Y-104102268D01*
X107619689Y-104127247D01*
X107501397Y-104176246D01*
X107394936Y-104247380D01*
X107304399Y-104337917D01*
X107233265Y-104444378D01*
X107184266Y-104562670D01*
X107159287Y-104688249D01*
X82440239Y-104688249D01*
X82415260Y-104562670D01*
X82366261Y-104444378D01*
X82364375Y-104441556D01*
X82450641Y-104477289D01*
X82576220Y-104502268D01*
X82704258Y-104502268D01*
X82829837Y-104477289D01*
X82948129Y-104428290D01*
X83054590Y-104357156D01*
X83145127Y-104266619D01*
X83216261Y-104160158D01*
X83265260Y-104041866D01*
X83290239Y-103916287D01*
X83290239Y-103788249D01*
X83265260Y-103662670D01*
X83216261Y-103544378D01*
X83145127Y-103437917D01*
X83054590Y-103347380D01*
X82948129Y-103276246D01*
X82829837Y-103227247D01*
X82704258Y-103202268D01*
X82576220Y-103202268D01*
X82450641Y-103227247D01*
X82332349Y-103276246D01*
X82225888Y-103347380D01*
X82135351Y-103437917D01*
X82064217Y-103544378D01*
X82015218Y-103662670D01*
X81990239Y-103788249D01*
X81990239Y-103916287D01*
X82015218Y-104041866D01*
X82064217Y-104160158D01*
X82066103Y-104162980D01*
X81979837Y-104127247D01*
X81854258Y-104102268D01*
X81726220Y-104102268D01*
X81600641Y-104127247D01*
X81482349Y-104176246D01*
X81375888Y-104247380D01*
X81285351Y-104337917D01*
X81214217Y-104444378D01*
X81165218Y-104562670D01*
X81140239Y-104688249D01*
X56421191Y-104688249D01*
X56396212Y-104562670D01*
X56347213Y-104444378D01*
X56345327Y-104441556D01*
X56431593Y-104477289D01*
X56557172Y-104502268D01*
X56685210Y-104502268D01*
X56810789Y-104477289D01*
X56929081Y-104428290D01*
X57035542Y-104357156D01*
X57126079Y-104266619D01*
X57197213Y-104160158D01*
X57246212Y-104041866D01*
X57271191Y-103916287D01*
X57271191Y-103788249D01*
X57246212Y-103662670D01*
X57197213Y-103544378D01*
X57126079Y-103437917D01*
X57035542Y-103347380D01*
X56929081Y-103276246D01*
X56810789Y-103227247D01*
X56685210Y-103202268D01*
X56557172Y-103202268D01*
X56431593Y-103227247D01*
X56313301Y-103276246D01*
X56206840Y-103347380D01*
X56116303Y-103437917D01*
X56045169Y-103544378D01*
X55996170Y-103662670D01*
X55971191Y-103788249D01*
X55971191Y-103916287D01*
X55996170Y-104041866D01*
X56045169Y-104160158D01*
X56047055Y-104162980D01*
X55960789Y-104127247D01*
X55835210Y-104102268D01*
X55707172Y-104102268D01*
X55581593Y-104127247D01*
X55463301Y-104176246D01*
X55356840Y-104247380D01*
X55266303Y-104337917D01*
X55195169Y-104444378D01*
X55146170Y-104562670D01*
X55121191Y-104688249D01*
X30402143Y-104688249D01*
X30377164Y-104562670D01*
X30328165Y-104444378D01*
X30326279Y-104441556D01*
X30412545Y-104477289D01*
X30538124Y-104502268D01*
X30666162Y-104502268D01*
X30791741Y-104477289D01*
X30910033Y-104428290D01*
X31016494Y-104357156D01*
X31107031Y-104266619D01*
X31178165Y-104160158D01*
X31227164Y-104041866D01*
X31252143Y-103916287D01*
X31252143Y-103788249D01*
X31227164Y-103662670D01*
X31178165Y-103544378D01*
X31107031Y-103437917D01*
X31016494Y-103347380D01*
X30910033Y-103276246D01*
X30791741Y-103227247D01*
X30666162Y-103202268D01*
X30538124Y-103202268D01*
X30412545Y-103227247D01*
X30294253Y-103276246D01*
X30187792Y-103347380D01*
X30097255Y-103437917D01*
X30026121Y-103544378D01*
X29977122Y-103662670D01*
X29952143Y-103788249D01*
X29952143Y-103916287D01*
X29977122Y-104041866D01*
X30026121Y-104160158D01*
X30028007Y-104162980D01*
X29941741Y-104127247D01*
X29816162Y-104102268D01*
X29688124Y-104102268D01*
X29562545Y-104127247D01*
X29444253Y-104176246D01*
X29337792Y-104247380D01*
X29247255Y-104337917D01*
X29176121Y-104444378D01*
X29127122Y-104562670D01*
X29102143Y-104688249D01*
X1000000Y-104688249D01*
X1000000Y-78745745D01*
X108328332Y-78745745D01*
X108328332Y-78873783D01*
X108353311Y-78999362D01*
X108402310Y-79117654D01*
X108473444Y-79224115D01*
X108563981Y-79314652D01*
X108670442Y-79385786D01*
X108788734Y-79434785D01*
X108914313Y-79459764D01*
X109042351Y-79459764D01*
X109167930Y-79434785D01*
X109286222Y-79385786D01*
X109392683Y-79314652D01*
X109483220Y-79224115D01*
X109554354Y-79117654D01*
X109603353Y-78999362D01*
X109628332Y-78873783D01*
X109628332Y-78745745D01*
X109603353Y-78620166D01*
X109554354Y-78501874D01*
X109483220Y-78395413D01*
X109392683Y-78304876D01*
X109286222Y-78233742D01*
X109167930Y-78184743D01*
X109042351Y-78159764D01*
X108914313Y-78159764D01*
X108788734Y-78184743D01*
X108670442Y-78233742D01*
X108563981Y-78304876D01*
X108473444Y-78395413D01*
X108402310Y-78501874D01*
X108353311Y-78620166D01*
X108328332Y-78745745D01*
X1000000Y-78745745D01*
X1000000Y-77475745D01*
X111428332Y-77475745D01*
X111428332Y-77603783D01*
X111453311Y-77729362D01*
X111502310Y-77847654D01*
X111573444Y-77954115D01*
X111663981Y-78044652D01*
X111770442Y-78115786D01*
X111888734Y-78164785D01*
X111938902Y-78174764D01*
X111888734Y-78184743D01*
X111770442Y-78233742D01*
X111663981Y-78304876D01*
X111573444Y-78395413D01*
X111502310Y-78501874D01*
X111453311Y-78620166D01*
X111428332Y-78745745D01*
X111428332Y-78873783D01*
X111453311Y-78999362D01*
X111502310Y-79117654D01*
X111573444Y-79224115D01*
X111663981Y-79314652D01*
X111770442Y-79385786D01*
X111888734Y-79434785D01*
X112014313Y-79459764D01*
X112142351Y-79459764D01*
X112267930Y-79434785D01*
X112386222Y-79385786D01*
X112492683Y-79314652D01*
X112583220Y-79224115D01*
X112654354Y-79117654D01*
X112703353Y-78999362D01*
X112728332Y-78873783D01*
X112728332Y-78745745D01*
X112703353Y-78620166D01*
X112654354Y-78501874D01*
X112583220Y-78395413D01*
X112492683Y-78304876D01*
X112386222Y-78233742D01*
X112267930Y-78184743D01*
X112217762Y-78174764D01*
X112267930Y-78164785D01*
X112386222Y-78115786D01*
X112492683Y-78044652D01*
X112583220Y-77954115D01*
X112654354Y-77847654D01*
X112703353Y-77729362D01*
X112728332Y-77603783D01*
X112728332Y-77475745D01*
X112703353Y-77350166D01*
X112654354Y-77231874D01*
X112583220Y-77125413D01*
X112492683Y-77034876D01*
X112386222Y-76963742D01*
X112267930Y-76914743D01*
X112142351Y-76889764D01*
X112014313Y-76889764D01*
X111888734Y-76914743D01*
X111770442Y-76963742D01*
X111663981Y-77034876D01*
X111573444Y-77125413D01*
X111502310Y-77231874D01*
X111453311Y-77350166D01*
X111428332Y-77475745D01*
X1000000Y-77475745D01*
X1000000Y-75230206D01*
X58556191Y-75230206D01*
X58556191Y-75614322D01*
X58631129Y-75991058D01*
X58778124Y-76345935D01*
X58991527Y-76665316D01*
X59263139Y-76936928D01*
X59582520Y-77150331D01*
X59937397Y-77297326D01*
X60314133Y-77372264D01*
X60698249Y-77372264D01*
X61074985Y-77297326D01*
X61429862Y-77150331D01*
X61749243Y-76936928D01*
X62020855Y-76665316D01*
X62234258Y-76345935D01*
X62381253Y-75991058D01*
X62456191Y-75614322D01*
X62456191Y-75230206D01*
X69203810Y-75230206D01*
X69203810Y-75614322D01*
X69278748Y-75991058D01*
X69425743Y-76345935D01*
X69639146Y-76665316D01*
X69910758Y-76936928D01*
X70230139Y-77150331D01*
X70585016Y-77297326D01*
X70961752Y-77372264D01*
X71345868Y-77372264D01*
X71722604Y-77297326D01*
X72077481Y-77150331D01*
X72396862Y-76936928D01*
X72668474Y-76665316D01*
X72881877Y-76345935D01*
X73028872Y-75991058D01*
X73103810Y-75614322D01*
X73103810Y-75230206D01*
X79851429Y-75230206D01*
X79851429Y-75614322D01*
X79926367Y-75991058D01*
X80073362Y-76345935D01*
X80286765Y-76665316D01*
X80558377Y-76936928D01*
X80877758Y-77150331D01*
X81232635Y-77297326D01*
X81609371Y-77372264D01*
X81993487Y-77372264D01*
X82370223Y-77297326D01*
X82725100Y-77150331D01*
X83044481Y-76936928D01*
X83316093Y-76665316D01*
X83529496Y-76345935D01*
X83676491Y-75991058D01*
X83751429Y-75614322D01*
X83751429Y-75230206D01*
X90499047Y-75230206D01*
X90499047Y-75614322D01*
X90573985Y-75991058D01*
X90720980Y-76345935D01*
X90934383Y-76665316D01*
X91205995Y-76936928D01*
X91525376Y-77150331D01*
X91880253Y-77297326D01*
X92256989Y-77372264D01*
X92641105Y-77372264D01*
X93017841Y-77297326D01*
X93372718Y-77150331D01*
X93692099Y-76936928D01*
X93963711Y-76665316D01*
X94177114Y-76345935D01*
X94324109Y-75991058D01*
X94399047Y-75614322D01*
X94399047Y-75230206D01*
X94324109Y-74853470D01*
X94177114Y-74498593D01*
X93963711Y-74179212D01*
X93692099Y-73907600D01*
X93372718Y-73694197D01*
X93017841Y-73547202D01*
X92641105Y-73472264D01*
X92256989Y-73472264D01*
X91880253Y-73547202D01*
X91525376Y-73694197D01*
X91205995Y-73907600D01*
X90934383Y-74179212D01*
X90720980Y-74498593D01*
X90573985Y-74853470D01*
X90499047Y-75230206D01*
X83751429Y-75230206D01*
X83676491Y-74853470D01*
X83529496Y-74498593D01*
X83316093Y-74179212D01*
X83044481Y-73907600D01*
X82725100Y-73694197D01*
X82370223Y-73547202D01*
X81993487Y-73472264D01*
X81609371Y-73472264D01*
X81232635Y-73547202D01*
X80877758Y-73694197D01*
X80558377Y-73907600D01*
X80286765Y-74179212D01*
X80073362Y-74498593D01*
X79926367Y-74853470D01*
X79851429Y-75230206D01*
X73103810Y-75230206D01*
X73028872Y-74853470D01*
X72881877Y-74498593D01*
X72668474Y-74179212D01*
X72396862Y-73907600D01*
X72077481Y-73694197D01*
X71722604Y-73547202D01*
X71345868Y-73472264D01*
X70961752Y-73472264D01*
X70585016Y-73547202D01*
X70230139Y-73694197D01*
X69910758Y-73907600D01*
X69639146Y-74179212D01*
X69425743Y-74498593D01*
X69278748Y-74853470D01*
X69203810Y-75230206D01*
X62456191Y-75230206D01*
X62381253Y-74853470D01*
X62234258Y-74498593D01*
X62020855Y-74179212D01*
X61749243Y-73907600D01*
X61429862Y-73694197D01*
X61074985Y-73547202D01*
X60698249Y-73472264D01*
X60314133Y-73472264D01*
X59937397Y-73547202D01*
X59582520Y-73694197D01*
X59263139Y-73907600D01*
X58991527Y-74179212D01*
X58778124Y-74498593D01*
X58631129Y-74853470D01*
X58556191Y-75230206D01*
X1000000Y-75230206D01*
X1000000Y-47242263D01*
X97123305Y-47242263D01*
X97123305Y-50242263D01*
X97158885Y-50603510D01*
X97264257Y-50950875D01*
X97435372Y-51271009D01*
X97665653Y-51551608D01*
X97946252Y-51781889D01*
X98266386Y-51953004D01*
X98613751Y-52058376D01*
X98974998Y-52093956D01*
X101974998Y-52093956D01*
X102336245Y-52058376D01*
X102683610Y-51953004D01*
X103003744Y-51781889D01*
X103284343Y-51551608D01*
X103514624Y-51271009D01*
X103685739Y-50950875D01*
X103791111Y-50603510D01*
X103826691Y-50242263D01*
X103826691Y-47242263D01*
X103799674Y-46967950D01*
X146861529Y-46967950D01*
X146861529Y-47095988D01*
X146886508Y-47221567D01*
X146935507Y-47339859D01*
X147006641Y-47446320D01*
X147097178Y-47536857D01*
X147203639Y-47607991D01*
X147321931Y-47656990D01*
X147447510Y-47681969D01*
X147575548Y-47681969D01*
X147701127Y-47656990D01*
X147819419Y-47607991D01*
X147925880Y-47536857D01*
X148016417Y-47446320D01*
X148087551Y-47339859D01*
X148136550Y-47221567D01*
X148161529Y-47095988D01*
X148161529Y-47002152D01*
X149586637Y-47002152D01*
X149586637Y-47130190D01*
X149611616Y-47255769D01*
X149660615Y-47374061D01*
X149731749Y-47480522D01*
X149822286Y-47571059D01*
X149928747Y-47642193D01*
X150047039Y-47691192D01*
X150172618Y-47716171D01*
X150300656Y-47716171D01*
X150426235Y-47691192D01*
X150544527Y-47642193D01*
X150650988Y-47571059D01*
X150741525Y-47480522D01*
X150812659Y-47374061D01*
X150861658Y-47255769D01*
X150886637Y-47130190D01*
X150886637Y-47002152D01*
X150883236Y-46985051D01*
X152708513Y-46985051D01*
X152708513Y-47113089D01*
X152733492Y-47238668D01*
X152782491Y-47356960D01*
X152853625Y-47463421D01*
X152944162Y-47553958D01*
X153050623Y-47625092D01*
X153168915Y-47674091D01*
X153294494Y-47699070D01*
X153422532Y-47699070D01*
X153548111Y-47674091D01*
X153666403Y-47625092D01*
X153772864Y-47553958D01*
X153863401Y-47463421D01*
X153934535Y-47356960D01*
X153976670Y-47255238D01*
X155351318Y-47255238D01*
X155351318Y-47383276D01*
X155376297Y-47508855D01*
X155425296Y-47627147D01*
X155496430Y-47733608D01*
X155586967Y-47824145D01*
X155693428Y-47895279D01*
X155811720Y-47944278D01*
X155937299Y-47969257D01*
X156065337Y-47969257D01*
X156190916Y-47944278D01*
X156309208Y-47895279D01*
X156415669Y-47824145D01*
X156506206Y-47733608D01*
X156577340Y-47627147D01*
X156626339Y-47508855D01*
X156651318Y-47383276D01*
X156651318Y-47255238D01*
X156626339Y-47129659D01*
X156577340Y-47011367D01*
X156571183Y-47002152D01*
X158555498Y-47002152D01*
X158555498Y-47130190D01*
X158580477Y-47255769D01*
X158629476Y-47374061D01*
X158700610Y-47480522D01*
X158791147Y-47571059D01*
X158897608Y-47642193D01*
X159015900Y-47691192D01*
X159141479Y-47716171D01*
X159269517Y-47716171D01*
X159395096Y-47691192D01*
X159513388Y-47642193D01*
X159619849Y-47571059D01*
X159710386Y-47480522D01*
X159781520Y-47374061D01*
X159830519Y-47255769D01*
X159855498Y-47130190D01*
X159855498Y-47002152D01*
X159830519Y-46876573D01*
X159781520Y-46758281D01*
X159710386Y-46651820D01*
X159619849Y-46561283D01*
X159513388Y-46490149D01*
X159422546Y-46452520D01*
X161096739Y-46452520D01*
X161096739Y-46580558D01*
X161121718Y-46706137D01*
X161170717Y-46824429D01*
X161241851Y-46930890D01*
X161332388Y-47021427D01*
X161438849Y-47092561D01*
X161557141Y-47141560D01*
X161682720Y-47166539D01*
X161810758Y-47166539D01*
X161936337Y-47141560D01*
X162054629Y-47092561D01*
X162161090Y-47021427D01*
X162251627Y-46930890D01*
X162322761Y-46824429D01*
X162361469Y-46730981D01*
X164372029Y-46730981D01*
X164372029Y-46859019D01*
X164397008Y-46984598D01*
X164446007Y-47102890D01*
X164517141Y-47209351D01*
X164607678Y-47299888D01*
X164714139Y-47371022D01*
X164832431Y-47420021D01*
X164958010Y-47445000D01*
X165086048Y-47445000D01*
X165211627Y-47420021D01*
X165329919Y-47371022D01*
X165436380Y-47299888D01*
X165526917Y-47209351D01*
X165598051Y-47102890D01*
X165647050Y-46984598D01*
X165672029Y-46859019D01*
X165672029Y-46730981D01*
X166970106Y-46730981D01*
X166970106Y-46859019D01*
X166995085Y-46984598D01*
X167044084Y-47102890D01*
X167115218Y-47209351D01*
X167205755Y-47299888D01*
X167312216Y-47371022D01*
X167430508Y-47420021D01*
X167556087Y-47445000D01*
X167684125Y-47445000D01*
X167809704Y-47420021D01*
X167927996Y-47371022D01*
X168034457Y-47299888D01*
X168124994Y-47209351D01*
X168196128Y-47102890D01*
X168245127Y-46984598D01*
X168270106Y-46859019D01*
X168270106Y-46730981D01*
X168245127Y-46605402D01*
X168196128Y-46487110D01*
X168124994Y-46380649D01*
X168034457Y-46290112D01*
X167927996Y-46218978D01*
X167809704Y-46169979D01*
X167684125Y-46145000D01*
X167556087Y-46145000D01*
X167430508Y-46169979D01*
X167312216Y-46218978D01*
X167205755Y-46290112D01*
X167115218Y-46380649D01*
X167044084Y-46487110D01*
X166995085Y-46605402D01*
X166970106Y-46730981D01*
X165672029Y-46730981D01*
X165647050Y-46605402D01*
X165598051Y-46487110D01*
X165526917Y-46380649D01*
X165436380Y-46290112D01*
X165329919Y-46218978D01*
X165211627Y-46169979D01*
X165086048Y-46145000D01*
X164958010Y-46145000D01*
X164832431Y-46169979D01*
X164714139Y-46218978D01*
X164607678Y-46290112D01*
X164517141Y-46380649D01*
X164446007Y-46487110D01*
X164397008Y-46605402D01*
X164372029Y-46730981D01*
X162361469Y-46730981D01*
X162371760Y-46706137D01*
X162396739Y-46580558D01*
X162396739Y-46452520D01*
X162371760Y-46326941D01*
X162322761Y-46208649D01*
X162251627Y-46102188D01*
X162161090Y-46011651D01*
X162054629Y-45940517D01*
X161936337Y-45891518D01*
X161810758Y-45866539D01*
X161682720Y-45866539D01*
X161557141Y-45891518D01*
X161438849Y-45940517D01*
X161332388Y-46011651D01*
X161241851Y-46102188D01*
X161170717Y-46208649D01*
X161121718Y-46326941D01*
X161096739Y-46452520D01*
X159422546Y-46452520D01*
X159395096Y-46441150D01*
X159269517Y-46416171D01*
X159141479Y-46416171D01*
X159015900Y-46441150D01*
X158897608Y-46490149D01*
X158791147Y-46561283D01*
X158700610Y-46651820D01*
X158629476Y-46758281D01*
X158580477Y-46876573D01*
X158555498Y-47002152D01*
X156571183Y-47002152D01*
X156506206Y-46904906D01*
X156415669Y-46814369D01*
X156309208Y-46743235D01*
X156190916Y-46694236D01*
X156065337Y-46669257D01*
X155937299Y-46669257D01*
X155811720Y-46694236D01*
X155693428Y-46743235D01*
X155586967Y-46814369D01*
X155496430Y-46904906D01*
X155425296Y-47011367D01*
X155376297Y-47129659D01*
X155351318Y-47255238D01*
X153976670Y-47255238D01*
X153983534Y-47238668D01*
X154008513Y-47113089D01*
X154008513Y-46985051D01*
X153983534Y-46859472D01*
X153934535Y-46741180D01*
X153863401Y-46634719D01*
X153772864Y-46544182D01*
X153666403Y-46473048D01*
X153548111Y-46424049D01*
X153422532Y-46399070D01*
X153294494Y-46399070D01*
X153168915Y-46424049D01*
X153050623Y-46473048D01*
X152944162Y-46544182D01*
X152853625Y-46634719D01*
X152782491Y-46741180D01*
X152733492Y-46859472D01*
X152708513Y-46985051D01*
X150883236Y-46985051D01*
X150861658Y-46876573D01*
X150812659Y-46758281D01*
X150741525Y-46651820D01*
X150650988Y-46561283D01*
X150544527Y-46490149D01*
X150426235Y-46441150D01*
X150300656Y-46416171D01*
X150172618Y-46416171D01*
X150047039Y-46441150D01*
X149928747Y-46490149D01*
X149822286Y-46561283D01*
X149731749Y-46651820D01*
X149660615Y-46758281D01*
X149611616Y-46876573D01*
X149586637Y-47002152D01*
X148161529Y-47002152D01*
X148161529Y-46967950D01*
X148136550Y-46842371D01*
X148087551Y-46724079D01*
X148016417Y-46617618D01*
X147925880Y-46527081D01*
X147819419Y-46455947D01*
X147701127Y-46406948D01*
X147575548Y-46381969D01*
X147447510Y-46381969D01*
X147321931Y-46406948D01*
X147203639Y-46455947D01*
X147097178Y-46527081D01*
X147006641Y-46617618D01*
X146935507Y-46724079D01*
X146886508Y-46842371D01*
X146861529Y-46967950D01*
X103799674Y-46967950D01*
X103791111Y-46881016D01*
X103685739Y-46533651D01*
X103514624Y-46213517D01*
X103284343Y-45932918D01*
X103003744Y-45702637D01*
X102683610Y-45531522D01*
X102336245Y-45426150D01*
X101974998Y-45390570D01*
X98974998Y-45390570D01*
X98613751Y-45426150D01*
X98266386Y-45531522D01*
X97946252Y-45702637D01*
X97665653Y-45932918D01*
X97435372Y-46213517D01*
X97264257Y-46533651D01*
X97158885Y-46881016D01*
X97123305Y-47242263D01*
X1000000Y-47242263D01*
X1000000Y-46071346D01*
X29942500Y-46071346D01*
X29942500Y-46278178D01*
X29982850Y-46481036D01*
X30062002Y-46672124D01*
X30176911Y-46844098D01*
X30323164Y-46990351D01*
X30495138Y-47105260D01*
X30686226Y-47184412D01*
X30889084Y-47224762D01*
X31095916Y-47224762D01*
X31298774Y-47184412D01*
X31489862Y-47105260D01*
X31661836Y-46990351D01*
X31808089Y-46844098D01*
X31922998Y-46672124D01*
X32002150Y-46481036D01*
X32042500Y-46278178D01*
X32042500Y-46071346D01*
X50542499Y-46071346D01*
X50542499Y-46278178D01*
X50582849Y-46481036D01*
X50662001Y-46672124D01*
X50776910Y-46844098D01*
X50923163Y-46990351D01*
X51095137Y-47105260D01*
X51286225Y-47184412D01*
X51489083Y-47224762D01*
X51695915Y-47224762D01*
X51898773Y-47184412D01*
X52089861Y-47105260D01*
X52261835Y-46990351D01*
X52408088Y-46844098D01*
X52522997Y-46672124D01*
X52602149Y-46481036D01*
X52642499Y-46278178D01*
X52642499Y-46071346D01*
X71142500Y-46071346D01*
X71142500Y-46278178D01*
X71182850Y-46481036D01*
X71262002Y-46672124D01*
X71376911Y-46844098D01*
X71523164Y-46990351D01*
X71695138Y-47105260D01*
X71886226Y-47184412D01*
X72089084Y-47224762D01*
X72295916Y-47224762D01*
X72498774Y-47184412D01*
X72689862Y-47105260D01*
X72861836Y-46990351D01*
X73008089Y-46844098D01*
X73122998Y-46672124D01*
X73202150Y-46481036D01*
X73242500Y-46278178D01*
X73242500Y-46071346D01*
X91742499Y-46071346D01*
X91742499Y-46278178D01*
X91782849Y-46481036D01*
X91862001Y-46672124D01*
X91976910Y-46844098D01*
X92123163Y-46990351D01*
X92295137Y-47105260D01*
X92486225Y-47184412D01*
X92689083Y-47224762D01*
X92895915Y-47224762D01*
X93098773Y-47184412D01*
X93289861Y-47105260D01*
X93461835Y-46990351D01*
X93608088Y-46844098D01*
X93722997Y-46672124D01*
X93802149Y-46481036D01*
X93842499Y-46278178D01*
X93842499Y-46071346D01*
X93802149Y-45868488D01*
X93722997Y-45677400D01*
X93608088Y-45505426D01*
X93461835Y-45359173D01*
X93289861Y-45244264D01*
X93098773Y-45165112D01*
X92895915Y-45124762D01*
X92689083Y-45124762D01*
X92486225Y-45165112D01*
X92295137Y-45244264D01*
X92123163Y-45359173D01*
X91976910Y-45505426D01*
X91862001Y-45677400D01*
X91782849Y-45868488D01*
X91742499Y-46071346D01*
X73242500Y-46071346D01*
X73202150Y-45868488D01*
X73122998Y-45677400D01*
X73008089Y-45505426D01*
X72861836Y-45359173D01*
X72689862Y-45244264D01*
X72498774Y-45165112D01*
X72295916Y-45124762D01*
X72089084Y-45124762D01*
X71886226Y-45165112D01*
X71695138Y-45244264D01*
X71523164Y-45359173D01*
X71376911Y-45505426D01*
X71262002Y-45677400D01*
X71182850Y-45868488D01*
X71142500Y-46071346D01*
X52642499Y-46071346D01*
X52602149Y-45868488D01*
X52522997Y-45677400D01*
X52408088Y-45505426D01*
X52261835Y-45359173D01*
X52089861Y-45244264D01*
X51898773Y-45165112D01*
X51695915Y-45124762D01*
X51489083Y-45124762D01*
X51286225Y-45165112D01*
X51095137Y-45244264D01*
X50923163Y-45359173D01*
X50776910Y-45505426D01*
X50662001Y-45677400D01*
X50582849Y-45868488D01*
X50542499Y-46071346D01*
X32042500Y-46071346D01*
X32002150Y-45868488D01*
X31922998Y-45677400D01*
X31808089Y-45505426D01*
X31661836Y-45359173D01*
X31489862Y-45244264D01*
X31298774Y-45165112D01*
X31095916Y-45124762D01*
X30889084Y-45124762D01*
X30686226Y-45165112D01*
X30495138Y-45244264D01*
X30323164Y-45359173D01*
X30176911Y-45505426D01*
X30062002Y-45677400D01*
X29982850Y-45868488D01*
X29942500Y-46071346D01*
X1000000Y-46071346D01*
X1000000Y-41674762D01*
X24140807Y-41674762D01*
X24140807Y-44674762D01*
X24147565Y-44743374D01*
X24167578Y-44809349D01*
X24200078Y-44870152D01*
X24243815Y-44923447D01*
X24297110Y-44967184D01*
X24357913Y-44999684D01*
X24423888Y-45019697D01*
X24492500Y-45026455D01*
X27492500Y-45026455D01*
X27561112Y-45019697D01*
X27627087Y-44999684D01*
X27687890Y-44967184D01*
X27741185Y-44923447D01*
X27784922Y-44870152D01*
X27817422Y-44809349D01*
X27837435Y-44743374D01*
X27844193Y-44674762D01*
X27844193Y-41674762D01*
X44740806Y-41674762D01*
X44740806Y-44674762D01*
X44747564Y-44743374D01*
X44767577Y-44809349D01*
X44800077Y-44870152D01*
X44843814Y-44923447D01*
X44897109Y-44967184D01*
X44957912Y-44999684D01*
X45023887Y-45019697D01*
X45092499Y-45026455D01*
X48092499Y-45026455D01*
X48161111Y-45019697D01*
X48227086Y-44999684D01*
X48287889Y-44967184D01*
X48341184Y-44923447D01*
X48384921Y-44870152D01*
X48417421Y-44809349D01*
X48437434Y-44743374D01*
X48444192Y-44674762D01*
X48444192Y-41674762D01*
X65340807Y-41674762D01*
X65340807Y-44674762D01*
X65347565Y-44743374D01*
X65367578Y-44809349D01*
X65400078Y-44870152D01*
X65443815Y-44923447D01*
X65497110Y-44967184D01*
X65557913Y-44999684D01*
X65623888Y-45019697D01*
X65692500Y-45026455D01*
X68692500Y-45026455D01*
X68761112Y-45019697D01*
X68827087Y-44999684D01*
X68887890Y-44967184D01*
X68941185Y-44923447D01*
X68984922Y-44870152D01*
X69017422Y-44809349D01*
X69037435Y-44743374D01*
X69044193Y-44674762D01*
X69044193Y-41674762D01*
X85940806Y-41674762D01*
X85940806Y-44674762D01*
X85947564Y-44743374D01*
X85967577Y-44809349D01*
X86000077Y-44870152D01*
X86043814Y-44923447D01*
X86097109Y-44967184D01*
X86157912Y-44999684D01*
X86223887Y-45019697D01*
X86292499Y-45026455D01*
X89292499Y-45026455D01*
X89361111Y-45019697D01*
X89427086Y-44999684D01*
X89487889Y-44967184D01*
X89541184Y-44923447D01*
X89584921Y-44870152D01*
X89617421Y-44809349D01*
X89637434Y-44743374D01*
X89644192Y-44674762D01*
X89644192Y-41674762D01*
X89637434Y-41606150D01*
X89617421Y-41540175D01*
X89584921Y-41479372D01*
X89541184Y-41426077D01*
X89487889Y-41382340D01*
X89427086Y-41349840D01*
X89361111Y-41329827D01*
X89292499Y-41323069D01*
X88647415Y-41323069D01*
X88668802Y-41314210D01*
X88971805Y-41111751D01*
X89229488Y-40854068D01*
X89431947Y-40551065D01*
X89571404Y-40214387D01*
X89642499Y-39856971D01*
X89642499Y-39492553D01*
X89571404Y-39135137D01*
X89431947Y-38798459D01*
X89229488Y-38495456D01*
X88971805Y-38237773D01*
X88668802Y-38035314D01*
X88401907Y-37924762D01*
X88668802Y-37814210D01*
X88971805Y-37611751D01*
X89229488Y-37354068D01*
X89431947Y-37051065D01*
X89571404Y-36714387D01*
X89642499Y-36356971D01*
X89642499Y-35992553D01*
X89571404Y-35635137D01*
X89431947Y-35298459D01*
X89229488Y-34995456D01*
X88971805Y-34737773D01*
X88668802Y-34535314D01*
X88332124Y-34395857D01*
X87974708Y-34324762D01*
X87610290Y-34324762D01*
X87252874Y-34395857D01*
X86916196Y-34535314D01*
X86613193Y-34737773D01*
X86355510Y-34995456D01*
X86153051Y-35298459D01*
X86013594Y-35635137D01*
X85942499Y-35992553D01*
X85942499Y-36356971D01*
X86013594Y-36714387D01*
X86153051Y-37051065D01*
X86355510Y-37354068D01*
X86613193Y-37611751D01*
X86916196Y-37814210D01*
X87183091Y-37924762D01*
X86916196Y-38035314D01*
X86613193Y-38237773D01*
X86355510Y-38495456D01*
X86153051Y-38798459D01*
X86013594Y-39135137D01*
X85942499Y-39492553D01*
X85942499Y-39856971D01*
X86013594Y-40214387D01*
X86153051Y-40551065D01*
X86355510Y-40854068D01*
X86613193Y-41111751D01*
X86916196Y-41314210D01*
X86937583Y-41323069D01*
X86292499Y-41323069D01*
X86223887Y-41329827D01*
X86157912Y-41349840D01*
X86097109Y-41382340D01*
X86043814Y-41426077D01*
X86000077Y-41479372D01*
X85967577Y-41540175D01*
X85947564Y-41606150D01*
X85940806Y-41674762D01*
X69044193Y-41674762D01*
X69037435Y-41606150D01*
X69017422Y-41540175D01*
X68984922Y-41479372D01*
X68941185Y-41426077D01*
X68887890Y-41382340D01*
X68827087Y-41349840D01*
X68761112Y-41329827D01*
X68692500Y-41323069D01*
X68047416Y-41323069D01*
X68068803Y-41314210D01*
X68371806Y-41111751D01*
X68629489Y-40854068D01*
X68831948Y-40551065D01*
X68971405Y-40214387D01*
X69042500Y-39856971D01*
X69042500Y-39492553D01*
X68971405Y-39135137D01*
X68831948Y-38798459D01*
X68629489Y-38495456D01*
X68371806Y-38237773D01*
X68068803Y-38035314D01*
X67801908Y-37924762D01*
X68068803Y-37814210D01*
X68371806Y-37611751D01*
X68629489Y-37354068D01*
X68831948Y-37051065D01*
X68971405Y-36714387D01*
X69042500Y-36356971D01*
X69042500Y-35992553D01*
X68971405Y-35635137D01*
X68831948Y-35298459D01*
X68629489Y-34995456D01*
X68371806Y-34737773D01*
X68068803Y-34535314D01*
X67732125Y-34395857D01*
X67374709Y-34324762D01*
X67010291Y-34324762D01*
X66652875Y-34395857D01*
X66316197Y-34535314D01*
X66013194Y-34737773D01*
X65755511Y-34995456D01*
X65553052Y-35298459D01*
X65413595Y-35635137D01*
X65342500Y-35992553D01*
X65342500Y-36356971D01*
X65413595Y-36714387D01*
X65553052Y-37051065D01*
X65755511Y-37354068D01*
X66013194Y-37611751D01*
X66316197Y-37814210D01*
X66583092Y-37924762D01*
X66316197Y-38035314D01*
X66013194Y-38237773D01*
X65755511Y-38495456D01*
X65553052Y-38798459D01*
X65413595Y-39135137D01*
X65342500Y-39492553D01*
X65342500Y-39856971D01*
X65413595Y-40214387D01*
X65553052Y-40551065D01*
X65755511Y-40854068D01*
X66013194Y-41111751D01*
X66316197Y-41314210D01*
X66337584Y-41323069D01*
X65692500Y-41323069D01*
X65623888Y-41329827D01*
X65557913Y-41349840D01*
X65497110Y-41382340D01*
X65443815Y-41426077D01*
X65400078Y-41479372D01*
X65367578Y-41540175D01*
X65347565Y-41606150D01*
X65340807Y-41674762D01*
X48444192Y-41674762D01*
X48437434Y-41606150D01*
X48417421Y-41540175D01*
X48384921Y-41479372D01*
X48341184Y-41426077D01*
X48287889Y-41382340D01*
X48227086Y-41349840D01*
X48161111Y-41329827D01*
X48092499Y-41323069D01*
X47447415Y-41323069D01*
X47468802Y-41314210D01*
X47771805Y-41111751D01*
X48029488Y-40854068D01*
X48231947Y-40551065D01*
X48371404Y-40214387D01*
X48442499Y-39856971D01*
X48442499Y-39492553D01*
X48371404Y-39135137D01*
X48231947Y-38798459D01*
X48029488Y-38495456D01*
X47771805Y-38237773D01*
X47468802Y-38035314D01*
X47201907Y-37924762D01*
X47468802Y-37814210D01*
X47771805Y-37611751D01*
X48029488Y-37354068D01*
X48231947Y-37051065D01*
X48371404Y-36714387D01*
X48442499Y-36356971D01*
X48442499Y-35992553D01*
X48371404Y-35635137D01*
X48231947Y-35298459D01*
X48029488Y-34995456D01*
X47771805Y-34737773D01*
X47468802Y-34535314D01*
X47132124Y-34395857D01*
X46774708Y-34324762D01*
X46410290Y-34324762D01*
X46052874Y-34395857D01*
X45716196Y-34535314D01*
X45413193Y-34737773D01*
X45155510Y-34995456D01*
X44953051Y-35298459D01*
X44813594Y-35635137D01*
X44742499Y-35992553D01*
X44742499Y-36356971D01*
X44813594Y-36714387D01*
X44953051Y-37051065D01*
X45155510Y-37354068D01*
X45413193Y-37611751D01*
X45716196Y-37814210D01*
X45983091Y-37924762D01*
X45716196Y-38035314D01*
X45413193Y-38237773D01*
X45155510Y-38495456D01*
X44953051Y-38798459D01*
X44813594Y-39135137D01*
X44742499Y-39492553D01*
X44742499Y-39856971D01*
X44813594Y-40214387D01*
X44953051Y-40551065D01*
X45155510Y-40854068D01*
X45413193Y-41111751D01*
X45716196Y-41314210D01*
X45737583Y-41323069D01*
X45092499Y-41323069D01*
X45023887Y-41329827D01*
X44957912Y-41349840D01*
X44897109Y-41382340D01*
X44843814Y-41426077D01*
X44800077Y-41479372D01*
X44767577Y-41540175D01*
X44747564Y-41606150D01*
X44740806Y-41674762D01*
X27844193Y-41674762D01*
X27837435Y-41606150D01*
X27817422Y-41540175D01*
X27784922Y-41479372D01*
X27741185Y-41426077D01*
X27687890Y-41382340D01*
X27627087Y-41349840D01*
X27561112Y-41329827D01*
X27492500Y-41323069D01*
X26847416Y-41323069D01*
X26868803Y-41314210D01*
X27171806Y-41111751D01*
X27429489Y-40854068D01*
X27631948Y-40551065D01*
X27771405Y-40214387D01*
X27842500Y-39856971D01*
X27842500Y-39492553D01*
X27771405Y-39135137D01*
X27631948Y-38798459D01*
X27429489Y-38495456D01*
X27171806Y-38237773D01*
X26868803Y-38035314D01*
X26601908Y-37924762D01*
X26868803Y-37814210D01*
X27171806Y-37611751D01*
X27429489Y-37354068D01*
X27631948Y-37051065D01*
X27771405Y-36714387D01*
X27842500Y-36356971D01*
X27842500Y-35992553D01*
X27771405Y-35635137D01*
X27631948Y-35298459D01*
X27429489Y-34995456D01*
X27171806Y-34737773D01*
X26868803Y-34535314D01*
X26532125Y-34395857D01*
X26174709Y-34324762D01*
X25810291Y-34324762D01*
X25452875Y-34395857D01*
X25116197Y-34535314D01*
X24813194Y-34737773D01*
X24555511Y-34995456D01*
X24353052Y-35298459D01*
X24213595Y-35635137D01*
X24142500Y-35992553D01*
X24142500Y-36356971D01*
X24213595Y-36714387D01*
X24353052Y-37051065D01*
X24555511Y-37354068D01*
X24813194Y-37611751D01*
X25116197Y-37814210D01*
X25383092Y-37924762D01*
X25116197Y-38035314D01*
X24813194Y-38237773D01*
X24555511Y-38495456D01*
X24353052Y-38798459D01*
X24213595Y-39135137D01*
X24142500Y-39492553D01*
X24142500Y-39856971D01*
X24213595Y-40214387D01*
X24353052Y-40551065D01*
X24555511Y-40854068D01*
X24813194Y-41111751D01*
X25116197Y-41314210D01*
X25137584Y-41323069D01*
X24492500Y-41323069D01*
X24423888Y-41329827D01*
X24357913Y-41349840D01*
X24297110Y-41382340D01*
X24243815Y-41426077D01*
X24200078Y-41479372D01*
X24167578Y-41540175D01*
X24147565Y-41606150D01*
X24140807Y-41674762D01*
X1000000Y-41674762D01*
X1000000Y-33071346D01*
X29942500Y-33071346D01*
X29942500Y-33278178D01*
X29982850Y-33481036D01*
X30062002Y-33672124D01*
X30176911Y-33844098D01*
X30323164Y-33990351D01*
X30495138Y-34105260D01*
X30686226Y-34184412D01*
X30889084Y-34224762D01*
X31095916Y-34224762D01*
X31298774Y-34184412D01*
X31489862Y-34105260D01*
X31661836Y-33990351D01*
X31808089Y-33844098D01*
X31922998Y-33672124D01*
X32002150Y-33481036D01*
X32042500Y-33278178D01*
X32042500Y-33071346D01*
X50542499Y-33071346D01*
X50542499Y-33278178D01*
X50582849Y-33481036D01*
X50662001Y-33672124D01*
X50776910Y-33844098D01*
X50923163Y-33990351D01*
X51095137Y-34105260D01*
X51286225Y-34184412D01*
X51489083Y-34224762D01*
X51695915Y-34224762D01*
X51898773Y-34184412D01*
X52089861Y-34105260D01*
X52261835Y-33990351D01*
X52408088Y-33844098D01*
X52522997Y-33672124D01*
X52602149Y-33481036D01*
X52642499Y-33278178D01*
X52642499Y-33071346D01*
X71142500Y-33071346D01*
X71142500Y-33278178D01*
X71182850Y-33481036D01*
X71262002Y-33672124D01*
X71376911Y-33844098D01*
X71523164Y-33990351D01*
X71695138Y-34105260D01*
X71886226Y-34184412D01*
X72089084Y-34224762D01*
X72295916Y-34224762D01*
X72498774Y-34184412D01*
X72689862Y-34105260D01*
X72861836Y-33990351D01*
X73008089Y-33844098D01*
X73122998Y-33672124D01*
X73202150Y-33481036D01*
X73242500Y-33278178D01*
X73242500Y-33071346D01*
X91742499Y-33071346D01*
X91742499Y-33278178D01*
X91782849Y-33481036D01*
X91862001Y-33672124D01*
X91976910Y-33844098D01*
X92123163Y-33990351D01*
X92295137Y-34105260D01*
X92486225Y-34184412D01*
X92689083Y-34224762D01*
X92895915Y-34224762D01*
X93098773Y-34184412D01*
X93289861Y-34105260D01*
X93461835Y-33990351D01*
X93608088Y-33844098D01*
X93722997Y-33672124D01*
X93802149Y-33481036D01*
X93842499Y-33278178D01*
X93842499Y-33071346D01*
X93802149Y-32868488D01*
X93722997Y-32677400D01*
X93608088Y-32505426D01*
X93461835Y-32359173D01*
X93289861Y-32244264D01*
X93098773Y-32165112D01*
X92895915Y-32124762D01*
X92689083Y-32124762D01*
X92486225Y-32165112D01*
X92295137Y-32244264D01*
X92123163Y-32359173D01*
X91976910Y-32505426D01*
X91862001Y-32677400D01*
X91782849Y-32868488D01*
X91742499Y-33071346D01*
X73242500Y-33071346D01*
X73202150Y-32868488D01*
X73122998Y-32677400D01*
X73008089Y-32505426D01*
X72861836Y-32359173D01*
X72689862Y-32244264D01*
X72498774Y-32165112D01*
X72295916Y-32124762D01*
X72089084Y-32124762D01*
X71886226Y-32165112D01*
X71695138Y-32244264D01*
X71523164Y-32359173D01*
X71376911Y-32505426D01*
X71262002Y-32677400D01*
X71182850Y-32868488D01*
X71142500Y-33071346D01*
X52642499Y-33071346D01*
X52602149Y-32868488D01*
X52522997Y-32677400D01*
X52408088Y-32505426D01*
X52261835Y-32359173D01*
X52089861Y-32244264D01*
X51898773Y-32165112D01*
X51695915Y-32124762D01*
X51489083Y-32124762D01*
X51286225Y-32165112D01*
X51095137Y-32244264D01*
X50923163Y-32359173D01*
X50776910Y-32505426D01*
X50662001Y-32677400D01*
X50582849Y-32868488D01*
X50542499Y-33071346D01*
X32042500Y-33071346D01*
X32002150Y-32868488D01*
X31922998Y-32677400D01*
X31808089Y-32505426D01*
X31661836Y-32359173D01*
X31489862Y-32244264D01*
X31298774Y-32165112D01*
X31095916Y-32124762D01*
X30889084Y-32124762D01*
X30686226Y-32165112D01*
X30495138Y-32244264D01*
X30323164Y-32359173D01*
X30176911Y-32505426D01*
X30062002Y-32677400D01*
X29982850Y-32868488D01*
X29942500Y-33071346D01*
X1000000Y-33071346D01*
X1000000Y-5043480D01*
X3588094Y-5043480D01*
X3588094Y-5171518D01*
X3613073Y-5297097D01*
X3662072Y-5415389D01*
X3733206Y-5521850D01*
X3823743Y-5612387D01*
X3930204Y-5683521D01*
X4048496Y-5732520D01*
X4174075Y-5757499D01*
X4302113Y-5757499D01*
X4427692Y-5732520D01*
X4545984Y-5683521D01*
X4652445Y-5612387D01*
X4742982Y-5521850D01*
X4814116Y-5415389D01*
X4863115Y-5297097D01*
X4888094Y-5171518D01*
X4888094Y-5043480D01*
X6688095Y-5043480D01*
X6688095Y-5171518D01*
X6713074Y-5297097D01*
X6762073Y-5415389D01*
X6833207Y-5521850D01*
X6923744Y-5612387D01*
X7030205Y-5683521D01*
X7148497Y-5732520D01*
X7274076Y-5757499D01*
X7402114Y-5757499D01*
X7527693Y-5732520D01*
X7645985Y-5683521D01*
X7752446Y-5612387D01*
X7842983Y-5521850D01*
X7914117Y-5415389D01*
X7963116Y-5297097D01*
X7988095Y-5171518D01*
X7988095Y-5043480D01*
X31740474Y-5043480D01*
X31740474Y-5171518D01*
X31765453Y-5297097D01*
X31814452Y-5415389D01*
X31885586Y-5521850D01*
X31976123Y-5612387D01*
X32082584Y-5683521D01*
X32200876Y-5732520D01*
X32326455Y-5757499D01*
X32454493Y-5757499D01*
X32580072Y-5732520D01*
X32698364Y-5683521D01*
X32804825Y-5612387D01*
X32895362Y-5521850D01*
X32966496Y-5415389D01*
X33015495Y-5297097D01*
X33040474Y-5171518D01*
X33040474Y-5043480D01*
X34840475Y-5043480D01*
X34840475Y-5171518D01*
X34865454Y-5297097D01*
X34914453Y-5415389D01*
X34985587Y-5521850D01*
X35076124Y-5612387D01*
X35182585Y-5683521D01*
X35300877Y-5732520D01*
X35426456Y-5757499D01*
X35554494Y-5757499D01*
X35680073Y-5732520D01*
X35798365Y-5683521D01*
X35904826Y-5612387D01*
X35995363Y-5521850D01*
X36066497Y-5415389D01*
X36115496Y-5297097D01*
X36140475Y-5171518D01*
X36140475Y-5043480D01*
X59892854Y-5043480D01*
X59892854Y-5171518D01*
X59917833Y-5297097D01*
X59966832Y-5415389D01*
X60037966Y-5521850D01*
X60128503Y-5612387D01*
X60234964Y-5683521D01*
X60353256Y-5732520D01*
X60478835Y-5757499D01*
X60606873Y-5757499D01*
X60732452Y-5732520D01*
X60850744Y-5683521D01*
X60957205Y-5612387D01*
X61047742Y-5521850D01*
X61118876Y-5415389D01*
X61167875Y-5297097D01*
X61192854Y-5171518D01*
X61192854Y-5043480D01*
X62992854Y-5043480D01*
X62992854Y-5171518D01*
X63017833Y-5297097D01*
X63066832Y-5415389D01*
X63137966Y-5521850D01*
X63228503Y-5612387D01*
X63334964Y-5683521D01*
X63453256Y-5732520D01*
X63578835Y-5757499D01*
X63706873Y-5757499D01*
X63832452Y-5732520D01*
X63950744Y-5683521D01*
X64057205Y-5612387D01*
X64147742Y-5521850D01*
X64218876Y-5415389D01*
X64267875Y-5297097D01*
X64292854Y-5171518D01*
X64292854Y-5043480D01*
X88045234Y-5043480D01*
X88045234Y-5171518D01*
X88070213Y-5297097D01*
X88119212Y-5415389D01*
X88190346Y-5521850D01*
X88280883Y-5612387D01*
X88387344Y-5683521D01*
X88505636Y-5732520D01*
X88631215Y-5757499D01*
X88759253Y-5757499D01*
X88884832Y-5732520D01*
X89003124Y-5683521D01*
X89109585Y-5612387D01*
X89200122Y-5521850D01*
X89271256Y-5415389D01*
X89320255Y-5297097D01*
X89345234Y-5171518D01*
X89345234Y-5043480D01*
X91145234Y-5043480D01*
X91145234Y-5171518D01*
X91170213Y-5297097D01*
X91219212Y-5415389D01*
X91290346Y-5521850D01*
X91380883Y-5612387D01*
X91487344Y-5683521D01*
X91605636Y-5732520D01*
X91731215Y-5757499D01*
X91859253Y-5757499D01*
X91984832Y-5732520D01*
X92103124Y-5683521D01*
X92209585Y-5612387D01*
X92300122Y-5521850D01*
X92371256Y-5415389D01*
X92420255Y-5297097D01*
X92445234Y-5171518D01*
X92445234Y-5043480D01*
X116197614Y-5043480D01*
X116197614Y-5171518D01*
X116222593Y-5297097D01*
X116271592Y-5415389D01*
X116342726Y-5521850D01*
X116433263Y-5612387D01*
X116539724Y-5683521D01*
X116658016Y-5732520D01*
X116783595Y-5757499D01*
X116911633Y-5757499D01*
X117037212Y-5732520D01*
X117155504Y-5683521D01*
X117261965Y-5612387D01*
X117352502Y-5521850D01*
X117423636Y-5415389D01*
X117472635Y-5297097D01*
X117497614Y-5171518D01*
X117497614Y-5043480D01*
X119297614Y-5043480D01*
X119297614Y-5171518D01*
X119322593Y-5297097D01*
X119371592Y-5415389D01*
X119442726Y-5521850D01*
X119533263Y-5612387D01*
X119639724Y-5683521D01*
X119758016Y-5732520D01*
X119883595Y-5757499D01*
X120011633Y-5757499D01*
X120137212Y-5732520D01*
X120255504Y-5683521D01*
X120361965Y-5612387D01*
X120452502Y-5521850D01*
X120523636Y-5415389D01*
X120572635Y-5297097D01*
X120597614Y-5171518D01*
X120597614Y-5043480D01*
X120572635Y-4917901D01*
X120523636Y-4799609D01*
X120452502Y-4693148D01*
X120361965Y-4602611D01*
X120255504Y-4531477D01*
X120137212Y-4482478D01*
X120011633Y-4457499D01*
X119883595Y-4457499D01*
X119758016Y-4482478D01*
X119639724Y-4531477D01*
X119533263Y-4602611D01*
X119442726Y-4693148D01*
X119371592Y-4799609D01*
X119322593Y-4917901D01*
X119297614Y-5043480D01*
X117497614Y-5043480D01*
X117472635Y-4917901D01*
X117423636Y-4799609D01*
X117352502Y-4693148D01*
X117261965Y-4602611D01*
X117155504Y-4531477D01*
X117037212Y-4482478D01*
X116911633Y-4457499D01*
X116783595Y-4457499D01*
X116658016Y-4482478D01*
X116539724Y-4531477D01*
X116433263Y-4602611D01*
X116342726Y-4693148D01*
X116271592Y-4799609D01*
X116222593Y-4917901D01*
X116197614Y-5043480D01*
X92445234Y-5043480D01*
X92420255Y-4917901D01*
X92371256Y-4799609D01*
X92300122Y-4693148D01*
X92209585Y-4602611D01*
X92103124Y-4531477D01*
X91984832Y-4482478D01*
X91859253Y-4457499D01*
X91731215Y-4457499D01*
X91605636Y-4482478D01*
X91487344Y-4531477D01*
X91380883Y-4602611D01*
X91290346Y-4693148D01*
X91219212Y-4799609D01*
X91170213Y-4917901D01*
X91145234Y-5043480D01*
X89345234Y-5043480D01*
X89320255Y-4917901D01*
X89271256Y-4799609D01*
X89200122Y-4693148D01*
X89109585Y-4602611D01*
X89003124Y-4531477D01*
X88884832Y-4482478D01*
X88759253Y-4457499D01*
X88631215Y-4457499D01*
X88505636Y-4482478D01*
X88387344Y-4531477D01*
X88280883Y-4602611D01*
X88190346Y-4693148D01*
X88119212Y-4799609D01*
X88070213Y-4917901D01*
X88045234Y-5043480D01*
X64292854Y-5043480D01*
X64267875Y-4917901D01*
X64218876Y-4799609D01*
X64147742Y-4693148D01*
X64057205Y-4602611D01*
X63950744Y-4531477D01*
X63832452Y-4482478D01*
X63706873Y-4457499D01*
X63578835Y-4457499D01*
X63453256Y-4482478D01*
X63334964Y-4531477D01*
X63228503Y-4602611D01*
X63137966Y-4693148D01*
X63066832Y-4799609D01*
X63017833Y-4917901D01*
X62992854Y-5043480D01*
X61192854Y-5043480D01*
X61167875Y-4917901D01*
X61118876Y-4799609D01*
X61047742Y-4693148D01*
X60957205Y-4602611D01*
X60850744Y-4531477D01*
X60732452Y-4482478D01*
X60606873Y-4457499D01*
X60478835Y-4457499D01*
X60353256Y-4482478D01*
X60234964Y-4531477D01*
X60128503Y-4602611D01*
X60037966Y-4693148D01*
X59966832Y-4799609D01*
X59917833Y-4917901D01*
X59892854Y-5043480D01*
X36140475Y-5043480D01*
X36115496Y-4917901D01*
X36066497Y-4799609D01*
X35995363Y-4693148D01*
X35904826Y-4602611D01*
X35798365Y-4531477D01*
X35680073Y-4482478D01*
X35554494Y-4457499D01*
X35426456Y-4457499D01*
X35300877Y-4482478D01*
X35182585Y-4531477D01*
X35076124Y-4602611D01*
X34985587Y-4693148D01*
X34914453Y-4799609D01*
X34865454Y-4917901D01*
X34840475Y-5043480D01*
X33040474Y-5043480D01*
X33015495Y-4917901D01*
X32966496Y-4799609D01*
X32895362Y-4693148D01*
X32804825Y-4602611D01*
X32698364Y-4531477D01*
X32580072Y-4482478D01*
X32454493Y-4457499D01*
X32326455Y-4457499D01*
X32200876Y-4482478D01*
X32082584Y-4531477D01*
X31976123Y-4602611D01*
X31885586Y-4693148D01*
X31814452Y-4799609D01*
X31765453Y-4917901D01*
X31740474Y-5043480D01*
X7988095Y-5043480D01*
X7963116Y-4917901D01*
X7914117Y-4799609D01*
X7842983Y-4693148D01*
X7752446Y-4602611D01*
X7645985Y-4531477D01*
X7527693Y-4482478D01*
X7402114Y-4457499D01*
X7274076Y-4457499D01*
X7148497Y-4482478D01*
X7030205Y-4531477D01*
X6923744Y-4602611D01*
X6833207Y-4693148D01*
X6762073Y-4799609D01*
X6713074Y-4917901D01*
X6688095Y-5043480D01*
X4888094Y-5043480D01*
X4863115Y-4917901D01*
X4814116Y-4799609D01*
X4742982Y-4693148D01*
X4652445Y-4602611D01*
X4545984Y-4531477D01*
X4427692Y-4482478D01*
X4302113Y-4457499D01*
X4174075Y-4457499D01*
X4048496Y-4482478D01*
X3930204Y-4531477D01*
X3823743Y-4602611D01*
X3733206Y-4693148D01*
X3662072Y-4799609D01*
X3613073Y-4917901D01*
X3588094Y-5043480D01*
X1000000Y-5043480D01*
X1000000Y-3778480D01*
X144008089Y-3778480D01*
X144008089Y-3906518D01*
X144033068Y-4032097D01*
X144082067Y-4150389D01*
X144153201Y-4256850D01*
X144243738Y-4347387D01*
X144350199Y-4418521D01*
X144468491Y-4467520D01*
X144594070Y-4492499D01*
X144722108Y-4492499D01*
X144847687Y-4467520D01*
X144965979Y-4418521D01*
X145072440Y-4347387D01*
X145162977Y-4256850D01*
X145234111Y-4150389D01*
X145283110Y-4032097D01*
X145308089Y-3906518D01*
X145308089Y-3778480D01*
X145283110Y-3652901D01*
X145234111Y-3534609D01*
X145162977Y-3428148D01*
X145072440Y-3337611D01*
X144965979Y-3266477D01*
X144847687Y-3217478D01*
X144722108Y-3192499D01*
X144594070Y-3192499D01*
X144468491Y-3217478D01*
X144350199Y-3266477D01*
X144243738Y-3337611D01*
X144153201Y-3428148D01*
X144082067Y-3534609D01*
X144033068Y-3652901D01*
X144008089Y-3778480D01*
X1000000Y-3778480D01*
X1000000Y-1000000D01*
X189000000Y-1000000D01*
X189000000Y-144000000D01*
G37*
G04 #@! TD.AperFunction*
G04 #@! TD*
D20*
X7338095Y-5107499D03*
X35490475Y-5107499D03*
X63642854Y-5107499D03*
X91795234Y-5107499D03*
X119947614Y-5107499D03*
X174818689Y-118429292D03*
X27134999Y-123466554D03*
X112078332Y-77539764D03*
X112078332Y-78809764D03*
X150236637Y-47066171D03*
X156001318Y-47319257D03*
X159205498Y-47066171D03*
X165022029Y-46795000D03*
X9682500Y-123054053D03*
X144658089Y-3842499D03*
X29752143Y-104752268D03*
X55771191Y-104752268D03*
X81790239Y-104752268D03*
X107809287Y-104752268D03*
X133828335Y-104752268D03*
X159847383Y-104752268D03*
X22661666Y-111257030D03*
X48680715Y-111257030D03*
X74699763Y-111257030D03*
X100718811Y-111257030D03*
X126737859Y-111257030D03*
X4238094Y-5107499D03*
X32390474Y-5107499D03*
X60542854Y-5107499D03*
X88695234Y-5107499D03*
X116847614Y-5107499D03*
X172918690Y-118429292D03*
X27985000Y-122566554D03*
X108978332Y-78809764D03*
X147511529Y-47031969D03*
X153358513Y-47049070D03*
X161746739Y-46516539D03*
X167620106Y-46795000D03*
X7782500Y-123054053D03*
X30602143Y-103852268D03*
X56621191Y-103852268D03*
X82640239Y-103852268D03*
X108659287Y-103852268D03*
X134678335Y-103852268D03*
X160697383Y-103852268D03*
X23511667Y-110357030D03*
X49530715Y-110357030D03*
X75549763Y-110357030D03*
X101568811Y-110357030D03*
X127587859Y-110357030D03*
X145689998Y-79979763D03*
X143589999Y-77029763D03*
X142139998Y-77979763D03*
X34572499Y-122995720D03*
X139697264Y-109032268D03*
X140606546Y-108233529D03*
X141872264Y-108209543D03*
X142709283Y-109319768D03*
X141309764Y-110194768D03*
X141687981Y-112156006D03*
X140422264Y-112179992D03*
X140098689Y-116707863D03*
X145058689Y-116707863D03*
X101477381Y-87772266D03*
X3802500Y-64804762D03*
X3802500Y-73454762D03*
X822500Y-64804762D03*
X822500Y-73454762D03*
X842500Y-66154762D03*
X842500Y-72104762D03*
X111053117Y-96572268D03*
X57206788Y-47317620D03*
X10117499Y-71104762D03*
X154978690Y-117041197D03*
X159938689Y-117254053D03*
X38992499Y-123400482D03*
X164898690Y-116779292D03*
X43412499Y-123352863D03*
X148884903Y-94454767D03*
X148884903Y-98554767D03*
X155984903Y-94454767D03*
X155984903Y-98554767D03*
X1550000Y-30319763D03*
X84193334Y-117396554D03*
X120787501Y-49799762D03*
X127319831Y-49733810D03*
X89412382Y-117396554D03*
X134687502Y-49799762D03*
X141219832Y-49733810D03*
X94631430Y-117396554D03*
X148587502Y-49799762D03*
X155119832Y-49733810D03*
X99850478Y-117396554D03*
X162487502Y-49799762D03*
X169019832Y-49733810D03*
X62310714Y-117146554D03*
X67098214Y-116273339D03*
X131881903Y-79129764D03*
X126438808Y-77322263D03*
X115116667Y-88372266D03*
X123573810Y-88372266D03*
X89637640Y-96272268D03*
X97142402Y-96272268D03*
X132030953Y-88372266D03*
X140488096Y-88372266D03*
X19928334Y-123466554D03*
X110340955Y-117396554D03*
X162584903Y-95398815D03*
X169284903Y-95398815D03*
X107862618Y-77539764D03*
X24861667Y-123466554D03*
X120493335Y-117396554D03*
X175984903Y-95398815D03*
X177149760Y-77539764D03*
X29795000Y-123466554D03*
X130645715Y-117396554D03*
X5792500Y-102738815D03*
X12492500Y-102738815D03*
X118078332Y-77539764D03*
X150071068Y-44595000D03*
X155871068Y-44595000D03*
X161671068Y-44595000D03*
X167471068Y-44595000D03*
X14642499Y-123054053D03*
X65596090Y-41233784D03*
X181562500Y-17021427D03*
X19402619Y-104752268D03*
X6728572Y-30447502D03*
X32412143Y-104752268D03*
X150273812Y-110567030D03*
X73929830Y-21134047D03*
X175241307Y-88052266D03*
X72921669Y-41077501D03*
X21642858Y-30447502D03*
X45421667Y-104752268D03*
X36557144Y-30447502D03*
X5107499Y-91279765D03*
X3655168Y-91213813D03*
X58431191Y-104752268D03*
X156635717Y-110567030D03*
X82829830Y-21134047D03*
X80283573Y-41077501D03*
X51471430Y-30447502D03*
X71440715Y-104752268D03*
X66385716Y-30447502D03*
X14007499Y-91279765D03*
X12555168Y-91213813D03*
X84450239Y-104752268D03*
X162997622Y-110567030D03*
X91729830Y-21134047D03*
X7057500Y-95952268D03*
X85608110Y-42073821D03*
X81300002Y-30447502D03*
X97459763Y-104752268D03*
X96214288Y-30447502D03*
X22907499Y-91279765D03*
X21455168Y-91213813D03*
X110469287Y-104752268D03*
X169359527Y-110567030D03*
X100629830Y-21134047D03*
X15197501Y-95952268D03*
X95007383Y-41077501D03*
X111128574Y-30447502D03*
X123478811Y-104752268D03*
X126042860Y-30447502D03*
X31807499Y-91279765D03*
X30355168Y-91213813D03*
X136488335Y-104752268D03*
X175721432Y-110567030D03*
X109529830Y-21134047D03*
X23337504Y-95952268D03*
X102369289Y-41077501D03*
X140957146Y-30447502D03*
X149497859Y-104752268D03*
X155871432Y-30447502D03*
X40707499Y-91279765D03*
X39255168Y-91213813D03*
X162507383Y-104752268D03*
X182083337Y-110567030D03*
X118429830Y-21134047D03*
X31477506Y-95952268D03*
X109731193Y-41077501D03*
X170785718Y-30447502D03*
X175516907Y-104752268D03*
X49607499Y-91279765D03*
X48155168Y-91213813D03*
X819048Y-116976554D03*
X127329830Y-21134047D03*
X39617507Y-95952268D03*
X117093099Y-41077501D03*
X14185715Y-35407501D03*
X12312142Y-111257030D03*
X29100001Y-35407501D03*
X58507499Y-91279765D03*
X57055168Y-91213813D03*
X25321667Y-111257030D03*
X7030953Y-116976554D03*
X136229830Y-21134047D03*
X47757510Y-95952268D03*
X124455003Y-41077501D03*
X44014287Y-35407501D03*
X38331191Y-111257030D03*
X58928573Y-35407501D03*
X67407499Y-91279765D03*
X65955168Y-91213813D03*
X51340715Y-111257030D03*
X13392858Y-116976554D03*
X145129830Y-21134047D03*
X55897512Y-95952268D03*
X131816908Y-41077501D03*
X73842859Y-35407501D03*
X64350239Y-111257030D03*
X87555355Y-33979529D03*
X76307500Y-91279765D03*
X74855169Y-91213813D03*
X77359763Y-111257030D03*
X19754762Y-116976554D03*
X154029830Y-21134047D03*
X64037514Y-95952268D03*
X139178814Y-41077501D03*
X103671431Y-35407501D03*
X90369287Y-111257030D03*
X118585717Y-35407501D03*
X85207500Y-91279765D03*
X83755169Y-91213813D03*
X103378811Y-111257030D03*
X26116667Y-116976554D03*
X162929830Y-21134047D03*
X72177516Y-95952268D03*
X146540719Y-41077501D03*
X133500002Y-35407501D03*
X116388335Y-111257030D03*
X148414289Y-35407501D03*
X94107500Y-91279765D03*
X92655169Y-91213813D03*
X129397858Y-111257030D03*
X32478572Y-116976554D03*
X171829830Y-21134047D03*
X82717518Y-95952268D03*
X144889998Y-80929763D03*
X142239998Y-76767327D03*
X32872498Y-122995720D03*
X139400943Y-107844899D03*
X143055621Y-110530391D03*
X142900772Y-111904500D03*
X139547264Y-111357268D03*
X138198690Y-116707863D03*
X143158690Y-116707863D03*
X2802500Y-66204762D03*
X2802500Y-74854762D03*
X820960Y-67380433D03*
X820960Y-70879090D03*
X109503117Y-98122267D03*
X57206788Y-45417620D03*
X7017498Y-71104762D03*
X153078690Y-117041197D03*
X158038690Y-117254053D03*
X37292499Y-123400482D03*
X162998690Y-116779292D03*
X41712499Y-123352863D03*
X147884903Y-95504767D03*
X147884903Y-99604767D03*
X154984903Y-95504767D03*
X154984903Y-99604767D03*
X996320Y-29132394D03*
X83193334Y-118446553D03*
X120787501Y-47599762D03*
X127319831Y-47665713D03*
X88412382Y-118446553D03*
X134687502Y-47599762D03*
X141219832Y-47665713D03*
X93631430Y-118446553D03*
X156487502Y-48699762D03*
X98850478Y-118446553D03*
X162487502Y-47599762D03*
X169019832Y-47665713D03*
X61260715Y-118446553D03*
X64998215Y-116273339D03*
X19078334Y-124366554D03*
X109390955Y-118446553D03*
X160284903Y-95398815D03*
X166984903Y-95398815D03*
X104762618Y-77539764D03*
X24011667Y-124366554D03*
X119543335Y-118446553D03*
X173684903Y-95398815D03*
X174049760Y-77539764D03*
X28945000Y-124366554D03*
X129695715Y-118446553D03*
X3492499Y-102738815D03*
X10192499Y-102738815D03*
X114978332Y-77539764D03*
X147771068Y-44595000D03*
X153571068Y-44595000D03*
X159371068Y-44595000D03*
X165171068Y-44595000D03*
X12742498Y-123054053D03*
X64709764Y-40177501D03*
X179662500Y-17021427D03*
X18552619Y-105652268D03*
X5778572Y-31497502D03*
X31562143Y-105652268D03*
X147973811Y-110567030D03*
X73929830Y-19065950D03*
X172841308Y-88052266D03*
X72071669Y-41977501D03*
X20692858Y-31497502D03*
X44571667Y-105652268D03*
X35607144Y-31497502D03*
X5107499Y-89079765D03*
X3655168Y-89145716D03*
X57581191Y-105652268D03*
X154335717Y-110567030D03*
X82829830Y-19065950D03*
X79433574Y-41977501D03*
X50521430Y-31497502D03*
X70590715Y-105652268D03*
X65435716Y-31497502D03*
X14007499Y-89079765D03*
X12555168Y-89145716D03*
X83600239Y-105652268D03*
X160697622Y-110567030D03*
X91729830Y-19065950D03*
X85608110Y-40081180D03*
X80350002Y-31497502D03*
X96609763Y-105652268D03*
X95264288Y-31497502D03*
X22907499Y-89079765D03*
X21455168Y-89145716D03*
X109619287Y-105652268D03*
X167059527Y-110567030D03*
X100629830Y-19065950D03*
X94157384Y-41977501D03*
X110178574Y-31497502D03*
X122628811Y-105652268D03*
X125092860Y-31497502D03*
X31807499Y-89079765D03*
X30355168Y-89145716D03*
X135638335Y-105652268D03*
X173421431Y-110567030D03*
X109529830Y-19065950D03*
X101519289Y-41977501D03*
X140007146Y-31497502D03*
X148647859Y-105652268D03*
X154921432Y-31497502D03*
X40707499Y-89079765D03*
X39255168Y-89145716D03*
X161657383Y-105652268D03*
X179783337Y-110567030D03*
X118429830Y-19065950D03*
X108881194Y-41977501D03*
X169835718Y-31497502D03*
X174666907Y-105652268D03*
X49607499Y-89079765D03*
X48155168Y-89145716D03*
X127329830Y-19065950D03*
X116243099Y-41977501D03*
X13235715Y-36457501D03*
X11462143Y-112157030D03*
X28150001Y-34357501D03*
X58507499Y-89079765D03*
X57055168Y-89145716D03*
X24471667Y-112157030D03*
X4730952Y-116976554D03*
X136229830Y-19065950D03*
X123605004Y-41977501D03*
X43064287Y-36457501D03*
X37481191Y-112157030D03*
X57978573Y-36457501D03*
X67407499Y-89079765D03*
X65955168Y-89145716D03*
X50490715Y-112157030D03*
X11092858Y-116976554D03*
X145129830Y-19065950D03*
X130966908Y-41977501D03*
X72892859Y-36457501D03*
X63500239Y-112157030D03*
X88803465Y-34220132D03*
X76307500Y-89079765D03*
X74855169Y-89145716D03*
X76509763Y-112157030D03*
X17454763Y-116976554D03*
X154029830Y-19065950D03*
X138328814Y-41977501D03*
X102721431Y-36457501D03*
X89519287Y-112157030D03*
X117635717Y-36457501D03*
X85207500Y-89079765D03*
X83755169Y-89145716D03*
X102528811Y-112157030D03*
X23816668Y-116976554D03*
X162929830Y-19065950D03*
X145690719Y-41977501D03*
X132550003Y-36457501D03*
X115538335Y-112157030D03*
X147464289Y-36457501D03*
X94107500Y-89079765D03*
X92655169Y-89145716D03*
X128547858Y-112157030D03*
X30178573Y-116976554D03*
X171829830Y-19065950D03*
X80317518Y-95952268D03*
D21*
X2802500Y-64804762D03*
X2802500Y-73454762D03*
D22*
X-577500Y-64804762D03*
X-577500Y-73454762D03*
D23*
X-207500Y-68704762D03*
X-207500Y-66154762D03*
X-207500Y-67004762D03*
X-207500Y-67854762D03*
X-207500Y-72104762D03*
X-207500Y-70404762D03*
X-207500Y-69554762D03*
X-207500Y-71254762D03*
X-1557500Y-66154762D03*
X-1557500Y-67004762D03*
X-1557500Y-67854762D03*
X-1557500Y-68704762D03*
X-1557500Y-69554762D03*
X-1557500Y-70404762D03*
X-1557500Y-71254762D03*
X-1557500Y-72104762D03*
X60506191Y-75422264D03*
X71153810Y-75422264D03*
X81801429Y-75422264D03*
X92449047Y-75422264D03*
X100474998Y-48742263D03*
X93274998Y-48742263D03*
X25992500Y-36174762D03*
X25992500Y-39674762D03*
X25992500Y-43174762D03*
X30992500Y-33174762D03*
X30992500Y-46174762D03*
X46592499Y-36174762D03*
X46592499Y-39674762D03*
X46592499Y-43174762D03*
X51592499Y-33174762D03*
X51592499Y-46174762D03*
X67192500Y-36174762D03*
X67192500Y-39674762D03*
X67192500Y-43174762D03*
X72192500Y-33174762D03*
X72192500Y-46174762D03*
X87792499Y-36174762D03*
X87792499Y-39674762D03*
X87792499Y-43174762D03*
X92792499Y-33174762D03*
X92792499Y-46174762D03*
M02*
