G04 #@! TF.GenerationSoftware,KiCad,Pcbnew,5.1.9+dfsg1-1+deb11u1*
G04 #@! TF.CreationDate,2026-09-11T21:44:09-03:00*
G04 #@! TF.ProjectId,,58585858-5858-4585-9858-585858585858,rev?*
G04 #@! TF.SameCoordinates,Original*
G04 #@! TF.FileFunction,Copper,L4,Bot*
G04 #@! TF.FilePolarity,Positive*
%FSLAX46Y46*%
G04 Gerber Fmt 4.6, Leading zero omitted, Abs format (unit mm)*
G04 Created by KiCad (PCBNEW 5.1.9+dfsg1-1+deb11u1) date 2026-09-11 21:44:09*
%MOMM*%
%LPD*%
G01*
G04 APERTURE LIST*
G04 #@! TA.AperFunction,Profile*
%ADD10C,0.100000*%
G04 #@! TD*
G04 #@! TA.AperFunction,ComponentPad*
%ADD11C,3.000000*%
G04 #@! TD*
G04 #@! TA.AperFunction,ComponentPad*
%ADD12R,3.000000X3.000000*%
G04 #@! TD*
G04 #@! TA.AperFunction,ComponentPad*
%ADD13C,1.400000*%
G04 #@! TD*
G04 #@! TA.AperFunction,ComponentPad*
%ADD14O,0.900000X1.700000*%
G04 #@! TD*
G04 #@! TA.AperFunction,ComponentPad*
%ADD15O,0.900000X2.400000*%
G04 #@! TD*
G04 #@! TA.AperFunction,ComponentPad*
%ADD16C,0.700000*%
G04 #@! TD*
G04 #@! TA.AperFunction,ComponentPad*
%ADD17C,6.000000*%
G04 #@! TD*
G04 #@! TA.AperFunction,ViaPad*
%ADD18C,0.600000*%
G04 #@! TD*
G04 #@! TA.AperFunction,Conductor*
%ADD19C,0.254000*%
G04 #@! TD*
G04 #@! TA.AperFunction,Conductor*
%ADD20C,0.150000*%
G04 #@! TD*
%ADD21C,0.300000*%
%ADD22C,0.350000*%
%ADD23O,0.600000X1.400000*%
%ADD24O,0.600000X2.100000*%
G04 APERTURE END LIST*
D10*
X10000000Y-10000000D02*
X210000000Y-10000000D01*
X210000000Y-10000000D02*
X210000000Y-170000000D01*
X210000000Y-170000000D02*
X10000000Y-170000000D01*
X10000000Y-170000000D02*
X10000000Y-10000000D01*
D11*
G04 #@! TO.P,J_M4,3*
G04 #@! TO.N,PHM43*
X138000000Y-160000000D03*
G04 #@! TO.P,J_M4,2*
G04 #@! TO.N,PHM42*
X141500000Y-160000000D03*
D12*
G04 #@! TO.P,J_M4,1*
G04 #@! TO.N,PHM41*
X145000000Y-160000000D03*
D13*
G04 #@! TO.P,J_M4,*
G04 #@! TO.N,*
X135000000Y-155000000D03*
X148000000Y-155000000D03*
G04 #@! TD*
D11*
G04 #@! TO.P,J_M3,3*
G04 #@! TO.N,PHM33*
X88000000Y-160000000D03*
G04 #@! TO.P,J_M3,2*
G04 #@! TO.N,PHM32*
X91500000Y-160000000D03*
D12*
G04 #@! TO.P,J_M3,1*
G04 #@! TO.N,PHM31*
X95000000Y-160000000D03*
D13*
G04 #@! TO.P,J_M3,*
G04 #@! TO.N,*
X85000000Y-155000000D03*
X98000000Y-155000000D03*
G04 #@! TD*
D11*
G04 #@! TO.P,J_M2,3*
G04 #@! TO.N,PHM23*
X138000000Y-24000000D03*
G04 #@! TO.P,J_M2,2*
G04 #@! TO.N,PHM22*
X141500000Y-24000000D03*
D12*
G04 #@! TO.P,J_M2,1*
G04 #@! TO.N,PHM21*
X145000000Y-24000000D03*
D13*
G04 #@! TO.P,J_M2,*
G04 #@! TO.N,*
X135000000Y-19000000D03*
X148000000Y-19000000D03*
G04 #@! TD*
D11*
G04 #@! TO.P,J_M1,3*
G04 #@! TO.N,PHM13*
X88000000Y-24000000D03*
G04 #@! TO.P,J_M1,2*
G04 #@! TO.N,PHM12*
X91500000Y-24000000D03*
D12*
G04 #@! TO.P,J_M1,1*
G04 #@! TO.N,PHM11*
X95000000Y-24000000D03*
D13*
G04 #@! TO.P,J_M1,*
G04 #@! TO.N,*
X85000000Y-19000000D03*
X98000000Y-19000000D03*
G04 #@! TD*
D14*
G04 #@! TO.P,J2,S1*
G04 #@! TO.N,USB_S1*
X28700000Y-19640000D03*
X37350000Y-19640000D03*
D15*
X28700000Y-23020000D03*
X37350000Y-23020000D03*
D16*
G04 #@! TO.P,J2,B6*
G04 #@! TO.N,USB_B6*
X32600000Y-22650000D03*
G04 #@! TO.P,J2,B1*
G04 #@! TO.N,USB_B1*
X30050000Y-22650000D03*
G04 #@! TO.P,J2,B4*
G04 #@! TO.N,USB_B4*
X30900000Y-22650000D03*
G04 #@! TO.P,J2,B5*
G04 #@! TO.N,USB_B5*
X31750000Y-22650000D03*
G04 #@! TO.P,J2,B12*
G04 #@! TO.N,USB_B12*
X36000000Y-22650000D03*
G04 #@! TO.P,J2,B8*
G04 #@! TO.N,USB_B8*
X34300000Y-22650000D03*
G04 #@! TO.P,J2,B7*
G04 #@! TO.N,USB_B7*
X33450000Y-22650000D03*
G04 #@! TO.P,J2,B9*
G04 #@! TO.N,USB_B9*
X35150000Y-22650000D03*
G04 #@! TO.P,J2,A12*
G04 #@! TO.N,USB_A12*
X30050000Y-24000000D03*
G04 #@! TO.P,J2,A9*
G04 #@! TO.N,USB_A9*
X30900000Y-24000000D03*
G04 #@! TO.P,J2,A8*
G04 #@! TO.N,USB_A8*
X31750000Y-24000000D03*
G04 #@! TO.P,J2,A7*
G04 #@! TO.N,USB_A7*
X32600000Y-24000000D03*
G04 #@! TO.P,J2,A6*
G04 #@! TO.N,USB_A6*
X33450000Y-24000000D03*
G04 #@! TO.P,J2,A5*
G04 #@! TO.N,USB_A5*
X34300000Y-24000000D03*
G04 #@! TO.P,J2,A4*
G04 #@! TO.N,USB_A4*
X35150000Y-24000000D03*
G04 #@! TO.P,J2,A1*
G04 #@! TO.N,USB_A1*
X36000000Y-24000000D03*
G04 #@! TD*
G04 #@! TO.P,J1,1*
G04 #@! TO.N,VBAT*
G04 #@! TA.AperFunction,ComponentPad*
G36*
G01*
X27000000Y-143500000D02*
X27000000Y-140500000D01*
G75*
G02*
X28500000Y-139000000I1500000J0D01*
G01*
X31500000Y-139000000D01*
G75*
G02*
X33000000Y-140500000I0J-1500000D01*
G01*
X33000000Y-143500000D01*
G75*
G02*
X31500000Y-145000000I-1500000J0D01*
G01*
X28500000Y-145000000D01*
G75*
G02*
X27000000Y-143500000I0J1500000D01*
G01*
G37*
G04 #@! TD.AperFunction*
D17*
G04 #@! TO.P,J1,2*
G04 #@! TO.N,GND*
X37200000Y-142000000D03*
G04 #@! TD*
D18*
G04 #@! TO.N,VBAT*
X82000000Y-50000000D03*
X82000000Y-66000000D03*
X82000000Y-82000000D03*
X134000000Y-50000000D03*
X134000000Y-66000000D03*
X134000000Y-82000000D03*
X82000000Y-102000000D03*
X82000000Y-118000000D03*
X82000000Y-134000000D03*
X134000000Y-102000000D03*
X134000000Y-118000000D03*
X134000000Y-134000000D03*
G04 #@! TO.N,GND*
X123000000Y-50000000D03*
X123000000Y-66000000D03*
X123000000Y-82000000D03*
X175000000Y-50000000D03*
X175000000Y-66000000D03*
X175000000Y-82000000D03*
X123000000Y-102000000D03*
X123000000Y-118000000D03*
X123000000Y-134000000D03*
X175000000Y-102000000D03*
X175000000Y-118000000D03*
X175000000Y-134000000D03*
X13000000Y-14000000D03*
X20000000Y-14000000D03*
X27000000Y-14000000D03*
X34000000Y-14000000D03*
X41000000Y-14000000D03*
X48000000Y-14000000D03*
X55000000Y-14000000D03*
X62000000Y-14000000D03*
X69000000Y-14000000D03*
X76000000Y-14000000D03*
X83000000Y-14000000D03*
X90000000Y-14000000D03*
X97000000Y-14000000D03*
X104000000Y-14000000D03*
X111000000Y-14000000D03*
X118000000Y-14000000D03*
X125000000Y-14000000D03*
X132000000Y-14000000D03*
X139000000Y-14000000D03*
X146000000Y-14000000D03*
X153000000Y-14000000D03*
X160000000Y-14000000D03*
X167000000Y-14000000D03*
X174000000Y-14000000D03*
X181000000Y-14000000D03*
X188000000Y-14000000D03*
X195000000Y-14000000D03*
X202000000Y-14000000D03*
X13000000Y-21000000D03*
X20000000Y-21000000D03*
X27000000Y-21000000D03*
X34000000Y-21000000D03*
X41000000Y-21000000D03*
X48000000Y-21000000D03*
X55000000Y-21000000D03*
X62000000Y-21000000D03*
X69000000Y-21000000D03*
X76000000Y-21000000D03*
X83000000Y-21000000D03*
X90000000Y-21000000D03*
X97000000Y-21000000D03*
X104000000Y-21000000D03*
X111000000Y-21000000D03*
X118000000Y-21000000D03*
X125000000Y-21000000D03*
X132000000Y-21000000D03*
X139000000Y-21000000D03*
X146000000Y-21000000D03*
X153000000Y-21000000D03*
X160000000Y-21000000D03*
X167000000Y-21000000D03*
X174000000Y-21000000D03*
X181000000Y-21000000D03*
X188000000Y-21000000D03*
X195000000Y-21000000D03*
X202000000Y-21000000D03*
X13000000Y-28000000D03*
X20000000Y-28000000D03*
X27000000Y-28000000D03*
X34000000Y-28000000D03*
X41000000Y-28000000D03*
X48000000Y-28000000D03*
X55000000Y-28000000D03*
X62000000Y-28000000D03*
X69000000Y-28000000D03*
X76000000Y-28000000D03*
X83000000Y-28000000D03*
X90000000Y-28000000D03*
X97000000Y-28000000D03*
X104000000Y-28000000D03*
X111000000Y-28000000D03*
X118000000Y-28000000D03*
X125000000Y-28000000D03*
X132000000Y-28000000D03*
X139000000Y-28000000D03*
X146000000Y-28000000D03*
X153000000Y-28000000D03*
X160000000Y-28000000D03*
X167000000Y-28000000D03*
X174000000Y-28000000D03*
X181000000Y-28000000D03*
X188000000Y-28000000D03*
X195000000Y-28000000D03*
X202000000Y-28000000D03*
X13000000Y-35000000D03*
X20000000Y-35000000D03*
X27000000Y-35000000D03*
X34000000Y-35000000D03*
X41000000Y-35000000D03*
X48000000Y-35000000D03*
X55000000Y-35000000D03*
X62000000Y-35000000D03*
X69000000Y-35000000D03*
X76000000Y-35000000D03*
X83000000Y-35000000D03*
X90000000Y-35000000D03*
X97000000Y-35000000D03*
X104000000Y-35000000D03*
X111000000Y-35000000D03*
X118000000Y-35000000D03*
X125000000Y-35000000D03*
X132000000Y-35000000D03*
X139000000Y-35000000D03*
X146000000Y-35000000D03*
X153000000Y-35000000D03*
X160000000Y-35000000D03*
X167000000Y-35000000D03*
X174000000Y-35000000D03*
X181000000Y-35000000D03*
X188000000Y-35000000D03*
X195000000Y-35000000D03*
X202000000Y-35000000D03*
X13000000Y-42000000D03*
X20000000Y-42000000D03*
X27000000Y-42000000D03*
X34000000Y-42000000D03*
X41000000Y-42000000D03*
X48000000Y-42000000D03*
X55000000Y-42000000D03*
X62000000Y-42000000D03*
X69000000Y-42000000D03*
X76000000Y-42000000D03*
X83000000Y-42000000D03*
X90000000Y-42000000D03*
X97000000Y-42000000D03*
X104000000Y-42000000D03*
X111000000Y-42000000D03*
X118000000Y-42000000D03*
X125000000Y-42000000D03*
X132000000Y-42000000D03*
X139000000Y-42000000D03*
X146000000Y-42000000D03*
X153000000Y-42000000D03*
X160000000Y-42000000D03*
X167000000Y-42000000D03*
X174000000Y-42000000D03*
X181000000Y-42000000D03*
X188000000Y-42000000D03*
X195000000Y-42000000D03*
X202000000Y-42000000D03*
X13000000Y-49000000D03*
X20000000Y-49000000D03*
X27000000Y-49000000D03*
X34000000Y-49000000D03*
X41000000Y-49000000D03*
X48000000Y-49000000D03*
X55000000Y-49000000D03*
X62000000Y-49000000D03*
X69000000Y-49000000D03*
X76000000Y-49000000D03*
X83000000Y-49000000D03*
X90000000Y-49000000D03*
X97000000Y-49000000D03*
X104000000Y-49000000D03*
X111000000Y-49000000D03*
X118000000Y-49000000D03*
X125000000Y-49000000D03*
X132000000Y-49000000D03*
X139000000Y-49000000D03*
X146000000Y-49000000D03*
X153000000Y-49000000D03*
X160000000Y-49000000D03*
X167000000Y-49000000D03*
X174000000Y-49000000D03*
X181000000Y-49000000D03*
X188000000Y-49000000D03*
X195000000Y-49000000D03*
X202000000Y-49000000D03*
X13000000Y-56000000D03*
X20000000Y-56000000D03*
X27000000Y-56000000D03*
X34000000Y-56000000D03*
X41000000Y-56000000D03*
X48000000Y-56000000D03*
X55000000Y-56000000D03*
X62000000Y-56000000D03*
X69000000Y-56000000D03*
X76000000Y-56000000D03*
X83000000Y-56000000D03*
X90000000Y-56000000D03*
X97000000Y-56000000D03*
X104000000Y-56000000D03*
X111000000Y-56000000D03*
X118000000Y-56000000D03*
X125000000Y-56000000D03*
X132000000Y-56000000D03*
X139000000Y-56000000D03*
X146000000Y-56000000D03*
X153000000Y-56000000D03*
X160000000Y-56000000D03*
X167000000Y-56000000D03*
X174000000Y-56000000D03*
X181000000Y-56000000D03*
X188000000Y-56000000D03*
X195000000Y-56000000D03*
X202000000Y-56000000D03*
X13000000Y-63000000D03*
X20000000Y-63000000D03*
X27000000Y-63000000D03*
X34000000Y-63000000D03*
X41000000Y-63000000D03*
X48000000Y-63000000D03*
X55000000Y-63000000D03*
X62000000Y-63000000D03*
X69000000Y-63000000D03*
X76000000Y-63000000D03*
X83000000Y-63000000D03*
X90000000Y-63000000D03*
X97000000Y-63000000D03*
X104000000Y-63000000D03*
X111000000Y-63000000D03*
X118000000Y-63000000D03*
X125000000Y-63000000D03*
X132000000Y-63000000D03*
X139000000Y-63000000D03*
X146000000Y-63000000D03*
X153000000Y-63000000D03*
X160000000Y-63000000D03*
X167000000Y-63000000D03*
X174000000Y-63000000D03*
X181000000Y-63000000D03*
X188000000Y-63000000D03*
X195000000Y-63000000D03*
X202000000Y-63000000D03*
X13000000Y-70000000D03*
X20000000Y-70000000D03*
X27000000Y-70000000D03*
X34000000Y-70000000D03*
X41000000Y-70000000D03*
X48000000Y-70000000D03*
X55000000Y-70000000D03*
X62000000Y-70000000D03*
X69000000Y-70000000D03*
X76000000Y-70000000D03*
X83000000Y-70000000D03*
X90000000Y-70000000D03*
X97000000Y-70000000D03*
X104000000Y-70000000D03*
X111000000Y-70000000D03*
X118000000Y-70000000D03*
X125000000Y-70000000D03*
X132000000Y-70000000D03*
X139000000Y-70000000D03*
X146000000Y-70000000D03*
X153000000Y-70000000D03*
X160000000Y-70000000D03*
X167000000Y-70000000D03*
X174000000Y-70000000D03*
X181000000Y-70000000D03*
X188000000Y-70000000D03*
X195000000Y-70000000D03*
X202000000Y-70000000D03*
X13000000Y-77000000D03*
X20000000Y-77000000D03*
X27000000Y-77000000D03*
X34000000Y-77000000D03*
X41000000Y-77000000D03*
X48000000Y-77000000D03*
X55000000Y-77000000D03*
X62000000Y-77000000D03*
X69000000Y-77000000D03*
X76000000Y-77000000D03*
X83000000Y-77000000D03*
X90000000Y-77000000D03*
X97000000Y-77000000D03*
X104000000Y-77000000D03*
X111000000Y-77000000D03*
X118000000Y-77000000D03*
X125000000Y-77000000D03*
X132000000Y-77000000D03*
X139000000Y-77000000D03*
X146000000Y-77000000D03*
X153000000Y-77000000D03*
X160000000Y-77000000D03*
X167000000Y-77000000D03*
X174000000Y-77000000D03*
X181000000Y-77000000D03*
X188000000Y-77000000D03*
X195000000Y-77000000D03*
X202000000Y-77000000D03*
X13000000Y-84000000D03*
X20000000Y-84000000D03*
X27000000Y-84000000D03*
X34000000Y-84000000D03*
X41000000Y-84000000D03*
X48000000Y-84000000D03*
X55000000Y-84000000D03*
X62000000Y-84000000D03*
X69000000Y-84000000D03*
X76000000Y-84000000D03*
X83000000Y-84000000D03*
X90000000Y-84000000D03*
X97000000Y-84000000D03*
X104000000Y-84000000D03*
X111000000Y-84000000D03*
X118000000Y-84000000D03*
X125000000Y-84000000D03*
X132000000Y-84000000D03*
X139000000Y-84000000D03*
X146000000Y-84000000D03*
X153000000Y-84000000D03*
X160000000Y-84000000D03*
X167000000Y-84000000D03*
X174000000Y-84000000D03*
X181000000Y-84000000D03*
X188000000Y-84000000D03*
X195000000Y-84000000D03*
X202000000Y-84000000D03*
X13000000Y-91000000D03*
X20000000Y-91000000D03*
X27000000Y-91000000D03*
X34000000Y-91000000D03*
X41000000Y-91000000D03*
X48000000Y-91000000D03*
X55000000Y-91000000D03*
X62000000Y-91000000D03*
X69000000Y-91000000D03*
X76000000Y-91000000D03*
X83000000Y-91000000D03*
X90000000Y-91000000D03*
X97000000Y-91000000D03*
X104000000Y-91000000D03*
X111000000Y-91000000D03*
X118000000Y-91000000D03*
X125000000Y-91000000D03*
X132000000Y-91000000D03*
X139000000Y-91000000D03*
X146000000Y-91000000D03*
X153000000Y-91000000D03*
X160000000Y-91000000D03*
X167000000Y-91000000D03*
X174000000Y-91000000D03*
X181000000Y-91000000D03*
X188000000Y-91000000D03*
X195000000Y-91000000D03*
X202000000Y-91000000D03*
X13000000Y-98000000D03*
X20000000Y-98000000D03*
X27000000Y-98000000D03*
X34000000Y-98000000D03*
X41000000Y-98000000D03*
X48000000Y-98000000D03*
X55000000Y-98000000D03*
X62000000Y-98000000D03*
X69000000Y-98000000D03*
X76000000Y-98000000D03*
X83000000Y-98000000D03*
X90000000Y-98000000D03*
X97000000Y-98000000D03*
X104000000Y-98000000D03*
X111000000Y-98000000D03*
X118000000Y-98000000D03*
X125000000Y-98000000D03*
X132000000Y-98000000D03*
X139000000Y-98000000D03*
X146000000Y-98000000D03*
X153000000Y-98000000D03*
X160000000Y-98000000D03*
X167000000Y-98000000D03*
X174000000Y-98000000D03*
X181000000Y-98000000D03*
X188000000Y-98000000D03*
X195000000Y-98000000D03*
X202000000Y-98000000D03*
X13000000Y-105000000D03*
X20000000Y-105000000D03*
X27000000Y-105000000D03*
X34000000Y-105000000D03*
X41000000Y-105000000D03*
X48000000Y-105000000D03*
X55000000Y-105000000D03*
X62000000Y-105000000D03*
X69000000Y-105000000D03*
X76000000Y-105000000D03*
X83000000Y-105000000D03*
X90000000Y-105000000D03*
X97000000Y-105000000D03*
X104000000Y-105000000D03*
X111000000Y-105000000D03*
X118000000Y-105000000D03*
X125000000Y-105000000D03*
X132000000Y-105000000D03*
X139000000Y-105000000D03*
X146000000Y-105000000D03*
X153000000Y-105000000D03*
X160000000Y-105000000D03*
X167000000Y-105000000D03*
X174000000Y-105000000D03*
X181000000Y-105000000D03*
X188000000Y-105000000D03*
X195000000Y-105000000D03*
X202000000Y-105000000D03*
X13000000Y-112000000D03*
X20000000Y-112000000D03*
X27000000Y-112000000D03*
X34000000Y-112000000D03*
X41000000Y-112000000D03*
X48000000Y-112000000D03*
X55000000Y-112000000D03*
X62000000Y-112000000D03*
X69000000Y-112000000D03*
X76000000Y-112000000D03*
X83000000Y-112000000D03*
X90000000Y-112000000D03*
X97000000Y-112000000D03*
X104000000Y-112000000D03*
X111000000Y-112000000D03*
X118000000Y-112000000D03*
X125000000Y-112000000D03*
X132000000Y-112000000D03*
X139000000Y-112000000D03*
X146000000Y-112000000D03*
X153000000Y-112000000D03*
X160000000Y-112000000D03*
X167000000Y-112000000D03*
X174000000Y-112000000D03*
X181000000Y-112000000D03*
X188000000Y-112000000D03*
X195000000Y-112000000D03*
X202000000Y-112000000D03*
X13000000Y-119000000D03*
X20000000Y-119000000D03*
X27000000Y-119000000D03*
X34000000Y-119000000D03*
X41000000Y-119000000D03*
X48000000Y-119000000D03*
X55000000Y-119000000D03*
X62000000Y-119000000D03*
X69000000Y-119000000D03*
X76000000Y-119000000D03*
X83000000Y-119000000D03*
X90000000Y-119000000D03*
X97000000Y-119000000D03*
X104000000Y-119000000D03*
X111000000Y-119000000D03*
X118000000Y-119000000D03*
X125000000Y-119000000D03*
X132000000Y-119000000D03*
X139000000Y-119000000D03*
X146000000Y-119000000D03*
X153000000Y-119000000D03*
X160000000Y-119000000D03*
X167000000Y-119000000D03*
X174000000Y-119000000D03*
X181000000Y-119000000D03*
X188000000Y-119000000D03*
X195000000Y-119000000D03*
X202000000Y-119000000D03*
X13000000Y-126000000D03*
X20000000Y-126000000D03*
X27000000Y-126000000D03*
X34000000Y-126000000D03*
X41000000Y-126000000D03*
X48000000Y-126000000D03*
X55000000Y-126000000D03*
X62000000Y-126000000D03*
X69000000Y-126000000D03*
X76000000Y-126000000D03*
X83000000Y-126000000D03*
X90000000Y-126000000D03*
X97000000Y-126000000D03*
X104000000Y-126000000D03*
X111000000Y-126000000D03*
X118000000Y-126000000D03*
X125000000Y-126000000D03*
X132000000Y-126000000D03*
X139000000Y-126000000D03*
X146000000Y-126000000D03*
X153000000Y-126000000D03*
X160000000Y-126000000D03*
X167000000Y-126000000D03*
X174000000Y-126000000D03*
X181000000Y-126000000D03*
X188000000Y-126000000D03*
X195000000Y-126000000D03*
X202000000Y-126000000D03*
X13000000Y-133000000D03*
X20000000Y-133000000D03*
X27000000Y-133000000D03*
X34000000Y-133000000D03*
X41000000Y-133000000D03*
X48000000Y-133000000D03*
X55000000Y-133000000D03*
X62000000Y-133000000D03*
X69000000Y-133000000D03*
X76000000Y-133000000D03*
X83000000Y-133000000D03*
X90000000Y-133000000D03*
X97000000Y-133000000D03*
X104000000Y-133000000D03*
X111000000Y-133000000D03*
X118000000Y-133000000D03*
X125000000Y-133000000D03*
X132000000Y-133000000D03*
X139000000Y-133000000D03*
X146000000Y-133000000D03*
X153000000Y-133000000D03*
X160000000Y-133000000D03*
X167000000Y-133000000D03*
X174000000Y-133000000D03*
X181000000Y-133000000D03*
X188000000Y-133000000D03*
X195000000Y-133000000D03*
X202000000Y-133000000D03*
X13000000Y-140000000D03*
X20000000Y-140000000D03*
X27000000Y-140000000D03*
X34000000Y-140000000D03*
X41000000Y-140000000D03*
X48000000Y-140000000D03*
X55000000Y-140000000D03*
X62000000Y-140000000D03*
X69000000Y-140000000D03*
X76000000Y-140000000D03*
X83000000Y-140000000D03*
X90000000Y-140000000D03*
X97000000Y-140000000D03*
X104000000Y-140000000D03*
X111000000Y-140000000D03*
X118000000Y-140000000D03*
X125000000Y-140000000D03*
X132000000Y-140000000D03*
X139000000Y-140000000D03*
X146000000Y-140000000D03*
X153000000Y-140000000D03*
X160000000Y-140000000D03*
X167000000Y-140000000D03*
X174000000Y-140000000D03*
X181000000Y-140000000D03*
X188000000Y-140000000D03*
X195000000Y-140000000D03*
X202000000Y-140000000D03*
X13000000Y-147000000D03*
X20000000Y-147000000D03*
X27000000Y-147000000D03*
X34000000Y-147000000D03*
X41000000Y-147000000D03*
X48000000Y-147000000D03*
X55000000Y-147000000D03*
X62000000Y-147000000D03*
X69000000Y-147000000D03*
X76000000Y-147000000D03*
X83000000Y-147000000D03*
X90000000Y-147000000D03*
X97000000Y-147000000D03*
X104000000Y-147000000D03*
X111000000Y-147000000D03*
X118000000Y-147000000D03*
X125000000Y-147000000D03*
X132000000Y-147000000D03*
X139000000Y-147000000D03*
X146000000Y-147000000D03*
X153000000Y-147000000D03*
X160000000Y-147000000D03*
X167000000Y-147000000D03*
X174000000Y-147000000D03*
X181000000Y-147000000D03*
X188000000Y-147000000D03*
X195000000Y-147000000D03*
X202000000Y-147000000D03*
X13000000Y-154000000D03*
X20000000Y-154000000D03*
X27000000Y-154000000D03*
X34000000Y-154000000D03*
X41000000Y-154000000D03*
X48000000Y-154000000D03*
X55000000Y-154000000D03*
X62000000Y-154000000D03*
X69000000Y-154000000D03*
X76000000Y-154000000D03*
X83000000Y-154000000D03*
X90000000Y-154000000D03*
X97000000Y-154000000D03*
X104000000Y-154000000D03*
X111000000Y-154000000D03*
X118000000Y-154000000D03*
X125000000Y-154000000D03*
X132000000Y-154000000D03*
X139000000Y-154000000D03*
X146000000Y-154000000D03*
X153000000Y-154000000D03*
X160000000Y-154000000D03*
X167000000Y-154000000D03*
X174000000Y-154000000D03*
X181000000Y-154000000D03*
X188000000Y-154000000D03*
X195000000Y-154000000D03*
X202000000Y-154000000D03*
X13000000Y-161000000D03*
X20000000Y-161000000D03*
X27000000Y-161000000D03*
X34000000Y-161000000D03*
X41000000Y-161000000D03*
X48000000Y-161000000D03*
X55000000Y-161000000D03*
X62000000Y-161000000D03*
X69000000Y-161000000D03*
X76000000Y-161000000D03*
X83000000Y-161000000D03*
X90000000Y-161000000D03*
X97000000Y-161000000D03*
X104000000Y-161000000D03*
X111000000Y-161000000D03*
X118000000Y-161000000D03*
X125000000Y-161000000D03*
X132000000Y-161000000D03*
G04 #@! TO.N,PHM43*
X139000000Y-161000000D03*
G04 #@! TO.N,PHM41*
X146000000Y-161000000D03*
G04 #@! TO.N,GND*
X153000000Y-161000000D03*
X160000000Y-161000000D03*
X167000000Y-161000000D03*
X174000000Y-161000000D03*
X181000000Y-161000000D03*
X188000000Y-161000000D03*
X195000000Y-161000000D03*
X202000000Y-161000000D03*
G04 #@! TD*
D19*
G04 #@! TO.N,GND*
X208873000Y-168873000D02*
X11127000Y-168873000D01*
X11127000Y-159789721D01*
X85865000Y-159789721D01*
X85865000Y-160210279D01*
X85947047Y-160622756D01*
X86107988Y-161011302D01*
X86341637Y-161360983D01*
X86639017Y-161658363D01*
X86988698Y-161892012D01*
X87377244Y-162052953D01*
X87789721Y-162135000D01*
X88210279Y-162135000D01*
X88622756Y-162052953D01*
X89011302Y-161892012D01*
X89360983Y-161658363D01*
X89658363Y-161360983D01*
X89750000Y-161223838D01*
X89841637Y-161360983D01*
X90139017Y-161658363D01*
X90488698Y-161892012D01*
X90877244Y-162052953D01*
X91289721Y-162135000D01*
X91710279Y-162135000D01*
X92122756Y-162052953D01*
X92511302Y-161892012D01*
X92860983Y-161658363D01*
X92879000Y-161640346D01*
X92910498Y-161744180D01*
X92969463Y-161854494D01*
X93048815Y-161951185D01*
X93145506Y-162030537D01*
X93255820Y-162089502D01*
X93375518Y-162125812D01*
X93500000Y-162138072D01*
X96500000Y-162138072D01*
X96624482Y-162125812D01*
X96744180Y-162089502D01*
X96854494Y-162030537D01*
X96951185Y-161951185D01*
X97030537Y-161854494D01*
X97089502Y-161744180D01*
X97125812Y-161624482D01*
X97138072Y-161500000D01*
X97138072Y-159789721D01*
X135865000Y-159789721D01*
X135865000Y-160210279D01*
X135947047Y-160622756D01*
X136107988Y-161011302D01*
X136341637Y-161360983D01*
X136639017Y-161658363D01*
X136988698Y-161892012D01*
X137377244Y-162052953D01*
X137789721Y-162135000D01*
X138210279Y-162135000D01*
X138622756Y-162052953D01*
X139011302Y-161892012D01*
X139360983Y-161658363D01*
X139658363Y-161360983D01*
X139750000Y-161223838D01*
X139841637Y-161360983D01*
X140139017Y-161658363D01*
X140488698Y-161892012D01*
X140877244Y-162052953D01*
X141289721Y-162135000D01*
X141710279Y-162135000D01*
X142122756Y-162052953D01*
X142511302Y-161892012D01*
X142860983Y-161658363D01*
X142879000Y-161640346D01*
X142910498Y-161744180D01*
X142969463Y-161854494D01*
X143048815Y-161951185D01*
X143145506Y-162030537D01*
X143255820Y-162089502D01*
X143375518Y-162125812D01*
X143500000Y-162138072D01*
X146500000Y-162138072D01*
X146624482Y-162125812D01*
X146744180Y-162089502D01*
X146854494Y-162030537D01*
X146951185Y-161951185D01*
X147030537Y-161854494D01*
X147089502Y-161744180D01*
X147125812Y-161624482D01*
X147138072Y-161500000D01*
X147138072Y-158500000D01*
X147125812Y-158375518D01*
X147089502Y-158255820D01*
X147030537Y-158145506D01*
X146951185Y-158048815D01*
X146854494Y-157969463D01*
X146744180Y-157910498D01*
X146624482Y-157874188D01*
X146500000Y-157861928D01*
X143500000Y-157861928D01*
X143375518Y-157874188D01*
X143255820Y-157910498D01*
X143145506Y-157969463D01*
X143048815Y-158048815D01*
X142969463Y-158145506D01*
X142910498Y-158255820D01*
X142879000Y-158359654D01*
X142860983Y-158341637D01*
X142511302Y-158107988D01*
X142122756Y-157947047D01*
X141710279Y-157865000D01*
X141289721Y-157865000D01*
X140877244Y-157947047D01*
X140488698Y-158107988D01*
X140139017Y-158341637D01*
X139841637Y-158639017D01*
X139750000Y-158776162D01*
X139658363Y-158639017D01*
X139360983Y-158341637D01*
X139011302Y-158107988D01*
X138622756Y-157947047D01*
X138210279Y-157865000D01*
X137789721Y-157865000D01*
X137377244Y-157947047D01*
X136988698Y-158107988D01*
X136639017Y-158341637D01*
X136341637Y-158639017D01*
X136107988Y-158988698D01*
X135947047Y-159377244D01*
X135865000Y-159789721D01*
X97138072Y-159789721D01*
X97138072Y-158500000D01*
X97125812Y-158375518D01*
X97089502Y-158255820D01*
X97030537Y-158145506D01*
X96951185Y-158048815D01*
X96854494Y-157969463D01*
X96744180Y-157910498D01*
X96624482Y-157874188D01*
X96500000Y-157861928D01*
X93500000Y-157861928D01*
X93375518Y-157874188D01*
X93255820Y-157910498D01*
X93145506Y-157969463D01*
X93048815Y-158048815D01*
X92969463Y-158145506D01*
X92910498Y-158255820D01*
X92879000Y-158359654D01*
X92860983Y-158341637D01*
X92511302Y-158107988D01*
X92122756Y-157947047D01*
X91710279Y-157865000D01*
X91289721Y-157865000D01*
X90877244Y-157947047D01*
X90488698Y-158107988D01*
X90139017Y-158341637D01*
X89841637Y-158639017D01*
X89750000Y-158776162D01*
X89658363Y-158639017D01*
X89360983Y-158341637D01*
X89011302Y-158107988D01*
X88622756Y-157947047D01*
X88210279Y-157865000D01*
X87789721Y-157865000D01*
X87377244Y-157947047D01*
X86988698Y-158107988D01*
X86639017Y-158341637D01*
X86341637Y-158639017D01*
X86107988Y-158988698D01*
X85947047Y-159377244D01*
X85865000Y-159789721D01*
X11127000Y-159789721D01*
X11127000Y-154868514D01*
X83665000Y-154868514D01*
X83665000Y-155131486D01*
X83716304Y-155389405D01*
X83816939Y-155632359D01*
X83963038Y-155851013D01*
X84148987Y-156036962D01*
X84367641Y-156183061D01*
X84610595Y-156283696D01*
X84868514Y-156335000D01*
X85131486Y-156335000D01*
X85389405Y-156283696D01*
X85632359Y-156183061D01*
X85851013Y-156036962D01*
X86036962Y-155851013D01*
X86183061Y-155632359D01*
X86283696Y-155389405D01*
X86335000Y-155131486D01*
X86335000Y-154868514D01*
X96665000Y-154868514D01*
X96665000Y-155131486D01*
X96716304Y-155389405D01*
X96816939Y-155632359D01*
X96963038Y-155851013D01*
X97148987Y-156036962D01*
X97367641Y-156183061D01*
X97610595Y-156283696D01*
X97868514Y-156335000D01*
X98131486Y-156335000D01*
X98389405Y-156283696D01*
X98632359Y-156183061D01*
X98851013Y-156036962D01*
X99036962Y-155851013D01*
X99183061Y-155632359D01*
X99283696Y-155389405D01*
X99335000Y-155131486D01*
X99335000Y-154868514D01*
X133665000Y-154868514D01*
X133665000Y-155131486D01*
X133716304Y-155389405D01*
X133816939Y-155632359D01*
X133963038Y-155851013D01*
X134148987Y-156036962D01*
X134367641Y-156183061D01*
X134610595Y-156283696D01*
X134868514Y-156335000D01*
X135131486Y-156335000D01*
X135389405Y-156283696D01*
X135632359Y-156183061D01*
X135851013Y-156036962D01*
X136036962Y-155851013D01*
X136183061Y-155632359D01*
X136283696Y-155389405D01*
X136335000Y-155131486D01*
X136335000Y-154868514D01*
X146665000Y-154868514D01*
X146665000Y-155131486D01*
X146716304Y-155389405D01*
X146816939Y-155632359D01*
X146963038Y-155851013D01*
X147148987Y-156036962D01*
X147367641Y-156183061D01*
X147610595Y-156283696D01*
X147868514Y-156335000D01*
X148131486Y-156335000D01*
X148389405Y-156283696D01*
X148632359Y-156183061D01*
X148851013Y-156036962D01*
X149036962Y-155851013D01*
X149183061Y-155632359D01*
X149283696Y-155389405D01*
X149335000Y-155131486D01*
X149335000Y-154868514D01*
X149283696Y-154610595D01*
X149183061Y-154367641D01*
X149036962Y-154148987D01*
X148851013Y-153963038D01*
X148632359Y-153816939D01*
X148389405Y-153716304D01*
X148131486Y-153665000D01*
X147868514Y-153665000D01*
X147610595Y-153716304D01*
X147367641Y-153816939D01*
X147148987Y-153963038D01*
X146963038Y-154148987D01*
X146816939Y-154367641D01*
X146716304Y-154610595D01*
X146665000Y-154868514D01*
X136335000Y-154868514D01*
X136283696Y-154610595D01*
X136183061Y-154367641D01*
X136036962Y-154148987D01*
X135851013Y-153963038D01*
X135632359Y-153816939D01*
X135389405Y-153716304D01*
X135131486Y-153665000D01*
X134868514Y-153665000D01*
X134610595Y-153716304D01*
X134367641Y-153816939D01*
X134148987Y-153963038D01*
X133963038Y-154148987D01*
X133816939Y-154367641D01*
X133716304Y-154610595D01*
X133665000Y-154868514D01*
X99335000Y-154868514D01*
X99283696Y-154610595D01*
X99183061Y-154367641D01*
X99036962Y-154148987D01*
X98851013Y-153963038D01*
X98632359Y-153816939D01*
X98389405Y-153716304D01*
X98131486Y-153665000D01*
X97868514Y-153665000D01*
X97610595Y-153716304D01*
X97367641Y-153816939D01*
X97148987Y-153963038D01*
X96963038Y-154148987D01*
X96816939Y-154367641D01*
X96716304Y-154610595D01*
X96665000Y-154868514D01*
X86335000Y-154868514D01*
X86283696Y-154610595D01*
X86183061Y-154367641D01*
X86036962Y-154148987D01*
X85851013Y-153963038D01*
X85632359Y-153816939D01*
X85389405Y-153716304D01*
X85131486Y-153665000D01*
X84868514Y-153665000D01*
X84610595Y-153716304D01*
X84367641Y-153816939D01*
X84148987Y-153963038D01*
X83963038Y-154148987D01*
X83816939Y-154367641D01*
X83716304Y-154610595D01*
X83665000Y-154868514D01*
X11127000Y-154868514D01*
X11127000Y-140500000D01*
X26361928Y-140500000D01*
X26361928Y-143500000D01*
X26403010Y-143917117D01*
X26524679Y-144318205D01*
X26722258Y-144687849D01*
X26988155Y-145011845D01*
X27312151Y-145277742D01*
X27681795Y-145475321D01*
X28082883Y-145596990D01*
X28500000Y-145638072D01*
X31500000Y-145638072D01*
X31917117Y-145596990D01*
X32318205Y-145475321D01*
X32687849Y-145277742D01*
X33011845Y-145011845D01*
X33277742Y-144687849D01*
X33346781Y-144558686D01*
X34820919Y-144558686D01*
X35157106Y-145027868D01*
X35787068Y-145368237D01*
X36471327Y-145579166D01*
X37183589Y-145652550D01*
X37896482Y-145585569D01*
X38582609Y-145380796D01*
X39215603Y-145046102D01*
X39242894Y-145027868D01*
X39579081Y-144558686D01*
X37200000Y-142179605D01*
X34820919Y-144558686D01*
X33346781Y-144558686D01*
X33475321Y-144318205D01*
X33596990Y-143917117D01*
X33638072Y-143500000D01*
X33638072Y-142775695D01*
X33819204Y-143382609D01*
X34153898Y-144015603D01*
X34172132Y-144042894D01*
X34641314Y-144379081D01*
X37020395Y-142000000D01*
X37379605Y-142000000D01*
X39758686Y-144379081D01*
X40227868Y-144042894D01*
X40568237Y-143412932D01*
X40779166Y-142728673D01*
X40852550Y-142016411D01*
X40785569Y-141303518D01*
X40580796Y-140617391D01*
X40246102Y-139984397D01*
X40227868Y-139957106D01*
X39758686Y-139620919D01*
X37379605Y-142000000D01*
X37020395Y-142000000D01*
X34641314Y-139620919D01*
X34172132Y-139957106D01*
X33831763Y-140587068D01*
X33638072Y-141215406D01*
X33638072Y-140500000D01*
X33596990Y-140082883D01*
X33475321Y-139681795D01*
X33346782Y-139441314D01*
X34820919Y-139441314D01*
X37200000Y-141820395D01*
X39579081Y-139441314D01*
X39242894Y-138972132D01*
X38612932Y-138631763D01*
X37928673Y-138420834D01*
X37216411Y-138347450D01*
X36503518Y-138414431D01*
X35817391Y-138619204D01*
X35184397Y-138953898D01*
X35157106Y-138972132D01*
X34820919Y-139441314D01*
X33346782Y-139441314D01*
X33277742Y-139312151D01*
X33011845Y-138988155D01*
X32687849Y-138722258D01*
X32318205Y-138524679D01*
X31917117Y-138403010D01*
X31500000Y-138361928D01*
X28500000Y-138361928D01*
X28082883Y-138403010D01*
X27681795Y-138524679D01*
X27312151Y-138722258D01*
X26988155Y-138988155D01*
X26722258Y-139312151D01*
X26524679Y-139681795D01*
X26403010Y-140082883D01*
X26361928Y-140500000D01*
X11127000Y-140500000D01*
X11127000Y-133907911D01*
X81065000Y-133907911D01*
X81065000Y-134092089D01*
X81100932Y-134272729D01*
X81171414Y-134442889D01*
X81273738Y-134596028D01*
X81403972Y-134726262D01*
X81557111Y-134828586D01*
X81727271Y-134899068D01*
X81907911Y-134935000D01*
X82092089Y-134935000D01*
X82272729Y-134899068D01*
X82442889Y-134828586D01*
X82596028Y-134726262D01*
X82726262Y-134596028D01*
X82828586Y-134442889D01*
X82899068Y-134272729D01*
X82935000Y-134092089D01*
X82935000Y-133907911D01*
X133065000Y-133907911D01*
X133065000Y-134092089D01*
X133100932Y-134272729D01*
X133171414Y-134442889D01*
X133273738Y-134596028D01*
X133403972Y-134726262D01*
X133557111Y-134828586D01*
X133727271Y-134899068D01*
X133907911Y-134935000D01*
X134092089Y-134935000D01*
X134272729Y-134899068D01*
X134442889Y-134828586D01*
X134596028Y-134726262D01*
X134726262Y-134596028D01*
X134828586Y-134442889D01*
X134899068Y-134272729D01*
X134935000Y-134092089D01*
X134935000Y-133907911D01*
X134899068Y-133727271D01*
X134828586Y-133557111D01*
X134726262Y-133403972D01*
X134596028Y-133273738D01*
X134442889Y-133171414D01*
X134272729Y-133100932D01*
X134092089Y-133065000D01*
X133907911Y-133065000D01*
X133727271Y-133100932D01*
X133557111Y-133171414D01*
X133403972Y-133273738D01*
X133273738Y-133403972D01*
X133171414Y-133557111D01*
X133100932Y-133727271D01*
X133065000Y-133907911D01*
X82935000Y-133907911D01*
X82899068Y-133727271D01*
X82828586Y-133557111D01*
X82726262Y-133403972D01*
X82596028Y-133273738D01*
X82442889Y-133171414D01*
X82272729Y-133100932D01*
X82092089Y-133065000D01*
X81907911Y-133065000D01*
X81727271Y-133100932D01*
X81557111Y-133171414D01*
X81403972Y-133273738D01*
X81273738Y-133403972D01*
X81171414Y-133557111D01*
X81100932Y-133727271D01*
X81065000Y-133907911D01*
X11127000Y-133907911D01*
X11127000Y-117907911D01*
X81065000Y-117907911D01*
X81065000Y-118092089D01*
X81100932Y-118272729D01*
X81171414Y-118442889D01*
X81273738Y-118596028D01*
X81403972Y-118726262D01*
X81557111Y-118828586D01*
X81727271Y-118899068D01*
X81907911Y-118935000D01*
X82092089Y-118935000D01*
X82272729Y-118899068D01*
X82442889Y-118828586D01*
X82596028Y-118726262D01*
X82726262Y-118596028D01*
X82828586Y-118442889D01*
X82899068Y-118272729D01*
X82935000Y-118092089D01*
X82935000Y-117907911D01*
X133065000Y-117907911D01*
X133065000Y-118092089D01*
X133100932Y-118272729D01*
X133171414Y-118442889D01*
X133273738Y-118596028D01*
X133403972Y-118726262D01*
X133557111Y-118828586D01*
X133727271Y-118899068D01*
X133907911Y-118935000D01*
X134092089Y-118935000D01*
X134272729Y-118899068D01*
X134442889Y-118828586D01*
X134596028Y-118726262D01*
X134726262Y-118596028D01*
X134828586Y-118442889D01*
X134899068Y-118272729D01*
X134935000Y-118092089D01*
X134935000Y-117907911D01*
X134899068Y-117727271D01*
X134828586Y-117557111D01*
X134726262Y-117403972D01*
X134596028Y-117273738D01*
X134442889Y-117171414D01*
X134272729Y-117100932D01*
X134092089Y-117065000D01*
X133907911Y-117065000D01*
X133727271Y-117100932D01*
X133557111Y-117171414D01*
X133403972Y-117273738D01*
X133273738Y-117403972D01*
X133171414Y-117557111D01*
X133100932Y-117727271D01*
X133065000Y-117907911D01*
X82935000Y-117907911D01*
X82899068Y-117727271D01*
X82828586Y-117557111D01*
X82726262Y-117403972D01*
X82596028Y-117273738D01*
X82442889Y-117171414D01*
X82272729Y-117100932D01*
X82092089Y-117065000D01*
X81907911Y-117065000D01*
X81727271Y-117100932D01*
X81557111Y-117171414D01*
X81403972Y-117273738D01*
X81273738Y-117403972D01*
X81171414Y-117557111D01*
X81100932Y-117727271D01*
X81065000Y-117907911D01*
X11127000Y-117907911D01*
X11127000Y-101907911D01*
X81065000Y-101907911D01*
X81065000Y-102092089D01*
X81100932Y-102272729D01*
X81171414Y-102442889D01*
X81273738Y-102596028D01*
X81403972Y-102726262D01*
X81557111Y-102828586D01*
X81727271Y-102899068D01*
X81907911Y-102935000D01*
X82092089Y-102935000D01*
X82272729Y-102899068D01*
X82442889Y-102828586D01*
X82596028Y-102726262D01*
X82726262Y-102596028D01*
X82828586Y-102442889D01*
X82899068Y-102272729D01*
X82935000Y-102092089D01*
X82935000Y-101907911D01*
X133065000Y-101907911D01*
X133065000Y-102092089D01*
X133100932Y-102272729D01*
X133171414Y-102442889D01*
X133273738Y-102596028D01*
X133403972Y-102726262D01*
X133557111Y-102828586D01*
X133727271Y-102899068D01*
X133907911Y-102935000D01*
X134092089Y-102935000D01*
X134272729Y-102899068D01*
X134442889Y-102828586D01*
X134596028Y-102726262D01*
X134726262Y-102596028D01*
X134828586Y-102442889D01*
X134899068Y-102272729D01*
X134935000Y-102092089D01*
X134935000Y-101907911D01*
X134899068Y-101727271D01*
X134828586Y-101557111D01*
X134726262Y-101403972D01*
X134596028Y-101273738D01*
X134442889Y-101171414D01*
X134272729Y-101100932D01*
X134092089Y-101065000D01*
X133907911Y-101065000D01*
X133727271Y-101100932D01*
X133557111Y-101171414D01*
X133403972Y-101273738D01*
X133273738Y-101403972D01*
X133171414Y-101557111D01*
X133100932Y-101727271D01*
X133065000Y-101907911D01*
X82935000Y-101907911D01*
X82899068Y-101727271D01*
X82828586Y-101557111D01*
X82726262Y-101403972D01*
X82596028Y-101273738D01*
X82442889Y-101171414D01*
X82272729Y-101100932D01*
X82092089Y-101065000D01*
X81907911Y-101065000D01*
X81727271Y-101100932D01*
X81557111Y-101171414D01*
X81403972Y-101273738D01*
X81273738Y-101403972D01*
X81171414Y-101557111D01*
X81100932Y-101727271D01*
X81065000Y-101907911D01*
X11127000Y-101907911D01*
X11127000Y-81907911D01*
X81065000Y-81907911D01*
X81065000Y-82092089D01*
X81100932Y-82272729D01*
X81171414Y-82442889D01*
X81273738Y-82596028D01*
X81403972Y-82726262D01*
X81557111Y-82828586D01*
X81727271Y-82899068D01*
X81907911Y-82935000D01*
X82092089Y-82935000D01*
X82272729Y-82899068D01*
X82442889Y-82828586D01*
X82596028Y-82726262D01*
X82726262Y-82596028D01*
X82828586Y-82442889D01*
X82899068Y-82272729D01*
X82935000Y-82092089D01*
X82935000Y-81907911D01*
X133065000Y-81907911D01*
X133065000Y-82092089D01*
X133100932Y-82272729D01*
X133171414Y-82442889D01*
X133273738Y-82596028D01*
X133403972Y-82726262D01*
X133557111Y-82828586D01*
X133727271Y-82899068D01*
X133907911Y-82935000D01*
X134092089Y-82935000D01*
X134272729Y-82899068D01*
X134442889Y-82828586D01*
X134596028Y-82726262D01*
X134726262Y-82596028D01*
X134828586Y-82442889D01*
X134899068Y-82272729D01*
X134935000Y-82092089D01*
X134935000Y-81907911D01*
X134899068Y-81727271D01*
X134828586Y-81557111D01*
X134726262Y-81403972D01*
X134596028Y-81273738D01*
X134442889Y-81171414D01*
X134272729Y-81100932D01*
X134092089Y-81065000D01*
X133907911Y-81065000D01*
X133727271Y-81100932D01*
X133557111Y-81171414D01*
X133403972Y-81273738D01*
X133273738Y-81403972D01*
X133171414Y-81557111D01*
X133100932Y-81727271D01*
X133065000Y-81907911D01*
X82935000Y-81907911D01*
X82899068Y-81727271D01*
X82828586Y-81557111D01*
X82726262Y-81403972D01*
X82596028Y-81273738D01*
X82442889Y-81171414D01*
X82272729Y-81100932D01*
X82092089Y-81065000D01*
X81907911Y-81065000D01*
X81727271Y-81100932D01*
X81557111Y-81171414D01*
X81403972Y-81273738D01*
X81273738Y-81403972D01*
X81171414Y-81557111D01*
X81100932Y-81727271D01*
X81065000Y-81907911D01*
X11127000Y-81907911D01*
X11127000Y-65907911D01*
X81065000Y-65907911D01*
X81065000Y-66092089D01*
X81100932Y-66272729D01*
X81171414Y-66442889D01*
X81273738Y-66596028D01*
X81403972Y-66726262D01*
X81557111Y-66828586D01*
X81727271Y-66899068D01*
X81907911Y-66935000D01*
X82092089Y-66935000D01*
X82272729Y-66899068D01*
X82442889Y-66828586D01*
X82596028Y-66726262D01*
X82726262Y-66596028D01*
X82828586Y-66442889D01*
X82899068Y-66272729D01*
X82935000Y-66092089D01*
X82935000Y-65907911D01*
X133065000Y-65907911D01*
X133065000Y-66092089D01*
X133100932Y-66272729D01*
X133171414Y-66442889D01*
X133273738Y-66596028D01*
X133403972Y-66726262D01*
X133557111Y-66828586D01*
X133727271Y-66899068D01*
X133907911Y-66935000D01*
X134092089Y-66935000D01*
X134272729Y-66899068D01*
X134442889Y-66828586D01*
X134596028Y-66726262D01*
X134726262Y-66596028D01*
X134828586Y-66442889D01*
X134899068Y-66272729D01*
X134935000Y-66092089D01*
X134935000Y-65907911D01*
X134899068Y-65727271D01*
X134828586Y-65557111D01*
X134726262Y-65403972D01*
X134596028Y-65273738D01*
X134442889Y-65171414D01*
X134272729Y-65100932D01*
X134092089Y-65065000D01*
X133907911Y-65065000D01*
X133727271Y-65100932D01*
X133557111Y-65171414D01*
X133403972Y-65273738D01*
X133273738Y-65403972D01*
X133171414Y-65557111D01*
X133100932Y-65727271D01*
X133065000Y-65907911D01*
X82935000Y-65907911D01*
X82899068Y-65727271D01*
X82828586Y-65557111D01*
X82726262Y-65403972D01*
X82596028Y-65273738D01*
X82442889Y-65171414D01*
X82272729Y-65100932D01*
X82092089Y-65065000D01*
X81907911Y-65065000D01*
X81727271Y-65100932D01*
X81557111Y-65171414D01*
X81403972Y-65273738D01*
X81273738Y-65403972D01*
X81171414Y-65557111D01*
X81100932Y-65727271D01*
X81065000Y-65907911D01*
X11127000Y-65907911D01*
X11127000Y-49907911D01*
X81065000Y-49907911D01*
X81065000Y-50092089D01*
X81100932Y-50272729D01*
X81171414Y-50442889D01*
X81273738Y-50596028D01*
X81403972Y-50726262D01*
X81557111Y-50828586D01*
X81727271Y-50899068D01*
X81907911Y-50935000D01*
X82092089Y-50935000D01*
X82272729Y-50899068D01*
X82442889Y-50828586D01*
X82596028Y-50726262D01*
X82726262Y-50596028D01*
X82828586Y-50442889D01*
X82899068Y-50272729D01*
X82935000Y-50092089D01*
X82935000Y-49907911D01*
X133065000Y-49907911D01*
X133065000Y-50092089D01*
X133100932Y-50272729D01*
X133171414Y-50442889D01*
X133273738Y-50596028D01*
X133403972Y-50726262D01*
X133557111Y-50828586D01*
X133727271Y-50899068D01*
X133907911Y-50935000D01*
X134092089Y-50935000D01*
X134272729Y-50899068D01*
X134442889Y-50828586D01*
X134596028Y-50726262D01*
X134726262Y-50596028D01*
X134828586Y-50442889D01*
X134899068Y-50272729D01*
X134935000Y-50092089D01*
X134935000Y-49907911D01*
X134899068Y-49727271D01*
X134828586Y-49557111D01*
X134726262Y-49403972D01*
X134596028Y-49273738D01*
X134442889Y-49171414D01*
X134272729Y-49100932D01*
X134092089Y-49065000D01*
X133907911Y-49065000D01*
X133727271Y-49100932D01*
X133557111Y-49171414D01*
X133403972Y-49273738D01*
X133273738Y-49403972D01*
X133171414Y-49557111D01*
X133100932Y-49727271D01*
X133065000Y-49907911D01*
X82935000Y-49907911D01*
X82899068Y-49727271D01*
X82828586Y-49557111D01*
X82726262Y-49403972D01*
X82596028Y-49273738D01*
X82442889Y-49171414D01*
X82272729Y-49100932D01*
X82092089Y-49065000D01*
X81907911Y-49065000D01*
X81727271Y-49100932D01*
X81557111Y-49171414D01*
X81403972Y-49273738D01*
X81273738Y-49403972D01*
X81171414Y-49557111D01*
X81100932Y-49727271D01*
X81065000Y-49907911D01*
X11127000Y-49907911D01*
X11127000Y-22216706D01*
X27615000Y-22216706D01*
X27615000Y-23823293D01*
X27630700Y-23982696D01*
X27692741Y-24187219D01*
X27793491Y-24375710D01*
X27929078Y-24540922D01*
X28094290Y-24676509D01*
X28282780Y-24777259D01*
X28487303Y-24839300D01*
X28700000Y-24860249D01*
X28912696Y-24839300D01*
X29117219Y-24777259D01*
X29305710Y-24676509D01*
X29320978Y-24663978D01*
X29422099Y-24765099D01*
X29583428Y-24872896D01*
X29762686Y-24947147D01*
X29952986Y-24985000D01*
X30147014Y-24985000D01*
X30337314Y-24947147D01*
X30475000Y-24890116D01*
X30612686Y-24947147D01*
X30802986Y-24985000D01*
X30997014Y-24985000D01*
X31187314Y-24947147D01*
X31325000Y-24890116D01*
X31462686Y-24947147D01*
X31652986Y-24985000D01*
X31847014Y-24985000D01*
X32037314Y-24947147D01*
X32175000Y-24890116D01*
X32312686Y-24947147D01*
X32502986Y-24985000D01*
X32697014Y-24985000D01*
X32887314Y-24947147D01*
X33025000Y-24890116D01*
X33162686Y-24947147D01*
X33352986Y-24985000D01*
X33547014Y-24985000D01*
X33737314Y-24947147D01*
X33875000Y-24890116D01*
X34012686Y-24947147D01*
X34202986Y-24985000D01*
X34397014Y-24985000D01*
X34587314Y-24947147D01*
X34725000Y-24890116D01*
X34862686Y-24947147D01*
X35052986Y-24985000D01*
X35247014Y-24985000D01*
X35437314Y-24947147D01*
X35575000Y-24890116D01*
X35712686Y-24947147D01*
X35902986Y-24985000D01*
X36097014Y-24985000D01*
X36287314Y-24947147D01*
X36466572Y-24872896D01*
X36627901Y-24765099D01*
X36729022Y-24663978D01*
X36744290Y-24676509D01*
X36932780Y-24777259D01*
X37137303Y-24839300D01*
X37350000Y-24860249D01*
X37562696Y-24839300D01*
X37767219Y-24777259D01*
X37955710Y-24676509D01*
X38120922Y-24540922D01*
X38256509Y-24375710D01*
X38357259Y-24187220D01*
X38419300Y-23982697D01*
X38435000Y-23823294D01*
X38435000Y-23789721D01*
X85865000Y-23789721D01*
X85865000Y-24210279D01*
X85947047Y-24622756D01*
X86107988Y-25011302D01*
X86341637Y-25360983D01*
X86639017Y-25658363D01*
X86988698Y-25892012D01*
X87377244Y-26052953D01*
X87789721Y-26135000D01*
X88210279Y-26135000D01*
X88622756Y-26052953D01*
X89011302Y-25892012D01*
X89360983Y-25658363D01*
X89658363Y-25360983D01*
X89750000Y-25223838D01*
X89841637Y-25360983D01*
X90139017Y-25658363D01*
X90488698Y-25892012D01*
X90877244Y-26052953D01*
X91289721Y-26135000D01*
X91710279Y-26135000D01*
X92122756Y-26052953D01*
X92511302Y-25892012D01*
X92860983Y-25658363D01*
X92879000Y-25640346D01*
X92910498Y-25744180D01*
X92969463Y-25854494D01*
X93048815Y-25951185D01*
X93145506Y-26030537D01*
X93255820Y-26089502D01*
X93375518Y-26125812D01*
X93500000Y-26138072D01*
X96500000Y-26138072D01*
X96624482Y-26125812D01*
X96744180Y-26089502D01*
X96854494Y-26030537D01*
X96951185Y-25951185D01*
X97030537Y-25854494D01*
X97089502Y-25744180D01*
X97125812Y-25624482D01*
X97138072Y-25500000D01*
X97138072Y-23789721D01*
X135865000Y-23789721D01*
X135865000Y-24210279D01*
X135947047Y-24622756D01*
X136107988Y-25011302D01*
X136341637Y-25360983D01*
X136639017Y-25658363D01*
X136988698Y-25892012D01*
X137377244Y-26052953D01*
X137789721Y-26135000D01*
X138210279Y-26135000D01*
X138622756Y-26052953D01*
X139011302Y-25892012D01*
X139360983Y-25658363D01*
X139658363Y-25360983D01*
X139750000Y-25223838D01*
X139841637Y-25360983D01*
X140139017Y-25658363D01*
X140488698Y-25892012D01*
X140877244Y-26052953D01*
X141289721Y-26135000D01*
X141710279Y-26135000D01*
X142122756Y-26052953D01*
X142511302Y-25892012D01*
X142860983Y-25658363D01*
X142879000Y-25640346D01*
X142910498Y-25744180D01*
X142969463Y-25854494D01*
X143048815Y-25951185D01*
X143145506Y-26030537D01*
X143255820Y-26089502D01*
X143375518Y-26125812D01*
X143500000Y-26138072D01*
X146500000Y-26138072D01*
X146624482Y-26125812D01*
X146744180Y-26089502D01*
X146854494Y-26030537D01*
X146951185Y-25951185D01*
X147030537Y-25854494D01*
X147089502Y-25744180D01*
X147125812Y-25624482D01*
X147138072Y-25500000D01*
X147138072Y-22500000D01*
X147125812Y-22375518D01*
X147089502Y-22255820D01*
X147030537Y-22145506D01*
X146951185Y-22048815D01*
X146854494Y-21969463D01*
X146744180Y-21910498D01*
X146624482Y-21874188D01*
X146500000Y-21861928D01*
X143500000Y-21861928D01*
X143375518Y-21874188D01*
X143255820Y-21910498D01*
X143145506Y-21969463D01*
X143048815Y-22048815D01*
X142969463Y-22145506D01*
X142910498Y-22255820D01*
X142879000Y-22359654D01*
X142860983Y-22341637D01*
X142511302Y-22107988D01*
X142122756Y-21947047D01*
X141710279Y-21865000D01*
X141289721Y-21865000D01*
X140877244Y-21947047D01*
X140488698Y-22107988D01*
X140139017Y-22341637D01*
X139841637Y-22639017D01*
X139750000Y-22776162D01*
X139658363Y-22639017D01*
X139360983Y-22341637D01*
X139011302Y-22107988D01*
X138622756Y-21947047D01*
X138210279Y-21865000D01*
X137789721Y-21865000D01*
X137377244Y-21947047D01*
X136988698Y-22107988D01*
X136639017Y-22341637D01*
X136341637Y-22639017D01*
X136107988Y-22988698D01*
X135947047Y-23377244D01*
X135865000Y-23789721D01*
X97138072Y-23789721D01*
X97138072Y-22500000D01*
X97125812Y-22375518D01*
X97089502Y-22255820D01*
X97030537Y-22145506D01*
X96951185Y-22048815D01*
X96854494Y-21969463D01*
X96744180Y-21910498D01*
X96624482Y-21874188D01*
X96500000Y-21861928D01*
X93500000Y-21861928D01*
X93375518Y-21874188D01*
X93255820Y-21910498D01*
X93145506Y-21969463D01*
X93048815Y-22048815D01*
X92969463Y-22145506D01*
X92910498Y-22255820D01*
X92879000Y-22359654D01*
X92860983Y-22341637D01*
X92511302Y-22107988D01*
X92122756Y-21947047D01*
X91710279Y-21865000D01*
X91289721Y-21865000D01*
X90877244Y-21947047D01*
X90488698Y-22107988D01*
X90139017Y-22341637D01*
X89841637Y-22639017D01*
X89750000Y-22776162D01*
X89658363Y-22639017D01*
X89360983Y-22341637D01*
X89011302Y-22107988D01*
X88622756Y-21947047D01*
X88210279Y-21865000D01*
X87789721Y-21865000D01*
X87377244Y-21947047D01*
X86988698Y-22107988D01*
X86639017Y-22341637D01*
X86341637Y-22639017D01*
X86107988Y-22988698D01*
X85947047Y-23377244D01*
X85865000Y-23789721D01*
X38435000Y-23789721D01*
X38435000Y-22216706D01*
X38419300Y-22057303D01*
X38357259Y-21852780D01*
X38256509Y-21664290D01*
X38120922Y-21499078D01*
X37955710Y-21363491D01*
X37767220Y-21262741D01*
X37562697Y-21200700D01*
X37350000Y-21179751D01*
X37137304Y-21200700D01*
X36932781Y-21262741D01*
X36744291Y-21363491D01*
X36579079Y-21499078D01*
X36443492Y-21664290D01*
X36398306Y-21748827D01*
X36287314Y-21702853D01*
X36097014Y-21665000D01*
X35902986Y-21665000D01*
X35712686Y-21702853D01*
X35575000Y-21759884D01*
X35437314Y-21702853D01*
X35247014Y-21665000D01*
X35052986Y-21665000D01*
X34862686Y-21702853D01*
X34725000Y-21759884D01*
X34587314Y-21702853D01*
X34397014Y-21665000D01*
X34202986Y-21665000D01*
X34012686Y-21702853D01*
X33875000Y-21759884D01*
X33737314Y-21702853D01*
X33547014Y-21665000D01*
X33352986Y-21665000D01*
X33162686Y-21702853D01*
X33025000Y-21759884D01*
X32887314Y-21702853D01*
X32697014Y-21665000D01*
X32502986Y-21665000D01*
X32312686Y-21702853D01*
X32175000Y-21759884D01*
X32037314Y-21702853D01*
X31847014Y-21665000D01*
X31652986Y-21665000D01*
X31462686Y-21702853D01*
X31325000Y-21759884D01*
X31187314Y-21702853D01*
X30997014Y-21665000D01*
X30802986Y-21665000D01*
X30612686Y-21702853D01*
X30475000Y-21759884D01*
X30337314Y-21702853D01*
X30147014Y-21665000D01*
X29952986Y-21665000D01*
X29762686Y-21702853D01*
X29651695Y-21748827D01*
X29606509Y-21664290D01*
X29470922Y-21499078D01*
X29305710Y-21363491D01*
X29117220Y-21262741D01*
X28912697Y-21200700D01*
X28700000Y-21179751D01*
X28487304Y-21200700D01*
X28282781Y-21262741D01*
X28094291Y-21363491D01*
X27929079Y-21499078D01*
X27793492Y-21664290D01*
X27692742Y-21852780D01*
X27630700Y-22057303D01*
X27615000Y-22216706D01*
X11127000Y-22216706D01*
X11127000Y-19186706D01*
X27615000Y-19186706D01*
X27615000Y-20093293D01*
X27630700Y-20252696D01*
X27692741Y-20457219D01*
X27793491Y-20645710D01*
X27929078Y-20810922D01*
X28094290Y-20946509D01*
X28282780Y-21047259D01*
X28487303Y-21109300D01*
X28700000Y-21130249D01*
X28912696Y-21109300D01*
X29117219Y-21047259D01*
X29305710Y-20946509D01*
X29470922Y-20810922D01*
X29606509Y-20645710D01*
X29707259Y-20457220D01*
X29769300Y-20252697D01*
X29785000Y-20093294D01*
X29785000Y-19186707D01*
X29785000Y-19186706D01*
X36265000Y-19186706D01*
X36265000Y-20093293D01*
X36280700Y-20252696D01*
X36342741Y-20457219D01*
X36443491Y-20645710D01*
X36579078Y-20810922D01*
X36744290Y-20946509D01*
X36932780Y-21047259D01*
X37137303Y-21109300D01*
X37350000Y-21130249D01*
X37562696Y-21109300D01*
X37767219Y-21047259D01*
X37955710Y-20946509D01*
X38120922Y-20810922D01*
X38256509Y-20645710D01*
X38357259Y-20457220D01*
X38419300Y-20252697D01*
X38435000Y-20093294D01*
X38435000Y-19186707D01*
X38419300Y-19027304D01*
X38371133Y-18868514D01*
X83665000Y-18868514D01*
X83665000Y-19131486D01*
X83716304Y-19389405D01*
X83816939Y-19632359D01*
X83963038Y-19851013D01*
X84148987Y-20036962D01*
X84367641Y-20183061D01*
X84610595Y-20283696D01*
X84868514Y-20335000D01*
X85131486Y-20335000D01*
X85389405Y-20283696D01*
X85632359Y-20183061D01*
X85851013Y-20036962D01*
X86036962Y-19851013D01*
X86183061Y-19632359D01*
X86283696Y-19389405D01*
X86335000Y-19131486D01*
X86335000Y-18868514D01*
X96665000Y-18868514D01*
X96665000Y-19131486D01*
X96716304Y-19389405D01*
X96816939Y-19632359D01*
X96963038Y-19851013D01*
X97148987Y-20036962D01*
X97367641Y-20183061D01*
X97610595Y-20283696D01*
X97868514Y-20335000D01*
X98131486Y-20335000D01*
X98389405Y-20283696D01*
X98632359Y-20183061D01*
X98851013Y-20036962D01*
X99036962Y-19851013D01*
X99183061Y-19632359D01*
X99283696Y-19389405D01*
X99335000Y-19131486D01*
X99335000Y-18868514D01*
X133665000Y-18868514D01*
X133665000Y-19131486D01*
X133716304Y-19389405D01*
X133816939Y-19632359D01*
X133963038Y-19851013D01*
X134148987Y-20036962D01*
X134367641Y-20183061D01*
X134610595Y-20283696D01*
X134868514Y-20335000D01*
X135131486Y-20335000D01*
X135389405Y-20283696D01*
X135632359Y-20183061D01*
X135851013Y-20036962D01*
X136036962Y-19851013D01*
X136183061Y-19632359D01*
X136283696Y-19389405D01*
X136335000Y-19131486D01*
X136335000Y-18868514D01*
X146665000Y-18868514D01*
X146665000Y-19131486D01*
X146716304Y-19389405D01*
X146816939Y-19632359D01*
X146963038Y-19851013D01*
X147148987Y-20036962D01*
X147367641Y-20183061D01*
X147610595Y-20283696D01*
X147868514Y-20335000D01*
X148131486Y-20335000D01*
X148389405Y-20283696D01*
X148632359Y-20183061D01*
X148851013Y-20036962D01*
X149036962Y-19851013D01*
X149183061Y-19632359D01*
X149283696Y-19389405D01*
X149335000Y-19131486D01*
X149335000Y-18868514D01*
X149283696Y-18610595D01*
X149183061Y-18367641D01*
X149036962Y-18148987D01*
X148851013Y-17963038D01*
X148632359Y-17816939D01*
X148389405Y-17716304D01*
X148131486Y-17665000D01*
X147868514Y-17665000D01*
X147610595Y-17716304D01*
X147367641Y-17816939D01*
X147148987Y-17963038D01*
X146963038Y-18148987D01*
X146816939Y-18367641D01*
X146716304Y-18610595D01*
X146665000Y-18868514D01*
X136335000Y-18868514D01*
X136283696Y-18610595D01*
X136183061Y-18367641D01*
X136036962Y-18148987D01*
X135851013Y-17963038D01*
X135632359Y-17816939D01*
X135389405Y-17716304D01*
X135131486Y-17665000D01*
X134868514Y-17665000D01*
X134610595Y-17716304D01*
X134367641Y-17816939D01*
X134148987Y-17963038D01*
X133963038Y-18148987D01*
X133816939Y-18367641D01*
X133716304Y-18610595D01*
X133665000Y-18868514D01*
X99335000Y-18868514D01*
X99283696Y-18610595D01*
X99183061Y-18367641D01*
X99036962Y-18148987D01*
X98851013Y-17963038D01*
X98632359Y-17816939D01*
X98389405Y-17716304D01*
X98131486Y-17665000D01*
X97868514Y-17665000D01*
X97610595Y-17716304D01*
X97367641Y-17816939D01*
X97148987Y-17963038D01*
X96963038Y-18148987D01*
X96816939Y-18367641D01*
X96716304Y-18610595D01*
X96665000Y-18868514D01*
X86335000Y-18868514D01*
X86283696Y-18610595D01*
X86183061Y-18367641D01*
X86036962Y-18148987D01*
X85851013Y-17963038D01*
X85632359Y-17816939D01*
X85389405Y-17716304D01*
X85131486Y-17665000D01*
X84868514Y-17665000D01*
X84610595Y-17716304D01*
X84367641Y-17816939D01*
X84148987Y-17963038D01*
X83963038Y-18148987D01*
X83816939Y-18367641D01*
X83716304Y-18610595D01*
X83665000Y-18868514D01*
X38371133Y-18868514D01*
X38357259Y-18822780D01*
X38256509Y-18634290D01*
X38120922Y-18469078D01*
X37955710Y-18333491D01*
X37767220Y-18232741D01*
X37562697Y-18170700D01*
X37350000Y-18149751D01*
X37137304Y-18170700D01*
X36932781Y-18232741D01*
X36744291Y-18333491D01*
X36579079Y-18469078D01*
X36443492Y-18634290D01*
X36342742Y-18822780D01*
X36280700Y-19027303D01*
X36265000Y-19186706D01*
X29785000Y-19186706D01*
X29769300Y-19027304D01*
X29707259Y-18822780D01*
X29606509Y-18634290D01*
X29470922Y-18469078D01*
X29305710Y-18333491D01*
X29117220Y-18232741D01*
X28912697Y-18170700D01*
X28700000Y-18149751D01*
X28487304Y-18170700D01*
X28282781Y-18232741D01*
X28094291Y-18333491D01*
X27929079Y-18469078D01*
X27793492Y-18634290D01*
X27692742Y-18822780D01*
X27630700Y-19027303D01*
X27615000Y-19186706D01*
X11127000Y-19186706D01*
X11127000Y-11127000D01*
X208873000Y-11127000D01*
X208873000Y-168873000D01*
G04 #@! TA.AperFunction,Conductor*
D20*
G36*
X208873000Y-168873000D02*
G01*
X11127000Y-168873000D01*
X11127000Y-159789721D01*
X85865000Y-159789721D01*
X85865000Y-160210279D01*
X85947047Y-160622756D01*
X86107988Y-161011302D01*
X86341637Y-161360983D01*
X86639017Y-161658363D01*
X86988698Y-161892012D01*
X87377244Y-162052953D01*
X87789721Y-162135000D01*
X88210279Y-162135000D01*
X88622756Y-162052953D01*
X89011302Y-161892012D01*
X89360983Y-161658363D01*
X89658363Y-161360983D01*
X89750000Y-161223838D01*
X89841637Y-161360983D01*
X90139017Y-161658363D01*
X90488698Y-161892012D01*
X90877244Y-162052953D01*
X91289721Y-162135000D01*
X91710279Y-162135000D01*
X92122756Y-162052953D01*
X92511302Y-161892012D01*
X92860983Y-161658363D01*
X92879000Y-161640346D01*
X92910498Y-161744180D01*
X92969463Y-161854494D01*
X93048815Y-161951185D01*
X93145506Y-162030537D01*
X93255820Y-162089502D01*
X93375518Y-162125812D01*
X93500000Y-162138072D01*
X96500000Y-162138072D01*
X96624482Y-162125812D01*
X96744180Y-162089502D01*
X96854494Y-162030537D01*
X96951185Y-161951185D01*
X97030537Y-161854494D01*
X97089502Y-161744180D01*
X97125812Y-161624482D01*
X97138072Y-161500000D01*
X97138072Y-159789721D01*
X135865000Y-159789721D01*
X135865000Y-160210279D01*
X135947047Y-160622756D01*
X136107988Y-161011302D01*
X136341637Y-161360983D01*
X136639017Y-161658363D01*
X136988698Y-161892012D01*
X137377244Y-162052953D01*
X137789721Y-162135000D01*
X138210279Y-162135000D01*
X138622756Y-162052953D01*
X139011302Y-161892012D01*
X139360983Y-161658363D01*
X139658363Y-161360983D01*
X139750000Y-161223838D01*
X139841637Y-161360983D01*
X140139017Y-161658363D01*
X140488698Y-161892012D01*
X140877244Y-162052953D01*
X141289721Y-162135000D01*
X141710279Y-162135000D01*
X142122756Y-162052953D01*
X142511302Y-161892012D01*
X142860983Y-161658363D01*
X142879000Y-161640346D01*
X142910498Y-161744180D01*
X142969463Y-161854494D01*
X143048815Y-161951185D01*
X143145506Y-162030537D01*
X143255820Y-162089502D01*
X143375518Y-162125812D01*
X143500000Y-162138072D01*
X146500000Y-162138072D01*
X146624482Y-162125812D01*
X146744180Y-162089502D01*
X146854494Y-162030537D01*
X146951185Y-161951185D01*
X147030537Y-161854494D01*
X147089502Y-161744180D01*
X147125812Y-161624482D01*
X147138072Y-161500000D01*
X147138072Y-158500000D01*
X147125812Y-158375518D01*
X147089502Y-158255820D01*
X147030537Y-158145506D01*
X146951185Y-158048815D01*
X146854494Y-157969463D01*
X146744180Y-157910498D01*
X146624482Y-157874188D01*
X146500000Y-157861928D01*
X143500000Y-157861928D01*
X143375518Y-157874188D01*
X143255820Y-157910498D01*
X143145506Y-157969463D01*
X143048815Y-158048815D01*
X142969463Y-158145506D01*
X142910498Y-158255820D01*
X142879000Y-158359654D01*
X142860983Y-158341637D01*
X142511302Y-158107988D01*
X142122756Y-157947047D01*
X141710279Y-157865000D01*
X141289721Y-157865000D01*
X140877244Y-157947047D01*
X140488698Y-158107988D01*
X140139017Y-158341637D01*
X139841637Y-158639017D01*
X139750000Y-158776162D01*
X139658363Y-158639017D01*
X139360983Y-158341637D01*
X139011302Y-158107988D01*
X138622756Y-157947047D01*
X138210279Y-157865000D01*
X137789721Y-157865000D01*
X137377244Y-157947047D01*
X136988698Y-158107988D01*
X136639017Y-158341637D01*
X136341637Y-158639017D01*
X136107988Y-158988698D01*
X135947047Y-159377244D01*
X135865000Y-159789721D01*
X97138072Y-159789721D01*
X97138072Y-158500000D01*
X97125812Y-158375518D01*
X97089502Y-158255820D01*
X97030537Y-158145506D01*
X96951185Y-158048815D01*
X96854494Y-157969463D01*
X96744180Y-157910498D01*
X96624482Y-157874188D01*
X96500000Y-157861928D01*
X93500000Y-157861928D01*
X93375518Y-157874188D01*
X93255820Y-157910498D01*
X93145506Y-157969463D01*
X93048815Y-158048815D01*
X92969463Y-158145506D01*
X92910498Y-158255820D01*
X92879000Y-158359654D01*
X92860983Y-158341637D01*
X92511302Y-158107988D01*
X92122756Y-157947047D01*
X91710279Y-157865000D01*
X91289721Y-157865000D01*
X90877244Y-157947047D01*
X90488698Y-158107988D01*
X90139017Y-158341637D01*
X89841637Y-158639017D01*
X89750000Y-158776162D01*
X89658363Y-158639017D01*
X89360983Y-158341637D01*
X89011302Y-158107988D01*
X88622756Y-157947047D01*
X88210279Y-157865000D01*
X87789721Y-157865000D01*
X87377244Y-157947047D01*
X86988698Y-158107988D01*
X86639017Y-158341637D01*
X86341637Y-158639017D01*
X86107988Y-158988698D01*
X85947047Y-159377244D01*
X85865000Y-159789721D01*
X11127000Y-159789721D01*
X11127000Y-154868514D01*
X83665000Y-154868514D01*
X83665000Y-155131486D01*
X83716304Y-155389405D01*
X83816939Y-155632359D01*
X83963038Y-155851013D01*
X84148987Y-156036962D01*
X84367641Y-156183061D01*
X84610595Y-156283696D01*
X84868514Y-156335000D01*
X85131486Y-156335000D01*
X85389405Y-156283696D01*
X85632359Y-156183061D01*
X85851013Y-156036962D01*
X86036962Y-155851013D01*
X86183061Y-155632359D01*
X86283696Y-155389405D01*
X86335000Y-155131486D01*
X86335000Y-154868514D01*
X96665000Y-154868514D01*
X96665000Y-155131486D01*
X96716304Y-155389405D01*
X96816939Y-155632359D01*
X96963038Y-155851013D01*
X97148987Y-156036962D01*
X97367641Y-156183061D01*
X97610595Y-156283696D01*
X97868514Y-156335000D01*
X98131486Y-156335000D01*
X98389405Y-156283696D01*
X98632359Y-156183061D01*
X98851013Y-156036962D01*
X99036962Y-155851013D01*
X99183061Y-155632359D01*
X99283696Y-155389405D01*
X99335000Y-155131486D01*
X99335000Y-154868514D01*
X133665000Y-154868514D01*
X133665000Y-155131486D01*
X133716304Y-155389405D01*
X133816939Y-155632359D01*
X133963038Y-155851013D01*
X134148987Y-156036962D01*
X134367641Y-156183061D01*
X134610595Y-156283696D01*
X134868514Y-156335000D01*
X135131486Y-156335000D01*
X135389405Y-156283696D01*
X135632359Y-156183061D01*
X135851013Y-156036962D01*
X136036962Y-155851013D01*
X136183061Y-155632359D01*
X136283696Y-155389405D01*
X136335000Y-155131486D01*
X136335000Y-154868514D01*
X146665000Y-154868514D01*
X146665000Y-155131486D01*
X146716304Y-155389405D01*
X146816939Y-155632359D01*
X146963038Y-155851013D01*
X147148987Y-156036962D01*
X147367641Y-156183061D01*
X147610595Y-156283696D01*
X147868514Y-156335000D01*
X148131486Y-156335000D01*
X148389405Y-156283696D01*
X148632359Y-156183061D01*
X148851013Y-156036962D01*
X149036962Y-155851013D01*
X149183061Y-155632359D01*
X149283696Y-155389405D01*
X149335000Y-155131486D01*
X149335000Y-154868514D01*
X149283696Y-154610595D01*
X149183061Y-154367641D01*
X149036962Y-154148987D01*
X148851013Y-153963038D01*
X148632359Y-153816939D01*
X148389405Y-153716304D01*
X148131486Y-153665000D01*
X147868514Y-153665000D01*
X147610595Y-153716304D01*
X147367641Y-153816939D01*
X147148987Y-153963038D01*
X146963038Y-154148987D01*
X146816939Y-154367641D01*
X146716304Y-154610595D01*
X146665000Y-154868514D01*
X136335000Y-154868514D01*
X136283696Y-154610595D01*
X136183061Y-154367641D01*
X136036962Y-154148987D01*
X135851013Y-153963038D01*
X135632359Y-153816939D01*
X135389405Y-153716304D01*
X135131486Y-153665000D01*
X134868514Y-153665000D01*
X134610595Y-153716304D01*
X134367641Y-153816939D01*
X134148987Y-153963038D01*
X133963038Y-154148987D01*
X133816939Y-154367641D01*
X133716304Y-154610595D01*
X133665000Y-154868514D01*
X99335000Y-154868514D01*
X99283696Y-154610595D01*
X99183061Y-154367641D01*
X99036962Y-154148987D01*
X98851013Y-153963038D01*
X98632359Y-153816939D01*
X98389405Y-153716304D01*
X98131486Y-153665000D01*
X97868514Y-153665000D01*
X97610595Y-153716304D01*
X97367641Y-153816939D01*
X97148987Y-153963038D01*
X96963038Y-154148987D01*
X96816939Y-154367641D01*
X96716304Y-154610595D01*
X96665000Y-154868514D01*
X86335000Y-154868514D01*
X86283696Y-154610595D01*
X86183061Y-154367641D01*
X86036962Y-154148987D01*
X85851013Y-153963038D01*
X85632359Y-153816939D01*
X85389405Y-153716304D01*
X85131486Y-153665000D01*
X84868514Y-153665000D01*
X84610595Y-153716304D01*
X84367641Y-153816939D01*
X84148987Y-153963038D01*
X83963038Y-154148987D01*
X83816939Y-154367641D01*
X83716304Y-154610595D01*
X83665000Y-154868514D01*
X11127000Y-154868514D01*
X11127000Y-140500000D01*
X26361928Y-140500000D01*
X26361928Y-143500000D01*
X26403010Y-143917117D01*
X26524679Y-144318205D01*
X26722258Y-144687849D01*
X26988155Y-145011845D01*
X27312151Y-145277742D01*
X27681795Y-145475321D01*
X28082883Y-145596990D01*
X28500000Y-145638072D01*
X31500000Y-145638072D01*
X31917117Y-145596990D01*
X32318205Y-145475321D01*
X32687849Y-145277742D01*
X33011845Y-145011845D01*
X33277742Y-144687849D01*
X33346781Y-144558686D01*
X34820919Y-144558686D01*
X35157106Y-145027868D01*
X35787068Y-145368237D01*
X36471327Y-145579166D01*
X37183589Y-145652550D01*
X37896482Y-145585569D01*
X38582609Y-145380796D01*
X39215603Y-145046102D01*
X39242894Y-145027868D01*
X39579081Y-144558686D01*
X37200000Y-142179605D01*
X34820919Y-144558686D01*
X33346781Y-144558686D01*
X33475321Y-144318205D01*
X33596990Y-143917117D01*
X33638072Y-143500000D01*
X33638072Y-142775695D01*
X33819204Y-143382609D01*
X34153898Y-144015603D01*
X34172132Y-144042894D01*
X34641314Y-144379081D01*
X37020395Y-142000000D01*
X37379605Y-142000000D01*
X39758686Y-144379081D01*
X40227868Y-144042894D01*
X40568237Y-143412932D01*
X40779166Y-142728673D01*
X40852550Y-142016411D01*
X40785569Y-141303518D01*
X40580796Y-140617391D01*
X40246102Y-139984397D01*
X40227868Y-139957106D01*
X39758686Y-139620919D01*
X37379605Y-142000000D01*
X37020395Y-142000000D01*
X34641314Y-139620919D01*
X34172132Y-139957106D01*
X33831763Y-140587068D01*
X33638072Y-141215406D01*
X33638072Y-140500000D01*
X33596990Y-140082883D01*
X33475321Y-139681795D01*
X33346782Y-139441314D01*
X34820919Y-139441314D01*
X37200000Y-141820395D01*
X39579081Y-139441314D01*
X39242894Y-138972132D01*
X38612932Y-138631763D01*
X37928673Y-138420834D01*
X37216411Y-138347450D01*
X36503518Y-138414431D01*
X35817391Y-138619204D01*
X35184397Y-138953898D01*
X35157106Y-138972132D01*
X34820919Y-139441314D01*
X33346782Y-139441314D01*
X33277742Y-139312151D01*
X33011845Y-138988155D01*
X32687849Y-138722258D01*
X32318205Y-138524679D01*
X31917117Y-138403010D01*
X31500000Y-138361928D01*
X28500000Y-138361928D01*
X28082883Y-138403010D01*
X27681795Y-138524679D01*
X27312151Y-138722258D01*
X26988155Y-138988155D01*
X26722258Y-139312151D01*
X26524679Y-139681795D01*
X26403010Y-140082883D01*
X26361928Y-140500000D01*
X11127000Y-140500000D01*
X11127000Y-133907911D01*
X81065000Y-133907911D01*
X81065000Y-134092089D01*
X81100932Y-134272729D01*
X81171414Y-134442889D01*
X81273738Y-134596028D01*
X81403972Y-134726262D01*
X81557111Y-134828586D01*
X81727271Y-134899068D01*
X81907911Y-134935000D01*
X82092089Y-134935000D01*
X82272729Y-134899068D01*
X82442889Y-134828586D01*
X82596028Y-134726262D01*
X82726262Y-134596028D01*
X82828586Y-134442889D01*
X82899068Y-134272729D01*
X82935000Y-134092089D01*
X82935000Y-133907911D01*
X133065000Y-133907911D01*
X133065000Y-134092089D01*
X133100932Y-134272729D01*
X133171414Y-134442889D01*
X133273738Y-134596028D01*
X133403972Y-134726262D01*
X133557111Y-134828586D01*
X133727271Y-134899068D01*
X133907911Y-134935000D01*
X134092089Y-134935000D01*
X134272729Y-134899068D01*
X134442889Y-134828586D01*
X134596028Y-134726262D01*
X134726262Y-134596028D01*
X134828586Y-134442889D01*
X134899068Y-134272729D01*
X134935000Y-134092089D01*
X134935000Y-133907911D01*
X134899068Y-133727271D01*
X134828586Y-133557111D01*
X134726262Y-133403972D01*
X134596028Y-133273738D01*
X134442889Y-133171414D01*
X134272729Y-133100932D01*
X134092089Y-133065000D01*
X133907911Y-133065000D01*
X133727271Y-133100932D01*
X133557111Y-133171414D01*
X133403972Y-133273738D01*
X133273738Y-133403972D01*
X133171414Y-133557111D01*
X133100932Y-133727271D01*
X133065000Y-133907911D01*
X82935000Y-133907911D01*
X82899068Y-133727271D01*
X82828586Y-133557111D01*
X82726262Y-133403972D01*
X82596028Y-133273738D01*
X82442889Y-133171414D01*
X82272729Y-133100932D01*
X82092089Y-133065000D01*
X81907911Y-133065000D01*
X81727271Y-133100932D01*
X81557111Y-133171414D01*
X81403972Y-133273738D01*
X81273738Y-133403972D01*
X81171414Y-133557111D01*
X81100932Y-133727271D01*
X81065000Y-133907911D01*
X11127000Y-133907911D01*
X11127000Y-117907911D01*
X81065000Y-117907911D01*
X81065000Y-118092089D01*
X81100932Y-118272729D01*
X81171414Y-118442889D01*
X81273738Y-118596028D01*
X81403972Y-118726262D01*
X81557111Y-118828586D01*
X81727271Y-118899068D01*
X81907911Y-118935000D01*
X82092089Y-118935000D01*
X82272729Y-118899068D01*
X82442889Y-118828586D01*
X82596028Y-118726262D01*
X82726262Y-118596028D01*
X82828586Y-118442889D01*
X82899068Y-118272729D01*
X82935000Y-118092089D01*
X82935000Y-117907911D01*
X133065000Y-117907911D01*
X133065000Y-118092089D01*
X133100932Y-118272729D01*
X133171414Y-118442889D01*
X133273738Y-118596028D01*
X133403972Y-118726262D01*
X133557111Y-118828586D01*
X133727271Y-118899068D01*
X133907911Y-118935000D01*
X134092089Y-118935000D01*
X134272729Y-118899068D01*
X134442889Y-118828586D01*
X134596028Y-118726262D01*
X134726262Y-118596028D01*
X134828586Y-118442889D01*
X134899068Y-118272729D01*
X134935000Y-118092089D01*
X134935000Y-117907911D01*
X134899068Y-117727271D01*
X134828586Y-117557111D01*
X134726262Y-117403972D01*
X134596028Y-117273738D01*
X134442889Y-117171414D01*
X134272729Y-117100932D01*
X134092089Y-117065000D01*
X133907911Y-117065000D01*
X133727271Y-117100932D01*
X133557111Y-117171414D01*
X133403972Y-117273738D01*
X133273738Y-117403972D01*
X133171414Y-117557111D01*
X133100932Y-117727271D01*
X133065000Y-117907911D01*
X82935000Y-117907911D01*
X82899068Y-117727271D01*
X82828586Y-117557111D01*
X82726262Y-117403972D01*
X82596028Y-117273738D01*
X82442889Y-117171414D01*
X82272729Y-117100932D01*
X82092089Y-117065000D01*
X81907911Y-117065000D01*
X81727271Y-117100932D01*
X81557111Y-117171414D01*
X81403972Y-117273738D01*
X81273738Y-117403972D01*
X81171414Y-117557111D01*
X81100932Y-117727271D01*
X81065000Y-117907911D01*
X11127000Y-117907911D01*
X11127000Y-101907911D01*
X81065000Y-101907911D01*
X81065000Y-102092089D01*
X81100932Y-102272729D01*
X81171414Y-102442889D01*
X81273738Y-102596028D01*
X81403972Y-102726262D01*
X81557111Y-102828586D01*
X81727271Y-102899068D01*
X81907911Y-102935000D01*
X82092089Y-102935000D01*
X82272729Y-102899068D01*
X82442889Y-102828586D01*
X82596028Y-102726262D01*
X82726262Y-102596028D01*
X82828586Y-102442889D01*
X82899068Y-102272729D01*
X82935000Y-102092089D01*
X82935000Y-101907911D01*
X133065000Y-101907911D01*
X133065000Y-102092089D01*
X133100932Y-102272729D01*
X133171414Y-102442889D01*
X133273738Y-102596028D01*
X133403972Y-102726262D01*
X133557111Y-102828586D01*
X133727271Y-102899068D01*
X133907911Y-102935000D01*
X134092089Y-102935000D01*
X134272729Y-102899068D01*
X134442889Y-102828586D01*
X134596028Y-102726262D01*
X134726262Y-102596028D01*
X134828586Y-102442889D01*
X134899068Y-102272729D01*
X134935000Y-102092089D01*
X134935000Y-101907911D01*
X134899068Y-101727271D01*
X134828586Y-101557111D01*
X134726262Y-101403972D01*
X134596028Y-101273738D01*
X134442889Y-101171414D01*
X134272729Y-101100932D01*
X134092089Y-101065000D01*
X133907911Y-101065000D01*
X133727271Y-101100932D01*
X133557111Y-101171414D01*
X133403972Y-101273738D01*
X133273738Y-101403972D01*
X133171414Y-101557111D01*
X133100932Y-101727271D01*
X133065000Y-101907911D01*
X82935000Y-101907911D01*
X82899068Y-101727271D01*
X82828586Y-101557111D01*
X82726262Y-101403972D01*
X82596028Y-101273738D01*
X82442889Y-101171414D01*
X82272729Y-101100932D01*
X82092089Y-101065000D01*
X81907911Y-101065000D01*
X81727271Y-101100932D01*
X81557111Y-101171414D01*
X81403972Y-101273738D01*
X81273738Y-101403972D01*
X81171414Y-101557111D01*
X81100932Y-101727271D01*
X81065000Y-101907911D01*
X11127000Y-101907911D01*
X11127000Y-81907911D01*
X81065000Y-81907911D01*
X81065000Y-82092089D01*
X81100932Y-82272729D01*
X81171414Y-82442889D01*
X81273738Y-82596028D01*
X81403972Y-82726262D01*
X81557111Y-82828586D01*
X81727271Y-82899068D01*
X81907911Y-82935000D01*
X82092089Y-82935000D01*
X82272729Y-82899068D01*
X82442889Y-82828586D01*
X82596028Y-82726262D01*
X82726262Y-82596028D01*
X82828586Y-82442889D01*
X82899068Y-82272729D01*
X82935000Y-82092089D01*
X82935000Y-81907911D01*
X133065000Y-81907911D01*
X133065000Y-82092089D01*
X133100932Y-82272729D01*
X133171414Y-82442889D01*
X133273738Y-82596028D01*
X133403972Y-82726262D01*
X133557111Y-82828586D01*
X133727271Y-82899068D01*
X133907911Y-82935000D01*
X134092089Y-82935000D01*
X134272729Y-82899068D01*
X134442889Y-82828586D01*
X134596028Y-82726262D01*
X134726262Y-82596028D01*
X134828586Y-82442889D01*
X134899068Y-82272729D01*
X134935000Y-82092089D01*
X134935000Y-81907911D01*
X134899068Y-81727271D01*
X134828586Y-81557111D01*
X134726262Y-81403972D01*
X134596028Y-81273738D01*
X134442889Y-81171414D01*
X134272729Y-81100932D01*
X134092089Y-81065000D01*
X133907911Y-81065000D01*
X133727271Y-81100932D01*
X133557111Y-81171414D01*
X133403972Y-81273738D01*
X133273738Y-81403972D01*
X133171414Y-81557111D01*
X133100932Y-81727271D01*
X133065000Y-81907911D01*
X82935000Y-81907911D01*
X82899068Y-81727271D01*
X82828586Y-81557111D01*
X82726262Y-81403972D01*
X82596028Y-81273738D01*
X82442889Y-81171414D01*
X82272729Y-81100932D01*
X82092089Y-81065000D01*
X81907911Y-81065000D01*
X81727271Y-81100932D01*
X81557111Y-81171414D01*
X81403972Y-81273738D01*
X81273738Y-81403972D01*
X81171414Y-81557111D01*
X81100932Y-81727271D01*
X81065000Y-81907911D01*
X11127000Y-81907911D01*
X11127000Y-65907911D01*
X81065000Y-65907911D01*
X81065000Y-66092089D01*
X81100932Y-66272729D01*
X81171414Y-66442889D01*
X81273738Y-66596028D01*
X81403972Y-66726262D01*
X81557111Y-66828586D01*
X81727271Y-66899068D01*
X81907911Y-66935000D01*
X82092089Y-66935000D01*
X82272729Y-66899068D01*
X82442889Y-66828586D01*
X82596028Y-66726262D01*
X82726262Y-66596028D01*
X82828586Y-66442889D01*
X82899068Y-66272729D01*
X82935000Y-66092089D01*
X82935000Y-65907911D01*
X133065000Y-65907911D01*
X133065000Y-66092089D01*
X133100932Y-66272729D01*
X133171414Y-66442889D01*
X133273738Y-66596028D01*
X133403972Y-66726262D01*
X133557111Y-66828586D01*
X133727271Y-66899068D01*
X133907911Y-66935000D01*
X134092089Y-66935000D01*
X134272729Y-66899068D01*
X134442889Y-66828586D01*
X134596028Y-66726262D01*
X134726262Y-66596028D01*
X134828586Y-66442889D01*
X134899068Y-66272729D01*
X134935000Y-66092089D01*
X134935000Y-65907911D01*
X134899068Y-65727271D01*
X134828586Y-65557111D01*
X134726262Y-65403972D01*
X134596028Y-65273738D01*
X134442889Y-65171414D01*
X134272729Y-65100932D01*
X134092089Y-65065000D01*
X133907911Y-65065000D01*
X133727271Y-65100932D01*
X133557111Y-65171414D01*
X133403972Y-65273738D01*
X133273738Y-65403972D01*
X133171414Y-65557111D01*
X133100932Y-65727271D01*
X133065000Y-65907911D01*
X82935000Y-65907911D01*
X82899068Y-65727271D01*
X82828586Y-65557111D01*
X82726262Y-65403972D01*
X82596028Y-65273738D01*
X82442889Y-65171414D01*
X82272729Y-65100932D01*
X82092089Y-65065000D01*
X81907911Y-65065000D01*
X81727271Y-65100932D01*
X81557111Y-65171414D01*
X81403972Y-65273738D01*
X81273738Y-65403972D01*
X81171414Y-65557111D01*
X81100932Y-65727271D01*
X81065000Y-65907911D01*
X11127000Y-65907911D01*
X11127000Y-49907911D01*
X81065000Y-49907911D01*
X81065000Y-50092089D01*
X81100932Y-50272729D01*
X81171414Y-50442889D01*
X81273738Y-50596028D01*
X81403972Y-50726262D01*
X81557111Y-50828586D01*
X81727271Y-50899068D01*
X81907911Y-50935000D01*
X82092089Y-50935000D01*
X82272729Y-50899068D01*
X82442889Y-50828586D01*
X82596028Y-50726262D01*
X82726262Y-50596028D01*
X82828586Y-50442889D01*
X82899068Y-50272729D01*
X82935000Y-50092089D01*
X82935000Y-49907911D01*
X133065000Y-49907911D01*
X133065000Y-50092089D01*
X133100932Y-50272729D01*
X133171414Y-50442889D01*
X133273738Y-50596028D01*
X133403972Y-50726262D01*
X133557111Y-50828586D01*
X133727271Y-50899068D01*
X133907911Y-50935000D01*
X134092089Y-50935000D01*
X134272729Y-50899068D01*
X134442889Y-50828586D01*
X134596028Y-50726262D01*
X134726262Y-50596028D01*
X134828586Y-50442889D01*
X134899068Y-50272729D01*
X134935000Y-50092089D01*
X134935000Y-49907911D01*
X134899068Y-49727271D01*
X134828586Y-49557111D01*
X134726262Y-49403972D01*
X134596028Y-49273738D01*
X134442889Y-49171414D01*
X134272729Y-49100932D01*
X134092089Y-49065000D01*
X133907911Y-49065000D01*
X133727271Y-49100932D01*
X133557111Y-49171414D01*
X133403972Y-49273738D01*
X133273738Y-49403972D01*
X133171414Y-49557111D01*
X133100932Y-49727271D01*
X133065000Y-49907911D01*
X82935000Y-49907911D01*
X82899068Y-49727271D01*
X82828586Y-49557111D01*
X82726262Y-49403972D01*
X82596028Y-49273738D01*
X82442889Y-49171414D01*
X82272729Y-49100932D01*
X82092089Y-49065000D01*
X81907911Y-49065000D01*
X81727271Y-49100932D01*
X81557111Y-49171414D01*
X81403972Y-49273738D01*
X81273738Y-49403972D01*
X81171414Y-49557111D01*
X81100932Y-49727271D01*
X81065000Y-49907911D01*
X11127000Y-49907911D01*
X11127000Y-22216706D01*
X27615000Y-22216706D01*
X27615000Y-23823293D01*
X27630700Y-23982696D01*
X27692741Y-24187219D01*
X27793491Y-24375710D01*
X27929078Y-24540922D01*
X28094290Y-24676509D01*
X28282780Y-24777259D01*
X28487303Y-24839300D01*
X28700000Y-24860249D01*
X28912696Y-24839300D01*
X29117219Y-24777259D01*
X29305710Y-24676509D01*
X29320978Y-24663978D01*
X29422099Y-24765099D01*
X29583428Y-24872896D01*
X29762686Y-24947147D01*
X29952986Y-24985000D01*
X30147014Y-24985000D01*
X30337314Y-24947147D01*
X30475000Y-24890116D01*
X30612686Y-24947147D01*
X30802986Y-24985000D01*
X30997014Y-24985000D01*
X31187314Y-24947147D01*
X31325000Y-24890116D01*
X31462686Y-24947147D01*
X31652986Y-24985000D01*
X31847014Y-24985000D01*
X32037314Y-24947147D01*
X32175000Y-24890116D01*
X32312686Y-24947147D01*
X32502986Y-24985000D01*
X32697014Y-24985000D01*
X32887314Y-24947147D01*
X33025000Y-24890116D01*
X33162686Y-24947147D01*
X33352986Y-24985000D01*
X33547014Y-24985000D01*
X33737314Y-24947147D01*
X33875000Y-24890116D01*
X34012686Y-24947147D01*
X34202986Y-24985000D01*
X34397014Y-24985000D01*
X34587314Y-24947147D01*
X34725000Y-24890116D01*
X34862686Y-24947147D01*
X35052986Y-24985000D01*
X35247014Y-24985000D01*
X35437314Y-24947147D01*
X35575000Y-24890116D01*
X35712686Y-24947147D01*
X35902986Y-24985000D01*
X36097014Y-24985000D01*
X36287314Y-24947147D01*
X36466572Y-24872896D01*
X36627901Y-24765099D01*
X36729022Y-24663978D01*
X36744290Y-24676509D01*
X36932780Y-24777259D01*
X37137303Y-24839300D01*
X37350000Y-24860249D01*
X37562696Y-24839300D01*
X37767219Y-24777259D01*
X37955710Y-24676509D01*
X38120922Y-24540922D01*
X38256509Y-24375710D01*
X38357259Y-24187220D01*
X38419300Y-23982697D01*
X38435000Y-23823294D01*
X38435000Y-23789721D01*
X85865000Y-23789721D01*
X85865000Y-24210279D01*
X85947047Y-24622756D01*
X86107988Y-25011302D01*
X86341637Y-25360983D01*
X86639017Y-25658363D01*
X86988698Y-25892012D01*
X87377244Y-26052953D01*
X87789721Y-26135000D01*
X88210279Y-26135000D01*
X88622756Y-26052953D01*
X89011302Y-25892012D01*
X89360983Y-25658363D01*
X89658363Y-25360983D01*
X89750000Y-25223838D01*
X89841637Y-25360983D01*
X90139017Y-25658363D01*
X90488698Y-25892012D01*
X90877244Y-26052953D01*
X91289721Y-26135000D01*
X91710279Y-26135000D01*
X92122756Y-26052953D01*
X92511302Y-25892012D01*
X92860983Y-25658363D01*
X92879000Y-25640346D01*
X92910498Y-25744180D01*
X92969463Y-25854494D01*
X93048815Y-25951185D01*
X93145506Y-26030537D01*
X93255820Y-26089502D01*
X93375518Y-26125812D01*
X93500000Y-26138072D01*
X96500000Y-26138072D01*
X96624482Y-26125812D01*
X96744180Y-26089502D01*
X96854494Y-26030537D01*
X96951185Y-25951185D01*
X97030537Y-25854494D01*
X97089502Y-25744180D01*
X97125812Y-25624482D01*
X97138072Y-25500000D01*
X97138072Y-23789721D01*
X135865000Y-23789721D01*
X135865000Y-24210279D01*
X135947047Y-24622756D01*
X136107988Y-25011302D01*
X136341637Y-25360983D01*
X136639017Y-25658363D01*
X136988698Y-25892012D01*
X137377244Y-26052953D01*
X137789721Y-26135000D01*
X138210279Y-26135000D01*
X138622756Y-26052953D01*
X139011302Y-25892012D01*
X139360983Y-25658363D01*
X139658363Y-25360983D01*
X139750000Y-25223838D01*
X139841637Y-25360983D01*
X140139017Y-25658363D01*
X140488698Y-25892012D01*
X140877244Y-26052953D01*
X141289721Y-26135000D01*
X141710279Y-26135000D01*
X142122756Y-26052953D01*
X142511302Y-25892012D01*
X142860983Y-25658363D01*
X142879000Y-25640346D01*
X142910498Y-25744180D01*
X142969463Y-25854494D01*
X143048815Y-25951185D01*
X143145506Y-26030537D01*
X143255820Y-26089502D01*
X143375518Y-26125812D01*
X143500000Y-26138072D01*
X146500000Y-26138072D01*
X146624482Y-26125812D01*
X146744180Y-26089502D01*
X146854494Y-26030537D01*
X146951185Y-25951185D01*
X147030537Y-25854494D01*
X147089502Y-25744180D01*
X147125812Y-25624482D01*
X147138072Y-25500000D01*
X147138072Y-22500000D01*
X147125812Y-22375518D01*
X147089502Y-22255820D01*
X147030537Y-22145506D01*
X146951185Y-22048815D01*
X146854494Y-21969463D01*
X146744180Y-21910498D01*
X146624482Y-21874188D01*
X146500000Y-21861928D01*
X143500000Y-21861928D01*
X143375518Y-21874188D01*
X143255820Y-21910498D01*
X143145506Y-21969463D01*
X143048815Y-22048815D01*
X142969463Y-22145506D01*
X142910498Y-22255820D01*
X142879000Y-22359654D01*
X142860983Y-22341637D01*
X142511302Y-22107988D01*
X142122756Y-21947047D01*
X141710279Y-21865000D01*
X141289721Y-21865000D01*
X140877244Y-21947047D01*
X140488698Y-22107988D01*
X140139017Y-22341637D01*
X139841637Y-22639017D01*
X139750000Y-22776162D01*
X139658363Y-22639017D01*
X139360983Y-22341637D01*
X139011302Y-22107988D01*
X138622756Y-21947047D01*
X138210279Y-21865000D01*
X137789721Y-21865000D01*
X137377244Y-21947047D01*
X136988698Y-22107988D01*
X136639017Y-22341637D01*
X136341637Y-22639017D01*
X136107988Y-22988698D01*
X135947047Y-23377244D01*
X135865000Y-23789721D01*
X97138072Y-23789721D01*
X97138072Y-22500000D01*
X97125812Y-22375518D01*
X97089502Y-22255820D01*
X97030537Y-22145506D01*
X96951185Y-22048815D01*
X96854494Y-21969463D01*
X96744180Y-21910498D01*
X96624482Y-21874188D01*
X96500000Y-21861928D01*
X93500000Y-21861928D01*
X93375518Y-21874188D01*
X93255820Y-21910498D01*
X93145506Y-21969463D01*
X93048815Y-22048815D01*
X92969463Y-22145506D01*
X92910498Y-22255820D01*
X92879000Y-22359654D01*
X92860983Y-22341637D01*
X92511302Y-22107988D01*
X92122756Y-21947047D01*
X91710279Y-21865000D01*
X91289721Y-21865000D01*
X90877244Y-21947047D01*
X90488698Y-22107988D01*
X90139017Y-22341637D01*
X89841637Y-22639017D01*
X89750000Y-22776162D01*
X89658363Y-22639017D01*
X89360983Y-22341637D01*
X89011302Y-22107988D01*
X88622756Y-21947047D01*
X88210279Y-21865000D01*
X87789721Y-21865000D01*
X87377244Y-21947047D01*
X86988698Y-22107988D01*
X86639017Y-22341637D01*
X86341637Y-22639017D01*
X86107988Y-22988698D01*
X85947047Y-23377244D01*
X85865000Y-23789721D01*
X38435000Y-23789721D01*
X38435000Y-22216706D01*
X38419300Y-22057303D01*
X38357259Y-21852780D01*
X38256509Y-21664290D01*
X38120922Y-21499078D01*
X37955710Y-21363491D01*
X37767220Y-21262741D01*
X37562697Y-21200700D01*
X37350000Y-21179751D01*
X37137304Y-21200700D01*
X36932781Y-21262741D01*
X36744291Y-21363491D01*
X36579079Y-21499078D01*
X36443492Y-21664290D01*
X36398306Y-21748827D01*
X36287314Y-21702853D01*
X36097014Y-21665000D01*
X35902986Y-21665000D01*
X35712686Y-21702853D01*
X35575000Y-21759884D01*
X35437314Y-21702853D01*
X35247014Y-21665000D01*
X35052986Y-21665000D01*
X34862686Y-21702853D01*
X34725000Y-21759884D01*
X34587314Y-21702853D01*
X34397014Y-21665000D01*
X34202986Y-21665000D01*
X34012686Y-21702853D01*
X33875000Y-21759884D01*
X33737314Y-21702853D01*
X33547014Y-21665000D01*
X33352986Y-21665000D01*
X33162686Y-21702853D01*
X33025000Y-21759884D01*
X32887314Y-21702853D01*
X32697014Y-21665000D01*
X32502986Y-21665000D01*
X32312686Y-21702853D01*
X32175000Y-21759884D01*
X32037314Y-21702853D01*
X31847014Y-21665000D01*
X31652986Y-21665000D01*
X31462686Y-21702853D01*
X31325000Y-21759884D01*
X31187314Y-21702853D01*
X30997014Y-21665000D01*
X30802986Y-21665000D01*
X30612686Y-21702853D01*
X30475000Y-21759884D01*
X30337314Y-21702853D01*
X30147014Y-21665000D01*
X29952986Y-21665000D01*
X29762686Y-21702853D01*
X29651695Y-21748827D01*
X29606509Y-21664290D01*
X29470922Y-21499078D01*
X29305710Y-21363491D01*
X29117220Y-21262741D01*
X28912697Y-21200700D01*
X28700000Y-21179751D01*
X28487304Y-21200700D01*
X28282781Y-21262741D01*
X28094291Y-21363491D01*
X27929079Y-21499078D01*
X27793492Y-21664290D01*
X27692742Y-21852780D01*
X27630700Y-22057303D01*
X27615000Y-22216706D01*
X11127000Y-22216706D01*
X11127000Y-19186706D01*
X27615000Y-19186706D01*
X27615000Y-20093293D01*
X27630700Y-20252696D01*
X27692741Y-20457219D01*
X27793491Y-20645710D01*
X27929078Y-20810922D01*
X28094290Y-20946509D01*
X28282780Y-21047259D01*
X28487303Y-21109300D01*
X28700000Y-21130249D01*
X28912696Y-21109300D01*
X29117219Y-21047259D01*
X29305710Y-20946509D01*
X29470922Y-20810922D01*
X29606509Y-20645710D01*
X29707259Y-20457220D01*
X29769300Y-20252697D01*
X29785000Y-20093294D01*
X29785000Y-19186707D01*
X29785000Y-19186706D01*
X36265000Y-19186706D01*
X36265000Y-20093293D01*
X36280700Y-20252696D01*
X36342741Y-20457219D01*
X36443491Y-20645710D01*
X36579078Y-20810922D01*
X36744290Y-20946509D01*
X36932780Y-21047259D01*
X37137303Y-21109300D01*
X37350000Y-21130249D01*
X37562696Y-21109300D01*
X37767219Y-21047259D01*
X37955710Y-20946509D01*
X38120922Y-20810922D01*
X38256509Y-20645710D01*
X38357259Y-20457220D01*
X38419300Y-20252697D01*
X38435000Y-20093294D01*
X38435000Y-19186707D01*
X38419300Y-19027304D01*
X38371133Y-18868514D01*
X83665000Y-18868514D01*
X83665000Y-19131486D01*
X83716304Y-19389405D01*
X83816939Y-19632359D01*
X83963038Y-19851013D01*
X84148987Y-20036962D01*
X84367641Y-20183061D01*
X84610595Y-20283696D01*
X84868514Y-20335000D01*
X85131486Y-20335000D01*
X85389405Y-20283696D01*
X85632359Y-20183061D01*
X85851013Y-20036962D01*
X86036962Y-19851013D01*
X86183061Y-19632359D01*
X86283696Y-19389405D01*
X86335000Y-19131486D01*
X86335000Y-18868514D01*
X96665000Y-18868514D01*
X96665000Y-19131486D01*
X96716304Y-19389405D01*
X96816939Y-19632359D01*
X96963038Y-19851013D01*
X97148987Y-20036962D01*
X97367641Y-20183061D01*
X97610595Y-20283696D01*
X97868514Y-20335000D01*
X98131486Y-20335000D01*
X98389405Y-20283696D01*
X98632359Y-20183061D01*
X98851013Y-20036962D01*
X99036962Y-19851013D01*
X99183061Y-19632359D01*
X99283696Y-19389405D01*
X99335000Y-19131486D01*
X99335000Y-18868514D01*
X133665000Y-18868514D01*
X133665000Y-19131486D01*
X133716304Y-19389405D01*
X133816939Y-19632359D01*
X133963038Y-19851013D01*
X134148987Y-20036962D01*
X134367641Y-20183061D01*
X134610595Y-20283696D01*
X134868514Y-20335000D01*
X135131486Y-20335000D01*
X135389405Y-20283696D01*
X135632359Y-20183061D01*
X135851013Y-20036962D01*
X136036962Y-19851013D01*
X136183061Y-19632359D01*
X136283696Y-19389405D01*
X136335000Y-19131486D01*
X136335000Y-18868514D01*
X146665000Y-18868514D01*
X146665000Y-19131486D01*
X146716304Y-19389405D01*
X146816939Y-19632359D01*
X146963038Y-19851013D01*
X147148987Y-20036962D01*
X147367641Y-20183061D01*
X147610595Y-20283696D01*
X147868514Y-20335000D01*
X148131486Y-20335000D01*
X148389405Y-20283696D01*
X148632359Y-20183061D01*
X148851013Y-20036962D01*
X149036962Y-19851013D01*
X149183061Y-19632359D01*
X149283696Y-19389405D01*
X149335000Y-19131486D01*
X149335000Y-18868514D01*
X149283696Y-18610595D01*
X149183061Y-18367641D01*
X149036962Y-18148987D01*
X148851013Y-17963038D01*
X148632359Y-17816939D01*
X148389405Y-17716304D01*
X148131486Y-17665000D01*
X147868514Y-17665000D01*
X147610595Y-17716304D01*
X147367641Y-17816939D01*
X147148987Y-17963038D01*
X146963038Y-18148987D01*
X146816939Y-18367641D01*
X146716304Y-18610595D01*
X146665000Y-18868514D01*
X136335000Y-18868514D01*
X136283696Y-18610595D01*
X136183061Y-18367641D01*
X136036962Y-18148987D01*
X135851013Y-17963038D01*
X135632359Y-17816939D01*
X135389405Y-17716304D01*
X135131486Y-17665000D01*
X134868514Y-17665000D01*
X134610595Y-17716304D01*
X134367641Y-17816939D01*
X134148987Y-17963038D01*
X133963038Y-18148987D01*
X133816939Y-18367641D01*
X133716304Y-18610595D01*
X133665000Y-18868514D01*
X99335000Y-18868514D01*
X99283696Y-18610595D01*
X99183061Y-18367641D01*
X99036962Y-18148987D01*
X98851013Y-17963038D01*
X98632359Y-17816939D01*
X98389405Y-17716304D01*
X98131486Y-17665000D01*
X97868514Y-17665000D01*
X97610595Y-17716304D01*
X97367641Y-17816939D01*
X97148987Y-17963038D01*
X96963038Y-18148987D01*
X96816939Y-18367641D01*
X96716304Y-18610595D01*
X96665000Y-18868514D01*
X86335000Y-18868514D01*
X86283696Y-18610595D01*
X86183061Y-18367641D01*
X86036962Y-18148987D01*
X85851013Y-17963038D01*
X85632359Y-17816939D01*
X85389405Y-17716304D01*
X85131486Y-17665000D01*
X84868514Y-17665000D01*
X84610595Y-17716304D01*
X84367641Y-17816939D01*
X84148987Y-17963038D01*
X83963038Y-18148987D01*
X83816939Y-18367641D01*
X83716304Y-18610595D01*
X83665000Y-18868514D01*
X38371133Y-18868514D01*
X38357259Y-18822780D01*
X38256509Y-18634290D01*
X38120922Y-18469078D01*
X37955710Y-18333491D01*
X37767220Y-18232741D01*
X37562697Y-18170700D01*
X37350000Y-18149751D01*
X37137304Y-18170700D01*
X36932781Y-18232741D01*
X36744291Y-18333491D01*
X36579079Y-18469078D01*
X36443492Y-18634290D01*
X36342742Y-18822780D01*
X36280700Y-19027303D01*
X36265000Y-19186706D01*
X29785000Y-19186706D01*
X29769300Y-19027304D01*
X29707259Y-18822780D01*
X29606509Y-18634290D01*
X29470922Y-18469078D01*
X29305710Y-18333491D01*
X29117220Y-18232741D01*
X28912697Y-18170700D01*
X28700000Y-18149751D01*
X28487304Y-18170700D01*
X28282781Y-18232741D01*
X28094291Y-18333491D01*
X27929079Y-18469078D01*
X27793492Y-18634290D01*
X27692742Y-18822780D01*
X27630700Y-19027303D01*
X27615000Y-19186706D01*
X11127000Y-19186706D01*
X11127000Y-11127000D01*
X208873000Y-11127000D01*
X208873000Y-168873000D01*
G37*
G04 #@! TD.AperFunction*
G04 #@! TD*
D21*
X82000000Y-50000000D03*
X82000000Y-66000000D03*
X82000000Y-82000000D03*
X134000000Y-50000000D03*
X134000000Y-66000000D03*
X134000000Y-82000000D03*
X82000000Y-102000000D03*
X82000000Y-118000000D03*
X82000000Y-134000000D03*
X134000000Y-102000000D03*
X134000000Y-118000000D03*
X134000000Y-134000000D03*
X123000000Y-50000000D03*
X123000000Y-66000000D03*
X123000000Y-82000000D03*
X175000000Y-50000000D03*
X175000000Y-66000000D03*
X175000000Y-82000000D03*
X123000000Y-102000000D03*
X123000000Y-118000000D03*
X123000000Y-134000000D03*
X175000000Y-102000000D03*
X175000000Y-118000000D03*
X175000000Y-134000000D03*
X13000000Y-14000000D03*
X20000000Y-14000000D03*
X27000000Y-14000000D03*
X34000000Y-14000000D03*
X41000000Y-14000000D03*
X48000000Y-14000000D03*
X55000000Y-14000000D03*
X62000000Y-14000000D03*
X69000000Y-14000000D03*
X76000000Y-14000000D03*
X83000000Y-14000000D03*
X90000000Y-14000000D03*
X97000000Y-14000000D03*
X104000000Y-14000000D03*
X111000000Y-14000000D03*
X118000000Y-14000000D03*
X125000000Y-14000000D03*
X132000000Y-14000000D03*
X139000000Y-14000000D03*
X146000000Y-14000000D03*
X153000000Y-14000000D03*
X160000000Y-14000000D03*
X167000000Y-14000000D03*
X174000000Y-14000000D03*
X181000000Y-14000000D03*
X188000000Y-14000000D03*
X195000000Y-14000000D03*
X202000000Y-14000000D03*
X13000000Y-21000000D03*
X20000000Y-21000000D03*
X27000000Y-21000000D03*
X34000000Y-21000000D03*
X41000000Y-21000000D03*
X48000000Y-21000000D03*
X55000000Y-21000000D03*
X62000000Y-21000000D03*
X69000000Y-21000000D03*
X76000000Y-21000000D03*
X83000000Y-21000000D03*
X90000000Y-21000000D03*
X97000000Y-21000000D03*
X104000000Y-21000000D03*
X111000000Y-21000000D03*
X118000000Y-21000000D03*
X125000000Y-21000000D03*
X132000000Y-21000000D03*
X139000000Y-21000000D03*
X146000000Y-21000000D03*
X153000000Y-21000000D03*
X160000000Y-21000000D03*
X167000000Y-21000000D03*
X174000000Y-21000000D03*
X181000000Y-21000000D03*
X188000000Y-21000000D03*
X195000000Y-21000000D03*
X202000000Y-21000000D03*
X13000000Y-28000000D03*
X20000000Y-28000000D03*
X27000000Y-28000000D03*
X34000000Y-28000000D03*
X41000000Y-28000000D03*
X48000000Y-28000000D03*
X55000000Y-28000000D03*
X62000000Y-28000000D03*
X69000000Y-28000000D03*
X76000000Y-28000000D03*
X83000000Y-28000000D03*
X90000000Y-28000000D03*
X97000000Y-28000000D03*
X104000000Y-28000000D03*
X111000000Y-28000000D03*
X118000000Y-28000000D03*
X125000000Y-28000000D03*
X132000000Y-28000000D03*
X139000000Y-28000000D03*
X146000000Y-28000000D03*
X153000000Y-28000000D03*
X160000000Y-28000000D03*
X167000000Y-28000000D03*
X174000000Y-28000000D03*
X181000000Y-28000000D03*
X188000000Y-28000000D03*
X195000000Y-28000000D03*
X202000000Y-28000000D03*
X13000000Y-35000000D03*
X20000000Y-35000000D03*
X27000000Y-35000000D03*
X34000000Y-35000000D03*
X41000000Y-35000000D03*
X48000000Y-35000000D03*
X55000000Y-35000000D03*
X62000000Y-35000000D03*
X69000000Y-35000000D03*
X76000000Y-35000000D03*
X83000000Y-35000000D03*
X90000000Y-35000000D03*
X97000000Y-35000000D03*
X104000000Y-35000000D03*
X111000000Y-35000000D03*
X118000000Y-35000000D03*
X125000000Y-35000000D03*
X132000000Y-35000000D03*
X139000000Y-35000000D03*
X146000000Y-35000000D03*
X153000000Y-35000000D03*
X160000000Y-35000000D03*
X167000000Y-35000000D03*
X174000000Y-35000000D03*
X181000000Y-35000000D03*
X188000000Y-35000000D03*
X195000000Y-35000000D03*
X202000000Y-35000000D03*
X13000000Y-42000000D03*
X20000000Y-42000000D03*
X27000000Y-42000000D03*
X34000000Y-42000000D03*
X41000000Y-42000000D03*
X48000000Y-42000000D03*
X55000000Y-42000000D03*
X62000000Y-42000000D03*
X69000000Y-42000000D03*
X76000000Y-42000000D03*
X83000000Y-42000000D03*
X90000000Y-42000000D03*
X97000000Y-42000000D03*
X104000000Y-42000000D03*
X111000000Y-42000000D03*
X118000000Y-42000000D03*
X125000000Y-42000000D03*
X132000000Y-42000000D03*
X139000000Y-42000000D03*
X146000000Y-42000000D03*
X153000000Y-42000000D03*
X160000000Y-42000000D03*
X167000000Y-42000000D03*
X174000000Y-42000000D03*
X181000000Y-42000000D03*
X188000000Y-42000000D03*
X195000000Y-42000000D03*
X202000000Y-42000000D03*
X13000000Y-49000000D03*
X20000000Y-49000000D03*
X27000000Y-49000000D03*
X34000000Y-49000000D03*
X41000000Y-49000000D03*
X48000000Y-49000000D03*
X55000000Y-49000000D03*
X62000000Y-49000000D03*
X69000000Y-49000000D03*
X76000000Y-49000000D03*
X83000000Y-49000000D03*
X90000000Y-49000000D03*
X97000000Y-49000000D03*
X104000000Y-49000000D03*
X111000000Y-49000000D03*
X118000000Y-49000000D03*
X125000000Y-49000000D03*
X132000000Y-49000000D03*
X139000000Y-49000000D03*
X146000000Y-49000000D03*
X153000000Y-49000000D03*
X160000000Y-49000000D03*
X167000000Y-49000000D03*
X174000000Y-49000000D03*
X181000000Y-49000000D03*
X188000000Y-49000000D03*
X195000000Y-49000000D03*
X202000000Y-49000000D03*
X13000000Y-56000000D03*
X20000000Y-56000000D03*
X27000000Y-56000000D03*
X34000000Y-56000000D03*
X41000000Y-56000000D03*
X48000000Y-56000000D03*
X55000000Y-56000000D03*
X62000000Y-56000000D03*
X69000000Y-56000000D03*
X76000000Y-56000000D03*
X83000000Y-56000000D03*
X90000000Y-56000000D03*
X97000000Y-56000000D03*
X104000000Y-56000000D03*
X111000000Y-56000000D03*
X118000000Y-56000000D03*
X125000000Y-56000000D03*
X132000000Y-56000000D03*
X139000000Y-56000000D03*
X146000000Y-56000000D03*
X153000000Y-56000000D03*
X160000000Y-56000000D03*
X167000000Y-56000000D03*
X174000000Y-56000000D03*
X181000000Y-56000000D03*
X188000000Y-56000000D03*
X195000000Y-56000000D03*
X202000000Y-56000000D03*
X13000000Y-63000000D03*
X20000000Y-63000000D03*
X27000000Y-63000000D03*
X34000000Y-63000000D03*
X41000000Y-63000000D03*
X48000000Y-63000000D03*
X55000000Y-63000000D03*
X62000000Y-63000000D03*
X69000000Y-63000000D03*
X76000000Y-63000000D03*
X83000000Y-63000000D03*
X90000000Y-63000000D03*
X97000000Y-63000000D03*
X104000000Y-63000000D03*
X111000000Y-63000000D03*
X118000000Y-63000000D03*
X125000000Y-63000000D03*
X132000000Y-63000000D03*
X139000000Y-63000000D03*
X146000000Y-63000000D03*
X153000000Y-63000000D03*
X160000000Y-63000000D03*
X167000000Y-63000000D03*
X174000000Y-63000000D03*
X181000000Y-63000000D03*
X188000000Y-63000000D03*
X195000000Y-63000000D03*
X202000000Y-63000000D03*
X13000000Y-70000000D03*
X20000000Y-70000000D03*
X27000000Y-70000000D03*
X34000000Y-70000000D03*
X41000000Y-70000000D03*
X48000000Y-70000000D03*
X55000000Y-70000000D03*
X62000000Y-70000000D03*
X69000000Y-70000000D03*
X76000000Y-70000000D03*
X83000000Y-70000000D03*
X90000000Y-70000000D03*
X97000000Y-70000000D03*
X104000000Y-70000000D03*
X111000000Y-70000000D03*
X118000000Y-70000000D03*
X125000000Y-70000000D03*
X132000000Y-70000000D03*
X139000000Y-70000000D03*
X146000000Y-70000000D03*
X153000000Y-70000000D03*
X160000000Y-70000000D03*
X167000000Y-70000000D03*
X174000000Y-70000000D03*
X181000000Y-70000000D03*
X188000000Y-70000000D03*
X195000000Y-70000000D03*
X202000000Y-70000000D03*
X13000000Y-77000000D03*
X20000000Y-77000000D03*
X27000000Y-77000000D03*
X34000000Y-77000000D03*
X41000000Y-77000000D03*
X48000000Y-77000000D03*
X55000000Y-77000000D03*
X62000000Y-77000000D03*
X69000000Y-77000000D03*
X76000000Y-77000000D03*
X83000000Y-77000000D03*
X90000000Y-77000000D03*
X97000000Y-77000000D03*
X104000000Y-77000000D03*
X111000000Y-77000000D03*
X118000000Y-77000000D03*
X125000000Y-77000000D03*
X132000000Y-77000000D03*
X139000000Y-77000000D03*
X146000000Y-77000000D03*
X153000000Y-77000000D03*
X160000000Y-77000000D03*
X167000000Y-77000000D03*
X174000000Y-77000000D03*
X181000000Y-77000000D03*
X188000000Y-77000000D03*
X195000000Y-77000000D03*
X202000000Y-77000000D03*
X13000000Y-84000000D03*
X20000000Y-84000000D03*
X27000000Y-84000000D03*
X34000000Y-84000000D03*
X41000000Y-84000000D03*
X48000000Y-84000000D03*
X55000000Y-84000000D03*
X62000000Y-84000000D03*
X69000000Y-84000000D03*
X76000000Y-84000000D03*
X83000000Y-84000000D03*
X90000000Y-84000000D03*
X97000000Y-84000000D03*
X104000000Y-84000000D03*
X111000000Y-84000000D03*
X118000000Y-84000000D03*
X125000000Y-84000000D03*
X132000000Y-84000000D03*
X139000000Y-84000000D03*
X146000000Y-84000000D03*
X153000000Y-84000000D03*
X160000000Y-84000000D03*
X167000000Y-84000000D03*
X174000000Y-84000000D03*
X181000000Y-84000000D03*
X188000000Y-84000000D03*
X195000000Y-84000000D03*
X202000000Y-84000000D03*
X13000000Y-91000000D03*
X20000000Y-91000000D03*
X27000000Y-91000000D03*
X34000000Y-91000000D03*
X41000000Y-91000000D03*
X48000000Y-91000000D03*
X55000000Y-91000000D03*
X62000000Y-91000000D03*
X69000000Y-91000000D03*
X76000000Y-91000000D03*
X83000000Y-91000000D03*
X90000000Y-91000000D03*
X97000000Y-91000000D03*
X104000000Y-91000000D03*
X111000000Y-91000000D03*
X118000000Y-91000000D03*
X125000000Y-91000000D03*
X132000000Y-91000000D03*
X139000000Y-91000000D03*
X146000000Y-91000000D03*
X153000000Y-91000000D03*
X160000000Y-91000000D03*
X167000000Y-91000000D03*
X174000000Y-91000000D03*
X181000000Y-91000000D03*
X188000000Y-91000000D03*
X195000000Y-91000000D03*
X202000000Y-91000000D03*
X13000000Y-98000000D03*
X20000000Y-98000000D03*
X27000000Y-98000000D03*
X34000000Y-98000000D03*
X41000000Y-98000000D03*
X48000000Y-98000000D03*
X55000000Y-98000000D03*
X62000000Y-98000000D03*
X69000000Y-98000000D03*
X76000000Y-98000000D03*
X83000000Y-98000000D03*
X90000000Y-98000000D03*
X97000000Y-98000000D03*
X104000000Y-98000000D03*
X111000000Y-98000000D03*
X118000000Y-98000000D03*
X125000000Y-98000000D03*
X132000000Y-98000000D03*
X139000000Y-98000000D03*
X146000000Y-98000000D03*
X153000000Y-98000000D03*
X160000000Y-98000000D03*
X167000000Y-98000000D03*
X174000000Y-98000000D03*
X181000000Y-98000000D03*
X188000000Y-98000000D03*
X195000000Y-98000000D03*
X202000000Y-98000000D03*
X13000000Y-105000000D03*
X20000000Y-105000000D03*
X27000000Y-105000000D03*
X34000000Y-105000000D03*
X41000000Y-105000000D03*
X48000000Y-105000000D03*
X55000000Y-105000000D03*
X62000000Y-105000000D03*
X69000000Y-105000000D03*
X76000000Y-105000000D03*
X83000000Y-105000000D03*
X90000000Y-105000000D03*
X97000000Y-105000000D03*
X104000000Y-105000000D03*
X111000000Y-105000000D03*
X118000000Y-105000000D03*
X125000000Y-105000000D03*
X132000000Y-105000000D03*
X139000000Y-105000000D03*
X146000000Y-105000000D03*
X153000000Y-105000000D03*
X160000000Y-105000000D03*
X167000000Y-105000000D03*
X174000000Y-105000000D03*
X181000000Y-105000000D03*
X188000000Y-105000000D03*
X195000000Y-105000000D03*
X202000000Y-105000000D03*
X13000000Y-112000000D03*
X20000000Y-112000000D03*
X27000000Y-112000000D03*
X34000000Y-112000000D03*
X41000000Y-112000000D03*
X48000000Y-112000000D03*
X55000000Y-112000000D03*
X62000000Y-112000000D03*
X69000000Y-112000000D03*
X76000000Y-112000000D03*
X83000000Y-112000000D03*
X90000000Y-112000000D03*
X97000000Y-112000000D03*
X104000000Y-112000000D03*
X111000000Y-112000000D03*
X118000000Y-112000000D03*
X125000000Y-112000000D03*
X132000000Y-112000000D03*
X139000000Y-112000000D03*
X146000000Y-112000000D03*
X153000000Y-112000000D03*
X160000000Y-112000000D03*
X167000000Y-112000000D03*
X174000000Y-112000000D03*
X181000000Y-112000000D03*
X188000000Y-112000000D03*
X195000000Y-112000000D03*
X202000000Y-112000000D03*
X13000000Y-119000000D03*
X20000000Y-119000000D03*
X27000000Y-119000000D03*
X34000000Y-119000000D03*
X41000000Y-119000000D03*
X48000000Y-119000000D03*
X55000000Y-119000000D03*
X62000000Y-119000000D03*
X69000000Y-119000000D03*
X76000000Y-119000000D03*
X83000000Y-119000000D03*
X90000000Y-119000000D03*
X97000000Y-119000000D03*
X104000000Y-119000000D03*
X111000000Y-119000000D03*
X118000000Y-119000000D03*
X125000000Y-119000000D03*
X132000000Y-119000000D03*
X139000000Y-119000000D03*
X146000000Y-119000000D03*
X153000000Y-119000000D03*
X160000000Y-119000000D03*
X167000000Y-119000000D03*
X174000000Y-119000000D03*
X181000000Y-119000000D03*
X188000000Y-119000000D03*
X195000000Y-119000000D03*
X202000000Y-119000000D03*
X13000000Y-126000000D03*
X20000000Y-126000000D03*
X27000000Y-126000000D03*
X34000000Y-126000000D03*
X41000000Y-126000000D03*
X48000000Y-126000000D03*
X55000000Y-126000000D03*
X62000000Y-126000000D03*
X69000000Y-126000000D03*
X76000000Y-126000000D03*
X83000000Y-126000000D03*
X90000000Y-126000000D03*
X97000000Y-126000000D03*
X104000000Y-126000000D03*
X111000000Y-126000000D03*
X118000000Y-126000000D03*
X125000000Y-126000000D03*
X132000000Y-126000000D03*
X139000000Y-126000000D03*
X146000000Y-126000000D03*
X153000000Y-126000000D03*
X160000000Y-126000000D03*
X167000000Y-126000000D03*
X174000000Y-126000000D03*
X181000000Y-126000000D03*
X188000000Y-126000000D03*
X195000000Y-126000000D03*
X202000000Y-126000000D03*
X13000000Y-133000000D03*
X20000000Y-133000000D03*
X27000000Y-133000000D03*
X34000000Y-133000000D03*
X41000000Y-133000000D03*
X48000000Y-133000000D03*
X55000000Y-133000000D03*
X62000000Y-133000000D03*
X69000000Y-133000000D03*
X76000000Y-133000000D03*
X83000000Y-133000000D03*
X90000000Y-133000000D03*
X97000000Y-133000000D03*
X104000000Y-133000000D03*
X111000000Y-133000000D03*
X118000000Y-133000000D03*
X125000000Y-133000000D03*
X132000000Y-133000000D03*
X139000000Y-133000000D03*
X146000000Y-133000000D03*
X153000000Y-133000000D03*
X160000000Y-133000000D03*
X167000000Y-133000000D03*
X174000000Y-133000000D03*
X181000000Y-133000000D03*
X188000000Y-133000000D03*
X195000000Y-133000000D03*
X202000000Y-133000000D03*
X13000000Y-140000000D03*
X20000000Y-140000000D03*
X27000000Y-140000000D03*
X34000000Y-140000000D03*
X41000000Y-140000000D03*
X48000000Y-140000000D03*
X55000000Y-140000000D03*
X62000000Y-140000000D03*
X69000000Y-140000000D03*
X76000000Y-140000000D03*
X83000000Y-140000000D03*
X90000000Y-140000000D03*
X97000000Y-140000000D03*
X104000000Y-140000000D03*
X111000000Y-140000000D03*
X118000000Y-140000000D03*
X125000000Y-140000000D03*
X132000000Y-140000000D03*
X139000000Y-140000000D03*
X146000000Y-140000000D03*
X153000000Y-140000000D03*
X160000000Y-140000000D03*
X167000000Y-140000000D03*
X174000000Y-140000000D03*
X181000000Y-140000000D03*
X188000000Y-140000000D03*
X195000000Y-140000000D03*
X202000000Y-140000000D03*
X13000000Y-147000000D03*
X20000000Y-147000000D03*
X27000000Y-147000000D03*
X34000000Y-147000000D03*
X41000000Y-147000000D03*
X48000000Y-147000000D03*
X55000000Y-147000000D03*
X62000000Y-147000000D03*
X69000000Y-147000000D03*
X76000000Y-147000000D03*
X83000000Y-147000000D03*
X90000000Y-147000000D03*
X97000000Y-147000000D03*
X104000000Y-147000000D03*
X111000000Y-147000000D03*
X118000000Y-147000000D03*
X125000000Y-147000000D03*
X132000000Y-147000000D03*
X139000000Y-147000000D03*
X146000000Y-147000000D03*
X153000000Y-147000000D03*
X160000000Y-147000000D03*
X167000000Y-147000000D03*
X174000000Y-147000000D03*
X181000000Y-147000000D03*
X188000000Y-147000000D03*
X195000000Y-147000000D03*
X202000000Y-147000000D03*
X13000000Y-154000000D03*
X20000000Y-154000000D03*
X27000000Y-154000000D03*
X34000000Y-154000000D03*
X41000000Y-154000000D03*
X48000000Y-154000000D03*
X55000000Y-154000000D03*
X62000000Y-154000000D03*
X69000000Y-154000000D03*
X76000000Y-154000000D03*
X83000000Y-154000000D03*
X90000000Y-154000000D03*
X97000000Y-154000000D03*
X104000000Y-154000000D03*
X111000000Y-154000000D03*
X118000000Y-154000000D03*
X125000000Y-154000000D03*
X132000000Y-154000000D03*
X139000000Y-154000000D03*
X146000000Y-154000000D03*
X153000000Y-154000000D03*
X160000000Y-154000000D03*
X167000000Y-154000000D03*
X174000000Y-154000000D03*
X181000000Y-154000000D03*
X188000000Y-154000000D03*
X195000000Y-154000000D03*
X202000000Y-154000000D03*
X13000000Y-161000000D03*
X20000000Y-161000000D03*
X27000000Y-161000000D03*
X34000000Y-161000000D03*
X41000000Y-161000000D03*
X48000000Y-161000000D03*
X55000000Y-161000000D03*
X62000000Y-161000000D03*
X69000000Y-161000000D03*
X76000000Y-161000000D03*
X83000000Y-161000000D03*
X90000000Y-161000000D03*
X97000000Y-161000000D03*
X104000000Y-161000000D03*
X111000000Y-161000000D03*
X118000000Y-161000000D03*
X125000000Y-161000000D03*
X132000000Y-161000000D03*
X139000000Y-161000000D03*
X146000000Y-161000000D03*
X153000000Y-161000000D03*
X160000000Y-161000000D03*
X167000000Y-161000000D03*
X174000000Y-161000000D03*
X181000000Y-161000000D03*
X188000000Y-161000000D03*
X195000000Y-161000000D03*
X202000000Y-161000000D03*
D22*
X138000000Y-160000000D03*
X141500000Y-160000000D03*
X145000000Y-160000000D03*
X135000000Y-155000000D03*
X148000000Y-155000000D03*
X88000000Y-160000000D03*
X91500000Y-160000000D03*
X95000000Y-160000000D03*
X85000000Y-155000000D03*
X98000000Y-155000000D03*
X138000000Y-24000000D03*
X141500000Y-24000000D03*
X145000000Y-24000000D03*
X135000000Y-19000000D03*
X148000000Y-19000000D03*
X88000000Y-24000000D03*
X91500000Y-24000000D03*
X95000000Y-24000000D03*
X85000000Y-19000000D03*
X98000000Y-19000000D03*
D23*
X28700000Y-19640000D03*
X37350000Y-19640000D03*
D24*
X28700000Y-23020000D03*
X37350000Y-23020000D03*
D22*
X32600000Y-22650000D03*
X30050000Y-22650000D03*
X30900000Y-22650000D03*
X31750000Y-22650000D03*
X36000000Y-22650000D03*
X34300000Y-22650000D03*
X33450000Y-22650000D03*
X35150000Y-22650000D03*
X30050000Y-24000000D03*
X30900000Y-24000000D03*
X31750000Y-24000000D03*
X32600000Y-24000000D03*
X33450000Y-24000000D03*
X34300000Y-24000000D03*
X35150000Y-24000000D03*
X36000000Y-24000000D03*
X30000000Y-142000000D03*
X37200000Y-142000000D03*
M02*
