G04 #@! TF.GenerationSoftware,KiCad,Pcbnew,5.1.9+dfsg1-1+deb11u1*
G04 #@! TF.CreationDate,2026-09-11T21:44:09-03:00*
G04 #@! TF.ProjectId,,58585858-5858-4585-9858-585858585858,rev?*
G04 #@! TF.SameCoordinates,Original*
G04 #@! TF.FileFunction,Copper,L3,Inr*
G04 #@! TF.FilePolarity,Positive*
%FSLAX46Y46*%
G04 Gerber Fmt 4.6, Leading zero omitted, Abs format (unit mm)*
G04 Created by KiCad (PCBNEW 5.1.9+dfsg1-1+deb11u1) date 2026-09-11 21:44:09*
%MOMM*%
%LPD*%
G01*
G04 APERTURE LIST*
G04 #@! TA.AperFunction,Profile*
%ADD10C,0.100000*%
G04 #@! TD*
G04 #@! TA.AperFunction,ComponentPad*
%ADD11C,3.000000*%
G04 #@! TD*
G04 #@! TA.AperFunction,ComponentPad*
%ADD12R,3.000000X3.000000*%
G04 #@! TD*
G04 #@! TA.AperFunction,ComponentPad*
%ADD13C,1.400000*%
G04 #@! TD*
G04 #@! TA.AperFunction,ComponentPad*
%ADD14O,0.900000X1.700000*%
G04 #@! TD*
G04 #@! TA.AperFunction,ComponentPad*
%ADD15O,0.900000X2.400000*%
G04 #@! TD*
G04 #@! TA.AperFunction,ComponentPad*
%ADD16C,0.700000*%
G04 #@! TD*
G04 #@! TA.AperFunction,ComponentPad*
%ADD17C,6.000000*%
G04 #@! TD*
G04 #@! TA.AperFunction,ViaPad*
%ADD18C,0.600000*%
G04 #@! TD*
%ADD19C,0.300000*%
%ADD20C,0.350000*%
%ADD21O,0.600000X1.400000*%
%ADD22O,0.600000X2.100000*%
G04 APERTURE END LIST*
D10*
X10000000Y-10000000D02*
X210000000Y-10000000D01*
X210000000Y-10000000D02*
X210000000Y-170000000D01*
X210000000Y-170000000D02*
X10000000Y-170000000D01*
X10000000Y-170000000D02*
X10000000Y-10000000D01*
D11*
G04 #@! TO.N,PHM43*
G04 #@! TO.C,J_M4*
X138000000Y-160000000D03*
G04 #@! TO.N,PHM42*
X141500000Y-160000000D03*
D12*
G04 #@! TO.N,PHM41*
X145000000Y-160000000D03*
D13*
G04 #@! TO.N,*
X135000000Y-155000000D03*
X148000000Y-155000000D03*
G04 #@! TD*
D11*
G04 #@! TO.N,PHM33*
G04 #@! TO.C,J_M3*
X88000000Y-160000000D03*
G04 #@! TO.N,PHM32*
X91500000Y-160000000D03*
D12*
G04 #@! TO.N,PHM31*
X95000000Y-160000000D03*
D13*
G04 #@! TO.N,*
X85000000Y-155000000D03*
X98000000Y-155000000D03*
G04 #@! TD*
D11*
G04 #@! TO.N,PHM23*
G04 #@! TO.C,J_M2*
X138000000Y-24000000D03*
G04 #@! TO.N,PHM22*
X141500000Y-24000000D03*
D12*
G04 #@! TO.N,PHM21*
X145000000Y-24000000D03*
D13*
G04 #@! TO.N,*
X135000000Y-19000000D03*
X148000000Y-19000000D03*
G04 #@! TD*
D11*
G04 #@! TO.N,PHM13*
G04 #@! TO.C,J_M1*
X88000000Y-24000000D03*
G04 #@! TO.N,PHM12*
X91500000Y-24000000D03*
D12*
G04 #@! TO.N,PHM11*
X95000000Y-24000000D03*
D13*
G04 #@! TO.N,*
X85000000Y-19000000D03*
X98000000Y-19000000D03*
G04 #@! TD*
D14*
G04 #@! TO.N,USB_S1*
G04 #@! TO.C,J2*
X28700000Y-19640000D03*
X37350000Y-19640000D03*
D15*
X28700000Y-23020000D03*
X37350000Y-23020000D03*
D16*
G04 #@! TO.N,USB_B6*
X32600000Y-22650000D03*
G04 #@! TO.N,USB_B1*
X30050000Y-22650000D03*
G04 #@! TO.N,USB_B4*
X30900000Y-22650000D03*
G04 #@! TO.N,USB_B5*
X31750000Y-22650000D03*
G04 #@! TO.N,USB_B12*
X36000000Y-22650000D03*
G04 #@! TO.N,USB_B8*
X34300000Y-22650000D03*
G04 #@! TO.N,USB_B7*
X33450000Y-22650000D03*
G04 #@! TO.N,USB_B9*
X35150000Y-22650000D03*
G04 #@! TO.N,USB_A12*
X30050000Y-24000000D03*
G04 #@! TO.N,USB_A9*
X30900000Y-24000000D03*
G04 #@! TO.N,USB_A8*
X31750000Y-24000000D03*
G04 #@! TO.N,USB_A7*
X32600000Y-24000000D03*
G04 #@! TO.N,USB_A6*
X33450000Y-24000000D03*
G04 #@! TO.N,USB_A5*
X34300000Y-24000000D03*
G04 #@! TO.N,USB_A4*
X35150000Y-24000000D03*
G04 #@! TO.N,USB_A1*
X36000000Y-24000000D03*
G04 #@! TD*
G04 #@! TO.N,VBAT*
G04 #@! TO.C,J1*
G04 #@! TA.AperFunction,ComponentPad*
G36*
G01*
X27000000Y-143500000D02*
X27000000Y-140500000D01*
G75*
G02*
X28500000Y-139000000I1500000J0D01*
G01*
X31500000Y-139000000D01*
G75*
G02*
X33000000Y-140500000I0J-1500000D01*
G01*
X33000000Y-143500000D01*
G75*
G02*
X31500000Y-145000000I-1500000J0D01*
G01*
X28500000Y-145000000D01*
G75*
G02*
X27000000Y-143500000I0J1500000D01*
G01*
G37*
G04 #@! TD.AperFunction*
D17*
G04 #@! TO.N,GND*
X37200000Y-142000000D03*
G04 #@! TD*
D18*
G04 #@! TO.N,VBAT*
X82000000Y-50000000D03*
X82000000Y-66000000D03*
X82000000Y-82000000D03*
X134000000Y-50000000D03*
X134000000Y-66000000D03*
X134000000Y-82000000D03*
X82000000Y-102000000D03*
X82000000Y-118000000D03*
X82000000Y-134000000D03*
X134000000Y-102000000D03*
X134000000Y-118000000D03*
X134000000Y-134000000D03*
G04 #@! TO.N,GND*
X123000000Y-50000000D03*
X123000000Y-66000000D03*
X123000000Y-82000000D03*
X175000000Y-50000000D03*
X175000000Y-66000000D03*
X175000000Y-82000000D03*
X123000000Y-102000000D03*
X123000000Y-118000000D03*
X123000000Y-134000000D03*
X175000000Y-102000000D03*
X175000000Y-118000000D03*
X175000000Y-134000000D03*
X13000000Y-14000000D03*
X20000000Y-14000000D03*
X27000000Y-14000000D03*
X34000000Y-14000000D03*
X41000000Y-14000000D03*
X48000000Y-14000000D03*
X55000000Y-14000000D03*
X62000000Y-14000000D03*
X69000000Y-14000000D03*
X76000000Y-14000000D03*
X83000000Y-14000000D03*
X90000000Y-14000000D03*
X97000000Y-14000000D03*
X104000000Y-14000000D03*
X111000000Y-14000000D03*
X118000000Y-14000000D03*
X125000000Y-14000000D03*
X132000000Y-14000000D03*
X139000000Y-14000000D03*
X146000000Y-14000000D03*
X153000000Y-14000000D03*
X160000000Y-14000000D03*
X167000000Y-14000000D03*
X174000000Y-14000000D03*
X181000000Y-14000000D03*
X188000000Y-14000000D03*
X195000000Y-14000000D03*
X202000000Y-14000000D03*
X13000000Y-21000000D03*
X20000000Y-21000000D03*
X27000000Y-21000000D03*
X34000000Y-21000000D03*
X41000000Y-21000000D03*
X48000000Y-21000000D03*
X55000000Y-21000000D03*
X62000000Y-21000000D03*
X69000000Y-21000000D03*
X76000000Y-21000000D03*
X83000000Y-21000000D03*
X90000000Y-21000000D03*
X97000000Y-21000000D03*
X104000000Y-21000000D03*
X111000000Y-21000000D03*
X118000000Y-21000000D03*
X125000000Y-21000000D03*
X132000000Y-21000000D03*
X139000000Y-21000000D03*
X146000000Y-21000000D03*
X153000000Y-21000000D03*
X160000000Y-21000000D03*
X167000000Y-21000000D03*
X174000000Y-21000000D03*
X181000000Y-21000000D03*
X188000000Y-21000000D03*
X195000000Y-21000000D03*
X202000000Y-21000000D03*
X13000000Y-28000000D03*
X20000000Y-28000000D03*
X27000000Y-28000000D03*
X34000000Y-28000000D03*
X41000000Y-28000000D03*
X48000000Y-28000000D03*
X55000000Y-28000000D03*
X62000000Y-28000000D03*
X69000000Y-28000000D03*
X76000000Y-28000000D03*
X83000000Y-28000000D03*
X90000000Y-28000000D03*
X97000000Y-28000000D03*
X104000000Y-28000000D03*
X111000000Y-28000000D03*
X118000000Y-28000000D03*
X125000000Y-28000000D03*
X132000000Y-28000000D03*
X139000000Y-28000000D03*
X146000000Y-28000000D03*
X153000000Y-28000000D03*
X160000000Y-28000000D03*
X167000000Y-28000000D03*
X174000000Y-28000000D03*
X181000000Y-28000000D03*
X188000000Y-28000000D03*
X195000000Y-28000000D03*
X202000000Y-28000000D03*
X13000000Y-35000000D03*
X20000000Y-35000000D03*
X27000000Y-35000000D03*
X34000000Y-35000000D03*
X41000000Y-35000000D03*
X48000000Y-35000000D03*
X55000000Y-35000000D03*
X62000000Y-35000000D03*
X69000000Y-35000000D03*
X76000000Y-35000000D03*
X83000000Y-35000000D03*
X90000000Y-35000000D03*
X97000000Y-35000000D03*
X104000000Y-35000000D03*
X111000000Y-35000000D03*
X118000000Y-35000000D03*
X125000000Y-35000000D03*
X132000000Y-35000000D03*
X139000000Y-35000000D03*
X146000000Y-35000000D03*
X153000000Y-35000000D03*
X160000000Y-35000000D03*
X167000000Y-35000000D03*
X174000000Y-35000000D03*
X181000000Y-35000000D03*
X188000000Y-35000000D03*
X195000000Y-35000000D03*
X202000000Y-35000000D03*
X13000000Y-42000000D03*
X20000000Y-42000000D03*
X27000000Y-42000000D03*
X34000000Y-42000000D03*
X41000000Y-42000000D03*
X48000000Y-42000000D03*
X55000000Y-42000000D03*
X62000000Y-42000000D03*
X69000000Y-42000000D03*
X76000000Y-42000000D03*
X83000000Y-42000000D03*
X90000000Y-42000000D03*
X97000000Y-42000000D03*
X104000000Y-42000000D03*
X111000000Y-42000000D03*
X118000000Y-42000000D03*
X125000000Y-42000000D03*
X132000000Y-42000000D03*
X139000000Y-42000000D03*
X146000000Y-42000000D03*
X153000000Y-42000000D03*
X160000000Y-42000000D03*
X167000000Y-42000000D03*
X174000000Y-42000000D03*
X181000000Y-42000000D03*
X188000000Y-42000000D03*
X195000000Y-42000000D03*
X202000000Y-42000000D03*
X13000000Y-49000000D03*
X20000000Y-49000000D03*
X27000000Y-49000000D03*
X34000000Y-49000000D03*
X41000000Y-49000000D03*
X48000000Y-49000000D03*
X55000000Y-49000000D03*
X62000000Y-49000000D03*
X69000000Y-49000000D03*
X76000000Y-49000000D03*
X83000000Y-49000000D03*
X90000000Y-49000000D03*
X97000000Y-49000000D03*
X104000000Y-49000000D03*
X111000000Y-49000000D03*
X118000000Y-49000000D03*
X125000000Y-49000000D03*
X132000000Y-49000000D03*
X139000000Y-49000000D03*
X146000000Y-49000000D03*
X153000000Y-49000000D03*
X160000000Y-49000000D03*
X167000000Y-49000000D03*
X174000000Y-49000000D03*
X181000000Y-49000000D03*
X188000000Y-49000000D03*
X195000000Y-49000000D03*
X202000000Y-49000000D03*
X13000000Y-56000000D03*
X20000000Y-56000000D03*
X27000000Y-56000000D03*
X34000000Y-56000000D03*
X41000000Y-56000000D03*
X48000000Y-56000000D03*
X55000000Y-56000000D03*
X62000000Y-56000000D03*
X69000000Y-56000000D03*
X76000000Y-56000000D03*
X83000000Y-56000000D03*
X90000000Y-56000000D03*
X97000000Y-56000000D03*
X104000000Y-56000000D03*
X111000000Y-56000000D03*
X118000000Y-56000000D03*
X125000000Y-56000000D03*
X132000000Y-56000000D03*
X139000000Y-56000000D03*
X146000000Y-56000000D03*
X153000000Y-56000000D03*
X160000000Y-56000000D03*
X167000000Y-56000000D03*
X174000000Y-56000000D03*
X181000000Y-56000000D03*
X188000000Y-56000000D03*
X195000000Y-56000000D03*
X202000000Y-56000000D03*
X13000000Y-63000000D03*
X20000000Y-63000000D03*
X27000000Y-63000000D03*
X34000000Y-63000000D03*
X41000000Y-63000000D03*
X48000000Y-63000000D03*
X55000000Y-63000000D03*
X62000000Y-63000000D03*
X69000000Y-63000000D03*
X76000000Y-63000000D03*
X83000000Y-63000000D03*
X90000000Y-63000000D03*
X97000000Y-63000000D03*
X104000000Y-63000000D03*
X111000000Y-63000000D03*
X118000000Y-63000000D03*
X125000000Y-63000000D03*
X132000000Y-63000000D03*
X139000000Y-63000000D03*
X146000000Y-63000000D03*
X153000000Y-63000000D03*
X160000000Y-63000000D03*
X167000000Y-63000000D03*
X174000000Y-63000000D03*
X181000000Y-63000000D03*
X188000000Y-63000000D03*
X195000000Y-63000000D03*
X202000000Y-63000000D03*
X13000000Y-70000000D03*
X20000000Y-70000000D03*
X27000000Y-70000000D03*
X34000000Y-70000000D03*
X41000000Y-70000000D03*
X48000000Y-70000000D03*
X55000000Y-70000000D03*
X62000000Y-70000000D03*
X69000000Y-70000000D03*
X76000000Y-70000000D03*
X83000000Y-70000000D03*
X90000000Y-70000000D03*
X97000000Y-70000000D03*
X104000000Y-70000000D03*
X111000000Y-70000000D03*
X118000000Y-70000000D03*
X125000000Y-70000000D03*
X132000000Y-70000000D03*
X139000000Y-70000000D03*
X146000000Y-70000000D03*
X153000000Y-70000000D03*
X160000000Y-70000000D03*
X167000000Y-70000000D03*
X174000000Y-70000000D03*
X181000000Y-70000000D03*
X188000000Y-70000000D03*
X195000000Y-70000000D03*
X202000000Y-70000000D03*
X13000000Y-77000000D03*
X20000000Y-77000000D03*
X27000000Y-77000000D03*
X34000000Y-77000000D03*
X41000000Y-77000000D03*
X48000000Y-77000000D03*
X55000000Y-77000000D03*
X62000000Y-77000000D03*
X69000000Y-77000000D03*
X76000000Y-77000000D03*
X83000000Y-77000000D03*
X90000000Y-77000000D03*
X97000000Y-77000000D03*
X104000000Y-77000000D03*
X111000000Y-77000000D03*
X118000000Y-77000000D03*
X125000000Y-77000000D03*
X132000000Y-77000000D03*
X139000000Y-77000000D03*
X146000000Y-77000000D03*
X153000000Y-77000000D03*
X160000000Y-77000000D03*
X167000000Y-77000000D03*
X174000000Y-77000000D03*
X181000000Y-77000000D03*
X188000000Y-77000000D03*
X195000000Y-77000000D03*
X202000000Y-77000000D03*
X13000000Y-84000000D03*
X20000000Y-84000000D03*
X27000000Y-84000000D03*
X34000000Y-84000000D03*
X41000000Y-84000000D03*
X48000000Y-84000000D03*
X55000000Y-84000000D03*
X62000000Y-84000000D03*
X69000000Y-84000000D03*
X76000000Y-84000000D03*
X83000000Y-84000000D03*
X90000000Y-84000000D03*
X97000000Y-84000000D03*
X104000000Y-84000000D03*
X111000000Y-84000000D03*
X118000000Y-84000000D03*
X125000000Y-84000000D03*
X132000000Y-84000000D03*
X139000000Y-84000000D03*
X146000000Y-84000000D03*
X153000000Y-84000000D03*
X160000000Y-84000000D03*
X167000000Y-84000000D03*
X174000000Y-84000000D03*
X181000000Y-84000000D03*
X188000000Y-84000000D03*
X195000000Y-84000000D03*
X202000000Y-84000000D03*
X13000000Y-91000000D03*
X20000000Y-91000000D03*
X27000000Y-91000000D03*
X34000000Y-91000000D03*
X41000000Y-91000000D03*
X48000000Y-91000000D03*
X55000000Y-91000000D03*
X62000000Y-91000000D03*
X69000000Y-91000000D03*
X76000000Y-91000000D03*
X83000000Y-91000000D03*
X90000000Y-91000000D03*
X97000000Y-91000000D03*
X104000000Y-91000000D03*
X111000000Y-91000000D03*
X118000000Y-91000000D03*
X125000000Y-91000000D03*
X132000000Y-91000000D03*
X139000000Y-91000000D03*
X146000000Y-91000000D03*
X153000000Y-91000000D03*
X160000000Y-91000000D03*
X167000000Y-91000000D03*
X174000000Y-91000000D03*
X181000000Y-91000000D03*
X188000000Y-91000000D03*
X195000000Y-91000000D03*
X202000000Y-91000000D03*
X13000000Y-98000000D03*
X20000000Y-98000000D03*
X27000000Y-98000000D03*
X34000000Y-98000000D03*
X41000000Y-98000000D03*
X48000000Y-98000000D03*
X55000000Y-98000000D03*
X62000000Y-98000000D03*
X69000000Y-98000000D03*
X76000000Y-98000000D03*
X83000000Y-98000000D03*
X90000000Y-98000000D03*
X97000000Y-98000000D03*
X104000000Y-98000000D03*
X111000000Y-98000000D03*
X118000000Y-98000000D03*
X125000000Y-98000000D03*
X132000000Y-98000000D03*
X139000000Y-98000000D03*
X146000000Y-98000000D03*
X153000000Y-98000000D03*
X160000000Y-98000000D03*
X167000000Y-98000000D03*
X174000000Y-98000000D03*
X181000000Y-98000000D03*
X188000000Y-98000000D03*
X195000000Y-98000000D03*
X202000000Y-98000000D03*
X13000000Y-105000000D03*
X20000000Y-105000000D03*
X27000000Y-105000000D03*
X34000000Y-105000000D03*
X41000000Y-105000000D03*
X48000000Y-105000000D03*
X55000000Y-105000000D03*
X62000000Y-105000000D03*
X69000000Y-105000000D03*
X76000000Y-105000000D03*
X83000000Y-105000000D03*
X90000000Y-105000000D03*
X97000000Y-105000000D03*
X104000000Y-105000000D03*
X111000000Y-105000000D03*
X118000000Y-105000000D03*
X125000000Y-105000000D03*
X132000000Y-105000000D03*
X139000000Y-105000000D03*
X146000000Y-105000000D03*
X153000000Y-105000000D03*
X160000000Y-105000000D03*
X167000000Y-105000000D03*
X174000000Y-105000000D03*
X181000000Y-105000000D03*
X188000000Y-105000000D03*
X195000000Y-105000000D03*
X202000000Y-105000000D03*
X13000000Y-112000000D03*
X20000000Y-112000000D03*
X27000000Y-112000000D03*
X34000000Y-112000000D03*
X41000000Y-112000000D03*
X48000000Y-112000000D03*
X55000000Y-112000000D03*
X62000000Y-112000000D03*
X69000000Y-112000000D03*
X76000000Y-112000000D03*
X83000000Y-112000000D03*
X90000000Y-112000000D03*
X97000000Y-112000000D03*
X104000000Y-112000000D03*
X111000000Y-112000000D03*
X118000000Y-112000000D03*
X125000000Y-112000000D03*
X132000000Y-112000000D03*
X139000000Y-112000000D03*
X146000000Y-112000000D03*
X153000000Y-112000000D03*
X160000000Y-112000000D03*
X167000000Y-112000000D03*
X174000000Y-112000000D03*
X181000000Y-112000000D03*
X188000000Y-112000000D03*
X195000000Y-112000000D03*
X202000000Y-112000000D03*
X13000000Y-119000000D03*
X20000000Y-119000000D03*
X27000000Y-119000000D03*
X34000000Y-119000000D03*
X41000000Y-119000000D03*
X48000000Y-119000000D03*
X55000000Y-119000000D03*
X62000000Y-119000000D03*
X69000000Y-119000000D03*
X76000000Y-119000000D03*
X83000000Y-119000000D03*
X90000000Y-119000000D03*
X97000000Y-119000000D03*
X104000000Y-119000000D03*
X111000000Y-119000000D03*
X118000000Y-119000000D03*
X125000000Y-119000000D03*
X132000000Y-119000000D03*
X139000000Y-119000000D03*
X146000000Y-119000000D03*
X153000000Y-119000000D03*
X160000000Y-119000000D03*
X167000000Y-119000000D03*
X174000000Y-119000000D03*
X181000000Y-119000000D03*
X188000000Y-119000000D03*
X195000000Y-119000000D03*
X202000000Y-119000000D03*
X13000000Y-126000000D03*
X20000000Y-126000000D03*
X27000000Y-126000000D03*
X34000000Y-126000000D03*
X41000000Y-126000000D03*
X48000000Y-126000000D03*
X55000000Y-126000000D03*
X62000000Y-126000000D03*
X69000000Y-126000000D03*
X76000000Y-126000000D03*
X83000000Y-126000000D03*
X90000000Y-126000000D03*
X97000000Y-126000000D03*
X104000000Y-126000000D03*
X111000000Y-126000000D03*
X118000000Y-126000000D03*
X125000000Y-126000000D03*
X132000000Y-126000000D03*
X139000000Y-126000000D03*
X146000000Y-126000000D03*
X153000000Y-126000000D03*
X160000000Y-126000000D03*
X167000000Y-126000000D03*
X174000000Y-126000000D03*
X181000000Y-126000000D03*
X188000000Y-126000000D03*
X195000000Y-126000000D03*
X202000000Y-126000000D03*
X13000000Y-133000000D03*
X20000000Y-133000000D03*
X27000000Y-133000000D03*
X34000000Y-133000000D03*
X41000000Y-133000000D03*
X48000000Y-133000000D03*
X55000000Y-133000000D03*
X62000000Y-133000000D03*
X69000000Y-133000000D03*
X76000000Y-133000000D03*
X83000000Y-133000000D03*
X90000000Y-133000000D03*
X97000000Y-133000000D03*
X104000000Y-133000000D03*
X111000000Y-133000000D03*
X118000000Y-133000000D03*
X125000000Y-133000000D03*
X132000000Y-133000000D03*
X139000000Y-133000000D03*
X146000000Y-133000000D03*
X153000000Y-133000000D03*
X160000000Y-133000000D03*
X167000000Y-133000000D03*
X174000000Y-133000000D03*
X181000000Y-133000000D03*
X188000000Y-133000000D03*
X195000000Y-133000000D03*
X202000000Y-133000000D03*
X13000000Y-140000000D03*
X20000000Y-140000000D03*
X27000000Y-140000000D03*
X34000000Y-140000000D03*
X41000000Y-140000000D03*
X48000000Y-140000000D03*
X55000000Y-140000000D03*
X62000000Y-140000000D03*
X69000000Y-140000000D03*
X76000000Y-140000000D03*
X83000000Y-140000000D03*
X90000000Y-140000000D03*
X97000000Y-140000000D03*
X104000000Y-140000000D03*
X111000000Y-140000000D03*
X118000000Y-140000000D03*
X125000000Y-140000000D03*
X132000000Y-140000000D03*
X139000000Y-140000000D03*
X146000000Y-140000000D03*
X153000000Y-140000000D03*
X160000000Y-140000000D03*
X167000000Y-140000000D03*
X174000000Y-140000000D03*
X181000000Y-140000000D03*
X188000000Y-140000000D03*
X195000000Y-140000000D03*
X202000000Y-140000000D03*
X13000000Y-147000000D03*
X20000000Y-147000000D03*
X27000000Y-147000000D03*
X34000000Y-147000000D03*
X41000000Y-147000000D03*
X48000000Y-147000000D03*
X55000000Y-147000000D03*
X62000000Y-147000000D03*
X69000000Y-147000000D03*
X76000000Y-147000000D03*
X83000000Y-147000000D03*
X90000000Y-147000000D03*
X97000000Y-147000000D03*
X104000000Y-147000000D03*
X111000000Y-147000000D03*
X118000000Y-147000000D03*
X125000000Y-147000000D03*
X132000000Y-147000000D03*
X139000000Y-147000000D03*
X146000000Y-147000000D03*
X153000000Y-147000000D03*
X160000000Y-147000000D03*
X167000000Y-147000000D03*
X174000000Y-147000000D03*
X181000000Y-147000000D03*
X188000000Y-147000000D03*
X195000000Y-147000000D03*
X202000000Y-147000000D03*
X13000000Y-154000000D03*
X20000000Y-154000000D03*
X27000000Y-154000000D03*
X34000000Y-154000000D03*
X41000000Y-154000000D03*
X48000000Y-154000000D03*
X55000000Y-154000000D03*
X62000000Y-154000000D03*
X69000000Y-154000000D03*
X76000000Y-154000000D03*
X83000000Y-154000000D03*
X90000000Y-154000000D03*
X97000000Y-154000000D03*
X104000000Y-154000000D03*
X111000000Y-154000000D03*
X118000000Y-154000000D03*
X125000000Y-154000000D03*
X132000000Y-154000000D03*
X139000000Y-154000000D03*
X146000000Y-154000000D03*
X153000000Y-154000000D03*
X160000000Y-154000000D03*
X167000000Y-154000000D03*
X174000000Y-154000000D03*
X181000000Y-154000000D03*
X188000000Y-154000000D03*
X195000000Y-154000000D03*
X202000000Y-154000000D03*
X13000000Y-161000000D03*
X20000000Y-161000000D03*
X27000000Y-161000000D03*
X34000000Y-161000000D03*
X41000000Y-161000000D03*
X48000000Y-161000000D03*
X55000000Y-161000000D03*
X62000000Y-161000000D03*
X69000000Y-161000000D03*
X76000000Y-161000000D03*
X83000000Y-161000000D03*
X90000000Y-161000000D03*
X97000000Y-161000000D03*
X104000000Y-161000000D03*
X111000000Y-161000000D03*
X118000000Y-161000000D03*
X125000000Y-161000000D03*
X132000000Y-161000000D03*
G04 #@! TO.N,PHM43*
X139000000Y-161000000D03*
G04 #@! TO.N,PHM41*
X146000000Y-161000000D03*
G04 #@! TO.N,GND*
X153000000Y-161000000D03*
X160000000Y-161000000D03*
X167000000Y-161000000D03*
X174000000Y-161000000D03*
X181000000Y-161000000D03*
X188000000Y-161000000D03*
X195000000Y-161000000D03*
X202000000Y-161000000D03*
G04 #@! TD*
D19*
X82000000Y-50000000D03*
X82000000Y-66000000D03*
X82000000Y-82000000D03*
X134000000Y-50000000D03*
X134000000Y-66000000D03*
X134000000Y-82000000D03*
X82000000Y-102000000D03*
X82000000Y-118000000D03*
X82000000Y-134000000D03*
X134000000Y-102000000D03*
X134000000Y-118000000D03*
X134000000Y-134000000D03*
X123000000Y-50000000D03*
X123000000Y-66000000D03*
X123000000Y-82000000D03*
X175000000Y-50000000D03*
X175000000Y-66000000D03*
X175000000Y-82000000D03*
X123000000Y-102000000D03*
X123000000Y-118000000D03*
X123000000Y-134000000D03*
X175000000Y-102000000D03*
X175000000Y-118000000D03*
X175000000Y-134000000D03*
X13000000Y-14000000D03*
X20000000Y-14000000D03*
X27000000Y-14000000D03*
X34000000Y-14000000D03*
X41000000Y-14000000D03*
X48000000Y-14000000D03*
X55000000Y-14000000D03*
X62000000Y-14000000D03*
X69000000Y-14000000D03*
X76000000Y-14000000D03*
X83000000Y-14000000D03*
X90000000Y-14000000D03*
X97000000Y-14000000D03*
X104000000Y-14000000D03*
X111000000Y-14000000D03*
X118000000Y-14000000D03*
X125000000Y-14000000D03*
X132000000Y-14000000D03*
X139000000Y-14000000D03*
X146000000Y-14000000D03*
X153000000Y-14000000D03*
X160000000Y-14000000D03*
X167000000Y-14000000D03*
X174000000Y-14000000D03*
X181000000Y-14000000D03*
X188000000Y-14000000D03*
X195000000Y-14000000D03*
X202000000Y-14000000D03*
X13000000Y-21000000D03*
X20000000Y-21000000D03*
X27000000Y-21000000D03*
X34000000Y-21000000D03*
X41000000Y-21000000D03*
X48000000Y-21000000D03*
X55000000Y-21000000D03*
X62000000Y-21000000D03*
X69000000Y-21000000D03*
X76000000Y-21000000D03*
X83000000Y-21000000D03*
X90000000Y-21000000D03*
X97000000Y-21000000D03*
X104000000Y-21000000D03*
X111000000Y-21000000D03*
X118000000Y-21000000D03*
X125000000Y-21000000D03*
X132000000Y-21000000D03*
X139000000Y-21000000D03*
X146000000Y-21000000D03*
X153000000Y-21000000D03*
X160000000Y-21000000D03*
X167000000Y-21000000D03*
X174000000Y-21000000D03*
X181000000Y-21000000D03*
X188000000Y-21000000D03*
X195000000Y-21000000D03*
X202000000Y-21000000D03*
X13000000Y-28000000D03*
X20000000Y-28000000D03*
X27000000Y-28000000D03*
X34000000Y-28000000D03*
X41000000Y-28000000D03*
X48000000Y-28000000D03*
X55000000Y-28000000D03*
X62000000Y-28000000D03*
X69000000Y-28000000D03*
X76000000Y-28000000D03*
X83000000Y-28000000D03*
X90000000Y-28000000D03*
X97000000Y-28000000D03*
X104000000Y-28000000D03*
X111000000Y-28000000D03*
X118000000Y-28000000D03*
X125000000Y-28000000D03*
X132000000Y-28000000D03*
X139000000Y-28000000D03*
X146000000Y-28000000D03*
X153000000Y-28000000D03*
X160000000Y-28000000D03*
X167000000Y-28000000D03*
X174000000Y-28000000D03*
X181000000Y-28000000D03*
X188000000Y-28000000D03*
X195000000Y-28000000D03*
X202000000Y-28000000D03*
X13000000Y-35000000D03*
X20000000Y-35000000D03*
X27000000Y-35000000D03*
X34000000Y-35000000D03*
X41000000Y-35000000D03*
X48000000Y-35000000D03*
X55000000Y-35000000D03*
X62000000Y-35000000D03*
X69000000Y-35000000D03*
X76000000Y-35000000D03*
X83000000Y-35000000D03*
X90000000Y-35000000D03*
X97000000Y-35000000D03*
X104000000Y-35000000D03*
X111000000Y-35000000D03*
X118000000Y-35000000D03*
X125000000Y-35000000D03*
X132000000Y-35000000D03*
X139000000Y-35000000D03*
X146000000Y-35000000D03*
X153000000Y-35000000D03*
X160000000Y-35000000D03*
X167000000Y-35000000D03*
X174000000Y-35000000D03*
X181000000Y-35000000D03*
X188000000Y-35000000D03*
X195000000Y-35000000D03*
X202000000Y-35000000D03*
X13000000Y-42000000D03*
X20000000Y-42000000D03*
X27000000Y-42000000D03*
X34000000Y-42000000D03*
X41000000Y-42000000D03*
X48000000Y-42000000D03*
X55000000Y-42000000D03*
X62000000Y-42000000D03*
X69000000Y-42000000D03*
X76000000Y-42000000D03*
X83000000Y-42000000D03*
X90000000Y-42000000D03*
X97000000Y-42000000D03*
X104000000Y-42000000D03*
X111000000Y-42000000D03*
X118000000Y-42000000D03*
X125000000Y-42000000D03*
X132000000Y-42000000D03*
X139000000Y-42000000D03*
X146000000Y-42000000D03*
X153000000Y-42000000D03*
X160000000Y-42000000D03*
X167000000Y-42000000D03*
X174000000Y-42000000D03*
X181000000Y-42000000D03*
X188000000Y-42000000D03*
X195000000Y-42000000D03*
X202000000Y-42000000D03*
X13000000Y-49000000D03*
X20000000Y-49000000D03*
X27000000Y-49000000D03*
X34000000Y-49000000D03*
X41000000Y-49000000D03*
X48000000Y-49000000D03*
X55000000Y-49000000D03*
X62000000Y-49000000D03*
X69000000Y-49000000D03*
X76000000Y-49000000D03*
X83000000Y-49000000D03*
X90000000Y-49000000D03*
X97000000Y-49000000D03*
X104000000Y-49000000D03*
X111000000Y-49000000D03*
X118000000Y-49000000D03*
X125000000Y-49000000D03*
X132000000Y-49000000D03*
X139000000Y-49000000D03*
X146000000Y-49000000D03*
X153000000Y-49000000D03*
X160000000Y-49000000D03*
X167000000Y-49000000D03*
X174000000Y-49000000D03*
X181000000Y-49000000D03*
X188000000Y-49000000D03*
X195000000Y-49000000D03*
X202000000Y-49000000D03*
X13000000Y-56000000D03*
X20000000Y-56000000D03*
X27000000Y-56000000D03*
X34000000Y-56000000D03*
X41000000Y-56000000D03*
X48000000Y-56000000D03*
X55000000Y-56000000D03*
X62000000Y-56000000D03*
X69000000Y-56000000D03*
X76000000Y-56000000D03*
X83000000Y-56000000D03*
X90000000Y-56000000D03*
X97000000Y-56000000D03*
X104000000Y-56000000D03*
X111000000Y-56000000D03*
X118000000Y-56000000D03*
X125000000Y-56000000D03*
X132000000Y-56000000D03*
X139000000Y-56000000D03*
X146000000Y-56000000D03*
X153000000Y-56000000D03*
X160000000Y-56000000D03*
X167000000Y-56000000D03*
X174000000Y-56000000D03*
X181000000Y-56000000D03*
X188000000Y-56000000D03*
X195000000Y-56000000D03*
X202000000Y-56000000D03*
X13000000Y-63000000D03*
X20000000Y-63000000D03*
X27000000Y-63000000D03*
X34000000Y-63000000D03*
X41000000Y-63000000D03*
X48000000Y-63000000D03*
X55000000Y-63000000D03*
X62000000Y-63000000D03*
X69000000Y-63000000D03*
X76000000Y-63000000D03*
X83000000Y-63000000D03*
X90000000Y-63000000D03*
X97000000Y-63000000D03*
X104000000Y-63000000D03*
X111000000Y-63000000D03*
X118000000Y-63000000D03*
X125000000Y-63000000D03*
X132000000Y-63000000D03*
X139000000Y-63000000D03*
X146000000Y-63000000D03*
X153000000Y-63000000D03*
X160000000Y-63000000D03*
X167000000Y-63000000D03*
X174000000Y-63000000D03*
X181000000Y-63000000D03*
X188000000Y-63000000D03*
X195000000Y-63000000D03*
X202000000Y-63000000D03*
X13000000Y-70000000D03*
X20000000Y-70000000D03*
X27000000Y-70000000D03*
X34000000Y-70000000D03*
X41000000Y-70000000D03*
X48000000Y-70000000D03*
X55000000Y-70000000D03*
X62000000Y-70000000D03*
X69000000Y-70000000D03*
X76000000Y-70000000D03*
X83000000Y-70000000D03*
X90000000Y-70000000D03*
X97000000Y-70000000D03*
X104000000Y-70000000D03*
X111000000Y-70000000D03*
X118000000Y-70000000D03*
X125000000Y-70000000D03*
X132000000Y-70000000D03*
X139000000Y-70000000D03*
X146000000Y-70000000D03*
X153000000Y-70000000D03*
X160000000Y-70000000D03*
X167000000Y-70000000D03*
X174000000Y-70000000D03*
X181000000Y-70000000D03*
X188000000Y-70000000D03*
X195000000Y-70000000D03*
X202000000Y-70000000D03*
X13000000Y-77000000D03*
X20000000Y-77000000D03*
X27000000Y-77000000D03*
X34000000Y-77000000D03*
X41000000Y-77000000D03*
X48000000Y-77000000D03*
X55000000Y-77000000D03*
X62000000Y-77000000D03*
X69000000Y-77000000D03*
X76000000Y-77000000D03*
X83000000Y-77000000D03*
X90000000Y-77000000D03*
X97000000Y-77000000D03*
X104000000Y-77000000D03*
X111000000Y-77000000D03*
X118000000Y-77000000D03*
X125000000Y-77000000D03*
X132000000Y-77000000D03*
X139000000Y-77000000D03*
X146000000Y-77000000D03*
X153000000Y-77000000D03*
X160000000Y-77000000D03*
X167000000Y-77000000D03*
X174000000Y-77000000D03*
X181000000Y-77000000D03*
X188000000Y-77000000D03*
X195000000Y-77000000D03*
X202000000Y-77000000D03*
X13000000Y-84000000D03*
X20000000Y-84000000D03*
X27000000Y-84000000D03*
X34000000Y-84000000D03*
X41000000Y-84000000D03*
X48000000Y-84000000D03*
X55000000Y-84000000D03*
X62000000Y-84000000D03*
X69000000Y-84000000D03*
X76000000Y-84000000D03*
X83000000Y-84000000D03*
X90000000Y-84000000D03*
X97000000Y-84000000D03*
X104000000Y-84000000D03*
X111000000Y-84000000D03*
X118000000Y-84000000D03*
X125000000Y-84000000D03*
X132000000Y-84000000D03*
X139000000Y-84000000D03*
X146000000Y-84000000D03*
X153000000Y-84000000D03*
X160000000Y-84000000D03*
X167000000Y-84000000D03*
X174000000Y-84000000D03*
X181000000Y-84000000D03*
X188000000Y-84000000D03*
X195000000Y-84000000D03*
X202000000Y-84000000D03*
X13000000Y-91000000D03*
X20000000Y-91000000D03*
X27000000Y-91000000D03*
X34000000Y-91000000D03*
X41000000Y-91000000D03*
X48000000Y-91000000D03*
X55000000Y-91000000D03*
X62000000Y-91000000D03*
X69000000Y-91000000D03*
X76000000Y-91000000D03*
X83000000Y-91000000D03*
X90000000Y-91000000D03*
X97000000Y-91000000D03*
X104000000Y-91000000D03*
X111000000Y-91000000D03*
X118000000Y-91000000D03*
X125000000Y-91000000D03*
X132000000Y-91000000D03*
X139000000Y-91000000D03*
X146000000Y-91000000D03*
X153000000Y-91000000D03*
X160000000Y-91000000D03*
X167000000Y-91000000D03*
X174000000Y-91000000D03*
X181000000Y-91000000D03*
X188000000Y-91000000D03*
X195000000Y-91000000D03*
X202000000Y-91000000D03*
X13000000Y-98000000D03*
X20000000Y-98000000D03*
X27000000Y-98000000D03*
X34000000Y-98000000D03*
X41000000Y-98000000D03*
X48000000Y-98000000D03*
X55000000Y-98000000D03*
X62000000Y-98000000D03*
X69000000Y-98000000D03*
X76000000Y-98000000D03*
X83000000Y-98000000D03*
X90000000Y-98000000D03*
X97000000Y-98000000D03*
X104000000Y-98000000D03*
X111000000Y-98000000D03*
X118000000Y-98000000D03*
X125000000Y-98000000D03*
X132000000Y-98000000D03*
X139000000Y-98000000D03*
X146000000Y-98000000D03*
X153000000Y-98000000D03*
X160000000Y-98000000D03*
X167000000Y-98000000D03*
X174000000Y-98000000D03*
X181000000Y-98000000D03*
X188000000Y-98000000D03*
X195000000Y-98000000D03*
X202000000Y-98000000D03*
X13000000Y-105000000D03*
X20000000Y-105000000D03*
X27000000Y-105000000D03*
X34000000Y-105000000D03*
X41000000Y-105000000D03*
X48000000Y-105000000D03*
X55000000Y-105000000D03*
X62000000Y-105000000D03*
X69000000Y-105000000D03*
X76000000Y-105000000D03*
X83000000Y-105000000D03*
X90000000Y-105000000D03*
X97000000Y-105000000D03*
X104000000Y-105000000D03*
X111000000Y-105000000D03*
X118000000Y-105000000D03*
X125000000Y-105000000D03*
X132000000Y-105000000D03*
X139000000Y-105000000D03*
X146000000Y-105000000D03*
X153000000Y-105000000D03*
X160000000Y-105000000D03*
X167000000Y-105000000D03*
X174000000Y-105000000D03*
X181000000Y-105000000D03*
X188000000Y-105000000D03*
X195000000Y-105000000D03*
X202000000Y-105000000D03*
X13000000Y-112000000D03*
X20000000Y-112000000D03*
X27000000Y-112000000D03*
X34000000Y-112000000D03*
X41000000Y-112000000D03*
X48000000Y-112000000D03*
X55000000Y-112000000D03*
X62000000Y-112000000D03*
X69000000Y-112000000D03*
X76000000Y-112000000D03*
X83000000Y-112000000D03*
X90000000Y-112000000D03*
X97000000Y-112000000D03*
X104000000Y-112000000D03*
X111000000Y-112000000D03*
X118000000Y-112000000D03*
X125000000Y-112000000D03*
X132000000Y-112000000D03*
X139000000Y-112000000D03*
X146000000Y-112000000D03*
X153000000Y-112000000D03*
X160000000Y-112000000D03*
X167000000Y-112000000D03*
X174000000Y-112000000D03*
X181000000Y-112000000D03*
X188000000Y-112000000D03*
X195000000Y-112000000D03*
X202000000Y-112000000D03*
X13000000Y-119000000D03*
X20000000Y-119000000D03*
X27000000Y-119000000D03*
X34000000Y-119000000D03*
X41000000Y-119000000D03*
X48000000Y-119000000D03*
X55000000Y-119000000D03*
X62000000Y-119000000D03*
X69000000Y-119000000D03*
X76000000Y-119000000D03*
X83000000Y-119000000D03*
X90000000Y-119000000D03*
X97000000Y-119000000D03*
X104000000Y-119000000D03*
X111000000Y-119000000D03*
X118000000Y-119000000D03*
X125000000Y-119000000D03*
X132000000Y-119000000D03*
X139000000Y-119000000D03*
X146000000Y-119000000D03*
X153000000Y-119000000D03*
X160000000Y-119000000D03*
X167000000Y-119000000D03*
X174000000Y-119000000D03*
X181000000Y-119000000D03*
X188000000Y-119000000D03*
X195000000Y-119000000D03*
X202000000Y-119000000D03*
X13000000Y-126000000D03*
X20000000Y-126000000D03*
X27000000Y-126000000D03*
X34000000Y-126000000D03*
X41000000Y-126000000D03*
X48000000Y-126000000D03*
X55000000Y-126000000D03*
X62000000Y-126000000D03*
X69000000Y-126000000D03*
X76000000Y-126000000D03*
X83000000Y-126000000D03*
X90000000Y-126000000D03*
X97000000Y-126000000D03*
X104000000Y-126000000D03*
X111000000Y-126000000D03*
X118000000Y-126000000D03*
X125000000Y-126000000D03*
X132000000Y-126000000D03*
X139000000Y-126000000D03*
X146000000Y-126000000D03*
X153000000Y-126000000D03*
X160000000Y-126000000D03*
X167000000Y-126000000D03*
X174000000Y-126000000D03*
X181000000Y-126000000D03*
X188000000Y-126000000D03*
X195000000Y-126000000D03*
X202000000Y-126000000D03*
X13000000Y-133000000D03*
X20000000Y-133000000D03*
X27000000Y-133000000D03*
X34000000Y-133000000D03*
X41000000Y-133000000D03*
X48000000Y-133000000D03*
X55000000Y-133000000D03*
X62000000Y-133000000D03*
X69000000Y-133000000D03*
X76000000Y-133000000D03*
X83000000Y-133000000D03*
X90000000Y-133000000D03*
X97000000Y-133000000D03*
X104000000Y-133000000D03*
X111000000Y-133000000D03*
X118000000Y-133000000D03*
X125000000Y-133000000D03*
X132000000Y-133000000D03*
X139000000Y-133000000D03*
X146000000Y-133000000D03*
X153000000Y-133000000D03*
X160000000Y-133000000D03*
X167000000Y-133000000D03*
X174000000Y-133000000D03*
X181000000Y-133000000D03*
X188000000Y-133000000D03*
X195000000Y-133000000D03*
X202000000Y-133000000D03*
X13000000Y-140000000D03*
X20000000Y-140000000D03*
X27000000Y-140000000D03*
X34000000Y-140000000D03*
X41000000Y-140000000D03*
X48000000Y-140000000D03*
X55000000Y-140000000D03*
X62000000Y-140000000D03*
X69000000Y-140000000D03*
X76000000Y-140000000D03*
X83000000Y-140000000D03*
X90000000Y-140000000D03*
X97000000Y-140000000D03*
X104000000Y-140000000D03*
X111000000Y-140000000D03*
X118000000Y-140000000D03*
X125000000Y-140000000D03*
X132000000Y-140000000D03*
X139000000Y-140000000D03*
X146000000Y-140000000D03*
X153000000Y-140000000D03*
X160000000Y-140000000D03*
X167000000Y-140000000D03*
X174000000Y-140000000D03*
X181000000Y-140000000D03*
X188000000Y-140000000D03*
X195000000Y-140000000D03*
X202000000Y-140000000D03*
X13000000Y-147000000D03*
X20000000Y-147000000D03*
X27000000Y-147000000D03*
X34000000Y-147000000D03*
X41000000Y-147000000D03*
X48000000Y-147000000D03*
X55000000Y-147000000D03*
X62000000Y-147000000D03*
X69000000Y-147000000D03*
X76000000Y-147000000D03*
X83000000Y-147000000D03*
X90000000Y-147000000D03*
X97000000Y-147000000D03*
X104000000Y-147000000D03*
X111000000Y-147000000D03*
X118000000Y-147000000D03*
X125000000Y-147000000D03*
X132000000Y-147000000D03*
X139000000Y-147000000D03*
X146000000Y-147000000D03*
X153000000Y-147000000D03*
X160000000Y-147000000D03*
X167000000Y-147000000D03*
X174000000Y-147000000D03*
X181000000Y-147000000D03*
X188000000Y-147000000D03*
X195000000Y-147000000D03*
X202000000Y-147000000D03*
X13000000Y-154000000D03*
X20000000Y-154000000D03*
X27000000Y-154000000D03*
X34000000Y-154000000D03*
X41000000Y-154000000D03*
X48000000Y-154000000D03*
X55000000Y-154000000D03*
X62000000Y-154000000D03*
X69000000Y-154000000D03*
X76000000Y-154000000D03*
X83000000Y-154000000D03*
X90000000Y-154000000D03*
X97000000Y-154000000D03*
X104000000Y-154000000D03*
X111000000Y-154000000D03*
X118000000Y-154000000D03*
X125000000Y-154000000D03*
X132000000Y-154000000D03*
X139000000Y-154000000D03*
X146000000Y-154000000D03*
X153000000Y-154000000D03*
X160000000Y-154000000D03*
X167000000Y-154000000D03*
X174000000Y-154000000D03*
X181000000Y-154000000D03*
X188000000Y-154000000D03*
X195000000Y-154000000D03*
X202000000Y-154000000D03*
X13000000Y-161000000D03*
X20000000Y-161000000D03*
X27000000Y-161000000D03*
X34000000Y-161000000D03*
X41000000Y-161000000D03*
X48000000Y-161000000D03*
X55000000Y-161000000D03*
X62000000Y-161000000D03*
X69000000Y-161000000D03*
X76000000Y-161000000D03*
X83000000Y-161000000D03*
X90000000Y-161000000D03*
X97000000Y-161000000D03*
X104000000Y-161000000D03*
X111000000Y-161000000D03*
X118000000Y-161000000D03*
X125000000Y-161000000D03*
X132000000Y-161000000D03*
X139000000Y-161000000D03*
X146000000Y-161000000D03*
X153000000Y-161000000D03*
X160000000Y-161000000D03*
X167000000Y-161000000D03*
X174000000Y-161000000D03*
X181000000Y-161000000D03*
X188000000Y-161000000D03*
X195000000Y-161000000D03*
X202000000Y-161000000D03*
D20*
X138000000Y-160000000D03*
X141500000Y-160000000D03*
X145000000Y-160000000D03*
X135000000Y-155000000D03*
X148000000Y-155000000D03*
X88000000Y-160000000D03*
X91500000Y-160000000D03*
X95000000Y-160000000D03*
X85000000Y-155000000D03*
X98000000Y-155000000D03*
X138000000Y-24000000D03*
X141500000Y-24000000D03*
X145000000Y-24000000D03*
X135000000Y-19000000D03*
X148000000Y-19000000D03*
X88000000Y-24000000D03*
X91500000Y-24000000D03*
X95000000Y-24000000D03*
X85000000Y-19000000D03*
X98000000Y-19000000D03*
D21*
X28700000Y-19640000D03*
X37350000Y-19640000D03*
D22*
X28700000Y-23020000D03*
X37350000Y-23020000D03*
D20*
X32600000Y-22650000D03*
X30050000Y-22650000D03*
X30900000Y-22650000D03*
X31750000Y-22650000D03*
X36000000Y-22650000D03*
X34300000Y-22650000D03*
X33450000Y-22650000D03*
X35150000Y-22650000D03*
X30050000Y-24000000D03*
X30900000Y-24000000D03*
X31750000Y-24000000D03*
X32600000Y-24000000D03*
X33450000Y-24000000D03*
X34300000Y-24000000D03*
X35150000Y-24000000D03*
X36000000Y-24000000D03*
X30000000Y-142000000D03*
X37200000Y-142000000D03*
M02*
