M48
; DRILL file {KiCad 5.1.9+dfsg1-1+deb11u1} date Fri Sep 11 21:44:09 2026
; FORMAT={-:-/ absolute / metric / decimal}
; #@! TF.CreationDate,2026-09-11T21:44:09-03:00
; #@! TF.GenerationSoftware,Kicad,Pcbnew,5.1.9+dfsg1-1+deb11u1
; #@! TF.FileFunction,Plated,1,4,PTH
FMAT,2
METRIC
T1C30.000
T2C40.000
T3C60.000
T4C100.000
T5C190.000
T6C450.000
%
G90
G05
T1
X1300.0Y-1400.0
X1300.0Y-2100.0
X1300.0Y-2800.0
X1300.0Y-3500.0
X1300.0Y-4200.0
X1300.0Y-4900.0
X1300.0Y-5600.0
X1300.0Y-6300.0
X1300.0Y-7000.0
X1300.0Y-7700.0
X1300.0Y-8400.0
X1300.0Y-9100.0
X1300.0Y-9800.0
X1300.0Y-10500.0
X1300.0Y-11200.0
X1300.0Y-11900.0
X1300.0Y-12600.0
X1300.0Y-13300.0
X1300.0Y-14000.0
X1300.0Y-14700.0
X1300.0Y-15400.0
X1300.0Y-16100.0
X2000.0Y-1400.0
X2000.0Y-2100.0
X2000.0Y-2800.0
X2000.0Y-3500.0
X2000.0Y-4200.0
X2000.0Y-4900.0
X2000.0Y-5600.0
X2000.0Y-6300.0
X2000.0Y-7000.0
X2000.0Y-7700.0
X2000.0Y-8400.0
X2000.0Y-9100.0
X2000.0Y-9800.0
X2000.0Y-10500.0
X2000.0Y-11200.0
X2000.0Y-11900.0
X2000.0Y-12600.0
X2000.0Y-13300.0
X2000.0Y-14000.0
X2000.0Y-14700.0
X2000.0Y-15400.0
X2000.0Y-16100.0
X2700.0Y-1400.0
X2700.0Y-2100.0
X2700.0Y-2800.0
X2700.0Y-3500.0
X2700.0Y-4200.0
X2700.0Y-4900.0
X2700.0Y-5600.0
X2700.0Y-6300.0
X2700.0Y-7000.0
X2700.0Y-7700.0
X2700.0Y-8400.0
X2700.0Y-9100.0
X2700.0Y-9800.0
X2700.0Y-10500.0
X2700.0Y-11200.0
X2700.0Y-11900.0
X2700.0Y-12600.0
X2700.0Y-13300.0
X2700.0Y-14000.0
X2700.0Y-14700.0
X2700.0Y-15400.0
X2700.0Y-16100.0
X3400.0Y-1400.0
X3400.0Y-2100.0
X3400.0Y-2800.0
X3400.0Y-3500.0
X3400.0Y-4200.0
X3400.0Y-4900.0
X3400.0Y-5600.0
X3400.0Y-6300.0
X3400.0Y-7000.0
X3400.0Y-7700.0
X3400.0Y-8400.0
X3400.0Y-9100.0
X3400.0Y-9800.0
X3400.0Y-10500.0
X3400.0Y-11200.0
X3400.0Y-11900.0
X3400.0Y-12600.0
X3400.0Y-13300.0
X3400.0Y-14000.0
X3400.0Y-14700.0
X3400.0Y-15400.0
X3400.0Y-16100.0
X4100.0Y-1400.0
X4100.0Y-2100.0
X4100.0Y-2800.0
X4100.0Y-3500.0
X4100.0Y-4200.0
X4100.0Y-4900.0
X4100.0Y-5600.0
X4100.0Y-6300.0
X4100.0Y-7000.0
X4100.0Y-7700.0
X4100.0Y-8400.0
X4100.0Y-9100.0
X4100.0Y-9800.0
X4100.0Y-10500.0
X4100.0Y-11200.0
X4100.0Y-11900.0
X4100.0Y-12600.0
X4100.0Y-13300.0
X4100.0Y-14000.0
X4100.0Y-14700.0
X4100.0Y-15400.0
X4100.0Y-16100.0
X4800.0Y-1400.0
X4800.0Y-2100.0
X4800.0Y-2800.0
X4800.0Y-3500.0
X4800.0Y-4200.0
X4800.0Y-4900.0
X4800.0Y-5600.0
X4800.0Y-6300.0
X4800.0Y-7000.0
X4800.0Y-7700.0
X4800.0Y-8400.0
X4800.0Y-9100.0
X4800.0Y-9800.0
X4800.0Y-10500.0
X4800.0Y-11200.0
X4800.0Y-11900.0
X4800.0Y-12600.0
X4800.0Y-13300.0
X4800.0Y-14000.0
X4800.0Y-14700.0
X4800.0Y-15400.0
X4800.0Y-16100.0
X5500.0Y-1400.0
X5500.0Y-2100.0
X5500.0Y-2800.0
X5500.0Y-3500.0
X5500.0Y-4200.0
X5500.0Y-4900.0
X5500.0Y-5600.0
X5500.0Y-6300.0
X5500.0Y-7000.0
X5500.0Y-7700.0
X5500.0Y-8400.0
X5500.0Y-9100.0
X5500.0Y-9800.0
X5500.0Y-10500.0
X5500.0Y-11200.0
X5500.0Y-11900.0
X5500.0Y-12600.0
X5500.0Y-13300.0
X5500.0Y-14000.0
X5500.0Y-14700.0
X5500.0Y-15400.0
X5500.0Y-16100.0
X6200.0Y-1400.0
X6200.0Y-2100.0
X6200.0Y-2800.0
X6200.0Y-3500.0
X6200.0Y-4200.0
X6200.0Y-4900.0
X6200.0Y-5600.0
X6200.0Y-6300.0
X6200.0Y-7000.0
X6200.0Y-7700.0
X6200.0Y-8400.0
X6200.0Y-9100.0
X6200.0Y-9800.0
X6200.0Y-10500.0
X6200.0Y-11200.0
X6200.0Y-11900.0
X6200.0Y-12600.0
X6200.0Y-13300.0
X6200.0Y-14000.0
X6200.0Y-14700.0
X6200.0Y-15400.0
X6200.0Y-16100.0
X6900.0Y-1400.0
X6900.0Y-2100.0
X6900.0Y-2800.0
X6900.0Y-3500.0
X6900.0Y-4200.0
X6900.0Y-4900.0
X6900.0Y-5600.0
X6900.0Y-6300.0
X6900.0Y-7000.0
X6900.0Y-7700.0
X6900.0Y-8400.0
X6900.0Y-9100.0
X6900.0Y-9800.0
X6900.0Y-10500.0
X6900.0Y-11200.0
X6900.0Y-11900.0
X6900.0Y-12600.0
X6900.0Y-13300.0
X6900.0Y-14000.0
X6900.0Y-14700.0
X6900.0Y-15400.0
X6900.0Y-16100.0
X7600.0Y-1400.0
X7600.0Y-2100.0
X7600.0Y-2800.0
X7600.0Y-3500.0
X7600.0Y-4200.0
X7600.0Y-4900.0
X7600.0Y-5600.0
X7600.0Y-6300.0
X7600.0Y-7000.0
X7600.0Y-7700.0
X7600.0Y-8400.0
X7600.0Y-9100.0
X7600.0Y-9800.0
X7600.0Y-10500.0
X7600.0Y-11200.0
X7600.0Y-11900.0
X7600.0Y-12600.0
X7600.0Y-13300.0
X7600.0Y-14000.0
X7600.0Y-14700.0
X7600.0Y-15400.0
X7600.0Y-16100.0
X8200.0Y-5000.0
X8200.0Y-6600.0
X8200.0Y-8200.0
X8200.0Y-10200.0
X8200.0Y-11800.0
X8200.0Y-13400.0
X8300.0Y-1400.0
X8300.0Y-2100.0
X8300.0Y-2800.0
X8300.0Y-3500.0
X8300.0Y-4200.0
X8300.0Y-4900.0
X8300.0Y-5600.0
X8300.0Y-6300.0
X8300.0Y-7000.0
X8300.0Y-7700.0
X8300.0Y-8400.0
X8300.0Y-9100.0
X8300.0Y-9800.0
X8300.0Y-10500.0
X8300.0Y-11200.0
X8300.0Y-11900.0
X8300.0Y-12600.0
X8300.0Y-13300.0
X8300.0Y-14000.0
X8300.0Y-14700.0
X8300.0Y-15400.0
X8300.0Y-16100.0
X9000.0Y-1400.0
X9000.0Y-2100.0
X9000.0Y-2800.0
X9000.0Y-3500.0
X9000.0Y-4200.0
X9000.0Y-4900.0
X9000.0Y-5600.0
X9000.0Y-6300.0
X9000.0Y-7000.0
X9000.0Y-7700.0
X9000.0Y-8400.0
X9000.0Y-9100.0
X9000.0Y-9800.0
X9000.0Y-10500.0
X9000.0Y-11200.0
X9000.0Y-11900.0
X9000.0Y-12600.0
X9000.0Y-13300.0
X9000.0Y-14000.0
X9000.0Y-14700.0
X9000.0Y-15400.0
X9000.0Y-16100.0
X9700.0Y-1400.0
X9700.0Y-2100.0
X9700.0Y-2800.0
X9700.0Y-3500.0
X9700.0Y-4200.0
X9700.0Y-4900.0
X9700.0Y-5600.0
X9700.0Y-6300.0
X9700.0Y-7000.0
X9700.0Y-7700.0
X9700.0Y-8400.0
X9700.0Y-9100.0
X9700.0Y-9800.0
X9700.0Y-10500.0
X9700.0Y-11200.0
X9700.0Y-11900.0
X9700.0Y-12600.0
X9700.0Y-13300.0
X9700.0Y-14000.0
X9700.0Y-14700.0
X9700.0Y-15400.0
X9700.0Y-16100.0
X10400.0Y-1400.0
X10400.0Y-2100.0
X10400.0Y-2800.0
X10400.0Y-3500.0
X10400.0Y-4200.0
X10400.0Y-4900.0
X10400.0Y-5600.0
X10400.0Y-6300.0
X10400.0Y-7000.0
X10400.0Y-7700.0
X10400.0Y-8400.0
X10400.0Y-9100.0
X10400.0Y-9800.0
X10400.0Y-10500.0
X10400.0Y-11200.0
X10400.0Y-11900.0
X10400.0Y-12600.0
X10400.0Y-13300.0
X10400.0Y-14000.0
X10400.0Y-14700.0
X10400.0Y-15400.0
X10400.0Y-16100.0
X11100.0Y-1400.0
X11100.0Y-2100.0
X11100.0Y-2800.0
X11100.0Y-3500.0
X11100.0Y-4200.0
X11100.0Y-4900.0
X11100.0Y-5600.0
X11100.0Y-6300.0
X11100.0Y-7000.0
X11100.0Y-7700.0
X11100.0Y-8400.0
X11100.0Y-9100.0
X11100.0Y-9800.0
X11100.0Y-10500.0
X11100.0Y-11200.0
X11100.0Y-11900.0
X11100.0Y-12600.0
X11100.0Y-13300.0
X11100.0Y-14000.0
X11100.0Y-14700.0
X11100.0Y-15400.0
X11100.0Y-16100.0
X11800.0Y-1400.0
X11800.0Y-2100.0
X11800.0Y-2800.0
X11800.0Y-3500.0
X11800.0Y-4200.0
X11800.0Y-4900.0
X11800.0Y-5600.0
X11800.0Y-6300.0
X11800.0Y-7000.0
X11800.0Y-7700.0
X11800.0Y-8400.0
X11800.0Y-9100.0
X11800.0Y-9800.0
X11800.0Y-10500.0
X11800.0Y-11200.0
X11800.0Y-11900.0
X11800.0Y-12600.0
X11800.0Y-13300.0
X11800.0Y-14000.0
X11800.0Y-14700.0
X11800.0Y-15400.0
X11800.0Y-16100.0
X12300.0Y-5000.0
X12300.0Y-6600.0
X12300.0Y-8200.0
X12300.0Y-10200.0
X12300.0Y-11800.0
X12300.0Y-13400.0
X12500.0Y-1400.0
X12500.0Y-2100.0
X12500.0Y-2800.0
X12500.0Y-3500.0
X12500.0Y-4200.0
X12500.0Y-4900.0
X12500.0Y-5600.0
X12500.0Y-6300.0
X12500.0Y-7000.0
X12500.0Y-7700.0
X12500.0Y-8400.0
X12500.0Y-9100.0
X12500.0Y-9800.0
X12500.0Y-10500.0
X12500.0Y-11200.0
X12500.0Y-11900.0
X12500.0Y-12600.0
X12500.0Y-13300.0
X12500.0Y-14000.0
X12500.0Y-14700.0
X12500.0Y-15400.0
X12500.0Y-16100.0
X13200.0Y-1400.0
X13200.0Y-2100.0
X13200.0Y-2800.0
X13200.0Y-3500.0
X13200.0Y-4200.0
X13200.0Y-4900.0
X13200.0Y-5600.0
X13200.0Y-6300.0
X13200.0Y-7000.0
X13200.0Y-7700.0
X13200.0Y-8400.0
X13200.0Y-9100.0
X13200.0Y-9800.0
X13200.0Y-10500.0
X13200.0Y-11200.0
X13200.0Y-11900.0
X13200.0Y-12600.0
X13200.0Y-13300.0
X13200.0Y-14000.0
X13200.0Y-14700.0
X13200.0Y-15400.0
X13200.0Y-16100.0
X13400.0Y-5000.0
X13400.0Y-6600.0
X13400.0Y-8200.0
X13400.0Y-10200.0
X13400.0Y-11800.0
X13400.0Y-13400.0
X13900.0Y-1400.0
X13900.0Y-2100.0
X13900.0Y-2800.0
X13900.0Y-3500.0
X13900.0Y-4200.0
X13900.0Y-4900.0
X13900.0Y-5600.0
X13900.0Y-6300.0
X13900.0Y-7000.0
X13900.0Y-7700.0
X13900.0Y-8400.0
X13900.0Y-9100.0
X13900.0Y-9800.0
X13900.0Y-10500.0
X13900.0Y-11200.0
X13900.0Y-11900.0
X13900.0Y-12600.0
X13900.0Y-13300.0
X13900.0Y-14000.0
X13900.0Y-14700.0
X13900.0Y-15400.0
X13900.0Y-16100.0
X14600.0Y-1400.0
X14600.0Y-2100.0
X14600.0Y-2800.0
X14600.0Y-3500.0
X14600.0Y-4200.0
X14600.0Y-4900.0
X14600.0Y-5600.0
X14600.0Y-6300.0
X14600.0Y-7000.0
X14600.0Y-7700.0
X14600.0Y-8400.0
X14600.0Y-9100.0
X14600.0Y-9800.0
X14600.0Y-10500.0
X14600.0Y-11200.0
X14600.0Y-11900.0
X14600.0Y-12600.0
X14600.0Y-13300.0
X14600.0Y-14000.0
X14600.0Y-14700.0
X14600.0Y-15400.0
X14600.0Y-16100.0
X15300.0Y-1400.0
X15300.0Y-2100.0
X15300.0Y-2800.0
X15300.0Y-3500.0
X15300.0Y-4200.0
X15300.0Y-4900.0
X15300.0Y-5600.0
X15300.0Y-6300.0
X15300.0Y-7000.0
X15300.0Y-7700.0
X15300.0Y-8400.0
X15300.0Y-9100.0
X15300.0Y-9800.0
X15300.0Y-10500.0
X15300.0Y-11200.0
X15300.0Y-11900.0
X15300.0Y-12600.0
X15300.0Y-13300.0
X15300.0Y-14000.0
X15300.0Y-14700.0
X15300.0Y-15400.0
X15300.0Y-16100.0
X16000.0Y-1400.0
X16000.0Y-2100.0
X16000.0Y-2800.0
X16000.0Y-3500.0
X16000.0Y-4200.0
X16000.0Y-4900.0
X16000.0Y-5600.0
X16000.0Y-6300.0
X16000.0Y-7000.0
X16000.0Y-7700.0
X16000.0Y-8400.0
X16000.0Y-9100.0
X16000.0Y-9800.0
X16000.0Y-10500.0
X16000.0Y-11200.0
X16000.0Y-11900.0
X16000.0Y-12600.0
X16000.0Y-13300.0
X16000.0Y-14000.0
X16000.0Y-14700.0
X16000.0Y-15400.0
X16000.0Y-16100.0
X16700.0Y-1400.0
X16700.0Y-2100.0
X16700.0Y-2800.0
X16700.0Y-3500.0
X16700.0Y-4200.0
X16700.0Y-4900.0
X16700.0Y-5600.0
X16700.0Y-6300.0
X16700.0Y-7000.0
X16700.0Y-7700.0
X16700.0Y-8400.0
X16700.0Y-9100.0
X16700.0Y-9800.0
X16700.0Y-10500.0
X16700.0Y-11200.0
X16700.0Y-11900.0
X16700.0Y-12600.0
X16700.0Y-13300.0
X16700.0Y-14000.0
X16700.0Y-14700.0
X16700.0Y-15400.0
X16700.0Y-16100.0
X17400.0Y-1400.0
X17400.0Y-2100.0
X17400.0Y-2800.0
X17400.0Y-3500.0
X17400.0Y-4200.0
X17400.0Y-4900.0
X17400.0Y-5600.0
X17400.0Y-6300.0
X17400.0Y-7000.0
X17400.0Y-7700.0
X17400.0Y-8400.0
X17400.0Y-9100.0
X17400.0Y-9800.0
X17400.0Y-10500.0
X17400.0Y-11200.0
X17400.0Y-11900.0
X17400.0Y-12600.0
X17400.0Y-13300.0
X17400.0Y-14000.0
X17400.0Y-14700.0
X17400.0Y-15400.0
X17400.0Y-16100.0
X17500.0Y-5000.0
X17500.0Y-6600.0
X17500.0Y-8200.0
X17500.0Y-10200.0
X17500.0Y-11800.0
X17500.0Y-13400.0
X18100.0Y-1400.0
X18100.0Y-2100.0
X18100.0Y-2800.0
X18100.0Y-3500.0
X18100.0Y-4200.0
X18100.0Y-4900.0
X18100.0Y-5600.0
X18100.0Y-6300.0
X18100.0Y-7000.0
X18100.0Y-7700.0
X18100.0Y-8400.0
X18100.0Y-9100.0
X18100.0Y-9800.0
X18100.0Y-10500.0
X18100.0Y-11200.0
X18100.0Y-11900.0
X18100.0Y-12600.0
X18100.0Y-13300.0
X18100.0Y-14000.0
X18100.0Y-14700.0
X18100.0Y-15400.0
X18100.0Y-16100.0
X18800.0Y-1400.0
X18800.0Y-2100.0
X18800.0Y-2800.0
X18800.0Y-3500.0
X18800.0Y-4200.0
X18800.0Y-4900.0
X18800.0Y-5600.0
X18800.0Y-6300.0
X18800.0Y-7000.0
X18800.0Y-7700.0
X18800.0Y-8400.0
X18800.0Y-9100.0
X18800.0Y-9800.0
X18800.0Y-10500.0
X18800.0Y-11200.0
X18800.0Y-11900.0
X18800.0Y-12600.0
X18800.0Y-13300.0
X18800.0Y-14000.0
X18800.0Y-14700.0
X18800.0Y-15400.0
X18800.0Y-16100.0
X19500.0Y-1400.0
X19500.0Y-2100.0
X19500.0Y-2800.0
X19500.0Y-3500.0
X19500.0Y-4200.0
X19500.0Y-4900.0
X19500.0Y-5600.0
X19500.0Y-6300.0
X19500.0Y-7000.0
X19500.0Y-7700.0
X19500.0Y-8400.0
X19500.0Y-9100.0
X19500.0Y-9800.0
X19500.0Y-10500.0
X19500.0Y-11200.0
X19500.0Y-11900.0
X19500.0Y-12600.0
X19500.0Y-13300.0
X19500.0Y-14000.0
X19500.0Y-14700.0
X19500.0Y-15400.0
X19500.0Y-16100.0
X20200.0Y-1400.0
X20200.0Y-2100.0
X20200.0Y-2800.0
X20200.0Y-3500.0
X20200.0Y-4200.0
X20200.0Y-4900.0
X20200.0Y-5600.0
X20200.0Y-6300.0
X20200.0Y-7000.0
X20200.0Y-7700.0
X20200.0Y-8400.0
X20200.0Y-9100.0
X20200.0Y-9800.0
X20200.0Y-10500.0
X20200.0Y-11200.0
X20200.0Y-11900.0
X20200.0Y-12600.0
X20200.0Y-13300.0
X20200.0Y-14000.0
X20200.0Y-14700.0
X20200.0Y-15400.0
X20200.0Y-16100.0
T2
X3005.0Y-2265.0
X3005.0Y-2400.0
X3090.0Y-2265.0
X3090.0Y-2400.0
X3175.0Y-2265.0
X3175.0Y-2400.0
X3260.0Y-2265.0
X3260.0Y-2400.0
X3345.0Y-2265.0
X3345.0Y-2400.0
X3430.0Y-2265.0
X3430.0Y-2400.0
X3515.0Y-2265.0
X3515.0Y-2400.0
X3600.0Y-2265.0
X3600.0Y-2400.0
T4
X8500.0Y-1900.0
X8500.0Y-15500.0
X9800.0Y-1900.0
X9800.0Y-15500.0
X13500.0Y-1900.0
X13500.0Y-15500.0
X14800.0Y-1900.0
X14800.0Y-15500.0
T5
X8800.0Y-2400.0
X8800.0Y-16000.0
X9150.0Y-2400.0
X9150.0Y-16000.0
X9500.0Y-2400.0
X9500.0Y-16000.0
X13800.0Y-2400.0
X13800.0Y-16000.0
X14150.0Y-2400.0
X14150.0Y-16000.0
X14500.0Y-2400.0
X14500.0Y-16000.0
T6
X3000.0Y-14200.0
X3720.0Y-14200.0
T3
G00X2870.0Y-2004.0
M15
G01X2870.0Y-1924.0
M16
G05
G00X2870.0Y-2377.0
M15
G01X2870.0Y-2227.0
M16
G05
G00X3735.0Y-2004.0
M15
G01X3735.0Y-1924.0
M16
G05
G00X3735.0Y-2377.0
M15
G01X3735.0Y-2227.0
M16
G05
T0
M30
