G04 #@! TF.GenerationSoftware,KiCad,Pcbnew,5.1.9+dfsg1-1+deb11u1*
G04 #@! TF.CreationDate,2026-09-11T21:34:16-03:00*
G04 #@! TF.ProjectId,,58585858-5858-4585-9858-585858585858,rev?*
G04 #@! TF.SameCoordinates,Original*
G04 #@! TF.FileFunction,Soldermask,Bot*
G04 #@! TF.FilePolarity,Negative*
%FSLAX46Y46*%
G04 Gerber Fmt 4.6, Leading zero omitted, Abs format (unit mm)*
G04 Created by KiCad (PCBNEW 5.1.9+dfsg1-1+deb11u1) date 2026-09-11 21:34:16*
%MOMM*%
%LPD*%
G01*
G04 APERTURE LIST*
G04 #@! TA.AperFunction,Profile*
%ADD10C,0.100000*%
G04 #@! TD*
%ADD11C,3.000000*%
%ADD12R,3.000000X3.000000*%
%ADD13C,1.400000*%
%ADD14O,0.900000X1.700000*%
%ADD15O,0.900000X2.400000*%
%ADD16C,0.700000*%
%ADD17C,6.000000*%
G04 APERTURE END LIST*
D10*
X10000000Y-10000000D02*
X150000000Y-10000000D01*
X150000000Y-10000000D02*
X150000000Y-100000000D01*
X150000000Y-100000000D02*
X10000000Y-100000000D01*
X10000000Y-100000000D02*
X10000000Y-10000000D01*
D11*
G04 #@! TO.C,J_M4*
X111000000Y-86000000D03*
X114500000Y-86000000D03*
D12*
X118000000Y-86000000D03*
D13*
X108000000Y-81000000D03*
X121000000Y-81000000D03*
G04 #@! TD*
D11*
G04 #@! TO.C,J_M3*
X39000000Y-86000000D03*
X42500000Y-86000000D03*
D12*
X46000000Y-86000000D03*
D13*
X36000000Y-81000000D03*
X49000000Y-81000000D03*
G04 #@! TD*
D11*
G04 #@! TO.C,J_M2*
X111000000Y-14000000D03*
X114500000Y-14000000D03*
D12*
X118000000Y-14000000D03*
D13*
X108000000Y-9000000D03*
X121000000Y-9000000D03*
G04 #@! TD*
D11*
G04 #@! TO.C,J_M1*
X39000000Y-14000000D03*
X42500000Y-14000000D03*
D12*
X46000000Y-14000000D03*
D13*
X36000000Y-9000000D03*
X49000000Y-9000000D03*
G04 #@! TD*
D14*
G04 #@! TO.C,J2*
X144700000Y-7640000D03*
X153350000Y-7640000D03*
D15*
X144700000Y-11020000D03*
X153350000Y-11020000D03*
D16*
X148600000Y-10650000D03*
X146050000Y-10650000D03*
X146900000Y-10650000D03*
X147750000Y-10650000D03*
X152000000Y-10650000D03*
X150300000Y-10650000D03*
X149450000Y-10650000D03*
X151150000Y-10650000D03*
X146050000Y-12000000D03*
X146900000Y-12000000D03*
X147750000Y-12000000D03*
X148600000Y-12000000D03*
X149450000Y-12000000D03*
X150300000Y-12000000D03*
X151150000Y-12000000D03*
X152000000Y-12000000D03*
G04 #@! TD*
G04 #@! TO.C,J1*
G36*
G01*
X23500000Y-48000000D02*
X20500000Y-48000000D01*
G75*
G02*
X19000000Y-46500000I0J1500000D01*
G01*
X19000000Y-43500000D01*
G75*
G02*
X20500000Y-42000000I1500000J0D01*
G01*
X23500000Y-42000000D01*
G75*
G02*
X25000000Y-43500000I0J-1500000D01*
G01*
X25000000Y-46500000D01*
G75*
G02*
X23500000Y-48000000I-1500000J0D01*
G01*
G37*
D17*
X22000000Y-37800000D03*
G04 #@! TD*
M02*
