G04 #@! TF.GenerationSoftware,KiCad,Pcbnew,5.1.9+dfsg1-1+deb11u1*
G04 #@! TF.CreationDate,2026-09-11T21:34:16-03:00*
G04 #@! TF.ProjectId,,58585858-5858-4585-9858-585858585858,rev?*
G04 #@! TF.SameCoordinates,Original*
G04 #@! TF.FileFunction,Copper,L2,Inr*
G04 #@! TF.FilePolarity,Positive*
%FSLAX46Y46*%
G04 Gerber Fmt 4.6, Leading zero omitted, Abs format (unit mm)*
G04 Created by KiCad (PCBNEW 5.1.9+dfsg1-1+deb11u1) date 2026-09-11 21:34:16*
%MOMM*%
%LPD*%
G01*
G04 APERTURE LIST*
G04 #@! TA.AperFunction,Profile*
%ADD10C,0.100000*%
G04 #@! TD*
G04 #@! TA.AperFunction,ComponentPad*
%ADD11C,3.000000*%
G04 #@! TD*
G04 #@! TA.AperFunction,ComponentPad*
%ADD12R,3.000000X3.000000*%
G04 #@! TD*
G04 #@! TA.AperFunction,ComponentPad*
%ADD13C,1.400000*%
G04 #@! TD*
G04 #@! TA.AperFunction,ComponentPad*
%ADD14O,0.900000X1.700000*%
G04 #@! TD*
G04 #@! TA.AperFunction,ComponentPad*
%ADD15O,0.900000X2.400000*%
G04 #@! TD*
G04 #@! TA.AperFunction,ComponentPad*
%ADD16C,0.700000*%
G04 #@! TD*
G04 #@! TA.AperFunction,ComponentPad*
%ADD17C,6.000000*%
G04 #@! TD*
G04 #@! TA.AperFunction,ViaPad*
%ADD18C,0.600000*%
G04 #@! TD*
G04 #@! TA.AperFunction,Conductor*
%ADD19C,0.254000*%
G04 #@! TD*
G04 #@! TA.AperFunction,Conductor*
%ADD20C,0.150000*%
G04 #@! TD*
%ADD21C,0.300000*%
%ADD22C,0.350000*%
%ADD23O,0.600000X1.400000*%
%ADD24O,0.600000X2.100000*%
G04 APERTURE END LIST*
D10*
X10000000Y-10000000D02*
X150000000Y-10000000D01*
X150000000Y-10000000D02*
X150000000Y-100000000D01*
X150000000Y-100000000D02*
X10000000Y-100000000D01*
X10000000Y-100000000D02*
X10000000Y-10000000D01*
D11*
G04 #@! TO.N,PHM4_3*
G04 #@! TO.C,J_M4*
X111000000Y-86000000D03*
G04 #@! TO.N,PHM4_2*
X114500000Y-86000000D03*
D12*
G04 #@! TO.N,PHM4_1*
X118000000Y-86000000D03*
D13*
G04 #@! TO.N,*
X108000000Y-81000000D03*
X121000000Y-81000000D03*
G04 #@! TD*
D11*
G04 #@! TO.N,PHM3_3*
G04 #@! TO.C,J_M3*
X39000000Y-86000000D03*
G04 #@! TO.N,PHM3_2*
X42500000Y-86000000D03*
D12*
G04 #@! TO.N,PHM3_1*
X46000000Y-86000000D03*
D13*
G04 #@! TO.N,*
X36000000Y-81000000D03*
X49000000Y-81000000D03*
G04 #@! TD*
D11*
G04 #@! TO.N,PHM2_3*
G04 #@! TO.C,J_M2*
X111000000Y-14000000D03*
G04 #@! TO.N,PHM2_2*
X114500000Y-14000000D03*
D12*
G04 #@! TO.N,PHM2_1*
X118000000Y-14000000D03*
D13*
G04 #@! TO.N,*
X108000000Y-9000000D03*
X121000000Y-9000000D03*
G04 #@! TD*
D11*
G04 #@! TO.N,PHM1_3*
G04 #@! TO.C,J_M1*
X39000000Y-14000000D03*
G04 #@! TO.N,PHM1_2*
X42500000Y-14000000D03*
D12*
G04 #@! TO.N,PHM1_1*
X46000000Y-14000000D03*
D13*
G04 #@! TO.N,*
X36000000Y-9000000D03*
X49000000Y-9000000D03*
G04 #@! TD*
D14*
G04 #@! TO.N,USB_S1*
G04 #@! TO.C,J2*
X144700000Y-7640000D03*
X153350000Y-7640000D03*
D15*
X144700000Y-11020000D03*
X153350000Y-11020000D03*
D16*
G04 #@! TO.N,USB_B6*
X148600000Y-10650000D03*
G04 #@! TO.N,USB_B1*
X146050000Y-10650000D03*
G04 #@! TO.N,USB_B4*
X146900000Y-10650000D03*
G04 #@! TO.N,USB_B5*
X147750000Y-10650000D03*
G04 #@! TO.N,USB_B12*
X152000000Y-10650000D03*
G04 #@! TO.N,USB_B8*
X150300000Y-10650000D03*
G04 #@! TO.N,USB_B7*
X149450000Y-10650000D03*
G04 #@! TO.N,USB_B9*
X151150000Y-10650000D03*
G04 #@! TO.N,USB_A12*
X146050000Y-12000000D03*
G04 #@! TO.N,USB_A9*
X146900000Y-12000000D03*
G04 #@! TO.N,USB_A8*
X147750000Y-12000000D03*
G04 #@! TO.N,USB_A7*
X148600000Y-12000000D03*
G04 #@! TO.N,USB_A6*
X149450000Y-12000000D03*
G04 #@! TO.N,USB_A5*
X150300000Y-12000000D03*
G04 #@! TO.N,USB_A4*
X151150000Y-12000000D03*
G04 #@! TO.N,USB_A1*
X152000000Y-12000000D03*
G04 #@! TD*
G04 #@! TO.N,VBAT*
G04 #@! TO.C,J1*
G04 #@! TA.AperFunction,ComponentPad*
G36*
G01*
X23500000Y-48000000D02*
X20500000Y-48000000D01*
G75*
G02*
X19000000Y-46500000I0J1500000D01*
G01*
X19000000Y-43500000D01*
G75*
G02*
X20500000Y-42000000I1500000J0D01*
G01*
X23500000Y-42000000D01*
G75*
G02*
X25000000Y-43500000I0J-1500000D01*
G01*
X25000000Y-46500000D01*
G75*
G02*
X23500000Y-48000000I-1500000J0D01*
G01*
G37*
G04 #@! TD.AperFunction*
D17*
G04 #@! TO.N,GND*
X22000000Y-37800000D03*
G04 #@! TD*
D18*
G04 #@! TO.N,GND*
X13000000Y-13000000D03*
X19000000Y-13000000D03*
X25000000Y-13000000D03*
X31000000Y-13000000D03*
X37000000Y-13000000D03*
G04 #@! TO.N,PHM1_2*
X43000000Y-13000000D03*
G04 #@! TO.N,GND*
X49000000Y-13000000D03*
X55000000Y-13000000D03*
X61000000Y-13000000D03*
X67000000Y-13000000D03*
X73000000Y-13000000D03*
X79000000Y-13000000D03*
X85000000Y-13000000D03*
X91000000Y-13000000D03*
X97000000Y-13000000D03*
X103000000Y-13000000D03*
X109000000Y-13000000D03*
G04 #@! TO.N,PHM2_2*
X115000000Y-13000000D03*
G04 #@! TO.N,GND*
X121000000Y-13000000D03*
X127000000Y-13000000D03*
X133000000Y-13000000D03*
X139000000Y-13000000D03*
X145000000Y-13000000D03*
X13000000Y-19000000D03*
X19000000Y-19000000D03*
X25000000Y-19000000D03*
X31000000Y-19000000D03*
X37000000Y-19000000D03*
X43000000Y-19000000D03*
X49000000Y-19000000D03*
X55000000Y-19000000D03*
X61000000Y-19000000D03*
X67000000Y-19000000D03*
X73000000Y-19000000D03*
X79000000Y-19000000D03*
X85000000Y-19000000D03*
X91000000Y-19000000D03*
X97000000Y-19000000D03*
X103000000Y-19000000D03*
X109000000Y-19000000D03*
X115000000Y-19000000D03*
X121000000Y-19000000D03*
X127000000Y-19000000D03*
X133000000Y-19000000D03*
X139000000Y-19000000D03*
X145000000Y-19000000D03*
X13000000Y-25000000D03*
X19000000Y-25000000D03*
X25000000Y-25000000D03*
X31000000Y-25000000D03*
X37000000Y-25000000D03*
X43000000Y-25000000D03*
X49000000Y-25000000D03*
X55000000Y-25000000D03*
X61000000Y-25000000D03*
X67000000Y-25000000D03*
X73000000Y-25000000D03*
X79000000Y-25000000D03*
X85000000Y-25000000D03*
X91000000Y-25000000D03*
X97000000Y-25000000D03*
X103000000Y-25000000D03*
X109000000Y-25000000D03*
X115000000Y-25000000D03*
X121000000Y-25000000D03*
X127000000Y-25000000D03*
X133000000Y-25000000D03*
X139000000Y-25000000D03*
X145000000Y-25000000D03*
X13000000Y-31000000D03*
X19000000Y-31000000D03*
X25000000Y-31000000D03*
X31000000Y-31000000D03*
X37000000Y-31000000D03*
X43000000Y-31000000D03*
X49000000Y-31000000D03*
X55000000Y-31000000D03*
X61000000Y-31000000D03*
X67000000Y-31000000D03*
X73000000Y-31000000D03*
X79000000Y-31000000D03*
X85000000Y-31000000D03*
X91000000Y-31000000D03*
X97000000Y-31000000D03*
X103000000Y-31000000D03*
X109000000Y-31000000D03*
X115000000Y-31000000D03*
X121000000Y-31000000D03*
X127000000Y-31000000D03*
X133000000Y-31000000D03*
X139000000Y-31000000D03*
X145000000Y-31000000D03*
X13000000Y-37000000D03*
X19000000Y-37000000D03*
X25000000Y-37000000D03*
X31000000Y-37000000D03*
X37000000Y-37000000D03*
X43000000Y-37000000D03*
X49000000Y-37000000D03*
X55000000Y-37000000D03*
X61000000Y-37000000D03*
X67000000Y-37000000D03*
X73000000Y-37000000D03*
X79000000Y-37000000D03*
X85000000Y-37000000D03*
X91000000Y-37000000D03*
X97000000Y-37000000D03*
X103000000Y-37000000D03*
X109000000Y-37000000D03*
X115000000Y-37000000D03*
X121000000Y-37000000D03*
X127000000Y-37000000D03*
X133000000Y-37000000D03*
X139000000Y-37000000D03*
X145000000Y-37000000D03*
X13000000Y-43000000D03*
X19000000Y-43000000D03*
X25000000Y-43000000D03*
X31000000Y-43000000D03*
X37000000Y-43000000D03*
X43000000Y-43000000D03*
X49000000Y-43000000D03*
X55000000Y-43000000D03*
X61000000Y-43000000D03*
X67000000Y-43000000D03*
X73000000Y-43000000D03*
X79000000Y-43000000D03*
X85000000Y-43000000D03*
X91000000Y-43000000D03*
X97000000Y-43000000D03*
X103000000Y-43000000D03*
X109000000Y-43000000D03*
X115000000Y-43000000D03*
X121000000Y-43000000D03*
X127000000Y-43000000D03*
X133000000Y-43000000D03*
X139000000Y-43000000D03*
X145000000Y-43000000D03*
X13000000Y-49000000D03*
X19000000Y-49000000D03*
X25000000Y-49000000D03*
X31000000Y-49000000D03*
X37000000Y-49000000D03*
X43000000Y-49000000D03*
X49000000Y-49000000D03*
X55000000Y-49000000D03*
X61000000Y-49000000D03*
X67000000Y-49000000D03*
X73000000Y-49000000D03*
X79000000Y-49000000D03*
X85000000Y-49000000D03*
X91000000Y-49000000D03*
X97000000Y-49000000D03*
X103000000Y-49000000D03*
X109000000Y-49000000D03*
X115000000Y-49000000D03*
X121000000Y-49000000D03*
X127000000Y-49000000D03*
X133000000Y-49000000D03*
X139000000Y-49000000D03*
X145000000Y-49000000D03*
X13000000Y-55000000D03*
X19000000Y-55000000D03*
X25000000Y-55000000D03*
X31000000Y-55000000D03*
X37000000Y-55000000D03*
X43000000Y-55000000D03*
X49000000Y-55000000D03*
X55000000Y-55000000D03*
X61000000Y-55000000D03*
X67000000Y-55000000D03*
X73000000Y-55000000D03*
X79000000Y-55000000D03*
X85000000Y-55000000D03*
X91000000Y-55000000D03*
X97000000Y-55000000D03*
X103000000Y-55000000D03*
X109000000Y-55000000D03*
X115000000Y-55000000D03*
X121000000Y-55000000D03*
X127000000Y-55000000D03*
X133000000Y-55000000D03*
X139000000Y-55000000D03*
X145000000Y-55000000D03*
X13000000Y-61000000D03*
X19000000Y-61000000D03*
X25000000Y-61000000D03*
X31000000Y-61000000D03*
X37000000Y-61000000D03*
X43000000Y-61000000D03*
X49000000Y-61000000D03*
X55000000Y-61000000D03*
X61000000Y-61000000D03*
X67000000Y-61000000D03*
X73000000Y-61000000D03*
X79000000Y-61000000D03*
X85000000Y-61000000D03*
X91000000Y-61000000D03*
X97000000Y-61000000D03*
X103000000Y-61000000D03*
X109000000Y-61000000D03*
X115000000Y-61000000D03*
X121000000Y-61000000D03*
X127000000Y-61000000D03*
X133000000Y-61000000D03*
X139000000Y-61000000D03*
X145000000Y-61000000D03*
X13000000Y-67000000D03*
X19000000Y-67000000D03*
X25000000Y-67000000D03*
X31000000Y-67000000D03*
X37000000Y-67000000D03*
X43000000Y-67000000D03*
X49000000Y-67000000D03*
X55000000Y-67000000D03*
X61000000Y-67000000D03*
X67000000Y-67000000D03*
X73000000Y-67000000D03*
X79000000Y-67000000D03*
X85000000Y-67000000D03*
X91000000Y-67000000D03*
X97000000Y-67000000D03*
X103000000Y-67000000D03*
X109000000Y-67000000D03*
X115000000Y-67000000D03*
X121000000Y-67000000D03*
X127000000Y-67000000D03*
X133000000Y-67000000D03*
X139000000Y-67000000D03*
X145000000Y-67000000D03*
X13000000Y-73000000D03*
X19000000Y-73000000D03*
X25000000Y-73000000D03*
X31000000Y-73000000D03*
X37000000Y-73000000D03*
X43000000Y-73000000D03*
X49000000Y-73000000D03*
X55000000Y-73000000D03*
X61000000Y-73000000D03*
X67000000Y-73000000D03*
X73000000Y-73000000D03*
X79000000Y-73000000D03*
X85000000Y-73000000D03*
X91000000Y-73000000D03*
X97000000Y-73000000D03*
X103000000Y-73000000D03*
X109000000Y-73000000D03*
X115000000Y-73000000D03*
X121000000Y-73000000D03*
X127000000Y-73000000D03*
X133000000Y-73000000D03*
X139000000Y-73000000D03*
X145000000Y-73000000D03*
X13000000Y-79000000D03*
X19000000Y-79000000D03*
X25000000Y-79000000D03*
X31000000Y-79000000D03*
X37000000Y-79000000D03*
X43000000Y-79000000D03*
X49000000Y-79000000D03*
X55000000Y-79000000D03*
X61000000Y-79000000D03*
X67000000Y-79000000D03*
X73000000Y-79000000D03*
X79000000Y-79000000D03*
X85000000Y-79000000D03*
X91000000Y-79000000D03*
X97000000Y-79000000D03*
X103000000Y-79000000D03*
X109000000Y-79000000D03*
X115000000Y-79000000D03*
X121000000Y-79000000D03*
X127000000Y-79000000D03*
X133000000Y-79000000D03*
X139000000Y-79000000D03*
X145000000Y-79000000D03*
X13000000Y-85000000D03*
X19000000Y-85000000D03*
X25000000Y-85000000D03*
X31000000Y-85000000D03*
X37000000Y-85000000D03*
X43000000Y-85000000D03*
X49000000Y-85000000D03*
X55000000Y-85000000D03*
X61000000Y-85000000D03*
X67000000Y-85000000D03*
X73000000Y-85000000D03*
X79000000Y-85000000D03*
X85000000Y-85000000D03*
X91000000Y-85000000D03*
X97000000Y-85000000D03*
X103000000Y-85000000D03*
X109000000Y-85000000D03*
X115000000Y-85000000D03*
X121000000Y-85000000D03*
X127000000Y-85000000D03*
X133000000Y-85000000D03*
X139000000Y-85000000D03*
X145000000Y-85000000D03*
X13000000Y-91000000D03*
X19000000Y-91000000D03*
X25000000Y-91000000D03*
X31000000Y-91000000D03*
X37000000Y-91000000D03*
X43000000Y-91000000D03*
X49000000Y-91000000D03*
X55000000Y-91000000D03*
X61000000Y-91000000D03*
X67000000Y-91000000D03*
X73000000Y-91000000D03*
X79000000Y-91000000D03*
X85000000Y-91000000D03*
X91000000Y-91000000D03*
X97000000Y-91000000D03*
X103000000Y-91000000D03*
X109000000Y-91000000D03*
X115000000Y-91000000D03*
X121000000Y-91000000D03*
X127000000Y-91000000D03*
X133000000Y-91000000D03*
X139000000Y-91000000D03*
X145000000Y-91000000D03*
X13000000Y-97000000D03*
X19000000Y-97000000D03*
X25000000Y-97000000D03*
X31000000Y-97000000D03*
X37000000Y-97000000D03*
X43000000Y-97000000D03*
X49000000Y-97000000D03*
X55000000Y-97000000D03*
X61000000Y-97000000D03*
X67000000Y-97000000D03*
X73000000Y-97000000D03*
X79000000Y-97000000D03*
X85000000Y-97000000D03*
X91000000Y-97000000D03*
X97000000Y-97000000D03*
X103000000Y-97000000D03*
X109000000Y-97000000D03*
X115000000Y-97000000D03*
X121000000Y-97000000D03*
X127000000Y-97000000D03*
X133000000Y-97000000D03*
X139000000Y-97000000D03*
X145000000Y-97000000D03*
G04 #@! TD*
D19*
G04 #@! TO.N,GND*
X143615000Y-11823293D02*
X143630700Y-11982696D01*
X143692741Y-12187219D01*
X143793491Y-12375710D01*
X143929078Y-12540922D01*
X144094290Y-12676509D01*
X144282780Y-12777259D01*
X144487303Y-12839300D01*
X144700000Y-12860249D01*
X144912696Y-12839300D01*
X145117219Y-12777259D01*
X145305710Y-12676509D01*
X145320978Y-12663978D01*
X145422099Y-12765099D01*
X145583428Y-12872896D01*
X145762686Y-12947147D01*
X145952986Y-12985000D01*
X146147014Y-12985000D01*
X146337314Y-12947147D01*
X146475000Y-12890116D01*
X146612686Y-12947147D01*
X146802986Y-12985000D01*
X146997014Y-12985000D01*
X147187314Y-12947147D01*
X147325000Y-12890116D01*
X147462686Y-12947147D01*
X147652986Y-12985000D01*
X147847014Y-12985000D01*
X148037314Y-12947147D01*
X148175000Y-12890116D01*
X148312686Y-12947147D01*
X148502986Y-12985000D01*
X148697014Y-12985000D01*
X148873000Y-12949994D01*
X148873000Y-98873000D01*
X11127000Y-98873000D01*
X11127000Y-85789721D01*
X36865000Y-85789721D01*
X36865000Y-86210279D01*
X36947047Y-86622756D01*
X37107988Y-87011302D01*
X37341637Y-87360983D01*
X37639017Y-87658363D01*
X37988698Y-87892012D01*
X38377244Y-88052953D01*
X38789721Y-88135000D01*
X39210279Y-88135000D01*
X39622756Y-88052953D01*
X40011302Y-87892012D01*
X40360983Y-87658363D01*
X40658363Y-87360983D01*
X40750000Y-87223838D01*
X40841637Y-87360983D01*
X41139017Y-87658363D01*
X41488698Y-87892012D01*
X41877244Y-88052953D01*
X42289721Y-88135000D01*
X42710279Y-88135000D01*
X43122756Y-88052953D01*
X43511302Y-87892012D01*
X43860983Y-87658363D01*
X43879000Y-87640346D01*
X43910498Y-87744180D01*
X43969463Y-87854494D01*
X44048815Y-87951185D01*
X44145506Y-88030537D01*
X44255820Y-88089502D01*
X44375518Y-88125812D01*
X44500000Y-88138072D01*
X47500000Y-88138072D01*
X47624482Y-88125812D01*
X47744180Y-88089502D01*
X47854494Y-88030537D01*
X47951185Y-87951185D01*
X48030537Y-87854494D01*
X48089502Y-87744180D01*
X48125812Y-87624482D01*
X48138072Y-87500000D01*
X48138072Y-85789721D01*
X108865000Y-85789721D01*
X108865000Y-86210279D01*
X108947047Y-86622756D01*
X109107988Y-87011302D01*
X109341637Y-87360983D01*
X109639017Y-87658363D01*
X109988698Y-87892012D01*
X110377244Y-88052953D01*
X110789721Y-88135000D01*
X111210279Y-88135000D01*
X111622756Y-88052953D01*
X112011302Y-87892012D01*
X112360983Y-87658363D01*
X112658363Y-87360983D01*
X112750000Y-87223838D01*
X112841637Y-87360983D01*
X113139017Y-87658363D01*
X113488698Y-87892012D01*
X113877244Y-88052953D01*
X114289721Y-88135000D01*
X114710279Y-88135000D01*
X115122756Y-88052953D01*
X115511302Y-87892012D01*
X115860983Y-87658363D01*
X115879000Y-87640346D01*
X115910498Y-87744180D01*
X115969463Y-87854494D01*
X116048815Y-87951185D01*
X116145506Y-88030537D01*
X116255820Y-88089502D01*
X116375518Y-88125812D01*
X116500000Y-88138072D01*
X119500000Y-88138072D01*
X119624482Y-88125812D01*
X119744180Y-88089502D01*
X119854494Y-88030537D01*
X119951185Y-87951185D01*
X120030537Y-87854494D01*
X120089502Y-87744180D01*
X120125812Y-87624482D01*
X120138072Y-87500000D01*
X120138072Y-84500000D01*
X120125812Y-84375518D01*
X120089502Y-84255820D01*
X120030537Y-84145506D01*
X119951185Y-84048815D01*
X119854494Y-83969463D01*
X119744180Y-83910498D01*
X119624482Y-83874188D01*
X119500000Y-83861928D01*
X116500000Y-83861928D01*
X116375518Y-83874188D01*
X116255820Y-83910498D01*
X116145506Y-83969463D01*
X116048815Y-84048815D01*
X115969463Y-84145506D01*
X115910498Y-84255820D01*
X115879000Y-84359654D01*
X115860983Y-84341637D01*
X115511302Y-84107988D01*
X115122756Y-83947047D01*
X114710279Y-83865000D01*
X114289721Y-83865000D01*
X113877244Y-83947047D01*
X113488698Y-84107988D01*
X113139017Y-84341637D01*
X112841637Y-84639017D01*
X112750000Y-84776162D01*
X112658363Y-84639017D01*
X112360983Y-84341637D01*
X112011302Y-84107988D01*
X111622756Y-83947047D01*
X111210279Y-83865000D01*
X110789721Y-83865000D01*
X110377244Y-83947047D01*
X109988698Y-84107988D01*
X109639017Y-84341637D01*
X109341637Y-84639017D01*
X109107988Y-84988698D01*
X108947047Y-85377244D01*
X108865000Y-85789721D01*
X48138072Y-85789721D01*
X48138072Y-84500000D01*
X48125812Y-84375518D01*
X48089502Y-84255820D01*
X48030537Y-84145506D01*
X47951185Y-84048815D01*
X47854494Y-83969463D01*
X47744180Y-83910498D01*
X47624482Y-83874188D01*
X47500000Y-83861928D01*
X44500000Y-83861928D01*
X44375518Y-83874188D01*
X44255820Y-83910498D01*
X44145506Y-83969463D01*
X44048815Y-84048815D01*
X43969463Y-84145506D01*
X43910498Y-84255820D01*
X43879000Y-84359654D01*
X43860983Y-84341637D01*
X43511302Y-84107988D01*
X43122756Y-83947047D01*
X42710279Y-83865000D01*
X42289721Y-83865000D01*
X41877244Y-83947047D01*
X41488698Y-84107988D01*
X41139017Y-84341637D01*
X40841637Y-84639017D01*
X40750000Y-84776162D01*
X40658363Y-84639017D01*
X40360983Y-84341637D01*
X40011302Y-84107988D01*
X39622756Y-83947047D01*
X39210279Y-83865000D01*
X38789721Y-83865000D01*
X38377244Y-83947047D01*
X37988698Y-84107988D01*
X37639017Y-84341637D01*
X37341637Y-84639017D01*
X37107988Y-84988698D01*
X36947047Y-85377244D01*
X36865000Y-85789721D01*
X11127000Y-85789721D01*
X11127000Y-80868514D01*
X34665000Y-80868514D01*
X34665000Y-81131486D01*
X34716304Y-81389405D01*
X34816939Y-81632359D01*
X34963038Y-81851013D01*
X35148987Y-82036962D01*
X35367641Y-82183061D01*
X35610595Y-82283696D01*
X35868514Y-82335000D01*
X36131486Y-82335000D01*
X36389405Y-82283696D01*
X36632359Y-82183061D01*
X36851013Y-82036962D01*
X37036962Y-81851013D01*
X37183061Y-81632359D01*
X37283696Y-81389405D01*
X37335000Y-81131486D01*
X37335000Y-80868514D01*
X47665000Y-80868514D01*
X47665000Y-81131486D01*
X47716304Y-81389405D01*
X47816939Y-81632359D01*
X47963038Y-81851013D01*
X48148987Y-82036962D01*
X48367641Y-82183061D01*
X48610595Y-82283696D01*
X48868514Y-82335000D01*
X49131486Y-82335000D01*
X49389405Y-82283696D01*
X49632359Y-82183061D01*
X49851013Y-82036962D01*
X50036962Y-81851013D01*
X50183061Y-81632359D01*
X50283696Y-81389405D01*
X50335000Y-81131486D01*
X50335000Y-80868514D01*
X106665000Y-80868514D01*
X106665000Y-81131486D01*
X106716304Y-81389405D01*
X106816939Y-81632359D01*
X106963038Y-81851013D01*
X107148987Y-82036962D01*
X107367641Y-82183061D01*
X107610595Y-82283696D01*
X107868514Y-82335000D01*
X108131486Y-82335000D01*
X108389405Y-82283696D01*
X108632359Y-82183061D01*
X108851013Y-82036962D01*
X109036962Y-81851013D01*
X109183061Y-81632359D01*
X109283696Y-81389405D01*
X109335000Y-81131486D01*
X109335000Y-80868514D01*
X119665000Y-80868514D01*
X119665000Y-81131486D01*
X119716304Y-81389405D01*
X119816939Y-81632359D01*
X119963038Y-81851013D01*
X120148987Y-82036962D01*
X120367641Y-82183061D01*
X120610595Y-82283696D01*
X120868514Y-82335000D01*
X121131486Y-82335000D01*
X121389405Y-82283696D01*
X121632359Y-82183061D01*
X121851013Y-82036962D01*
X122036962Y-81851013D01*
X122183061Y-81632359D01*
X122283696Y-81389405D01*
X122335000Y-81131486D01*
X122335000Y-80868514D01*
X122283696Y-80610595D01*
X122183061Y-80367641D01*
X122036962Y-80148987D01*
X121851013Y-79963038D01*
X121632359Y-79816939D01*
X121389405Y-79716304D01*
X121131486Y-79665000D01*
X120868514Y-79665000D01*
X120610595Y-79716304D01*
X120367641Y-79816939D01*
X120148987Y-79963038D01*
X119963038Y-80148987D01*
X119816939Y-80367641D01*
X119716304Y-80610595D01*
X119665000Y-80868514D01*
X109335000Y-80868514D01*
X109283696Y-80610595D01*
X109183061Y-80367641D01*
X109036962Y-80148987D01*
X108851013Y-79963038D01*
X108632359Y-79816939D01*
X108389405Y-79716304D01*
X108131486Y-79665000D01*
X107868514Y-79665000D01*
X107610595Y-79716304D01*
X107367641Y-79816939D01*
X107148987Y-79963038D01*
X106963038Y-80148987D01*
X106816939Y-80367641D01*
X106716304Y-80610595D01*
X106665000Y-80868514D01*
X50335000Y-80868514D01*
X50283696Y-80610595D01*
X50183061Y-80367641D01*
X50036962Y-80148987D01*
X49851013Y-79963038D01*
X49632359Y-79816939D01*
X49389405Y-79716304D01*
X49131486Y-79665000D01*
X48868514Y-79665000D01*
X48610595Y-79716304D01*
X48367641Y-79816939D01*
X48148987Y-79963038D01*
X47963038Y-80148987D01*
X47816939Y-80367641D01*
X47716304Y-80610595D01*
X47665000Y-80868514D01*
X37335000Y-80868514D01*
X37283696Y-80610595D01*
X37183061Y-80367641D01*
X37036962Y-80148987D01*
X36851013Y-79963038D01*
X36632359Y-79816939D01*
X36389405Y-79716304D01*
X36131486Y-79665000D01*
X35868514Y-79665000D01*
X35610595Y-79716304D01*
X35367641Y-79816939D01*
X35148987Y-79963038D01*
X34963038Y-80148987D01*
X34816939Y-80367641D01*
X34716304Y-80610595D01*
X34665000Y-80868514D01*
X11127000Y-80868514D01*
X11127000Y-43500000D01*
X18361928Y-43500000D01*
X18361928Y-46500000D01*
X18403010Y-46917117D01*
X18524679Y-47318205D01*
X18722258Y-47687849D01*
X18988155Y-48011845D01*
X19312151Y-48277742D01*
X19681795Y-48475321D01*
X20082883Y-48596990D01*
X20500000Y-48638072D01*
X23500000Y-48638072D01*
X23917117Y-48596990D01*
X24318205Y-48475321D01*
X24687849Y-48277742D01*
X25011845Y-48011845D01*
X25277742Y-47687849D01*
X25475321Y-47318205D01*
X25596990Y-46917117D01*
X25638072Y-46500000D01*
X25638072Y-43500000D01*
X25596990Y-43082883D01*
X25475321Y-42681795D01*
X25277742Y-42312151D01*
X25011845Y-41988155D01*
X24687849Y-41722258D01*
X24318205Y-41524679D01*
X23917117Y-41403010D01*
X23500000Y-41361928D01*
X22775695Y-41361928D01*
X23382609Y-41180796D01*
X24015603Y-40846102D01*
X24042894Y-40827868D01*
X24379081Y-40358686D01*
X22000000Y-37979605D01*
X19620919Y-40358686D01*
X19957106Y-40827868D01*
X20587068Y-41168237D01*
X21215406Y-41361928D01*
X20500000Y-41361928D01*
X20082883Y-41403010D01*
X19681795Y-41524679D01*
X19312151Y-41722258D01*
X18988155Y-41988155D01*
X18722258Y-42312151D01*
X18524679Y-42681795D01*
X18403010Y-43082883D01*
X18361928Y-43500000D01*
X11127000Y-43500000D01*
X11127000Y-37783589D01*
X18347450Y-37783589D01*
X18414431Y-38496482D01*
X18619204Y-39182609D01*
X18953898Y-39815603D01*
X18972132Y-39842894D01*
X19441314Y-40179081D01*
X21820395Y-37800000D01*
X22179605Y-37800000D01*
X24558686Y-40179081D01*
X25027868Y-39842894D01*
X25368237Y-39212932D01*
X25579166Y-38528673D01*
X25652550Y-37816411D01*
X25585569Y-37103518D01*
X25380796Y-36417391D01*
X25046102Y-35784397D01*
X25027868Y-35757106D01*
X24558686Y-35420919D01*
X22179605Y-37800000D01*
X21820395Y-37800000D01*
X19441314Y-35420919D01*
X18972132Y-35757106D01*
X18631763Y-36387068D01*
X18420834Y-37071327D01*
X18347450Y-37783589D01*
X11127000Y-37783589D01*
X11127000Y-35241314D01*
X19620919Y-35241314D01*
X22000000Y-37620395D01*
X24379081Y-35241314D01*
X24042894Y-34772132D01*
X23412932Y-34431763D01*
X22728673Y-34220834D01*
X22016411Y-34147450D01*
X21303518Y-34214431D01*
X20617391Y-34419204D01*
X19984397Y-34753898D01*
X19957106Y-34772132D01*
X19620919Y-35241314D01*
X11127000Y-35241314D01*
X11127000Y-13789721D01*
X36865000Y-13789721D01*
X36865000Y-14210279D01*
X36947047Y-14622756D01*
X37107988Y-15011302D01*
X37341637Y-15360983D01*
X37639017Y-15658363D01*
X37988698Y-15892012D01*
X38377244Y-16052953D01*
X38789721Y-16135000D01*
X39210279Y-16135000D01*
X39622756Y-16052953D01*
X40011302Y-15892012D01*
X40360983Y-15658363D01*
X40658363Y-15360983D01*
X40750000Y-15223838D01*
X40841637Y-15360983D01*
X41139017Y-15658363D01*
X41488698Y-15892012D01*
X41877244Y-16052953D01*
X42289721Y-16135000D01*
X42710279Y-16135000D01*
X43122756Y-16052953D01*
X43511302Y-15892012D01*
X43860983Y-15658363D01*
X43879000Y-15640346D01*
X43910498Y-15744180D01*
X43969463Y-15854494D01*
X44048815Y-15951185D01*
X44145506Y-16030537D01*
X44255820Y-16089502D01*
X44375518Y-16125812D01*
X44500000Y-16138072D01*
X47500000Y-16138072D01*
X47624482Y-16125812D01*
X47744180Y-16089502D01*
X47854494Y-16030537D01*
X47951185Y-15951185D01*
X48030537Y-15854494D01*
X48089502Y-15744180D01*
X48125812Y-15624482D01*
X48138072Y-15500000D01*
X48138072Y-13789721D01*
X108865000Y-13789721D01*
X108865000Y-14210279D01*
X108947047Y-14622756D01*
X109107988Y-15011302D01*
X109341637Y-15360983D01*
X109639017Y-15658363D01*
X109988698Y-15892012D01*
X110377244Y-16052953D01*
X110789721Y-16135000D01*
X111210279Y-16135000D01*
X111622756Y-16052953D01*
X112011302Y-15892012D01*
X112360983Y-15658363D01*
X112658363Y-15360983D01*
X112750000Y-15223838D01*
X112841637Y-15360983D01*
X113139017Y-15658363D01*
X113488698Y-15892012D01*
X113877244Y-16052953D01*
X114289721Y-16135000D01*
X114710279Y-16135000D01*
X115122756Y-16052953D01*
X115511302Y-15892012D01*
X115860983Y-15658363D01*
X115879000Y-15640346D01*
X115910498Y-15744180D01*
X115969463Y-15854494D01*
X116048815Y-15951185D01*
X116145506Y-16030537D01*
X116255820Y-16089502D01*
X116375518Y-16125812D01*
X116500000Y-16138072D01*
X119500000Y-16138072D01*
X119624482Y-16125812D01*
X119744180Y-16089502D01*
X119854494Y-16030537D01*
X119951185Y-15951185D01*
X120030537Y-15854494D01*
X120089502Y-15744180D01*
X120125812Y-15624482D01*
X120138072Y-15500000D01*
X120138072Y-12500000D01*
X120125812Y-12375518D01*
X120089502Y-12255820D01*
X120030537Y-12145506D01*
X119951185Y-12048815D01*
X119854494Y-11969463D01*
X119744180Y-11910498D01*
X119624482Y-11874188D01*
X119500000Y-11861928D01*
X116500000Y-11861928D01*
X116375518Y-11874188D01*
X116255820Y-11910498D01*
X116145506Y-11969463D01*
X116048815Y-12048815D01*
X115969463Y-12145506D01*
X115910498Y-12255820D01*
X115879000Y-12359654D01*
X115860983Y-12341637D01*
X115511302Y-12107988D01*
X115122756Y-11947047D01*
X114710279Y-11865000D01*
X114289721Y-11865000D01*
X113877244Y-11947047D01*
X113488698Y-12107988D01*
X113139017Y-12341637D01*
X112841637Y-12639017D01*
X112750000Y-12776162D01*
X112658363Y-12639017D01*
X112360983Y-12341637D01*
X112011302Y-12107988D01*
X111622756Y-11947047D01*
X111210279Y-11865000D01*
X110789721Y-11865000D01*
X110377244Y-11947047D01*
X109988698Y-12107988D01*
X109639017Y-12341637D01*
X109341637Y-12639017D01*
X109107988Y-12988698D01*
X108947047Y-13377244D01*
X108865000Y-13789721D01*
X48138072Y-13789721D01*
X48138072Y-12500000D01*
X48125812Y-12375518D01*
X48089502Y-12255820D01*
X48030537Y-12145506D01*
X47951185Y-12048815D01*
X47854494Y-11969463D01*
X47744180Y-11910498D01*
X47624482Y-11874188D01*
X47500000Y-11861928D01*
X44500000Y-11861928D01*
X44375518Y-11874188D01*
X44255820Y-11910498D01*
X44145506Y-11969463D01*
X44048815Y-12048815D01*
X43969463Y-12145506D01*
X43910498Y-12255820D01*
X43879000Y-12359654D01*
X43860983Y-12341637D01*
X43511302Y-12107988D01*
X43122756Y-11947047D01*
X42710279Y-11865000D01*
X42289721Y-11865000D01*
X41877244Y-11947047D01*
X41488698Y-12107988D01*
X41139017Y-12341637D01*
X40841637Y-12639017D01*
X40750000Y-12776162D01*
X40658363Y-12639017D01*
X40360983Y-12341637D01*
X40011302Y-12107988D01*
X39622756Y-11947047D01*
X39210279Y-11865000D01*
X38789721Y-11865000D01*
X38377244Y-11947047D01*
X37988698Y-12107988D01*
X37639017Y-12341637D01*
X37341637Y-12639017D01*
X37107988Y-12988698D01*
X36947047Y-13377244D01*
X36865000Y-13789721D01*
X11127000Y-13789721D01*
X11127000Y-11127000D01*
X143615000Y-11127000D01*
X143615000Y-11823293D01*
G04 #@! TA.AperFunction,Conductor*
D20*
G36*
X143615000Y-11823293D02*
G01*
X143630700Y-11982696D01*
X143692741Y-12187219D01*
X143793491Y-12375710D01*
X143929078Y-12540922D01*
X144094290Y-12676509D01*
X144282780Y-12777259D01*
X144487303Y-12839300D01*
X144700000Y-12860249D01*
X144912696Y-12839300D01*
X145117219Y-12777259D01*
X145305710Y-12676509D01*
X145320978Y-12663978D01*
X145422099Y-12765099D01*
X145583428Y-12872896D01*
X145762686Y-12947147D01*
X145952986Y-12985000D01*
X146147014Y-12985000D01*
X146337314Y-12947147D01*
X146475000Y-12890116D01*
X146612686Y-12947147D01*
X146802986Y-12985000D01*
X146997014Y-12985000D01*
X147187314Y-12947147D01*
X147325000Y-12890116D01*
X147462686Y-12947147D01*
X147652986Y-12985000D01*
X147847014Y-12985000D01*
X148037314Y-12947147D01*
X148175000Y-12890116D01*
X148312686Y-12947147D01*
X148502986Y-12985000D01*
X148697014Y-12985000D01*
X148873000Y-12949994D01*
X148873000Y-98873000D01*
X11127000Y-98873000D01*
X11127000Y-85789721D01*
X36865000Y-85789721D01*
X36865000Y-86210279D01*
X36947047Y-86622756D01*
X37107988Y-87011302D01*
X37341637Y-87360983D01*
X37639017Y-87658363D01*
X37988698Y-87892012D01*
X38377244Y-88052953D01*
X38789721Y-88135000D01*
X39210279Y-88135000D01*
X39622756Y-88052953D01*
X40011302Y-87892012D01*
X40360983Y-87658363D01*
X40658363Y-87360983D01*
X40750000Y-87223838D01*
X40841637Y-87360983D01*
X41139017Y-87658363D01*
X41488698Y-87892012D01*
X41877244Y-88052953D01*
X42289721Y-88135000D01*
X42710279Y-88135000D01*
X43122756Y-88052953D01*
X43511302Y-87892012D01*
X43860983Y-87658363D01*
X43879000Y-87640346D01*
X43910498Y-87744180D01*
X43969463Y-87854494D01*
X44048815Y-87951185D01*
X44145506Y-88030537D01*
X44255820Y-88089502D01*
X44375518Y-88125812D01*
X44500000Y-88138072D01*
X47500000Y-88138072D01*
X47624482Y-88125812D01*
X47744180Y-88089502D01*
X47854494Y-88030537D01*
X47951185Y-87951185D01*
X48030537Y-87854494D01*
X48089502Y-87744180D01*
X48125812Y-87624482D01*
X48138072Y-87500000D01*
X48138072Y-85789721D01*
X108865000Y-85789721D01*
X108865000Y-86210279D01*
X108947047Y-86622756D01*
X109107988Y-87011302D01*
X109341637Y-87360983D01*
X109639017Y-87658363D01*
X109988698Y-87892012D01*
X110377244Y-88052953D01*
X110789721Y-88135000D01*
X111210279Y-88135000D01*
X111622756Y-88052953D01*
X112011302Y-87892012D01*
X112360983Y-87658363D01*
X112658363Y-87360983D01*
X112750000Y-87223838D01*
X112841637Y-87360983D01*
X113139017Y-87658363D01*
X113488698Y-87892012D01*
X113877244Y-88052953D01*
X114289721Y-88135000D01*
X114710279Y-88135000D01*
X115122756Y-88052953D01*
X115511302Y-87892012D01*
X115860983Y-87658363D01*
X115879000Y-87640346D01*
X115910498Y-87744180D01*
X115969463Y-87854494D01*
X116048815Y-87951185D01*
X116145506Y-88030537D01*
X116255820Y-88089502D01*
X116375518Y-88125812D01*
X116500000Y-88138072D01*
X119500000Y-88138072D01*
X119624482Y-88125812D01*
X119744180Y-88089502D01*
X119854494Y-88030537D01*
X119951185Y-87951185D01*
X120030537Y-87854494D01*
X120089502Y-87744180D01*
X120125812Y-87624482D01*
X120138072Y-87500000D01*
X120138072Y-84500000D01*
X120125812Y-84375518D01*
X120089502Y-84255820D01*
X120030537Y-84145506D01*
X119951185Y-84048815D01*
X119854494Y-83969463D01*
X119744180Y-83910498D01*
X119624482Y-83874188D01*
X119500000Y-83861928D01*
X116500000Y-83861928D01*
X116375518Y-83874188D01*
X116255820Y-83910498D01*
X116145506Y-83969463D01*
X116048815Y-84048815D01*
X115969463Y-84145506D01*
X115910498Y-84255820D01*
X115879000Y-84359654D01*
X115860983Y-84341637D01*
X115511302Y-84107988D01*
X115122756Y-83947047D01*
X114710279Y-83865000D01*
X114289721Y-83865000D01*
X113877244Y-83947047D01*
X113488698Y-84107988D01*
X113139017Y-84341637D01*
X112841637Y-84639017D01*
X112750000Y-84776162D01*
X112658363Y-84639017D01*
X112360983Y-84341637D01*
X112011302Y-84107988D01*
X111622756Y-83947047D01*
X111210279Y-83865000D01*
X110789721Y-83865000D01*
X110377244Y-83947047D01*
X109988698Y-84107988D01*
X109639017Y-84341637D01*
X109341637Y-84639017D01*
X109107988Y-84988698D01*
X108947047Y-85377244D01*
X108865000Y-85789721D01*
X48138072Y-85789721D01*
X48138072Y-84500000D01*
X48125812Y-84375518D01*
X48089502Y-84255820D01*
X48030537Y-84145506D01*
X47951185Y-84048815D01*
X47854494Y-83969463D01*
X47744180Y-83910498D01*
X47624482Y-83874188D01*
X47500000Y-83861928D01*
X44500000Y-83861928D01*
X44375518Y-83874188D01*
X44255820Y-83910498D01*
X44145506Y-83969463D01*
X44048815Y-84048815D01*
X43969463Y-84145506D01*
X43910498Y-84255820D01*
X43879000Y-84359654D01*
X43860983Y-84341637D01*
X43511302Y-84107988D01*
X43122756Y-83947047D01*
X42710279Y-83865000D01*
X42289721Y-83865000D01*
X41877244Y-83947047D01*
X41488698Y-84107988D01*
X41139017Y-84341637D01*
X40841637Y-84639017D01*
X40750000Y-84776162D01*
X40658363Y-84639017D01*
X40360983Y-84341637D01*
X40011302Y-84107988D01*
X39622756Y-83947047D01*
X39210279Y-83865000D01*
X38789721Y-83865000D01*
X38377244Y-83947047D01*
X37988698Y-84107988D01*
X37639017Y-84341637D01*
X37341637Y-84639017D01*
X37107988Y-84988698D01*
X36947047Y-85377244D01*
X36865000Y-85789721D01*
X11127000Y-85789721D01*
X11127000Y-80868514D01*
X34665000Y-80868514D01*
X34665000Y-81131486D01*
X34716304Y-81389405D01*
X34816939Y-81632359D01*
X34963038Y-81851013D01*
X35148987Y-82036962D01*
X35367641Y-82183061D01*
X35610595Y-82283696D01*
X35868514Y-82335000D01*
X36131486Y-82335000D01*
X36389405Y-82283696D01*
X36632359Y-82183061D01*
X36851013Y-82036962D01*
X37036962Y-81851013D01*
X37183061Y-81632359D01*
X37283696Y-81389405D01*
X37335000Y-81131486D01*
X37335000Y-80868514D01*
X47665000Y-80868514D01*
X47665000Y-81131486D01*
X47716304Y-81389405D01*
X47816939Y-81632359D01*
X47963038Y-81851013D01*
X48148987Y-82036962D01*
X48367641Y-82183061D01*
X48610595Y-82283696D01*
X48868514Y-82335000D01*
X49131486Y-82335000D01*
X49389405Y-82283696D01*
X49632359Y-82183061D01*
X49851013Y-82036962D01*
X50036962Y-81851013D01*
X50183061Y-81632359D01*
X50283696Y-81389405D01*
X50335000Y-81131486D01*
X50335000Y-80868514D01*
X106665000Y-80868514D01*
X106665000Y-81131486D01*
X106716304Y-81389405D01*
X106816939Y-81632359D01*
X106963038Y-81851013D01*
X107148987Y-82036962D01*
X107367641Y-82183061D01*
X107610595Y-82283696D01*
X107868514Y-82335000D01*
X108131486Y-82335000D01*
X108389405Y-82283696D01*
X108632359Y-82183061D01*
X108851013Y-82036962D01*
X109036962Y-81851013D01*
X109183061Y-81632359D01*
X109283696Y-81389405D01*
X109335000Y-81131486D01*
X109335000Y-80868514D01*
X119665000Y-80868514D01*
X119665000Y-81131486D01*
X119716304Y-81389405D01*
X119816939Y-81632359D01*
X119963038Y-81851013D01*
X120148987Y-82036962D01*
X120367641Y-82183061D01*
X120610595Y-82283696D01*
X120868514Y-82335000D01*
X121131486Y-82335000D01*
X121389405Y-82283696D01*
X121632359Y-82183061D01*
X121851013Y-82036962D01*
X122036962Y-81851013D01*
X122183061Y-81632359D01*
X122283696Y-81389405D01*
X122335000Y-81131486D01*
X122335000Y-80868514D01*
X122283696Y-80610595D01*
X122183061Y-80367641D01*
X122036962Y-80148987D01*
X121851013Y-79963038D01*
X121632359Y-79816939D01*
X121389405Y-79716304D01*
X121131486Y-79665000D01*
X120868514Y-79665000D01*
X120610595Y-79716304D01*
X120367641Y-79816939D01*
X120148987Y-79963038D01*
X119963038Y-80148987D01*
X119816939Y-80367641D01*
X119716304Y-80610595D01*
X119665000Y-80868514D01*
X109335000Y-80868514D01*
X109283696Y-80610595D01*
X109183061Y-80367641D01*
X109036962Y-80148987D01*
X108851013Y-79963038D01*
X108632359Y-79816939D01*
X108389405Y-79716304D01*
X108131486Y-79665000D01*
X107868514Y-79665000D01*
X107610595Y-79716304D01*
X107367641Y-79816939D01*
X107148987Y-79963038D01*
X106963038Y-80148987D01*
X106816939Y-80367641D01*
X106716304Y-80610595D01*
X106665000Y-80868514D01*
X50335000Y-80868514D01*
X50283696Y-80610595D01*
X50183061Y-80367641D01*
X50036962Y-80148987D01*
X49851013Y-79963038D01*
X49632359Y-79816939D01*
X49389405Y-79716304D01*
X49131486Y-79665000D01*
X48868514Y-79665000D01*
X48610595Y-79716304D01*
X48367641Y-79816939D01*
X48148987Y-79963038D01*
X47963038Y-80148987D01*
X47816939Y-80367641D01*
X47716304Y-80610595D01*
X47665000Y-80868514D01*
X37335000Y-80868514D01*
X37283696Y-80610595D01*
X37183061Y-80367641D01*
X37036962Y-80148987D01*
X36851013Y-79963038D01*
X36632359Y-79816939D01*
X36389405Y-79716304D01*
X36131486Y-79665000D01*
X35868514Y-79665000D01*
X35610595Y-79716304D01*
X35367641Y-79816939D01*
X35148987Y-79963038D01*
X34963038Y-80148987D01*
X34816939Y-80367641D01*
X34716304Y-80610595D01*
X34665000Y-80868514D01*
X11127000Y-80868514D01*
X11127000Y-43500000D01*
X18361928Y-43500000D01*
X18361928Y-46500000D01*
X18403010Y-46917117D01*
X18524679Y-47318205D01*
X18722258Y-47687849D01*
X18988155Y-48011845D01*
X19312151Y-48277742D01*
X19681795Y-48475321D01*
X20082883Y-48596990D01*
X20500000Y-48638072D01*
X23500000Y-48638072D01*
X23917117Y-48596990D01*
X24318205Y-48475321D01*
X24687849Y-48277742D01*
X25011845Y-48011845D01*
X25277742Y-47687849D01*
X25475321Y-47318205D01*
X25596990Y-46917117D01*
X25638072Y-46500000D01*
X25638072Y-43500000D01*
X25596990Y-43082883D01*
X25475321Y-42681795D01*
X25277742Y-42312151D01*
X25011845Y-41988155D01*
X24687849Y-41722258D01*
X24318205Y-41524679D01*
X23917117Y-41403010D01*
X23500000Y-41361928D01*
X22775695Y-41361928D01*
X23382609Y-41180796D01*
X24015603Y-40846102D01*
X24042894Y-40827868D01*
X24379081Y-40358686D01*
X22000000Y-37979605D01*
X19620919Y-40358686D01*
X19957106Y-40827868D01*
X20587068Y-41168237D01*
X21215406Y-41361928D01*
X20500000Y-41361928D01*
X20082883Y-41403010D01*
X19681795Y-41524679D01*
X19312151Y-41722258D01*
X18988155Y-41988155D01*
X18722258Y-42312151D01*
X18524679Y-42681795D01*
X18403010Y-43082883D01*
X18361928Y-43500000D01*
X11127000Y-43500000D01*
X11127000Y-37783589D01*
X18347450Y-37783589D01*
X18414431Y-38496482D01*
X18619204Y-39182609D01*
X18953898Y-39815603D01*
X18972132Y-39842894D01*
X19441314Y-40179081D01*
X21820395Y-37800000D01*
X22179605Y-37800000D01*
X24558686Y-40179081D01*
X25027868Y-39842894D01*
X25368237Y-39212932D01*
X25579166Y-38528673D01*
X25652550Y-37816411D01*
X25585569Y-37103518D01*
X25380796Y-36417391D01*
X25046102Y-35784397D01*
X25027868Y-35757106D01*
X24558686Y-35420919D01*
X22179605Y-37800000D01*
X21820395Y-37800000D01*
X19441314Y-35420919D01*
X18972132Y-35757106D01*
X18631763Y-36387068D01*
X18420834Y-37071327D01*
X18347450Y-37783589D01*
X11127000Y-37783589D01*
X11127000Y-35241314D01*
X19620919Y-35241314D01*
X22000000Y-37620395D01*
X24379081Y-35241314D01*
X24042894Y-34772132D01*
X23412932Y-34431763D01*
X22728673Y-34220834D01*
X22016411Y-34147450D01*
X21303518Y-34214431D01*
X20617391Y-34419204D01*
X19984397Y-34753898D01*
X19957106Y-34772132D01*
X19620919Y-35241314D01*
X11127000Y-35241314D01*
X11127000Y-13789721D01*
X36865000Y-13789721D01*
X36865000Y-14210279D01*
X36947047Y-14622756D01*
X37107988Y-15011302D01*
X37341637Y-15360983D01*
X37639017Y-15658363D01*
X37988698Y-15892012D01*
X38377244Y-16052953D01*
X38789721Y-16135000D01*
X39210279Y-16135000D01*
X39622756Y-16052953D01*
X40011302Y-15892012D01*
X40360983Y-15658363D01*
X40658363Y-15360983D01*
X40750000Y-15223838D01*
X40841637Y-15360983D01*
X41139017Y-15658363D01*
X41488698Y-15892012D01*
X41877244Y-16052953D01*
X42289721Y-16135000D01*
X42710279Y-16135000D01*
X43122756Y-16052953D01*
X43511302Y-15892012D01*
X43860983Y-15658363D01*
X43879000Y-15640346D01*
X43910498Y-15744180D01*
X43969463Y-15854494D01*
X44048815Y-15951185D01*
X44145506Y-16030537D01*
X44255820Y-16089502D01*
X44375518Y-16125812D01*
X44500000Y-16138072D01*
X47500000Y-16138072D01*
X47624482Y-16125812D01*
X47744180Y-16089502D01*
X47854494Y-16030537D01*
X47951185Y-15951185D01*
X48030537Y-15854494D01*
X48089502Y-15744180D01*
X48125812Y-15624482D01*
X48138072Y-15500000D01*
X48138072Y-13789721D01*
X108865000Y-13789721D01*
X108865000Y-14210279D01*
X108947047Y-14622756D01*
X109107988Y-15011302D01*
X109341637Y-15360983D01*
X109639017Y-15658363D01*
X109988698Y-15892012D01*
X110377244Y-16052953D01*
X110789721Y-16135000D01*
X111210279Y-16135000D01*
X111622756Y-16052953D01*
X112011302Y-15892012D01*
X112360983Y-15658363D01*
X112658363Y-15360983D01*
X112750000Y-15223838D01*
X112841637Y-15360983D01*
X113139017Y-15658363D01*
X113488698Y-15892012D01*
X113877244Y-16052953D01*
X114289721Y-16135000D01*
X114710279Y-16135000D01*
X115122756Y-16052953D01*
X115511302Y-15892012D01*
X115860983Y-15658363D01*
X115879000Y-15640346D01*
X115910498Y-15744180D01*
X115969463Y-15854494D01*
X116048815Y-15951185D01*
X116145506Y-16030537D01*
X116255820Y-16089502D01*
X116375518Y-16125812D01*
X116500000Y-16138072D01*
X119500000Y-16138072D01*
X119624482Y-16125812D01*
X119744180Y-16089502D01*
X119854494Y-16030537D01*
X119951185Y-15951185D01*
X120030537Y-15854494D01*
X120089502Y-15744180D01*
X120125812Y-15624482D01*
X120138072Y-15500000D01*
X120138072Y-12500000D01*
X120125812Y-12375518D01*
X120089502Y-12255820D01*
X120030537Y-12145506D01*
X119951185Y-12048815D01*
X119854494Y-11969463D01*
X119744180Y-11910498D01*
X119624482Y-11874188D01*
X119500000Y-11861928D01*
X116500000Y-11861928D01*
X116375518Y-11874188D01*
X116255820Y-11910498D01*
X116145506Y-11969463D01*
X116048815Y-12048815D01*
X115969463Y-12145506D01*
X115910498Y-12255820D01*
X115879000Y-12359654D01*
X115860983Y-12341637D01*
X115511302Y-12107988D01*
X115122756Y-11947047D01*
X114710279Y-11865000D01*
X114289721Y-11865000D01*
X113877244Y-11947047D01*
X113488698Y-12107988D01*
X113139017Y-12341637D01*
X112841637Y-12639017D01*
X112750000Y-12776162D01*
X112658363Y-12639017D01*
X112360983Y-12341637D01*
X112011302Y-12107988D01*
X111622756Y-11947047D01*
X111210279Y-11865000D01*
X110789721Y-11865000D01*
X110377244Y-11947047D01*
X109988698Y-12107988D01*
X109639017Y-12341637D01*
X109341637Y-12639017D01*
X109107988Y-12988698D01*
X108947047Y-13377244D01*
X108865000Y-13789721D01*
X48138072Y-13789721D01*
X48138072Y-12500000D01*
X48125812Y-12375518D01*
X48089502Y-12255820D01*
X48030537Y-12145506D01*
X47951185Y-12048815D01*
X47854494Y-11969463D01*
X47744180Y-11910498D01*
X47624482Y-11874188D01*
X47500000Y-11861928D01*
X44500000Y-11861928D01*
X44375518Y-11874188D01*
X44255820Y-11910498D01*
X44145506Y-11969463D01*
X44048815Y-12048815D01*
X43969463Y-12145506D01*
X43910498Y-12255820D01*
X43879000Y-12359654D01*
X43860983Y-12341637D01*
X43511302Y-12107988D01*
X43122756Y-11947047D01*
X42710279Y-11865000D01*
X42289721Y-11865000D01*
X41877244Y-11947047D01*
X41488698Y-12107988D01*
X41139017Y-12341637D01*
X40841637Y-12639017D01*
X40750000Y-12776162D01*
X40658363Y-12639017D01*
X40360983Y-12341637D01*
X40011302Y-12107988D01*
X39622756Y-11947047D01*
X39210279Y-11865000D01*
X38789721Y-11865000D01*
X38377244Y-11947047D01*
X37988698Y-12107988D01*
X37639017Y-12341637D01*
X37341637Y-12639017D01*
X37107988Y-12988698D01*
X36947047Y-13377244D01*
X36865000Y-13789721D01*
X11127000Y-13789721D01*
X11127000Y-11127000D01*
X143615000Y-11127000D01*
X143615000Y-11823293D01*
G37*
G04 #@! TD.AperFunction*
G04 #@! TD*
D21*
X13000000Y-13000000D03*
X19000000Y-13000000D03*
X25000000Y-13000000D03*
X31000000Y-13000000D03*
X37000000Y-13000000D03*
X43000000Y-13000000D03*
X49000000Y-13000000D03*
X55000000Y-13000000D03*
X61000000Y-13000000D03*
X67000000Y-13000000D03*
X73000000Y-13000000D03*
X79000000Y-13000000D03*
X85000000Y-13000000D03*
X91000000Y-13000000D03*
X97000000Y-13000000D03*
X103000000Y-13000000D03*
X109000000Y-13000000D03*
X115000000Y-13000000D03*
X121000000Y-13000000D03*
X127000000Y-13000000D03*
X133000000Y-13000000D03*
X139000000Y-13000000D03*
X145000000Y-13000000D03*
X13000000Y-19000000D03*
X19000000Y-19000000D03*
X25000000Y-19000000D03*
X31000000Y-19000000D03*
X37000000Y-19000000D03*
X43000000Y-19000000D03*
X49000000Y-19000000D03*
X55000000Y-19000000D03*
X61000000Y-19000000D03*
X67000000Y-19000000D03*
X73000000Y-19000000D03*
X79000000Y-19000000D03*
X85000000Y-19000000D03*
X91000000Y-19000000D03*
X97000000Y-19000000D03*
X103000000Y-19000000D03*
X109000000Y-19000000D03*
X115000000Y-19000000D03*
X121000000Y-19000000D03*
X127000000Y-19000000D03*
X133000000Y-19000000D03*
X139000000Y-19000000D03*
X145000000Y-19000000D03*
X13000000Y-25000000D03*
X19000000Y-25000000D03*
X25000000Y-25000000D03*
X31000000Y-25000000D03*
X37000000Y-25000000D03*
X43000000Y-25000000D03*
X49000000Y-25000000D03*
X55000000Y-25000000D03*
X61000000Y-25000000D03*
X67000000Y-25000000D03*
X73000000Y-25000000D03*
X79000000Y-25000000D03*
X85000000Y-25000000D03*
X91000000Y-25000000D03*
X97000000Y-25000000D03*
X103000000Y-25000000D03*
X109000000Y-25000000D03*
X115000000Y-25000000D03*
X121000000Y-25000000D03*
X127000000Y-25000000D03*
X133000000Y-25000000D03*
X139000000Y-25000000D03*
X145000000Y-25000000D03*
X13000000Y-31000000D03*
X19000000Y-31000000D03*
X25000000Y-31000000D03*
X31000000Y-31000000D03*
X37000000Y-31000000D03*
X43000000Y-31000000D03*
X49000000Y-31000000D03*
X55000000Y-31000000D03*
X61000000Y-31000000D03*
X67000000Y-31000000D03*
X73000000Y-31000000D03*
X79000000Y-31000000D03*
X85000000Y-31000000D03*
X91000000Y-31000000D03*
X97000000Y-31000000D03*
X103000000Y-31000000D03*
X109000000Y-31000000D03*
X115000000Y-31000000D03*
X121000000Y-31000000D03*
X127000000Y-31000000D03*
X133000000Y-31000000D03*
X139000000Y-31000000D03*
X145000000Y-31000000D03*
X13000000Y-37000000D03*
X19000000Y-37000000D03*
X25000000Y-37000000D03*
X31000000Y-37000000D03*
X37000000Y-37000000D03*
X43000000Y-37000000D03*
X49000000Y-37000000D03*
X55000000Y-37000000D03*
X61000000Y-37000000D03*
X67000000Y-37000000D03*
X73000000Y-37000000D03*
X79000000Y-37000000D03*
X85000000Y-37000000D03*
X91000000Y-37000000D03*
X97000000Y-37000000D03*
X103000000Y-37000000D03*
X109000000Y-37000000D03*
X115000000Y-37000000D03*
X121000000Y-37000000D03*
X127000000Y-37000000D03*
X133000000Y-37000000D03*
X139000000Y-37000000D03*
X145000000Y-37000000D03*
X13000000Y-43000000D03*
X19000000Y-43000000D03*
X25000000Y-43000000D03*
X31000000Y-43000000D03*
X37000000Y-43000000D03*
X43000000Y-43000000D03*
X49000000Y-43000000D03*
X55000000Y-43000000D03*
X61000000Y-43000000D03*
X67000000Y-43000000D03*
X73000000Y-43000000D03*
X79000000Y-43000000D03*
X85000000Y-43000000D03*
X91000000Y-43000000D03*
X97000000Y-43000000D03*
X103000000Y-43000000D03*
X109000000Y-43000000D03*
X115000000Y-43000000D03*
X121000000Y-43000000D03*
X127000000Y-43000000D03*
X133000000Y-43000000D03*
X139000000Y-43000000D03*
X145000000Y-43000000D03*
X13000000Y-49000000D03*
X19000000Y-49000000D03*
X25000000Y-49000000D03*
X31000000Y-49000000D03*
X37000000Y-49000000D03*
X43000000Y-49000000D03*
X49000000Y-49000000D03*
X55000000Y-49000000D03*
X61000000Y-49000000D03*
X67000000Y-49000000D03*
X73000000Y-49000000D03*
X79000000Y-49000000D03*
X85000000Y-49000000D03*
X91000000Y-49000000D03*
X97000000Y-49000000D03*
X103000000Y-49000000D03*
X109000000Y-49000000D03*
X115000000Y-49000000D03*
X121000000Y-49000000D03*
X127000000Y-49000000D03*
X133000000Y-49000000D03*
X139000000Y-49000000D03*
X145000000Y-49000000D03*
X13000000Y-55000000D03*
X19000000Y-55000000D03*
X25000000Y-55000000D03*
X31000000Y-55000000D03*
X37000000Y-55000000D03*
X43000000Y-55000000D03*
X49000000Y-55000000D03*
X55000000Y-55000000D03*
X61000000Y-55000000D03*
X67000000Y-55000000D03*
X73000000Y-55000000D03*
X79000000Y-55000000D03*
X85000000Y-55000000D03*
X91000000Y-55000000D03*
X97000000Y-55000000D03*
X103000000Y-55000000D03*
X109000000Y-55000000D03*
X115000000Y-55000000D03*
X121000000Y-55000000D03*
X127000000Y-55000000D03*
X133000000Y-55000000D03*
X139000000Y-55000000D03*
X145000000Y-55000000D03*
X13000000Y-61000000D03*
X19000000Y-61000000D03*
X25000000Y-61000000D03*
X31000000Y-61000000D03*
X37000000Y-61000000D03*
X43000000Y-61000000D03*
X49000000Y-61000000D03*
X55000000Y-61000000D03*
X61000000Y-61000000D03*
X67000000Y-61000000D03*
X73000000Y-61000000D03*
X79000000Y-61000000D03*
X85000000Y-61000000D03*
X91000000Y-61000000D03*
X97000000Y-61000000D03*
X103000000Y-61000000D03*
X109000000Y-61000000D03*
X115000000Y-61000000D03*
X121000000Y-61000000D03*
X127000000Y-61000000D03*
X133000000Y-61000000D03*
X139000000Y-61000000D03*
X145000000Y-61000000D03*
X13000000Y-67000000D03*
X19000000Y-67000000D03*
X25000000Y-67000000D03*
X31000000Y-67000000D03*
X37000000Y-67000000D03*
X43000000Y-67000000D03*
X49000000Y-67000000D03*
X55000000Y-67000000D03*
X61000000Y-67000000D03*
X67000000Y-67000000D03*
X73000000Y-67000000D03*
X79000000Y-67000000D03*
X85000000Y-67000000D03*
X91000000Y-67000000D03*
X97000000Y-67000000D03*
X103000000Y-67000000D03*
X109000000Y-67000000D03*
X115000000Y-67000000D03*
X121000000Y-67000000D03*
X127000000Y-67000000D03*
X133000000Y-67000000D03*
X139000000Y-67000000D03*
X145000000Y-67000000D03*
X13000000Y-73000000D03*
X19000000Y-73000000D03*
X25000000Y-73000000D03*
X31000000Y-73000000D03*
X37000000Y-73000000D03*
X43000000Y-73000000D03*
X49000000Y-73000000D03*
X55000000Y-73000000D03*
X61000000Y-73000000D03*
X67000000Y-73000000D03*
X73000000Y-73000000D03*
X79000000Y-73000000D03*
X85000000Y-73000000D03*
X91000000Y-73000000D03*
X97000000Y-73000000D03*
X103000000Y-73000000D03*
X109000000Y-73000000D03*
X115000000Y-73000000D03*
X121000000Y-73000000D03*
X127000000Y-73000000D03*
X133000000Y-73000000D03*
X139000000Y-73000000D03*
X145000000Y-73000000D03*
X13000000Y-79000000D03*
X19000000Y-79000000D03*
X25000000Y-79000000D03*
X31000000Y-79000000D03*
X37000000Y-79000000D03*
X43000000Y-79000000D03*
X49000000Y-79000000D03*
X55000000Y-79000000D03*
X61000000Y-79000000D03*
X67000000Y-79000000D03*
X73000000Y-79000000D03*
X79000000Y-79000000D03*
X85000000Y-79000000D03*
X91000000Y-79000000D03*
X97000000Y-79000000D03*
X103000000Y-79000000D03*
X109000000Y-79000000D03*
X115000000Y-79000000D03*
X121000000Y-79000000D03*
X127000000Y-79000000D03*
X133000000Y-79000000D03*
X139000000Y-79000000D03*
X145000000Y-79000000D03*
X13000000Y-85000000D03*
X19000000Y-85000000D03*
X25000000Y-85000000D03*
X31000000Y-85000000D03*
X37000000Y-85000000D03*
X43000000Y-85000000D03*
X49000000Y-85000000D03*
X55000000Y-85000000D03*
X61000000Y-85000000D03*
X67000000Y-85000000D03*
X73000000Y-85000000D03*
X79000000Y-85000000D03*
X85000000Y-85000000D03*
X91000000Y-85000000D03*
X97000000Y-85000000D03*
X103000000Y-85000000D03*
X109000000Y-85000000D03*
X115000000Y-85000000D03*
X121000000Y-85000000D03*
X127000000Y-85000000D03*
X133000000Y-85000000D03*
X139000000Y-85000000D03*
X145000000Y-85000000D03*
X13000000Y-91000000D03*
X19000000Y-91000000D03*
X25000000Y-91000000D03*
X31000000Y-91000000D03*
X37000000Y-91000000D03*
X43000000Y-91000000D03*
X49000000Y-91000000D03*
X55000000Y-91000000D03*
X61000000Y-91000000D03*
X67000000Y-91000000D03*
X73000000Y-91000000D03*
X79000000Y-91000000D03*
X85000000Y-91000000D03*
X91000000Y-91000000D03*
X97000000Y-91000000D03*
X103000000Y-91000000D03*
X109000000Y-91000000D03*
X115000000Y-91000000D03*
X121000000Y-91000000D03*
X127000000Y-91000000D03*
X133000000Y-91000000D03*
X139000000Y-91000000D03*
X145000000Y-91000000D03*
X13000000Y-97000000D03*
X19000000Y-97000000D03*
X25000000Y-97000000D03*
X31000000Y-97000000D03*
X37000000Y-97000000D03*
X43000000Y-97000000D03*
X49000000Y-97000000D03*
X55000000Y-97000000D03*
X61000000Y-97000000D03*
X67000000Y-97000000D03*
X73000000Y-97000000D03*
X79000000Y-97000000D03*
X85000000Y-97000000D03*
X91000000Y-97000000D03*
X97000000Y-97000000D03*
X103000000Y-97000000D03*
X109000000Y-97000000D03*
X115000000Y-97000000D03*
X121000000Y-97000000D03*
X127000000Y-97000000D03*
X133000000Y-97000000D03*
X139000000Y-97000000D03*
X145000000Y-97000000D03*
D22*
X111000000Y-86000000D03*
X114500000Y-86000000D03*
X118000000Y-86000000D03*
X108000000Y-81000000D03*
X121000000Y-81000000D03*
X39000000Y-86000000D03*
X42500000Y-86000000D03*
X46000000Y-86000000D03*
X36000000Y-81000000D03*
X49000000Y-81000000D03*
X111000000Y-14000000D03*
X114500000Y-14000000D03*
X118000000Y-14000000D03*
X108000000Y-9000000D03*
X121000000Y-9000000D03*
X39000000Y-14000000D03*
X42500000Y-14000000D03*
X46000000Y-14000000D03*
X36000000Y-9000000D03*
X49000000Y-9000000D03*
D23*
X144700000Y-7640000D03*
X153350000Y-7640000D03*
D24*
X144700000Y-11020000D03*
X153350000Y-11020000D03*
D22*
X148600000Y-10650000D03*
X146050000Y-10650000D03*
X146900000Y-10650000D03*
X147750000Y-10650000D03*
X152000000Y-10650000D03*
X150300000Y-10650000D03*
X149450000Y-10650000D03*
X151150000Y-10650000D03*
X146050000Y-12000000D03*
X146900000Y-12000000D03*
X147750000Y-12000000D03*
X148600000Y-12000000D03*
X149450000Y-12000000D03*
X150300000Y-12000000D03*
X151150000Y-12000000D03*
X152000000Y-12000000D03*
X22000000Y-45000000D03*
X22000000Y-37800000D03*
M02*
