G04 #@! TF.GenerationSoftware,KiCad,Pcbnew,5.1.9+dfsg1-1+deb11u1*
G04 #@! TF.CreationDate,2026-09-11T21:34:16-03:00*
G04 #@! TF.ProjectId,,58585858-5858-4585-9858-585858585858,rev?*
G04 #@! TF.SameCoordinates,Original*
G04 #@! TF.FileFunction,Copper,L3,Inr*
G04 #@! TF.FilePolarity,Positive*
%FSLAX46Y46*%
G04 Gerber Fmt 4.6, Leading zero omitted, Abs format (unit mm)*
G04 Created by KiCad (PCBNEW 5.1.9+dfsg1-1+deb11u1) date 2026-09-11 21:34:16*
%MOMM*%
%LPD*%
G01*
G04 APERTURE LIST*
G04 #@! TA.AperFunction,Profile*
%ADD10C,0.100000*%
G04 #@! TD*
G04 #@! TA.AperFunction,ComponentPad*
%ADD11C,3.000000*%
G04 #@! TD*
G04 #@! TA.AperFunction,ComponentPad*
%ADD12R,3.000000X3.000000*%
G04 #@! TD*
G04 #@! TA.AperFunction,ComponentPad*
%ADD13C,1.400000*%
G04 #@! TD*
G04 #@! TA.AperFunction,ComponentPad*
%ADD14O,0.900000X1.700000*%
G04 #@! TD*
G04 #@! TA.AperFunction,ComponentPad*
%ADD15O,0.900000X2.400000*%
G04 #@! TD*
G04 #@! TA.AperFunction,ComponentPad*
%ADD16C,0.700000*%
G04 #@! TD*
G04 #@! TA.AperFunction,ComponentPad*
%ADD17C,6.000000*%
G04 #@! TD*
G04 #@! TA.AperFunction,ViaPad*
%ADD18C,0.600000*%
G04 #@! TD*
%ADD19C,0.300000*%
%ADD20C,0.350000*%
%ADD21O,0.600000X1.400000*%
%ADD22O,0.600000X2.100000*%
G04 APERTURE END LIST*
D10*
X10000000Y-10000000D02*
X150000000Y-10000000D01*
X150000000Y-10000000D02*
X150000000Y-100000000D01*
X150000000Y-100000000D02*
X10000000Y-100000000D01*
X10000000Y-100000000D02*
X10000000Y-10000000D01*
D11*
G04 #@! TO.N,PHM4_3*
G04 #@! TO.C,J_M4*
X111000000Y-86000000D03*
G04 #@! TO.N,PHM4_2*
X114500000Y-86000000D03*
D12*
G04 #@! TO.N,PHM4_1*
X118000000Y-86000000D03*
D13*
G04 #@! TO.N,*
X108000000Y-81000000D03*
X121000000Y-81000000D03*
G04 #@! TD*
D11*
G04 #@! TO.N,PHM3_3*
G04 #@! TO.C,J_M3*
X39000000Y-86000000D03*
G04 #@! TO.N,PHM3_2*
X42500000Y-86000000D03*
D12*
G04 #@! TO.N,PHM3_1*
X46000000Y-86000000D03*
D13*
G04 #@! TO.N,*
X36000000Y-81000000D03*
X49000000Y-81000000D03*
G04 #@! TD*
D11*
G04 #@! TO.N,PHM2_3*
G04 #@! TO.C,J_M2*
X111000000Y-14000000D03*
G04 #@! TO.N,PHM2_2*
X114500000Y-14000000D03*
D12*
G04 #@! TO.N,PHM2_1*
X118000000Y-14000000D03*
D13*
G04 #@! TO.N,*
X108000000Y-9000000D03*
X121000000Y-9000000D03*
G04 #@! TD*
D11*
G04 #@! TO.N,PHM1_3*
G04 #@! TO.C,J_M1*
X39000000Y-14000000D03*
G04 #@! TO.N,PHM1_2*
X42500000Y-14000000D03*
D12*
G04 #@! TO.N,PHM1_1*
X46000000Y-14000000D03*
D13*
G04 #@! TO.N,*
X36000000Y-9000000D03*
X49000000Y-9000000D03*
G04 #@! TD*
D14*
G04 #@! TO.N,USB_S1*
G04 #@! TO.C,J2*
X144700000Y-7640000D03*
X153350000Y-7640000D03*
D15*
X144700000Y-11020000D03*
X153350000Y-11020000D03*
D16*
G04 #@! TO.N,USB_B6*
X148600000Y-10650000D03*
G04 #@! TO.N,USB_B1*
X146050000Y-10650000D03*
G04 #@! TO.N,USB_B4*
X146900000Y-10650000D03*
G04 #@! TO.N,USB_B5*
X147750000Y-10650000D03*
G04 #@! TO.N,USB_B12*
X152000000Y-10650000D03*
G04 #@! TO.N,USB_B8*
X150300000Y-10650000D03*
G04 #@! TO.N,USB_B7*
X149450000Y-10650000D03*
G04 #@! TO.N,USB_B9*
X151150000Y-10650000D03*
G04 #@! TO.N,USB_A12*
X146050000Y-12000000D03*
G04 #@! TO.N,USB_A9*
X146900000Y-12000000D03*
G04 #@! TO.N,USB_A8*
X147750000Y-12000000D03*
G04 #@! TO.N,USB_A7*
X148600000Y-12000000D03*
G04 #@! TO.N,USB_A6*
X149450000Y-12000000D03*
G04 #@! TO.N,USB_A5*
X150300000Y-12000000D03*
G04 #@! TO.N,USB_A4*
X151150000Y-12000000D03*
G04 #@! TO.N,USB_A1*
X152000000Y-12000000D03*
G04 #@! TD*
G04 #@! TO.N,VBAT*
G04 #@! TO.C,J1*
G04 #@! TA.AperFunction,ComponentPad*
G36*
G01*
X23500000Y-48000000D02*
X20500000Y-48000000D01*
G75*
G02*
X19000000Y-46500000I0J1500000D01*
G01*
X19000000Y-43500000D01*
G75*
G02*
X20500000Y-42000000I1500000J0D01*
G01*
X23500000Y-42000000D01*
G75*
G02*
X25000000Y-43500000I0J-1500000D01*
G01*
X25000000Y-46500000D01*
G75*
G02*
X23500000Y-48000000I-1500000J0D01*
G01*
G37*
G04 #@! TD.AperFunction*
D17*
G04 #@! TO.N,GND*
X22000000Y-37800000D03*
G04 #@! TD*
D18*
G04 #@! TO.N,GND*
X13000000Y-13000000D03*
X19000000Y-13000000D03*
X25000000Y-13000000D03*
X31000000Y-13000000D03*
X37000000Y-13000000D03*
G04 #@! TO.N,PHM1_2*
X43000000Y-13000000D03*
G04 #@! TO.N,GND*
X49000000Y-13000000D03*
X55000000Y-13000000D03*
X61000000Y-13000000D03*
X67000000Y-13000000D03*
X73000000Y-13000000D03*
X79000000Y-13000000D03*
X85000000Y-13000000D03*
X91000000Y-13000000D03*
X97000000Y-13000000D03*
X103000000Y-13000000D03*
X109000000Y-13000000D03*
G04 #@! TO.N,PHM2_2*
X115000000Y-13000000D03*
G04 #@! TO.N,GND*
X121000000Y-13000000D03*
X127000000Y-13000000D03*
X133000000Y-13000000D03*
X139000000Y-13000000D03*
X145000000Y-13000000D03*
X13000000Y-19000000D03*
X19000000Y-19000000D03*
X25000000Y-19000000D03*
X31000000Y-19000000D03*
X37000000Y-19000000D03*
X43000000Y-19000000D03*
X49000000Y-19000000D03*
X55000000Y-19000000D03*
X61000000Y-19000000D03*
X67000000Y-19000000D03*
X73000000Y-19000000D03*
X79000000Y-19000000D03*
X85000000Y-19000000D03*
X91000000Y-19000000D03*
X97000000Y-19000000D03*
X103000000Y-19000000D03*
X109000000Y-19000000D03*
X115000000Y-19000000D03*
X121000000Y-19000000D03*
X127000000Y-19000000D03*
X133000000Y-19000000D03*
X139000000Y-19000000D03*
X145000000Y-19000000D03*
X13000000Y-25000000D03*
X19000000Y-25000000D03*
X25000000Y-25000000D03*
X31000000Y-25000000D03*
X37000000Y-25000000D03*
X43000000Y-25000000D03*
X49000000Y-25000000D03*
X55000000Y-25000000D03*
X61000000Y-25000000D03*
X67000000Y-25000000D03*
X73000000Y-25000000D03*
X79000000Y-25000000D03*
X85000000Y-25000000D03*
X91000000Y-25000000D03*
X97000000Y-25000000D03*
X103000000Y-25000000D03*
X109000000Y-25000000D03*
X115000000Y-25000000D03*
X121000000Y-25000000D03*
X127000000Y-25000000D03*
X133000000Y-25000000D03*
X139000000Y-25000000D03*
X145000000Y-25000000D03*
X13000000Y-31000000D03*
X19000000Y-31000000D03*
X25000000Y-31000000D03*
X31000000Y-31000000D03*
X37000000Y-31000000D03*
X43000000Y-31000000D03*
X49000000Y-31000000D03*
X55000000Y-31000000D03*
X61000000Y-31000000D03*
X67000000Y-31000000D03*
X73000000Y-31000000D03*
X79000000Y-31000000D03*
X85000000Y-31000000D03*
X91000000Y-31000000D03*
X97000000Y-31000000D03*
X103000000Y-31000000D03*
X109000000Y-31000000D03*
X115000000Y-31000000D03*
X121000000Y-31000000D03*
X127000000Y-31000000D03*
X133000000Y-31000000D03*
X139000000Y-31000000D03*
X145000000Y-31000000D03*
X13000000Y-37000000D03*
X19000000Y-37000000D03*
X25000000Y-37000000D03*
X31000000Y-37000000D03*
X37000000Y-37000000D03*
X43000000Y-37000000D03*
X49000000Y-37000000D03*
X55000000Y-37000000D03*
X61000000Y-37000000D03*
X67000000Y-37000000D03*
X73000000Y-37000000D03*
X79000000Y-37000000D03*
X85000000Y-37000000D03*
X91000000Y-37000000D03*
X97000000Y-37000000D03*
X103000000Y-37000000D03*
X109000000Y-37000000D03*
X115000000Y-37000000D03*
X121000000Y-37000000D03*
X127000000Y-37000000D03*
X133000000Y-37000000D03*
X139000000Y-37000000D03*
X145000000Y-37000000D03*
X13000000Y-43000000D03*
X19000000Y-43000000D03*
X25000000Y-43000000D03*
X31000000Y-43000000D03*
X37000000Y-43000000D03*
X43000000Y-43000000D03*
X49000000Y-43000000D03*
X55000000Y-43000000D03*
X61000000Y-43000000D03*
X67000000Y-43000000D03*
X73000000Y-43000000D03*
X79000000Y-43000000D03*
X85000000Y-43000000D03*
X91000000Y-43000000D03*
X97000000Y-43000000D03*
X103000000Y-43000000D03*
X109000000Y-43000000D03*
X115000000Y-43000000D03*
X121000000Y-43000000D03*
X127000000Y-43000000D03*
X133000000Y-43000000D03*
X139000000Y-43000000D03*
X145000000Y-43000000D03*
X13000000Y-49000000D03*
X19000000Y-49000000D03*
X25000000Y-49000000D03*
X31000000Y-49000000D03*
X37000000Y-49000000D03*
X43000000Y-49000000D03*
X49000000Y-49000000D03*
X55000000Y-49000000D03*
X61000000Y-49000000D03*
X67000000Y-49000000D03*
X73000000Y-49000000D03*
X79000000Y-49000000D03*
X85000000Y-49000000D03*
X91000000Y-49000000D03*
X97000000Y-49000000D03*
X103000000Y-49000000D03*
X109000000Y-49000000D03*
X115000000Y-49000000D03*
X121000000Y-49000000D03*
X127000000Y-49000000D03*
X133000000Y-49000000D03*
X139000000Y-49000000D03*
X145000000Y-49000000D03*
X13000000Y-55000000D03*
X19000000Y-55000000D03*
X25000000Y-55000000D03*
X31000000Y-55000000D03*
X37000000Y-55000000D03*
X43000000Y-55000000D03*
X49000000Y-55000000D03*
X55000000Y-55000000D03*
X61000000Y-55000000D03*
X67000000Y-55000000D03*
X73000000Y-55000000D03*
X79000000Y-55000000D03*
X85000000Y-55000000D03*
X91000000Y-55000000D03*
X97000000Y-55000000D03*
X103000000Y-55000000D03*
X109000000Y-55000000D03*
X115000000Y-55000000D03*
X121000000Y-55000000D03*
X127000000Y-55000000D03*
X133000000Y-55000000D03*
X139000000Y-55000000D03*
X145000000Y-55000000D03*
X13000000Y-61000000D03*
X19000000Y-61000000D03*
X25000000Y-61000000D03*
X31000000Y-61000000D03*
X37000000Y-61000000D03*
X43000000Y-61000000D03*
X49000000Y-61000000D03*
X55000000Y-61000000D03*
X61000000Y-61000000D03*
X67000000Y-61000000D03*
X73000000Y-61000000D03*
X79000000Y-61000000D03*
X85000000Y-61000000D03*
X91000000Y-61000000D03*
X97000000Y-61000000D03*
X103000000Y-61000000D03*
X109000000Y-61000000D03*
X115000000Y-61000000D03*
X121000000Y-61000000D03*
X127000000Y-61000000D03*
X133000000Y-61000000D03*
X139000000Y-61000000D03*
X145000000Y-61000000D03*
X13000000Y-67000000D03*
X19000000Y-67000000D03*
X25000000Y-67000000D03*
X31000000Y-67000000D03*
X37000000Y-67000000D03*
X43000000Y-67000000D03*
X49000000Y-67000000D03*
X55000000Y-67000000D03*
X61000000Y-67000000D03*
X67000000Y-67000000D03*
X73000000Y-67000000D03*
X79000000Y-67000000D03*
X85000000Y-67000000D03*
X91000000Y-67000000D03*
X97000000Y-67000000D03*
X103000000Y-67000000D03*
X109000000Y-67000000D03*
X115000000Y-67000000D03*
X121000000Y-67000000D03*
X127000000Y-67000000D03*
X133000000Y-67000000D03*
X139000000Y-67000000D03*
X145000000Y-67000000D03*
X13000000Y-73000000D03*
X19000000Y-73000000D03*
X25000000Y-73000000D03*
X31000000Y-73000000D03*
X37000000Y-73000000D03*
X43000000Y-73000000D03*
X49000000Y-73000000D03*
X55000000Y-73000000D03*
X61000000Y-73000000D03*
X67000000Y-73000000D03*
X73000000Y-73000000D03*
X79000000Y-73000000D03*
X85000000Y-73000000D03*
X91000000Y-73000000D03*
X97000000Y-73000000D03*
X103000000Y-73000000D03*
X109000000Y-73000000D03*
X115000000Y-73000000D03*
X121000000Y-73000000D03*
X127000000Y-73000000D03*
X133000000Y-73000000D03*
X139000000Y-73000000D03*
X145000000Y-73000000D03*
X13000000Y-79000000D03*
X19000000Y-79000000D03*
X25000000Y-79000000D03*
X31000000Y-79000000D03*
X37000000Y-79000000D03*
X43000000Y-79000000D03*
X49000000Y-79000000D03*
X55000000Y-79000000D03*
X61000000Y-79000000D03*
X67000000Y-79000000D03*
X73000000Y-79000000D03*
X79000000Y-79000000D03*
X85000000Y-79000000D03*
X91000000Y-79000000D03*
X97000000Y-79000000D03*
X103000000Y-79000000D03*
X109000000Y-79000000D03*
X115000000Y-79000000D03*
X121000000Y-79000000D03*
X127000000Y-79000000D03*
X133000000Y-79000000D03*
X139000000Y-79000000D03*
X145000000Y-79000000D03*
X13000000Y-85000000D03*
X19000000Y-85000000D03*
X25000000Y-85000000D03*
X31000000Y-85000000D03*
X37000000Y-85000000D03*
X43000000Y-85000000D03*
X49000000Y-85000000D03*
X55000000Y-85000000D03*
X61000000Y-85000000D03*
X67000000Y-85000000D03*
X73000000Y-85000000D03*
X79000000Y-85000000D03*
X85000000Y-85000000D03*
X91000000Y-85000000D03*
X97000000Y-85000000D03*
X103000000Y-85000000D03*
X109000000Y-85000000D03*
X115000000Y-85000000D03*
X121000000Y-85000000D03*
X127000000Y-85000000D03*
X133000000Y-85000000D03*
X139000000Y-85000000D03*
X145000000Y-85000000D03*
X13000000Y-91000000D03*
X19000000Y-91000000D03*
X25000000Y-91000000D03*
X31000000Y-91000000D03*
X37000000Y-91000000D03*
X43000000Y-91000000D03*
X49000000Y-91000000D03*
X55000000Y-91000000D03*
X61000000Y-91000000D03*
X67000000Y-91000000D03*
X73000000Y-91000000D03*
X79000000Y-91000000D03*
X85000000Y-91000000D03*
X91000000Y-91000000D03*
X97000000Y-91000000D03*
X103000000Y-91000000D03*
X109000000Y-91000000D03*
X115000000Y-91000000D03*
X121000000Y-91000000D03*
X127000000Y-91000000D03*
X133000000Y-91000000D03*
X139000000Y-91000000D03*
X145000000Y-91000000D03*
X13000000Y-97000000D03*
X19000000Y-97000000D03*
X25000000Y-97000000D03*
X31000000Y-97000000D03*
X37000000Y-97000000D03*
X43000000Y-97000000D03*
X49000000Y-97000000D03*
X55000000Y-97000000D03*
X61000000Y-97000000D03*
X67000000Y-97000000D03*
X73000000Y-97000000D03*
X79000000Y-97000000D03*
X85000000Y-97000000D03*
X91000000Y-97000000D03*
X97000000Y-97000000D03*
X103000000Y-97000000D03*
X109000000Y-97000000D03*
X115000000Y-97000000D03*
X121000000Y-97000000D03*
X127000000Y-97000000D03*
X133000000Y-97000000D03*
X139000000Y-97000000D03*
X145000000Y-97000000D03*
G04 #@! TD*
D19*
X13000000Y-13000000D03*
X19000000Y-13000000D03*
X25000000Y-13000000D03*
X31000000Y-13000000D03*
X37000000Y-13000000D03*
X43000000Y-13000000D03*
X49000000Y-13000000D03*
X55000000Y-13000000D03*
X61000000Y-13000000D03*
X67000000Y-13000000D03*
X73000000Y-13000000D03*
X79000000Y-13000000D03*
X85000000Y-13000000D03*
X91000000Y-13000000D03*
X97000000Y-13000000D03*
X103000000Y-13000000D03*
X109000000Y-13000000D03*
X115000000Y-13000000D03*
X121000000Y-13000000D03*
X127000000Y-13000000D03*
X133000000Y-13000000D03*
X139000000Y-13000000D03*
X145000000Y-13000000D03*
X13000000Y-19000000D03*
X19000000Y-19000000D03*
X25000000Y-19000000D03*
X31000000Y-19000000D03*
X37000000Y-19000000D03*
X43000000Y-19000000D03*
X49000000Y-19000000D03*
X55000000Y-19000000D03*
X61000000Y-19000000D03*
X67000000Y-19000000D03*
X73000000Y-19000000D03*
X79000000Y-19000000D03*
X85000000Y-19000000D03*
X91000000Y-19000000D03*
X97000000Y-19000000D03*
X103000000Y-19000000D03*
X109000000Y-19000000D03*
X115000000Y-19000000D03*
X121000000Y-19000000D03*
X127000000Y-19000000D03*
X133000000Y-19000000D03*
X139000000Y-19000000D03*
X145000000Y-19000000D03*
X13000000Y-25000000D03*
X19000000Y-25000000D03*
X25000000Y-25000000D03*
X31000000Y-25000000D03*
X37000000Y-25000000D03*
X43000000Y-25000000D03*
X49000000Y-25000000D03*
X55000000Y-25000000D03*
X61000000Y-25000000D03*
X67000000Y-25000000D03*
X73000000Y-25000000D03*
X79000000Y-25000000D03*
X85000000Y-25000000D03*
X91000000Y-25000000D03*
X97000000Y-25000000D03*
X103000000Y-25000000D03*
X109000000Y-25000000D03*
X115000000Y-25000000D03*
X121000000Y-25000000D03*
X127000000Y-25000000D03*
X133000000Y-25000000D03*
X139000000Y-25000000D03*
X145000000Y-25000000D03*
X13000000Y-31000000D03*
X19000000Y-31000000D03*
X25000000Y-31000000D03*
X31000000Y-31000000D03*
X37000000Y-31000000D03*
X43000000Y-31000000D03*
X49000000Y-31000000D03*
X55000000Y-31000000D03*
X61000000Y-31000000D03*
X67000000Y-31000000D03*
X73000000Y-31000000D03*
X79000000Y-31000000D03*
X85000000Y-31000000D03*
X91000000Y-31000000D03*
X97000000Y-31000000D03*
X103000000Y-31000000D03*
X109000000Y-31000000D03*
X115000000Y-31000000D03*
X121000000Y-31000000D03*
X127000000Y-31000000D03*
X133000000Y-31000000D03*
X139000000Y-31000000D03*
X145000000Y-31000000D03*
X13000000Y-37000000D03*
X19000000Y-37000000D03*
X25000000Y-37000000D03*
X31000000Y-37000000D03*
X37000000Y-37000000D03*
X43000000Y-37000000D03*
X49000000Y-37000000D03*
X55000000Y-37000000D03*
X61000000Y-37000000D03*
X67000000Y-37000000D03*
X73000000Y-37000000D03*
X79000000Y-37000000D03*
X85000000Y-37000000D03*
X91000000Y-37000000D03*
X97000000Y-37000000D03*
X103000000Y-37000000D03*
X109000000Y-37000000D03*
X115000000Y-37000000D03*
X121000000Y-37000000D03*
X127000000Y-37000000D03*
X133000000Y-37000000D03*
X139000000Y-37000000D03*
X145000000Y-37000000D03*
X13000000Y-43000000D03*
X19000000Y-43000000D03*
X25000000Y-43000000D03*
X31000000Y-43000000D03*
X37000000Y-43000000D03*
X43000000Y-43000000D03*
X49000000Y-43000000D03*
X55000000Y-43000000D03*
X61000000Y-43000000D03*
X67000000Y-43000000D03*
X73000000Y-43000000D03*
X79000000Y-43000000D03*
X85000000Y-43000000D03*
X91000000Y-43000000D03*
X97000000Y-43000000D03*
X103000000Y-43000000D03*
X109000000Y-43000000D03*
X115000000Y-43000000D03*
X121000000Y-43000000D03*
X127000000Y-43000000D03*
X133000000Y-43000000D03*
X139000000Y-43000000D03*
X145000000Y-43000000D03*
X13000000Y-49000000D03*
X19000000Y-49000000D03*
X25000000Y-49000000D03*
X31000000Y-49000000D03*
X37000000Y-49000000D03*
X43000000Y-49000000D03*
X49000000Y-49000000D03*
X55000000Y-49000000D03*
X61000000Y-49000000D03*
X67000000Y-49000000D03*
X73000000Y-49000000D03*
X79000000Y-49000000D03*
X85000000Y-49000000D03*
X91000000Y-49000000D03*
X97000000Y-49000000D03*
X103000000Y-49000000D03*
X109000000Y-49000000D03*
X115000000Y-49000000D03*
X121000000Y-49000000D03*
X127000000Y-49000000D03*
X133000000Y-49000000D03*
X139000000Y-49000000D03*
X145000000Y-49000000D03*
X13000000Y-55000000D03*
X19000000Y-55000000D03*
X25000000Y-55000000D03*
X31000000Y-55000000D03*
X37000000Y-55000000D03*
X43000000Y-55000000D03*
X49000000Y-55000000D03*
X55000000Y-55000000D03*
X61000000Y-55000000D03*
X67000000Y-55000000D03*
X73000000Y-55000000D03*
X79000000Y-55000000D03*
X85000000Y-55000000D03*
X91000000Y-55000000D03*
X97000000Y-55000000D03*
X103000000Y-55000000D03*
X109000000Y-55000000D03*
X115000000Y-55000000D03*
X121000000Y-55000000D03*
X127000000Y-55000000D03*
X133000000Y-55000000D03*
X139000000Y-55000000D03*
X145000000Y-55000000D03*
X13000000Y-61000000D03*
X19000000Y-61000000D03*
X25000000Y-61000000D03*
X31000000Y-61000000D03*
X37000000Y-61000000D03*
X43000000Y-61000000D03*
X49000000Y-61000000D03*
X55000000Y-61000000D03*
X61000000Y-61000000D03*
X67000000Y-61000000D03*
X73000000Y-61000000D03*
X79000000Y-61000000D03*
X85000000Y-61000000D03*
X91000000Y-61000000D03*
X97000000Y-61000000D03*
X103000000Y-61000000D03*
X109000000Y-61000000D03*
X115000000Y-61000000D03*
X121000000Y-61000000D03*
X127000000Y-61000000D03*
X133000000Y-61000000D03*
X139000000Y-61000000D03*
X145000000Y-61000000D03*
X13000000Y-67000000D03*
X19000000Y-67000000D03*
X25000000Y-67000000D03*
X31000000Y-67000000D03*
X37000000Y-67000000D03*
X43000000Y-67000000D03*
X49000000Y-67000000D03*
X55000000Y-67000000D03*
X61000000Y-67000000D03*
X67000000Y-67000000D03*
X73000000Y-67000000D03*
X79000000Y-67000000D03*
X85000000Y-67000000D03*
X91000000Y-67000000D03*
X97000000Y-67000000D03*
X103000000Y-67000000D03*
X109000000Y-67000000D03*
X115000000Y-67000000D03*
X121000000Y-67000000D03*
X127000000Y-67000000D03*
X133000000Y-67000000D03*
X139000000Y-67000000D03*
X145000000Y-67000000D03*
X13000000Y-73000000D03*
X19000000Y-73000000D03*
X25000000Y-73000000D03*
X31000000Y-73000000D03*
X37000000Y-73000000D03*
X43000000Y-73000000D03*
X49000000Y-73000000D03*
X55000000Y-73000000D03*
X61000000Y-73000000D03*
X67000000Y-73000000D03*
X73000000Y-73000000D03*
X79000000Y-73000000D03*
X85000000Y-73000000D03*
X91000000Y-73000000D03*
X97000000Y-73000000D03*
X103000000Y-73000000D03*
X109000000Y-73000000D03*
X115000000Y-73000000D03*
X121000000Y-73000000D03*
X127000000Y-73000000D03*
X133000000Y-73000000D03*
X139000000Y-73000000D03*
X145000000Y-73000000D03*
X13000000Y-79000000D03*
X19000000Y-79000000D03*
X25000000Y-79000000D03*
X31000000Y-79000000D03*
X37000000Y-79000000D03*
X43000000Y-79000000D03*
X49000000Y-79000000D03*
X55000000Y-79000000D03*
X61000000Y-79000000D03*
X67000000Y-79000000D03*
X73000000Y-79000000D03*
X79000000Y-79000000D03*
X85000000Y-79000000D03*
X91000000Y-79000000D03*
X97000000Y-79000000D03*
X103000000Y-79000000D03*
X109000000Y-79000000D03*
X115000000Y-79000000D03*
X121000000Y-79000000D03*
X127000000Y-79000000D03*
X133000000Y-79000000D03*
X139000000Y-79000000D03*
X145000000Y-79000000D03*
X13000000Y-85000000D03*
X19000000Y-85000000D03*
X25000000Y-85000000D03*
X31000000Y-85000000D03*
X37000000Y-85000000D03*
X43000000Y-85000000D03*
X49000000Y-85000000D03*
X55000000Y-85000000D03*
X61000000Y-85000000D03*
X67000000Y-85000000D03*
X73000000Y-85000000D03*
X79000000Y-85000000D03*
X85000000Y-85000000D03*
X91000000Y-85000000D03*
X97000000Y-85000000D03*
X103000000Y-85000000D03*
X109000000Y-85000000D03*
X115000000Y-85000000D03*
X121000000Y-85000000D03*
X127000000Y-85000000D03*
X133000000Y-85000000D03*
X139000000Y-85000000D03*
X145000000Y-85000000D03*
X13000000Y-91000000D03*
X19000000Y-91000000D03*
X25000000Y-91000000D03*
X31000000Y-91000000D03*
X37000000Y-91000000D03*
X43000000Y-91000000D03*
X49000000Y-91000000D03*
X55000000Y-91000000D03*
X61000000Y-91000000D03*
X67000000Y-91000000D03*
X73000000Y-91000000D03*
X79000000Y-91000000D03*
X85000000Y-91000000D03*
X91000000Y-91000000D03*
X97000000Y-91000000D03*
X103000000Y-91000000D03*
X109000000Y-91000000D03*
X115000000Y-91000000D03*
X121000000Y-91000000D03*
X127000000Y-91000000D03*
X133000000Y-91000000D03*
X139000000Y-91000000D03*
X145000000Y-91000000D03*
X13000000Y-97000000D03*
X19000000Y-97000000D03*
X25000000Y-97000000D03*
X31000000Y-97000000D03*
X37000000Y-97000000D03*
X43000000Y-97000000D03*
X49000000Y-97000000D03*
X55000000Y-97000000D03*
X61000000Y-97000000D03*
X67000000Y-97000000D03*
X73000000Y-97000000D03*
X79000000Y-97000000D03*
X85000000Y-97000000D03*
X91000000Y-97000000D03*
X97000000Y-97000000D03*
X103000000Y-97000000D03*
X109000000Y-97000000D03*
X115000000Y-97000000D03*
X121000000Y-97000000D03*
X127000000Y-97000000D03*
X133000000Y-97000000D03*
X139000000Y-97000000D03*
X145000000Y-97000000D03*
D20*
X111000000Y-86000000D03*
X114500000Y-86000000D03*
X118000000Y-86000000D03*
X108000000Y-81000000D03*
X121000000Y-81000000D03*
X39000000Y-86000000D03*
X42500000Y-86000000D03*
X46000000Y-86000000D03*
X36000000Y-81000000D03*
X49000000Y-81000000D03*
X111000000Y-14000000D03*
X114500000Y-14000000D03*
X118000000Y-14000000D03*
X108000000Y-9000000D03*
X121000000Y-9000000D03*
X39000000Y-14000000D03*
X42500000Y-14000000D03*
X46000000Y-14000000D03*
X36000000Y-9000000D03*
X49000000Y-9000000D03*
D21*
X144700000Y-7640000D03*
X153350000Y-7640000D03*
D22*
X144700000Y-11020000D03*
X153350000Y-11020000D03*
D20*
X148600000Y-10650000D03*
X146050000Y-10650000D03*
X146900000Y-10650000D03*
X147750000Y-10650000D03*
X152000000Y-10650000D03*
X150300000Y-10650000D03*
X149450000Y-10650000D03*
X151150000Y-10650000D03*
X146050000Y-12000000D03*
X146900000Y-12000000D03*
X147750000Y-12000000D03*
X148600000Y-12000000D03*
X149450000Y-12000000D03*
X150300000Y-12000000D03*
X151150000Y-12000000D03*
X152000000Y-12000000D03*
X22000000Y-45000000D03*
X22000000Y-37800000D03*
M02*
