M48
; DRILL file {KiCad 5.1.9+dfsg1-1+deb11u1} date Fri Sep 11 21:34:17 2026
; FORMAT={-:-/ absolute / metric / decimal}
; #@! TF.CreationDate,2026-09-11T21:34:17-03:00
; #@! TF.GenerationSoftware,Kicad,Pcbnew,5.1.9+dfsg1-1+deb11u1
; #@! TF.FileFunction,Plated,1,4,PTH
FMAT,2
METRIC
T1C30.000
T2C40.000
T3C60.000
T4C100.000
T5C190.000
T6C450.000
%
G90
G05
T1
X1300.0Y-1300.0
X1300.0Y-1900.0
X1300.0Y-2500.0
X1300.0Y-3100.0
X1300.0Y-3700.0
X1300.0Y-4300.0
X1300.0Y-4900.0
X1300.0Y-5500.0
X1300.0Y-6100.0
X1300.0Y-6700.0
X1300.0Y-7300.0
X1300.0Y-7900.0
X1300.0Y-8500.0
X1300.0Y-9100.0
X1300.0Y-9700.0
X1900.0Y-1300.0
X1900.0Y-1900.0
X1900.0Y-2500.0
X1900.0Y-3100.0
X1900.0Y-3700.0
X1900.0Y-4300.0
X1900.0Y-4900.0
X1900.0Y-5500.0
X1900.0Y-6100.0
X1900.0Y-6700.0
X1900.0Y-7300.0
X1900.0Y-7900.0
X1900.0Y-8500.0
X1900.0Y-9100.0
X1900.0Y-9700.0
X2500.0Y-1300.0
X2500.0Y-1900.0
X2500.0Y-2500.0
X2500.0Y-3100.0
X2500.0Y-3700.0
X2500.0Y-4300.0
X2500.0Y-4900.0
X2500.0Y-5500.0
X2500.0Y-6100.0
X2500.0Y-6700.0
X2500.0Y-7300.0
X2500.0Y-7900.0
X2500.0Y-8500.0
X2500.0Y-9100.0
X2500.0Y-9700.0
X3100.0Y-1300.0
X3100.0Y-1900.0
X3100.0Y-2500.0
X3100.0Y-3100.0
X3100.0Y-3700.0
X3100.0Y-4300.0
X3100.0Y-4900.0
X3100.0Y-5500.0
X3100.0Y-6100.0
X3100.0Y-6700.0
X3100.0Y-7300.0
X3100.0Y-7900.0
X3100.0Y-8500.0
X3100.0Y-9100.0
X3100.0Y-9700.0
X3700.0Y-1300.0
X3700.0Y-1900.0
X3700.0Y-2500.0
X3700.0Y-3100.0
X3700.0Y-3700.0
X3700.0Y-4300.0
X3700.0Y-4900.0
X3700.0Y-5500.0
X3700.0Y-6100.0
X3700.0Y-6700.0
X3700.0Y-7300.0
X3700.0Y-7900.0
X3700.0Y-8500.0
X3700.0Y-9100.0
X3700.0Y-9700.0
X4300.0Y-1300.0
X4300.0Y-1900.0
X4300.0Y-2500.0
X4300.0Y-3100.0
X4300.0Y-3700.0
X4300.0Y-4300.0
X4300.0Y-4900.0
X4300.0Y-5500.0
X4300.0Y-6100.0
X4300.0Y-6700.0
X4300.0Y-7300.0
X4300.0Y-7900.0
X4300.0Y-8500.0
X4300.0Y-9100.0
X4300.0Y-9700.0
X4900.0Y-1300.0
X4900.0Y-1900.0
X4900.0Y-2500.0
X4900.0Y-3100.0
X4900.0Y-3700.0
X4900.0Y-4300.0
X4900.0Y-4900.0
X4900.0Y-5500.0
X4900.0Y-6100.0
X4900.0Y-6700.0
X4900.0Y-7300.0
X4900.0Y-7900.0
X4900.0Y-8500.0
X4900.0Y-9100.0
X4900.0Y-9700.0
X5500.0Y-1300.0
X5500.0Y-1900.0
X5500.0Y-2500.0
X5500.0Y-3100.0
X5500.0Y-3700.0
X5500.0Y-4300.0
X5500.0Y-4900.0
X5500.0Y-5500.0
X5500.0Y-6100.0
X5500.0Y-6700.0
X5500.0Y-7300.0
X5500.0Y-7900.0
X5500.0Y-8500.0
X5500.0Y-9100.0
X5500.0Y-9700.0
X6100.0Y-1300.0
X6100.0Y-1900.0
X6100.0Y-2500.0
X6100.0Y-3100.0
X6100.0Y-3700.0
X6100.0Y-4300.0
X6100.0Y-4900.0
X6100.0Y-5500.0
X6100.0Y-6100.0
X6100.0Y-6700.0
X6100.0Y-7300.0
X6100.0Y-7900.0
X6100.0Y-8500.0
X6100.0Y-9100.0
X6100.0Y-9700.0
X6700.0Y-1300.0
X6700.0Y-1900.0
X6700.0Y-2500.0
X6700.0Y-3100.0
X6700.0Y-3700.0
X6700.0Y-4300.0
X6700.0Y-4900.0
X6700.0Y-5500.0
X6700.0Y-6100.0
X6700.0Y-6700.0
X6700.0Y-7300.0
X6700.0Y-7900.0
X6700.0Y-8500.0
X6700.0Y-9100.0
X6700.0Y-9700.0
X7300.0Y-1300.0
X7300.0Y-1900.0
X7300.0Y-2500.0
X7300.0Y-3100.0
X7300.0Y-3700.0
X7300.0Y-4300.0
X7300.0Y-4900.0
X7300.0Y-5500.0
X7300.0Y-6100.0
X7300.0Y-6700.0
X7300.0Y-7300.0
X7300.0Y-7900.0
X7300.0Y-8500.0
X7300.0Y-9100.0
X7300.0Y-9700.0
X7900.0Y-1300.0
X7900.0Y-1900.0
X7900.0Y-2500.0
X7900.0Y-3100.0
X7900.0Y-3700.0
X7900.0Y-4300.0
X7900.0Y-4900.0
X7900.0Y-5500.0
X7900.0Y-6100.0
X7900.0Y-6700.0
X7900.0Y-7300.0
X7900.0Y-7900.0
X7900.0Y-8500.0
X7900.0Y-9100.0
X7900.0Y-9700.0
X8500.0Y-1300.0
X8500.0Y-1900.0
X8500.0Y-2500.0
X8500.0Y-3100.0
X8500.0Y-3700.0
X8500.0Y-4300.0
X8500.0Y-4900.0
X8500.0Y-5500.0
X8500.0Y-6100.0
X8500.0Y-6700.0
X8500.0Y-7300.0
X8500.0Y-7900.0
X8500.0Y-8500.0
X8500.0Y-9100.0
X8500.0Y-9700.0
X9100.0Y-1300.0
X9100.0Y-1900.0
X9100.0Y-2500.0
X9100.0Y-3100.0
X9100.0Y-3700.0
X9100.0Y-4300.0
X9100.0Y-4900.0
X9100.0Y-5500.0
X9100.0Y-6100.0
X9100.0Y-6700.0
X9100.0Y-7300.0
X9100.0Y-7900.0
X9100.0Y-8500.0
X9100.0Y-9100.0
X9100.0Y-9700.0
X9700.0Y-1300.0
X9700.0Y-1900.0
X9700.0Y-2500.0
X9700.0Y-3100.0
X9700.0Y-3700.0
X9700.0Y-4300.0
X9700.0Y-4900.0
X9700.0Y-5500.0
X9700.0Y-6100.0
X9700.0Y-6700.0
X9700.0Y-7300.0
X9700.0Y-7900.0
X9700.0Y-8500.0
X9700.0Y-9100.0
X9700.0Y-9700.0
X10300.0Y-1300.0
X10300.0Y-1900.0
X10300.0Y-2500.0
X10300.0Y-3100.0
X10300.0Y-3700.0
X10300.0Y-4300.0
X10300.0Y-4900.0
X10300.0Y-5500.0
X10300.0Y-6100.0
X10300.0Y-6700.0
X10300.0Y-7300.0
X10300.0Y-7900.0
X10300.0Y-8500.0
X10300.0Y-9100.0
X10300.0Y-9700.0
X10900.0Y-1300.0
X10900.0Y-1900.0
X10900.0Y-2500.0
X10900.0Y-3100.0
X10900.0Y-3700.0
X10900.0Y-4300.0
X10900.0Y-4900.0
X10900.0Y-5500.0
X10900.0Y-6100.0
X10900.0Y-6700.0
X10900.0Y-7300.0
X10900.0Y-7900.0
X10900.0Y-8500.0
X10900.0Y-9100.0
X10900.0Y-9700.0
X11500.0Y-1300.0
X11500.0Y-1900.0
X11500.0Y-2500.0
X11500.0Y-3100.0
X11500.0Y-3700.0
X11500.0Y-4300.0
X11500.0Y-4900.0
X11500.0Y-5500.0
X11500.0Y-6100.0
X11500.0Y-6700.0
X11500.0Y-7300.0
X11500.0Y-7900.0
X11500.0Y-8500.0
X11500.0Y-9100.0
X11500.0Y-9700.0
X12100.0Y-1300.0
X12100.0Y-1900.0
X12100.0Y-2500.0
X12100.0Y-3100.0
X12100.0Y-3700.0
X12100.0Y-4300.0
X12100.0Y-4900.0
X12100.0Y-5500.0
X12100.0Y-6100.0
X12100.0Y-6700.0
X12100.0Y-7300.0
X12100.0Y-7900.0
X12100.0Y-8500.0
X12100.0Y-9100.0
X12100.0Y-9700.0
X12700.0Y-1300.0
X12700.0Y-1900.0
X12700.0Y-2500.0
X12700.0Y-3100.0
X12700.0Y-3700.0
X12700.0Y-4300.0
X12700.0Y-4900.0
X12700.0Y-5500.0
X12700.0Y-6100.0
X12700.0Y-6700.0
X12700.0Y-7300.0
X12700.0Y-7900.0
X12700.0Y-8500.0
X12700.0Y-9100.0
X12700.0Y-9700.0
X13300.0Y-1300.0
X13300.0Y-1900.0
X13300.0Y-2500.0
X13300.0Y-3100.0
X13300.0Y-3700.0
X13300.0Y-4300.0
X13300.0Y-4900.0
X13300.0Y-5500.0
X13300.0Y-6100.0
X13300.0Y-6700.0
X13300.0Y-7300.0
X13300.0Y-7900.0
X13300.0Y-8500.0
X13300.0Y-9100.0
X13300.0Y-9700.0
X13900.0Y-1300.0
X13900.0Y-1900.0
X13900.0Y-2500.0
X13900.0Y-3100.0
X13900.0Y-3700.0
X13900.0Y-4300.0
X13900.0Y-4900.0
X13900.0Y-5500.0
X13900.0Y-6100.0
X13900.0Y-6700.0
X13900.0Y-7300.0
X13900.0Y-7900.0
X13900.0Y-8500.0
X13900.0Y-9100.0
X13900.0Y-9700.0
X14500.0Y-1300.0
X14500.0Y-1900.0
X14500.0Y-2500.0
X14500.0Y-3100.0
X14500.0Y-3700.0
X14500.0Y-4300.0
X14500.0Y-4900.0
X14500.0Y-5500.0
X14500.0Y-6100.0
X14500.0Y-6700.0
X14500.0Y-7300.0
X14500.0Y-7900.0
X14500.0Y-8500.0
X14500.0Y-9100.0
X14500.0Y-9700.0
T2
X14605.0Y-1065.0
X14605.0Y-1200.0
X14690.0Y-1065.0
X14690.0Y-1200.0
X14775.0Y-1065.0
X14775.0Y-1200.0
X14860.0Y-1065.0
X14860.0Y-1200.0
X14945.0Y-1065.0
X14945.0Y-1200.0
X15030.0Y-1065.0
X15030.0Y-1200.0
X15115.0Y-1065.0
X15115.0Y-1200.0
X15200.0Y-1065.0
X15200.0Y-1200.0
T4
X3600.0Y-900.0
X3600.0Y-8100.0
X4900.0Y-900.0
X4900.0Y-8100.0
X10800.0Y-900.0
X10800.0Y-8100.0
X12100.0Y-900.0
X12100.0Y-8100.0
T5
X3900.0Y-1400.0
X3900.0Y-8600.0
X4250.0Y-1400.0
X4250.0Y-8600.0
X4600.0Y-1400.0
X4600.0Y-8600.0
X11100.0Y-1400.0
X11100.0Y-8600.0
X11450.0Y-1400.0
X11450.0Y-8600.0
X11800.0Y-1400.0
X11800.0Y-8600.0
T6
X2200.0Y-3780.0
X2200.0Y-4500.0
T3
G00X14470.0Y-804.0
M15
G01X14470.0Y-724.0
M16
G05
G00X14470.0Y-1177.0
M15
G01X14470.0Y-1027.0
M16
G05
G00X15335.0Y-804.0
M15
G01X15335.0Y-724.0
M16
G05
G00X15335.0Y-1177.0
M15
G01X15335.0Y-1027.0
M16
G05
T0
M30
