M48
; DRILL file {KiCad 5.1.9+dfsg1-1+deb11u1} date Mon Sep 28 08:59:05 2026
; FORMAT={-:-/ absolute / metric / decimal}
; #@! TF.CreationDate,2026-09-28T08:59:05-03:00
; #@! TF.GenerationSoftware,Kicad,Pcbnew,5.1.9+dfsg1-1+deb11u1
; #@! TF.FileFunction,Plated,1,4,PTH
FMAT,2
METRIC
T1C0.300
T2C0.400
T3C0.500
T4C0.600
T5C1.000
T6C1.900
T7C2.000
T8C4.500
%
G90
G05
T1
X14.0Y-22.0
X14.0Y-30.0
X14.0Y-38.0
X14.0Y-46.0
X14.0Y-54.0
X14.0Y-62.0
X14.0Y-70.0
X14.0Y-78.0
X14.0Y-86.0
X14.0Y-94.0
X14.0Y-102.0
X14.0Y-110.0
X14.0Y-134.0
X14.0Y-142.0
X14.0Y-158.0
X22.0Y-14.0
X22.0Y-30.0
X22.0Y-38.0
X22.0Y-54.0
X22.0Y-78.0
X22.0Y-86.0
X22.0Y-118.0
X22.0Y-126.0
X22.0Y-134.0
X22.0Y-142.0
X22.0Y-150.0
X30.0Y-14.0
X30.0Y-30.0
X30.0Y-78.0
X30.0Y-86.0
X30.0Y-110.0
X30.0Y-118.0
X30.0Y-126.0
X38.0Y-14.0
X38.0Y-30.0
X38.0Y-78.0
X38.0Y-86.0
X38.0Y-110.0
X38.0Y-126.0
X38.0Y-142.0
X38.0Y-150.0
X38.0Y-158.0
X46.0Y-14.0
X46.0Y-30.0
X46.0Y-38.0
X46.0Y-46.0
X46.0Y-54.0
X46.0Y-62.0
X46.0Y-70.0
X46.0Y-78.0
X46.0Y-86.0
X46.0Y-110.0
X46.0Y-126.0
X46.0Y-134.0
X46.0Y-142.0
X46.0Y-150.0
X46.0Y-158.0
X54.0Y-14.0
X54.0Y-38.0
X54.0Y-46.0
X54.0Y-54.0
X54.0Y-62.0
X54.0Y-70.0
X54.0Y-86.0
X54.0Y-94.0
X54.0Y-102.0
X54.0Y-110.0
X54.0Y-118.0
X54.0Y-126.0
X54.0Y-134.0
X62.0Y-14.0
X62.0Y-22.0
X62.0Y-30.0
X62.0Y-38.0
X62.0Y-46.0
X62.0Y-54.0
X62.0Y-62.0
X62.0Y-70.0
X62.0Y-86.0
X62.0Y-94.0
X62.0Y-110.0
X62.0Y-118.0
X62.0Y-126.0
X62.0Y-134.0
X62.0Y-158.0
X70.0Y-14.0
X70.0Y-22.0
X70.0Y-30.0
X70.0Y-38.0
X70.0Y-54.0
X70.0Y-62.0
X70.0Y-70.0
X70.0Y-94.0
X70.0Y-110.0
X70.0Y-118.0
X70.0Y-126.0
X70.0Y-142.0
X70.0Y-150.0
X70.0Y-158.0
X78.0Y-22.0
X78.0Y-30.0
X78.0Y-38.0
X78.0Y-62.0
X78.0Y-70.0
X78.0Y-78.0
X78.0Y-94.0
X78.0Y-102.0
X78.0Y-110.0
X78.0Y-118.0
X78.0Y-126.0
X78.0Y-150.0
X86.0Y-102.0
X86.0Y-110.0
X86.0Y-118.0
X86.0Y-134.0
X86.0Y-142.0
X86.0Y-150.0
X94.0Y-14.0
X94.0Y-22.0
X94.0Y-78.0
X94.0Y-110.0
X94.0Y-158.0
X102.0Y-14.0
X102.0Y-22.0
X102.0Y-54.0
X102.0Y-62.0
X102.0Y-78.0
X102.0Y-102.0
X102.0Y-110.0
X102.0Y-142.0
X102.0Y-150.0
X102.0Y-158.0
X110.0Y-22.0
X110.0Y-30.0
X110.0Y-38.0
X110.0Y-54.0
X110.0Y-62.0
X110.0Y-70.0
X110.0Y-94.0
X110.0Y-102.0
X110.0Y-110.0
X110.0Y-118.0
X110.0Y-126.0
X110.0Y-142.0
X110.0Y-150.0
X110.0Y-158.0
X118.0Y-134.0
X118.0Y-150.0
X126.0Y-102.0
X126.0Y-110.0
X126.0Y-118.0
X126.0Y-134.0
X126.0Y-142.0
X126.0Y-150.0
X126.0Y-158.0
X134.0Y-14.0
X134.0Y-22.0
X134.0Y-30.0
X134.0Y-54.0
X134.0Y-62.0
X134.0Y-70.0
X134.0Y-78.0
X134.0Y-86.0
X134.0Y-102.0
X134.0Y-110.0
X134.0Y-118.0
X134.0Y-142.0
X134.0Y-150.0
X134.0Y-158.0
X142.0Y-14.0
X142.0Y-22.0
X142.0Y-30.0
X142.0Y-38.0
X142.0Y-54.0
X142.0Y-62.0
X142.0Y-70.0
X142.0Y-86.0
X142.0Y-102.0
X142.0Y-110.0
X142.0Y-118.0
X142.0Y-126.0
X142.0Y-142.0
X142.0Y-150.0
X142.0Y-158.0
X150.0Y-22.0
X150.0Y-30.0
X150.0Y-46.0
X150.0Y-54.0
X150.0Y-62.0
X150.0Y-70.0
X150.0Y-86.0
X150.0Y-94.0
X150.0Y-102.0
X150.0Y-110.0
X150.0Y-118.0
X150.0Y-134.0
X150.0Y-142.0
X150.0Y-150.0
X158.0Y-134.0
X158.0Y-142.0
X158.0Y-150.0
X166.0Y-78.0
X166.0Y-102.0
X166.0Y-110.0
X166.0Y-158.0
X174.0Y-14.0
X174.0Y-22.0
X174.0Y-54.0
X174.0Y-62.0
X174.0Y-78.0
X174.0Y-102.0
X174.0Y-110.0
X174.0Y-142.0
X174.0Y-150.0
X174.0Y-158.0
X182.0Y-14.0
X182.0Y-22.0
X182.0Y-30.0
X182.0Y-38.0
X182.0Y-46.0
X182.0Y-54.0
X182.0Y-62.0
X182.0Y-70.0
X182.0Y-78.0
X182.0Y-86.0
X182.0Y-94.0
X182.0Y-102.0
X182.0Y-110.0
X182.0Y-118.0
X182.0Y-126.0
X182.0Y-134.0
X182.0Y-142.0
X182.0Y-150.0
X182.0Y-158.0
X190.0Y-22.0
X190.0Y-30.0
X190.0Y-38.0
X190.0Y-62.0
X190.0Y-70.0
X190.0Y-94.0
X190.0Y-102.0
X190.0Y-110.0
X190.0Y-118.0
X190.0Y-126.0
X190.0Y-150.0
X198.0Y-134.0
X198.0Y-142.0
X198.0Y-150.0
X206.0Y-14.0
X206.0Y-78.0
X206.0Y-102.0
X206.0Y-110.0
X206.0Y-158.0
X214.0Y-14.0
X214.0Y-22.0
X214.0Y-46.0
X214.0Y-54.0
X214.0Y-62.0
X214.0Y-94.0
X214.0Y-102.0
X214.0Y-110.0
X214.0Y-134.0
X214.0Y-142.0
X214.0Y-150.0
X214.0Y-158.0
X222.0Y-14.0
X222.0Y-22.0
X222.0Y-30.0
X222.0Y-38.0
X222.0Y-46.0
X222.0Y-54.0
X222.0Y-62.0
X222.0Y-70.0
X222.0Y-78.0
X222.0Y-86.0
X222.0Y-94.0
X222.0Y-102.0
X222.0Y-110.0
X222.0Y-118.0
X222.0Y-126.0
X222.0Y-134.0
X222.0Y-142.0
X222.0Y-150.0
X222.0Y-158.0
T2
X30.05Y-22.65
X30.05Y-24.0
X30.9Y-22.65
X30.9Y-24.0
X31.75Y-22.65
X31.75Y-24.0
X32.6Y-22.65
X32.6Y-24.0
X33.45Y-22.65
X33.45Y-24.0
X34.3Y-22.65
X34.3Y-24.0
X35.15Y-22.65
X35.15Y-24.0
X36.0Y-22.65
X36.0Y-24.0
T3
X92.0Y-26.0
X92.0Y-63.0
X92.0Y-70.0
X92.0Y-107.0
X92.0Y-114.0
X92.0Y-151.0
X130.0Y-26.0
X130.0Y-63.0
X130.0Y-70.0
X130.0Y-107.0
X130.0Y-114.0
X130.0Y-151.0
X168.0Y-26.0
X168.0Y-63.0
X168.0Y-70.0
X168.0Y-107.0
X168.0Y-114.0
X168.0Y-151.0
X206.0Y-26.0
X206.0Y-63.0
X206.0Y-70.0
X206.0Y-107.0
X206.0Y-114.0
X206.0Y-151.0
T4
X44.0Y-106.0
X44.0Y-108.0
X44.0Y-110.0
X46.0Y-106.0
X46.0Y-108.0
X46.0Y-110.0
X48.0Y-106.0
X48.0Y-108.0
X48.0Y-110.0
X92.0Y-40.0
X92.0Y-42.5
X92.0Y-45.0
X92.0Y-84.0
X92.0Y-86.5
X92.0Y-89.0
X92.0Y-128.0
X92.0Y-130.5
X92.0Y-133.0
X130.0Y-40.0
X130.0Y-42.5
X130.0Y-45.0
X130.0Y-84.0
X130.0Y-86.5
X130.0Y-89.0
X130.0Y-128.0
X130.0Y-130.5
X130.0Y-133.0
X168.0Y-40.0
X168.0Y-42.5
X168.0Y-45.0
X168.0Y-84.0
X168.0Y-86.5
X168.0Y-89.0
X168.0Y-128.0
X168.0Y-130.5
X168.0Y-133.0
X206.0Y-40.0
X206.0Y-42.5
X206.0Y-45.0
X206.0Y-84.0
X206.0Y-86.5
X206.0Y-89.0
X206.0Y-128.0
X206.0Y-130.5
X206.0Y-133.0
T5
X70.0Y-9.0
X83.0Y-9.0
X108.0Y-9.0
X121.0Y-9.0
X146.0Y-9.0
X159.0Y-9.0
X184.0Y-9.0
X197.0Y-9.0
T6
X73.0Y-14.0
X76.5Y-14.0
X80.0Y-14.0
X111.0Y-14.0
X114.5Y-14.0
X118.0Y-14.0
X149.0Y-14.0
X152.5Y-14.0
X156.0Y-14.0
X187.0Y-14.0
X190.5Y-14.0
X194.0Y-14.0
T8
X30.0Y-136.0
X37.2Y-136.0
T4
X28.7Y-20.04G85X28.7Y-19.24
G05
X28.7Y-23.77G85X28.7Y-22.27
G05
X37.35Y-20.04G85X37.35Y-19.24
G05
X37.35Y-23.77G85X37.35Y-22.27
G05
T7
X16.0Y-118.75G85X16.0Y-117.25
G05
X16.0Y-126.75G85X16.0Y-125.25
G05
T0
M30
